<svg viewBox="0 0 533 363" width="533" height="363" xmlns="http://www.w3.org/2000/svg" xmlns:xlink="http://www.w3.org/1999/xlink"><defs><linearGradient x1="49.994%" y1="97.882%" x2="49.994%" y2="1.307%" id="a"><stop stop-color="#5DBAFF" offset="0%"/><stop stop-color="#5CCEFF" offset="77.14%"/><stop stop-color="#97DFFF" offset="99.71%"/></linearGradient><linearGradient x1="49.339%" y1="38.665%" x2="50.62%" y2="130.368%" id="b"><stop stop-color="#EFF4FA" offset="0%"/><stop stop-color="#5DBAFF" stop-opacity="0" offset="100%"/></linearGradient><linearGradient x1="37.931%" y1="44.988%" x2="60.361%" y2="147.452%" id="c"><stop stop-color="#48AAFF" stop-opacity="0" offset="0%"/><stop stop-color="#6FD6B9" offset="100%"/></linearGradient><linearGradient x1="50.007%" y1=".625%" x2="50.007%" y2="96.883%" id="d"><stop stop-color="#3B87E6" offset="0%"/><stop stop-color="#389CF9" offset="100%"/></linearGradient><linearGradient x1="50.001%" y1="3.338%" x2="50.001%" y2="106.107%" id="e"><stop stop-color="#3B87E6" offset="0%"/><stop stop-color="#389CF9" offset="100%"/></linearGradient><linearGradient x1="50.051%" y1="97.266%" x2="50.051%" y2="2.292%" id="f"><stop stop-color="#004FDB" offset="0%"/><stop stop-color="#F993A0" offset="100%"/></linearGradient><linearGradient x1="49.892%" y1="97.293%" x2="49.892%" y2=".025%" id="g"><stop stop-color="#1B5DD5" offset="0%"/><stop stop-color="#F993A0" offset="100%"/></linearGradient><linearGradient x1="49.959%" y1="1.132%" x2="49.959%" y2="97.295%" id="h"><stop stop-color="#2160D2" offset="0%"/><stop stop-color="#3494F4" offset="100%"/></linearGradient><linearGradient x1="50.025%" y1="110.709%" x2="50.025%" y2="1.426%" id="i"><stop stop-color="#ACCDEB" offset="0%"/><stop stop-color="#FFF" offset="100%"/></linearGradient><linearGradient x1=".024%" y1="50.164%" x2="99.978%" y2="50.164%" id="j"><stop stop-color="#CAE5FF" offset="0%"/><stop stop-color="#FFF" offset="100%"/></linearGradient><linearGradient x1="53.292%" y1="120.957%" x2="48.485%" y2="15.739%" id="k"><stop stop-color="#FCFCFC" stop-opacity="0" offset="0%"/><stop stop-color="#FCFCFC" offset="100%"/></linearGradient><linearGradient x1="49.65%" y1="102.39%" x2="49.65%" y2="-82.252%" id="l"><stop stop-color="#031B7F" offset="0%"/><stop stop-color="#0080FC" offset="100%"/></linearGradient><linearGradient x1="49.704%" y1="102.39%" x2="49.704%" y2="-82.252%" id="m"><stop stop-color="#031B7F" offset="0%"/><stop stop-color="#0080FC" offset="100%"/></linearGradient><linearGradient x1="49.659%" y1="102.39%" x2="49.659%" y2="-82.252%" id="n"><stop stop-color="#031B7F" offset="0%"/><stop stop-color="#0080FC" offset="100%"/></linearGradient><linearGradient x1="49.94%" y1="82.555%" x2="49.94%" y2="-75.005%" id="o"><stop stop-color="#011677" offset="0%"/><stop stop-color="#0626B4" stop-opacity=".4" offset="100%"/></linearGradient><linearGradient x1="129.979%" y1="43.545%" x2="67.455%" y2="48.903%" id="p"><stop stop-color="#D2D2D2" offset="0%"/><stop stop-color="#FFF" offset="100%"/></linearGradient><linearGradient x1="58.454%" y1="94.965%" x2="46.808%" y2="18.767%" id="q"><stop stop-color="#9EBDD9" offset="0%"/><stop stop-color="#FFF" offset="100%"/></linearGradient><linearGradient x1="14.559%" y1="101.354%" x2="104.683%" y2="-41.491%" id="r"><stop stop-color="#011677" offset="0%"/><stop stop-color="#0626B4" stop-opacity=".4" offset="100%"/></linearGradient><linearGradient x1="49.419%" y1="99.929%" x2="49.419%" y2="3.242%" id="s"><stop stop-color="#878986" offset="0%"/><stop stop-color="#FCFCFC" offset="100%"/></linearGradient><linearGradient x1="49.331%" y1="99.929%" x2="49.331%" y2="3.242%" id="t"><stop stop-color="#878986" offset="0%"/><stop stop-color="#FCFCFC" offset="100%"/></linearGradient><linearGradient x1="49.313%" y1="99.929%" x2="49.313%" y2="3.242%" id="u"><stop stop-color="#878986" offset="0%"/><stop stop-color="#FCFCFC" offset="100%"/></linearGradient><linearGradient x1="89.598%" y1="99.138%" x2="29.604%" y2="33.565%" id="v"><stop stop-color="#FCFCFC" stop-opacity="0" offset="0%"/><stop stop-color="#FCFCFC" offset="100%"/></linearGradient><linearGradient x1="134.235%" y1="110.151%" x2="-43.38%" y2="-25.961%" id="w"><stop stop-color="#D2D2D2" offset="0%"/><stop stop-color="#FFF" offset="100%"/></linearGradient><linearGradient x1="49.991%" y1="1.085%" x2="49.991%" y2="97.249%" id="x"><stop stop-color="#3B87E6" offset="0%"/><stop stop-color="#389CF9" offset="100%"/></linearGradient><linearGradient x1="49.683%" y1="96.997%" x2="49.683%" y2="2.023%" id="y"><stop stop-color="#004FDB" offset="0%"/><stop stop-color="#F993A0" offset="100%"/></linearGradient><linearGradient x1="49.978%" y1="97.304%" x2="49.978%" y2=".163%" id="z"><stop stop-color="#1C5ED7" offset="0%"/><stop stop-color="#F993A0" offset="100%"/></linearGradient><linearGradient x1="49.581%" y1="97.179%" x2="49.581%" y2="2.127%" id="A"><stop stop-color="#004FDB" offset="0%"/><stop stop-color="#F993A0" offset="100%"/></linearGradient><linearGradient x1="49.969%" y1="97.237%" x2="49.969%" y2=".077%" id="B"><stop stop-color="#3685E9" offset="0%"/><stop stop-color="#F993A0" offset="100%"/></linearGradient><linearGradient x1="-.618%" y1="50.751%" x2="101.097%" y2="50.751%" id="C"><stop stop-color="#004FDB" offset="0%"/><stop stop-color="#F993A0" offset="100%"/></linearGradient><linearGradient x1=".709%" y1="50.751%" x2="99.52%" y2="50.751%" id="D"><stop stop-color="#004FDB" offset="0%"/><stop stop-color="#F993A0" offset="100%"/></linearGradient><linearGradient x1="99.76%" y1="49.622%" x2=".949%" y2="49.622%" id="E"><stop stop-color="#004FDB" offset="0%"/><stop stop-color="#F993A0" offset="100%"/></linearGradient><linearGradient x1="50.057%" y1="-19.145%" x2="50.057%" y2="162.579%" id="F"><stop stop-color="#EFF4FA" offset="0%"/><stop stop-color="#5DBAFF" stop-opacity="0" offset="100%"/></linearGradient><linearGradient x1="50.899%" y1="-.553%" x2="50.899%" y2="99.927%" id="G"><stop stop-color="#0B2BAE" offset="0%"/><stop stop-color="#0B5CD8" offset="100%"/></linearGradient><linearGradient x1="50.194%" y1="-13.642%" x2="50.194%" y2="99.98%" id="H"><stop stop-color="#0B2BAE" offset="0%"/><stop stop-color="#0B5CD8" offset="100%"/></linearGradient><linearGradient x1="50.036%" y1="-3.577%" x2="50.036%" y2="102.468%" id="I"><stop stop-color="#0B2BAE" offset="0%"/><stop stop-color="#0B5CD8" offset="100%"/></linearGradient><linearGradient x1="50.307%" y1="-3.01%" x2="50.307%" y2="103.158%" id="J"><stop stop-color="#0B2BAE" offset="0%"/><stop stop-color="#0B5CD8" offset="100%"/></linearGradient><linearGradient x1="50.125%" y1="-3.01%" x2="50.125%" y2="103.158%" id="K"><stop stop-color="#0B2BAE" offset="0%"/><stop stop-color="#0B5CD8" offset="100%"/></linearGradient><linearGradient x1="49.942%" y1="-3.01%" x2="49.942%" y2="103.158%" id="L"><stop stop-color="#0B2BAE" offset="0%"/><stop stop-color="#0B5CD8" offset="100%"/></linearGradient><linearGradient x1="50.041%" y1="-3.439%" x2="50.041%" y2="102.729%" id="M"><stop stop-color="#0B2BAE" offset="0%"/><stop stop-color="#0B5CD8" offset="100%"/></linearGradient><linearGradient x1="50.446%" y1="-3.439%" x2="50.446%" y2="102.729%" id="N"><stop stop-color="#0B2BAE" offset="0%"/><stop stop-color="#0B5CD8" offset="100%"/></linearGradient><linearGradient x1="49.858%" y1="-3.439%" x2="49.858%" y2="102.729%" id="O"><stop stop-color="#0B2BAE" offset="0%"/><stop stop-color="#0B5CD8" offset="100%"/></linearGradient><linearGradient x1="50.246%" y1="-3.439%" x2="50.246%" y2="102.729%" id="P"><stop stop-color="#0B2BAE" offset="0%"/><stop stop-color="#0B5CD8" offset="100%"/></linearGradient><linearGradient x1="50.307%" y1="-3.87%" x2="50.307%" y2="102.299%" id="Q"><stop stop-color="#0B2BAE" offset="0%"/><stop stop-color="#0B5CD8" offset="100%"/></linearGradient><linearGradient x1="50.125%" y1="-3.87%" x2="50.125%" y2="102.299%" id="R"><stop stop-color="#0B2BAE" offset="0%"/><stop stop-color="#0B5CD8" offset="100%"/></linearGradient><linearGradient x1="49.942%" y1="-3.87%" x2="49.942%" y2="102.299%" id="S"><stop stop-color="#0B2BAE" offset="0%"/><stop stop-color="#0B5CD8" offset="100%"/></linearGradient><linearGradient x1="50.041%" y1="-3.11%" x2="50.041%" y2="103.058%" id="T"><stop stop-color="#0B2BAE" offset="0%"/><stop stop-color="#0B5CD8" offset="100%"/></linearGradient><linearGradient x1="50.446%" y1="-3.11%" x2="50.446%" y2="103.058%" id="U"><stop stop-color="#0B2BAE" offset="0%"/><stop stop-color="#0B5CD8" offset="100%"/></linearGradient><linearGradient x1="49.858%" y1="-3.11%" x2="49.858%" y2="103.058%" id="V"><stop stop-color="#0B2BAE" offset="0%"/><stop stop-color="#0B5CD8" offset="100%"/></linearGradient><linearGradient x1="50.246%" y1="-3.11%" x2="50.246%" y2="103.058%" id="W"><stop stop-color="#0B2BAE" offset="0%"/><stop stop-color="#0B5CD8" offset="100%"/></linearGradient><linearGradient x1="50.307%" y1="-3.539%" x2="50.307%" y2="102.629%" id="X"><stop stop-color="#0B2BAE" offset="0%"/><stop stop-color="#0B5CD8" offset="100%"/></linearGradient><linearGradient x1="50.125%" y1="-3.539%" x2="50.125%" y2="102.629%" id="Y"><stop stop-color="#0B2BAE" offset="0%"/><stop stop-color="#0B5CD8" offset="100%"/></linearGradient><linearGradient x1="49.942%" y1="-3.539%" x2="49.942%" y2="102.629%" id="Z"><stop stop-color="#0B2BAE" offset="0%"/><stop stop-color="#0B5CD8" offset="100%"/></linearGradient><linearGradient x1="50.041%" y1="-3.969%" x2="50.041%" y2="102.199%" id="aa"><stop stop-color="#0B2BAE" offset="0%"/><stop stop-color="#0B5CD8" offset="100%"/></linearGradient><linearGradient x1="50.446%" y1="-3.969%" x2="50.446%" y2="102.199%" id="ab"><stop stop-color="#0B2BAE" offset="0%"/><stop stop-color="#0B5CD8" offset="100%"/></linearGradient><linearGradient x1="49.858%" y1="-3.969%" x2="49.858%" y2="102.199%" id="ac"><stop stop-color="#0B2BAE" offset="0%"/><stop stop-color="#0B5CD8" offset="100%"/></linearGradient><linearGradient x1="50.246%" y1="-3.969%" x2="50.246%" y2="102.199%" id="ad"><stop stop-color="#0B2BAE" offset="0%"/><stop stop-color="#0B5CD8" offset="100%"/></linearGradient><linearGradient x1="50.307%" y1="-3.21%" x2="50.307%" y2="102.96%" id="ae"><stop stop-color="#0B2BAE" offset="0%"/><stop stop-color="#0B5CD8" offset="100%"/></linearGradient><linearGradient x1="50.125%" y1="-3.21%" x2="50.125%" y2="102.96%" id="af"><stop stop-color="#0B2BAE" offset="0%"/><stop stop-color="#0B5CD8" offset="100%"/></linearGradient><linearGradient x1="49.942%" y1="-3.21%" x2="49.942%" y2="102.96%" id="ag"><stop stop-color="#0B2BAE" offset="0%"/><stop stop-color="#0B5CD8" offset="100%"/></linearGradient><linearGradient x1="50.041%" y1="-3.639%" x2="50.041%" y2="102.529%" id="ah"><stop stop-color="#0B2BAE" offset="0%"/><stop stop-color="#0B5CD8" offset="100%"/></linearGradient><linearGradient x1="50.446%" y1="-3.639%" x2="50.446%" y2="102.529%" id="ai"><stop stop-color="#0B2BAE" offset="0%"/><stop stop-color="#0B5CD8" offset="100%"/></linearGradient><linearGradient x1="49.858%" y1="-3.639%" x2="49.858%" y2="102.529%" id="aj"><stop stop-color="#0B2BAE" offset="0%"/><stop stop-color="#0B5CD8" offset="100%"/></linearGradient><linearGradient x1="50.246%" y1="-3.639%" x2="50.246%" y2="102.529%" id="ak"><stop stop-color="#0B2BAE" offset="0%"/><stop stop-color="#0B5CD8" offset="100%"/></linearGradient><linearGradient x1="50.307%" y1="-4.069%" x2="50.307%" y2="102.099%" id="al"><stop stop-color="#0B2BAE" offset="0%"/><stop stop-color="#0B5CD8" offset="100%"/></linearGradient><linearGradient x1="50.125%" y1="-4.069%" x2="50.125%" y2="102.099%" id="am"><stop stop-color="#0B2BAE" offset="0%"/><stop stop-color="#0B5CD8" offset="100%"/></linearGradient><linearGradient x1="49.942%" y1="-4.069%" x2="49.942%" y2="102.099%" id="an"><stop stop-color="#0B2BAE" offset="0%"/><stop stop-color="#0B5CD8" offset="100%"/></linearGradient><linearGradient x1="49.963%" y1="-3.577%" x2="49.963%" y2="102.468%" id="ao"><stop stop-color="#0B2BAE" offset="0%"/><stop stop-color="#0B5CD8" offset="100%"/></linearGradient><linearGradient x1="50.056%" y1="-3.01%" x2="50.056%" y2="103.158%" id="ap"><stop stop-color="#0B2BAE" offset="0%"/><stop stop-color="#0B5CD8" offset="100%"/></linearGradient><linearGradient x1="49.873%" y1="-3.01%" x2="49.873%" y2="103.158%" id="aq"><stop stop-color="#0B2BAE" offset="0%"/><stop stop-color="#0B5CD8" offset="100%"/></linearGradient><linearGradient x1="50.37%" y1="-3.01%" x2="50.37%" y2="103.158%" id="ar"><stop stop-color="#0B2BAE" offset="0%"/><stop stop-color="#0B5CD8" offset="100%"/></linearGradient><linearGradient x1="49.789%" y1="-3.439%" x2="49.789%" y2="102.729%" id="as"><stop stop-color="#0B2BAE" offset="0%"/><stop stop-color="#0B5CD8" offset="100%"/></linearGradient><linearGradient x1="50.006%" y1="-3.439%" x2="50.006%" y2="102.729%" id="at"><stop stop-color="#0B2BAE" offset="0%"/><stop stop-color="#0B5CD8" offset="100%"/></linearGradient><linearGradient x1="50.286%" y1="-3.439%" x2="50.286%" y2="102.729%" id="au"><stop stop-color="#0B2BAE" offset="0%"/><stop stop-color="#0B5CD8" offset="100%"/></linearGradient><linearGradient x1="49.857%" y1="-3.439%" x2="49.857%" y2="102.729%" id="av"><stop stop-color="#0B2BAE" offset="0%"/><stop stop-color="#0B5CD8" offset="100%"/></linearGradient><linearGradient x1="50.056%" y1="-3.87%" x2="50.056%" y2="102.299%" id="aw"><stop stop-color="#0B2BAE" offset="0%"/><stop stop-color="#0B5CD8" offset="100%"/></linearGradient><linearGradient x1="49.873%" y1="-3.87%" x2="49.873%" y2="102.299%" id="ax"><stop stop-color="#0B2BAE" offset="0%"/><stop stop-color="#0B5CD8" offset="100%"/></linearGradient><linearGradient x1="50.37%" y1="-3.87%" x2="50.37%" y2="102.299%" id="ay"><stop stop-color="#0B2BAE" offset="0%"/><stop stop-color="#0B5CD8" offset="100%"/></linearGradient><linearGradient x1="49.789%" y1="-3.11%" x2="49.789%" y2="103.058%" id="az"><stop stop-color="#0B2BAE" offset="0%"/><stop stop-color="#0B5CD8" offset="100%"/></linearGradient><linearGradient x1="50.006%" y1="-3.11%" x2="50.006%" y2="103.058%" id="aA"><stop stop-color="#0B2BAE" offset="0%"/><stop stop-color="#0B5CD8" offset="100%"/></linearGradient><linearGradient x1="50.286%" y1="-3.11%" x2="50.286%" y2="103.058%" id="aB"><stop stop-color="#0B2BAE" offset="0%"/><stop stop-color="#0B5CD8" offset="100%"/></linearGradient><linearGradient x1="49.857%" y1="-3.11%" x2="49.857%" y2="103.058%" id="aC"><stop stop-color="#0B2BAE" offset="0%"/><stop stop-color="#0B5CD8" offset="100%"/></linearGradient><linearGradient x1="50.056%" y1="-3.539%" x2="50.056%" y2="102.629%" id="aD"><stop stop-color="#0B2BAE" offset="0%"/><stop stop-color="#0B5CD8" offset="100%"/></linearGradient><linearGradient x1="49.873%" y1="-3.539%" x2="49.873%" y2="102.629%" id="aE"><stop stop-color="#0B2BAE" offset="0%"/><stop stop-color="#0B5CD8" offset="100%"/></linearGradient><linearGradient x1="50.37%" y1="-3.539%" x2="50.37%" y2="102.629%" id="aF"><stop stop-color="#0B2BAE" offset="0%"/><stop stop-color="#0B5CD8" offset="100%"/></linearGradient><linearGradient x1="49.789%" y1="-3.969%" x2="49.789%" y2="102.199%" id="aG"><stop stop-color="#0B2BAE" offset="0%"/><stop stop-color="#0B5CD8" offset="100%"/></linearGradient><linearGradient x1="50.006%" y1="-3.969%" x2="50.006%" y2="102.199%" id="aH"><stop stop-color="#0B2BAE" offset="0%"/><stop stop-color="#0B5CD8" offset="100%"/></linearGradient><linearGradient x1="50.286%" y1="-3.969%" x2="50.286%" y2="102.199%" id="aI"><stop stop-color="#0B2BAE" offset="0%"/><stop stop-color="#0B5CD8" offset="100%"/></linearGradient><linearGradient x1="49.857%" y1="-3.969%" x2="49.857%" y2="102.199%" id="aJ"><stop stop-color="#0B2BAE" offset="0%"/><stop stop-color="#0B5CD8" offset="100%"/></linearGradient><linearGradient x1="50.056%" y1="-3.21%" x2="50.056%" y2="102.96%" id="aK"><stop stop-color="#0B2BAE" offset="0%"/><stop stop-color="#0B5CD8" offset="100%"/></linearGradient><linearGradient x1="49.873%" y1="-3.21%" x2="49.873%" y2="102.96%" id="aL"><stop stop-color="#0B2BAE" offset="0%"/><stop stop-color="#0B5CD8" offset="100%"/></linearGradient><linearGradient x1="50.37%" y1="-3.21%" x2="50.37%" y2="102.96%" id="aM"><stop stop-color="#0B2BAE" offset="0%"/><stop stop-color="#0B5CD8" offset="100%"/></linearGradient><linearGradient x1="49.789%" y1="-3.639%" x2="49.789%" y2="102.529%" id="aN"><stop stop-color="#0B2BAE" offset="0%"/><stop stop-color="#0B5CD8" offset="100%"/></linearGradient><linearGradient x1="50.006%" y1="-3.639%" x2="50.006%" y2="102.529%" id="aO"><stop stop-color="#0B2BAE" offset="0%"/><stop stop-color="#0B5CD8" offset="100%"/></linearGradient><linearGradient x1="50.286%" y1="-3.639%" x2="50.286%" y2="102.529%" id="aP"><stop stop-color="#0B2BAE" offset="0%"/><stop stop-color="#0B5CD8" offset="100%"/></linearGradient><linearGradient x1="49.857%" y1="-3.639%" x2="49.857%" y2="102.529%" id="aQ"><stop stop-color="#0B2BAE" offset="0%"/><stop stop-color="#0B5CD8" offset="100%"/></linearGradient><linearGradient x1="50.056%" y1="-4.069%" x2="50.056%" y2="102.099%" id="aR"><stop stop-color="#0B2BAE" offset="0%"/><stop stop-color="#0B5CD8" offset="100%"/></linearGradient><linearGradient x1="49.873%" y1="-4.069%" x2="49.873%" y2="102.099%" id="aS"><stop stop-color="#0B2BAE" offset="0%"/><stop stop-color="#0B5CD8" offset="100%"/></linearGradient><linearGradient x1="50.37%" y1="-4.069%" x2="50.37%" y2="102.099%" id="aT"><stop stop-color="#0B2BAE" offset="0%"/><stop stop-color="#0B5CD8" offset="100%"/></linearGradient><linearGradient x1="50.169%" y1="109.226%" x2="50.17%" y2="34.679%" id="aU"><stop stop-color="#348FF2" offset="0%"/><stop stop-color="#F993A0" offset="100%"/></linearGradient><linearGradient x1="50.018%" y1="97.248%" x2="50.018%" y2="2.196%" id="aV"><stop stop-color="#004FDB" offset="0%"/><stop stop-color="#F993A0" offset="100%"/></linearGradient><linearGradient x1="49.811%" y1="97.75%" x2="49.811%" y2=".153%" id="aW"><stop stop-color="#3685E9" offset="0%"/><stop stop-color="#F993A0" offset="100%"/></linearGradient><linearGradient x1=".903%" y1="48.902%" x2="99.711%" y2="48.902%" id="aX"><stop stop-color="#004FDB" offset="0%"/><stop stop-color="#F993A0" offset="100%"/></linearGradient><linearGradient x1="-.665%" y1="48.902%" x2="101.05%" y2="48.902%" id="aY"><stop stop-color="#004FDB" offset="0%"/><stop stop-color="#F993A0" offset="100%"/></linearGradient><linearGradient x1="50.008%" y1="97.103%" x2="50.008%" y2="-.057%" id="aZ"><stop stop-color="#348FF2" offset="0%"/><stop stop-color="#F993A0" offset="100%"/></linearGradient><linearGradient x1="49.998%" y1="1.144%" x2="49.998%" y2="97.307%" id="ba"><stop stop-color="#2160D2" offset="0%"/><stop stop-color="#3494F4" offset="100%"/></linearGradient><linearGradient x1="49.954%" y1="-3.611%" x2="49.954%" y2="102.477%" id="bb"><stop stop-color="#0B2BAE" offset="0%"/><stop stop-color="#0B5CD8" offset="100%"/></linearGradient><linearGradient x1="49.867%" y1="-3.611%" x2="49.867%" y2="102.477%" id="bc"><stop stop-color="#0B2BAE" offset="0%"/><stop stop-color="#0B5CD8" offset="100%"/></linearGradient><linearGradient x1="49.987%" y1="1.599%" x2="49.987%" y2="101.15%" id="bd"><stop stop-color="#0B35B7" stop-opacity=".2" offset="0%"/><stop stop-color="#5DC6FF" stop-opacity="0" offset="100%"/></linearGradient><linearGradient x1="50.016%" y1="1.608%" x2="50.016%" y2="101.189%" id="be"><stop stop-color="#0B35B7" stop-opacity=".2" offset="0%"/><stop stop-color="#5DC6FF" stop-opacity="0" offset="100%"/></linearGradient><linearGradient x1="49.996%" y1="2.526%" x2="49.996%" y2="160.386%" id="bf"><stop stop-color="#5DBAFF" offset="0%"/><stop stop-color="#5DC6FF" stop-opacity="0" offset="100%"/></linearGradient><linearGradient x1="49.93%" y1="1.862%" x2="49.93%" y2="118.245%" id="bg"><stop stop-color="#5DBAFF" offset="0%"/><stop stop-color="#5DC6FF" stop-opacity="0" offset="100%"/></linearGradient><linearGradient x1="49.762%" y1="2.172%" x2="49.762%" y2="137.893%" id="bh"><stop stop-color="#5DBAFF" offset="0%"/><stop stop-color="#5DC6FF" stop-opacity="0" offset="100%"/></linearGradient><linearGradient x1="49.757%" y1="7.706%" x2="49.757%" y2="490.824%" id="bi"><stop stop-color="#5DBAFF" offset="0%"/><stop stop-color="#5DC6FF" stop-opacity="0" offset="100%"/></linearGradient><linearGradient x1="49.905%" y1="2.501%" x2="49.905%" y2="158.873%" id="bj"><stop stop-color="#5DBAFF" offset="0%"/><stop stop-color="#5DC6FF" stop-opacity="0" offset="100%"/></linearGradient><radialGradient cx="49.027%" cy="-160.046%" fx="49.027%" fy="-160.046%" r="250.079%" gradientTransform="matrix(.17456 0 0 1 .405 0)" id="bk"><stop stop-color="#EFF4FA" offset="0%"/><stop stop-color="#EFF4FA" stop-opacity="0" offset="100%"/></radialGradient><radialGradient cx="49.004%" cy="-160.038%" fx="49.004%" fy="-160.038%" r="250.079%" gradientTransform="matrix(.17456 0 0 1 .404 0)" id="bl"><stop stop-color="#EFF4FA" offset="0%"/><stop stop-color="#EFF4FA" stop-opacity="0" offset="100%"/></radialGradient><radialGradient cx="49.02%" cy="-160.008%" fx="49.02%" fy="-160.008%" r="250.079%" gradientTransform="matrix(.17456 0 0 1 .405 0)" id="bm"><stop stop-color="#EFF4FA" offset="0%"/><stop stop-color="#EFF4FA" stop-opacity="0" offset="100%"/></radialGradient><radialGradient cx="49.017%" cy="-159.813%" fx="49.017%" fy="-159.813%" r="250.079%" gradientTransform="matrix(.17456 0 0 1 .405 0)" id="bn"><stop stop-color="#EFF4FA" offset="0%"/><stop stop-color="#EFF4FA" stop-opacity="0" offset="100%"/></radialGradient><radialGradient cx="48.956%" cy="-159.92%" fx="48.956%" fy="-159.92%" r="250.079%" gradientTransform="matrix(.17438 0 0 1 .404 0)" id="bo"><stop stop-color="#EFF4FA" offset="0%"/><stop stop-color="#EFF4FA" stop-opacity="0" offset="100%"/></radialGradient><radialGradient cx="49.004%" cy="-159.961%" fx="49.004%" fy="-159.961%" r="250.079%" gradientTransform="matrix(.17456 0 0 1 .405 0)" id="bp"><stop stop-color="#EFF4FA" offset="0%"/><stop stop-color="#EFF4FA" stop-opacity="0" offset="100%"/></radialGradient><linearGradient x1="49.879%" y1="-3.573%" x2="49.879%" y2="102.385%" id="bq"><stop stop-color="#0B2BAE" offset="0%"/><stop stop-color="#0B5CD8" offset="100%"/></linearGradient><linearGradient x1="50.071%" y1="-3.573%" x2="50.071%" y2="102.385%" id="br"><stop stop-color="#0B2BAE" offset="0%"/><stop stop-color="#0B5CD8" offset="100%"/></linearGradient><linearGradient x1="50.86%" y1="-.553%" x2="50.86%" y2="99.927%" id="bs"><stop stop-color="#0B2BAE" offset="0%"/><stop stop-color="#0B5CD8" offset="100%"/></linearGradient><linearGradient x1="50.008%" y1="-3.577%" x2="50.008%" y2="102.468%" id="bt"><stop stop-color="#0B2BAE" offset="0%"/><stop stop-color="#0B5CD8" offset="100%"/></linearGradient><linearGradient x1="50.21%" y1="-3.01%" x2="50.21%" y2="103.158%" id="bu"><stop stop-color="#0B2BAE" offset="0%"/><stop stop-color="#0B5CD8" offset="100%"/></linearGradient><linearGradient x1="50.027%" y1="-3.01%" x2="50.027%" y2="103.158%" id="bv"><stop stop-color="#0B2BAE" offset="0%"/><stop stop-color="#0B5CD8" offset="100%"/></linearGradient><linearGradient x1="49.844%" y1="-3.01%" x2="49.844%" y2="103.158%" id="bw"><stop stop-color="#0B2BAE" offset="0%"/><stop stop-color="#0B5CD8" offset="100%"/></linearGradient><linearGradient x1="49.943%" y1="-3.439%" x2="49.943%" y2="102.729%" id="bx"><stop stop-color="#0B2BAE" offset="0%"/><stop stop-color="#0B5CD8" offset="100%"/></linearGradient><linearGradient x1="50.275%" y1="-3.439%" x2="50.275%" y2="102.729%" id="by"><stop stop-color="#0B2BAE" offset="0%"/><stop stop-color="#0B5CD8" offset="100%"/></linearGradient><linearGradient x1="49.76%" y1="-3.439%" x2="49.76%" y2="102.729%" id="bz"><stop stop-color="#0B2BAE" offset="0%"/><stop stop-color="#0B5CD8" offset="100%"/></linearGradient><linearGradient x1="50.095%" y1="-3.439%" x2="50.095%" y2="102.729%" id="bA"><stop stop-color="#0B2BAE" offset="0%"/><stop stop-color="#0B5CD8" offset="100%"/></linearGradient><linearGradient x1="50.21%" y1="-3.87%" x2="50.21%" y2="102.299%" id="bB"><stop stop-color="#0B2BAE" offset="0%"/><stop stop-color="#0B5CD8" offset="100%"/></linearGradient><linearGradient x1="50.027%" y1="-3.87%" x2="50.027%" y2="102.299%" id="bC"><stop stop-color="#0B2BAE" offset="0%"/><stop stop-color="#0B5CD8" offset="100%"/></linearGradient><linearGradient x1="49.844%" y1="-3.87%" x2="49.844%" y2="102.299%" id="bD"><stop stop-color="#0B2BAE" offset="0%"/><stop stop-color="#0B5CD8" offset="100%"/></linearGradient><linearGradient x1="49.943%" y1="-3.11%" x2="49.943%" y2="103.058%" id="bE"><stop stop-color="#0B2BAE" offset="0%"/><stop stop-color="#0B5CD8" offset="100%"/></linearGradient><linearGradient x1="50.275%" y1="-3.11%" x2="50.275%" y2="103.058%" id="bF"><stop stop-color="#0B2BAE" offset="0%"/><stop stop-color="#0B5CD8" offset="100%"/></linearGradient><linearGradient x1="49.76%" y1="-3.11%" x2="49.76%" y2="103.058%" id="bG"><stop stop-color="#0B2BAE" offset="0%"/><stop stop-color="#0B5CD8" offset="100%"/></linearGradient><linearGradient x1="50.095%" y1="-3.11%" x2="50.095%" y2="103.058%" id="bH"><stop stop-color="#0B2BAE" offset="0%"/><stop stop-color="#0B5CD8" offset="100%"/></linearGradient><linearGradient x1="50.21%" y1="-3.539%" x2="50.21%" y2="102.629%" id="bI"><stop stop-color="#0B2BAE" offset="0%"/><stop stop-color="#0B5CD8" offset="100%"/></linearGradient><linearGradient x1="50.027%" y1="-3.539%" x2="50.027%" y2="102.629%" id="bJ"><stop stop-color="#0B2BAE" offset="0%"/><stop stop-color="#0B5CD8" offset="100%"/></linearGradient><linearGradient x1="49.844%" y1="-3.539%" x2="49.844%" y2="102.629%" id="bK"><stop stop-color="#0B2BAE" offset="0%"/><stop stop-color="#0B5CD8" offset="100%"/></linearGradient><linearGradient x1="49.943%" y1="-3.969%" x2="49.943%" y2="102.199%" id="bL"><stop stop-color="#0B2BAE" offset="0%"/><stop stop-color="#0B5CD8" offset="100%"/></linearGradient><linearGradient x1="50.275%" y1="-3.969%" x2="50.275%" y2="102.199%" id="bM"><stop stop-color="#0B2BAE" offset="0%"/><stop stop-color="#0B5CD8" offset="100%"/></linearGradient><linearGradient x1="49.76%" y1="-3.969%" x2="49.76%" y2="102.199%" id="bN"><stop stop-color="#0B2BAE" offset="0%"/><stop stop-color="#0B5CD8" offset="100%"/></linearGradient><linearGradient x1="50.095%" y1="-3.969%" x2="50.095%" y2="102.199%" id="bO"><stop stop-color="#0B2BAE" offset="0%"/><stop stop-color="#0B5CD8" offset="100%"/></linearGradient><linearGradient x1="50.21%" y1="-3.21%" x2="50.21%" y2="102.96%" id="bP"><stop stop-color="#0B2BAE" offset="0%"/><stop stop-color="#0B5CD8" offset="100%"/></linearGradient><linearGradient x1="50.027%" y1="-3.21%" x2="50.027%" y2="102.96%" id="bQ"><stop stop-color="#0B2BAE" offset="0%"/><stop stop-color="#0B5CD8" offset="100%"/></linearGradient><linearGradient x1="49.844%" y1="-3.21%" x2="49.844%" y2="102.96%" id="bR"><stop stop-color="#0B2BAE" offset="0%"/><stop stop-color="#0B5CD8" offset="100%"/></linearGradient><linearGradient x1="49.943%" y1="-3.639%" x2="49.943%" y2="102.529%" id="bS"><stop stop-color="#0B2BAE" offset="0%"/><stop stop-color="#0B5CD8" offset="100%"/></linearGradient><linearGradient x1="50.275%" y1="-3.639%" x2="50.275%" y2="102.529%" id="bT"><stop stop-color="#0B2BAE" offset="0%"/><stop stop-color="#0B5CD8" offset="100%"/></linearGradient><linearGradient x1="49.76%" y1="-3.639%" x2="49.76%" y2="102.529%" id="bU"><stop stop-color="#0B2BAE" offset="0%"/><stop stop-color="#0B5CD8" offset="100%"/></linearGradient><linearGradient x1="50.095%" y1="-3.639%" x2="50.095%" y2="102.529%" id="bV"><stop stop-color="#0B2BAE" offset="0%"/><stop stop-color="#0B5CD8" offset="100%"/></linearGradient><linearGradient x1="50.21%" y1="-4.069%" x2="50.21%" y2="102.099%" id="bW"><stop stop-color="#0B2BAE" offset="0%"/><stop stop-color="#0B5CD8" offset="100%"/></linearGradient><linearGradient x1="50.027%" y1="-4.069%" x2="50.027%" y2="102.099%" id="bX"><stop stop-color="#0B2BAE" offset="0%"/><stop stop-color="#0B5CD8" offset="100%"/></linearGradient><linearGradient x1="49.844%" y1="-4.069%" x2="49.844%" y2="102.099%" id="bY"><stop stop-color="#0B2BAE" offset="0%"/><stop stop-color="#0B5CD8" offset="100%"/></linearGradient><linearGradient x1="50.008%" y1="-3.573%" x2="50.008%" y2="102.385%" id="bZ"><stop stop-color="#0B2BAE" offset="0%"/><stop stop-color="#0B5CD8" offset="100%"/></linearGradient><path d="M154.884.549V8.457C153.449 3.97 149.243.712 144.287.712c-1.502 0-2.962.295-4.332.875a10.266 10.266 0 0 0-3.76 2.734 10.3 10.3 0 0 0-3.758-2.734 11.063 11.063 0 0 0-4.33-.875c-4.956 0-9.162 3.258-10.598 7.745V.549h-5.349V8.456C110.724 3.97 106.518.712 101.562.712c-1.501 0-2.959.295-4.33.875-1.481.627-2.75 1.57-3.762 2.734a10.297 10.297 0 0 0-3.756-2.734 11.057 11.057 0 0 0-4.332-.875c-4.954 0-9.16 3.257-10.597 7.743V.549h-5.348V8.455C68.001 3.969 63.795.712 58.84.712c-1.504 0-2.96.295-4.33.875a10.288 10.288 0 0 0-3.762 2.733 10.31 10.31 0 0 0-3.758-2.733 11.063 11.063 0 0 0-4.33-.875c-4.956 0-9.163 3.258-10.598 7.744V.549h-5.348V8.459C25.227 4.065 21.07.887 16.18.887c-1.503 0-2.96.295-4.331.876A10.271 10.271 0 0 0 8.09 4.495a10.26 10.26 0 0 0-3.76-2.732A11.046 11.046 0 0 0 0 .887v1.06c1.36 0 2.677.267 3.918.79a9.266 9.266 0 0 1 3.507 2.608c-1.853 2.621-2.548 6.079-1.653 9.442l.4 1.504a1.938 1.938 0 0 0 1.878 1.45h.013c.887 0 1.641-.572 1.88-1.426l.404-1.443c.23-.821.361-1.648.407-2.468a9.191 9.191 0 0 1 6.503 8.532H5.914v70.215h15.538c10.559-29.865 39.029-51.267 72.51-51.267 33.48 0 61.95 21.402 72.508 51.267h13.31V20.936h-11.352c.034-4.102 2.77-7.57 6.513-8.707.046.82.177 1.647.407 2.469l.404 1.442a1.932 1.932 0 0 0 1.88 1.427h.012a1.934 1.934 0 0 0 1.877-1.451l.4-1.503c.897-3.364.2-6.822-1.65-9.443a9.235 9.235 0 0 1 3.504-2.607 10.01 10.01 0 0 1 3.92-.79V.712c-1.501 0-2.96.294-4.332.874-1.48.627-2.75 1.57-3.76 2.734a10.292 10.292 0 0 0-3.758-2.734 11.065 11.065 0 0 0-4.332-.875c-3.874 0-7.287 1.994-9.281 5.006V.55h-5.348zm5.348 10.43V7.946c1.526-3.624 5.112-6.174 9.281-6.174 1.361 0 2.68.266 3.92.79a9.244 9.244 0 0 1 3.503 2.608c-1.21 1.717-1.909 3.794-1.996 5.966a10.273 10.273 0 0 0-7.046 6.647c-1.146-3.436-4.06-6.07-7.662-6.804zm-21.354.162c-.098-2.174-.803-4.253-2.017-5.97a9.247 9.247 0 0 1 3.506-2.608 10.01 10.01 0 0 1 3.92-.79c5.222 0 9.525 3.998 10.018 9.093a10.26 10.26 0 0 0-8.399 6.917 10.273 10.273 0 0 0-7.028-6.642zm-20.79-.275c.491-5.095 4.796-9.094 10.018-9.094 1.36 0 2.679.266 3.919.79a9.252 9.252 0 0 1 3.503 2.608c-1.212 1.717-1.91 3.794-1.996 5.966a10.27 10.27 0 0 0-7.046 6.647 10.26 10.26 0 0 0-8.398-6.917zm-21.933.276c-.099-2.175-.804-4.254-2.017-5.972a9.255 9.255 0 0 1 3.506-2.607 10.01 10.01 0 0 1 3.918-.79c5.224 0 9.528 3.998 10.02 9.093a10.26 10.26 0 0 0-8.399 6.917 10.265 10.265 0 0 0-7.028-6.641zm-20.791-.276c.492-5.095 4.797-9.094 10.018-9.094 1.36 0 2.68.266 3.92.79a9.24 9.24 0 0 1 3.501 2.608c-1.21 1.717-1.908 3.794-1.995 5.967a10.268 10.268 0 0 0-7.045 6.646c-1.224-3.665-4.462-6.41-8.4-6.917zm-21.933.276c-.097-2.175-.8-4.254-2.015-5.972a9.239 9.239 0 0 1 3.506-2.607 9.998 9.998 0 0 1 3.918-.79c5.222 0 9.526 3.998 10.018 9.093-3.936.507-7.175 3.252-8.398 6.917a10.265 10.265 0 0 0-7.029-6.641zm-20.79-.276c.492-5.095 4.796-9.094 10.019-9.094 1.359 0 2.677.266 3.918.79a9.252 9.252 0 0 1 3.503 2.608c-1.21 1.717-1.909 3.794-1.997 5.966a10.274 10.274 0 0 0-7.045 6.647 10.26 10.26 0 0 0-8.398-6.917zm-21.885.445c-.088-2.173-.787-4.25-1.997-5.966a9.243 9.243 0 0 1 3.502-2.607 10.026 10.026 0 0 1 3.92-.791c5.221 0 9.525 3.998 10.018 9.094a10.256 10.256 0 0 0-8.4 6.917 10.27 10.27 0 0 0-7.043-6.647zm166.848-5.239c1.526 2.333 2.073 5.339 1.293 8.266l-.401 1.505c-.13.486-.529.66-.857.663h-.008c-.327 0-.724-.17-.858-.652l-.405-1.442a10.448 10.448 0 0 1-.372-2.429 9.148 9.148 0 0 1 1.609-.15v-1.06c-.544 0-1.074.054-1.596.137a10.065 10.065 0 0 1 1.595-4.838zm-41.408 0c.93 1.42 1.489 3.09 1.613 4.84a10.096 10.096 0 0 0-1.612-.14c-.544 0-1.074.055-1.596.138a10.065 10.065 0 0 1 1.595-4.838zm-42.725 0a10.17 10.17 0 0 1 1.616 4.84 10.147 10.147 0 0 0-1.615-.14c-.544 0-1.072.055-1.595.138a10.076 10.076 0 0 1 1.594-4.838zm-42.722 0c.93 1.42 1.49 3.09 1.615 4.84a10.144 10.144 0 0 0-1.614-.14c-.544 0-1.075.055-1.595.138a10.065 10.065 0 0 1 1.594-4.838zM7.198 16.017l-.4-1.504c-.781-2.928-.235-5.934 1.293-8.266a10.076 10.076 0 0 1 1.594 4.837 10.154 10.154 0 0 0-1.595-.136v1.06c.55 0 1.086.057 1.61.15-.03.806-.146 1.619-.373 2.428l-.405 1.443c-.134.481-.53.653-.86.653h-.006c-.33-.002-.729-.178-.858-.665zm128.166-.163l-.404-1.442a10.45 10.45 0 0 1-.373-2.429 9.17 9.17 0 0 1 1.61-.15c.558 0 1.102.058 1.632.153-.025.78-.132 1.57-.34 2.352l-.401 1.505c-.13.486-.529.66-.859.663h-.006c-.327 0-.726-.17-.86-.652zm-42.725 0l-.403-1.442a10.45 10.45 0 0 1-.373-2.429 9.157 9.157 0 0 1 1.61-.15c.558 0 1.103.058 1.635.154a10.485 10.485 0 0 1-.342 2.351l-.401 1.505c-.13.486-.53.66-.858.663h-.006c-.329 0-.727-.17-.862-.652zm-42.722 0l-.404-1.442a10.403 10.403 0 0 1-.373-2.429 9.17 9.17 0 0 1 1.61-.15c.557 0 1.102.058 1.633.154a10.367 10.367 0 0 1-.342 2.351l-.4 1.505c-.129.486-.528.66-.858.663-.352-.04-.73-.168-.866-.652zm104.967-3.984V20.936h-8.443c.039-4.779 3.748-8.693 8.443-9.066zm-37.375 8.411V11.87c4.694.373 8.403 4.287 8.443 9.066h-8.443v-.655zm-5.349-8.411V20.936h-8.443c.04-4.779 3.75-8.692 8.443-9.066zM74.785 20.28V11.87c4.694.374 8.404 4.287 8.443 9.066h-8.443v-.655zm-5.348-8.411V20.936h-8.443c.039-4.779 3.749-8.692 8.443-9.066zM32.062 20.28V11.87c4.694.374 8.404 4.287 8.443 9.066h-8.443v-.655zm-5.348-8.233V20.936h-8.371a9.183 9.183 0 0 1 8.37-8.888zm133.518 8.233V12.072c4.054.928 7.093 4.54 7.128 8.864h-7.128v-.655zm-26.7-8.052c.047.82.177 1.647.407 2.469l.404 1.442c.24.854.993 1.427 1.88 1.427h.013a1.934 1.934 0 0 0 1.876-1.451l.4-1.503c.212-.792.327-1.589.368-2.379 3.733 1.144 6.46 4.607 6.492 8.702H127.02c.034-4.102 2.77-7.57 6.512-8.707zm-42.723 0c.046.82.177 1.647.407 2.469l.402 1.442c.241.854.996 1.427 1.882 1.427h.015a1.935 1.935 0 0 0 1.874-1.451l.401-1.503c.211-.792.327-1.589.367-2.379 3.733 1.144 6.459 4.607 6.493 8.702H84.297c.033-4.102 2.77-7.57 6.512-8.707zm-42.723 0c.045.82.177 1.647.406 2.469l.404 1.442c.24.854.994 1.427 1.88 1.427h.014a1.935 1.935 0 0 0 1.876-1.451l.4-1.503a11.43 11.43 0 0 0 .368-2.379c3.731 1.144 6.458 4.607 6.491 8.702H41.573c.033-4.102 2.77-7.57 6.513-8.707z" id="ca"/><linearGradient x1="50%" y1="-3.572%" x2="50%" y2="102.441%" id="cb"><stop stop-color="#0B2AAE" offset="0%"/><stop stop-color="#0B5BD8" offset="100%"/></linearGradient><path d="M.046.798v70.215h15.538c10.558-29.865 39.028-51.267 72.51-51.267 33.48 0 61.948 21.402 72.508 51.267h13.309V.798H.046z" id="cd"/><linearGradient x1="50%" y1="-3.572%" x2="50%" y2="102.441%" id="ce"><stop stop-color="#0B2AAE" offset="0%"/><stop stop-color="#0B5BD8" offset="100%"/></linearGradient><linearGradient x1="49.852%" y1="5.984%" x2="49.852%" y2="25.669%" id="cg"><stop stop-color="#0B2BAE" offset="0%"/><stop stop-color="#0336BF" offset="100%"/></linearGradient><linearGradient x1="50.165%" y1="12.766%" x2="50.165%" y2="57.092%" id="ch"><stop stop-color="#0B2BAE" offset="0%"/><stop stop-color="#0336BF" offset="100%"/></linearGradient><linearGradient x1="49.792%" y1="5.74%" x2="49.792%" y2="24.622%" id="ci"><stop stop-color="#0B2BAE" offset="0%"/><stop stop-color="#0336BF" offset="100%"/></linearGradient><linearGradient x1="49.93%" y1="5.985%" x2="49.93%" y2="25.668%" id="cj"><stop stop-color="#0B2BAE" offset="0%"/><stop stop-color="#0336BF" offset="100%"/></linearGradient><linearGradient x1="49.822%" y1="5.985%" x2="49.822%" y2="25.668%" id="ck"><stop stop-color="#0B2BAE" offset="0%"/><stop stop-color="#0336BF" offset="100%"/></linearGradient><linearGradient x1="49.857%" y1="5.985%" x2="49.857%" y2="25.668%" id="cl"><stop stop-color="#0B2BAE" offset="0%"/><stop stop-color="#0336BF" offset="100%"/></linearGradient><linearGradient x1="49.87%" y1="97.16%" x2="49.87%" y2="1.907%" id="cm"><stop stop-color="#0B2BAE" offset="0%"/><stop stop-color="#0336BF" offset="100%"/></linearGradient><linearGradient x1="50%" y1="-19.257%" x2="50%" y2="163.261%" id="cn"><stop stop-color="#EFF4FA" offset="0%"/><stop stop-color="#5DBAFF" stop-opacity="0" offset="100%"/></linearGradient></defs><g fill="none" fill-rule="evenodd"><path d="M128.313 274.53c0-.106-.106-.106-.106-.211" fill="#5DBAFF" fill-rule="nonzero"/><path d="M519.483 274.53c-143.204 197.697-390.853 0-390.853 0S1.69 177.9 44.25 76.833C79.734-7.547 193.05 42.405 302.988 6.92 413.664-28.88 449.782 84.12 498.573 141.359c-.106 0 54.177 45.517 20.91 133.17" fill="#7ACCFF" fill-rule="nonzero"/><path d="M519.272 274.53a133.831 133.831 0 0 0 6.02-16.158" fill="#5DBAFF" fill-rule="nonzero"/><path d="M519.483 273.474H127.468s96.948 88.393 214.067 88.605c145.738.21 177.948-88.605 177.948-88.605z" fill="url(#a)" fill-rule="nonzero"/><path d="M439.221 80.529s-9.082-15.63-20.065-15.63-17.53 15.63-17.53 15.63-3.275-6.442-9.822-6.442c-6.548 0-11.089 6.442-11.089 6.442l-3.802 6.653s-2.534-4.224-5.808-3.274c-3.274.95-5.07 5.175-5.07 5.175h82.163c.211 0 2.112-8.66-8.977-8.554z" fill="url(#b)" fill-rule="nonzero"/><g opacity=".7" fill-rule="nonzero"><path fill="#48AAFF" d="M284.929 105.875l78.044-58.19 85.542 83.641-25.663 30.204-101.91 15.207-12.78-35.273z"/><path d="M142.57 84.697s2.746-7.604 8.766-9.188c6.02-1.478 10.666 3.485 16.157 2.112 5.492-1.372 4.436-6.02 7.815-8.026 3.38-2.006 6.442-.95 7.499 0 .95.95 15.418 15.102 15.418 15.102H142.57z" fill="url(#c)" transform="translate(250.29 46.523)"/><path fill="url(#d)" d="M109.726 74.559l30.943-1.901 18.059 12.145-106.135.211-52.17-.211L112.682.528 92.935 29.781l33.688.634-15.63 34.64z" transform="translate(250.29 46.523)"/><path fill="#3291F4" d="M313.865 95.103H303.2l5.28-20.805z"/><path fill="#3688EB" d="M343.964 70.813h-10.772l5.386-20.805z"/><path fill="#3688EB" d="M348.61 68.279h-9.399l4.753-18.27z"/><path fill="#48AAFF" d="M404.688 88.766h-6.125l3.062-11.722zM413.453 97.426h-6.125l3.063-11.722z"/></g><path d="M130.214 24.663s-61.992-8.871-86.07 52.17c-29.57 75.192 21.86 127.996 21.86 127.996l462.667-.211C529.833 159.946 461.716 89.4 461.716 89.4s-17.637 39.603-75.932 39.603c-15.63 0-40.659 2.323-60.09-19.22-15.842-17.637-39.709-25.452-63.576-27.247-7.182-.529-14.363-1.162-21.544-2.113l-16.264-2.217c-32.104-4.436-61.886-19.643-84.274-43.088l-9.822-10.455z" fill="url(#e)" fill-rule="nonzero"/><g fill-rule="nonzero"><path fill="#9978BA" d="M404.688 129.425h11.617v29.887h-11.617z"/><path fill="url(#f)" d="M11.828 6.864h14.785v29.887H11.828z" transform="translate(404.477 122.56)"/><path fill="#E95B72" d="M404.688 129.425l6.97-6.02h12.04l-7.393 6.02z"/><path fill="#FA929F" d="M416.305 129.425l7.392-6.02 7.393 6.02z"/><path fill="url(#g)" d="M.211 24.818h59.351v41.504H.211z" transform="translate(404.477 122.56)"/><path fill="#9978BA" d="M404.688 147.379l11.617-8.132 11.828 8.132z"/><path fill="#E95B72" d="M416.305 139.247h35.59l12.039 8.132h-35.801z"/></g><path d="M385.784 186.136h140.141l.95 3.485c1.268 4.647 2.113 9.505 2.535 14.363l.845 9.505-2.746 34.217h-65.476l-87.126-38.653 10.877-22.917z" fill="url(#h)" fill-rule="nonzero"/><g transform="translate(288.308 162.692)" fill-rule="nonzero"><path d="M81.951 2.535C81.846 2.429 78.994.317 70.757.21 62.414.106 28.408.106 28.408.106s-4.54.316-9.293 2.429h62.836z" fill="url(#i)"/><path fill="#011678" d="M27.564 24.923h110.782V38.23H27.564z"/><path d="M5.703 29.359s-.528.845 0 2.112c0 0-.634 2.535-.528 3.802.105 1.267.211 3.802 5.597 3.802h19.115c.317 0 .634-.317.634-.634v-3.274c0-2.64 2.217-4.858 4.858-4.858h2.957c2.64 0 4.857 2.218 4.857 4.858v3.274c0 .317.317.634.634.634H101.7c.317 0 .634-.317.634-.634v-3.274c0-2.64 2.217-4.858 4.858-4.858h2.957c2.64 0 4.858 2.218 4.858 4.858v3.274c0 .317.316.634.633.634h3.063c.317 0 .633-.317.633-.634v-3.274c0-2.64 2.218-4.858 4.858-4.858h2.957c2.64 0 4.858 2.218 4.858 4.858v3.274c0 .317.317.634.634.634h1.9l14.258-2.43c3.274-.527 5.703-3.379 5.703-6.758 0-6.442.105-15.736.105-15.736l-.21-7.603s1.266-2.112.633-3.063c-.423-.74-1.584-.845-6.548-.845L82.057 2.43H19.221c-2.113.95-4.225 2.218-6.126 4.013.106 0-6.02 12.462-7.392 22.917z" fill="url(#j)"/><path d="M47.1 39.075l55.022-.528v-3.38c0-2.64 2.218-4.858 4.858-4.858h2.957c2.64 0 4.858 2.218 4.858 4.858v3.274h4.33v-3.168c0-2.64 2.218-4.858 4.858-4.858h2.957c2.64 0 4.858 2.218 4.858 4.858v3.063l6.548-.106c14.468-9.61 15.947-15.524 16.052-17.003v-.317h-18.376c-50.902-.105-88.921 18.165-88.921 18.165z" fill="url(#k)"/><circle fill="url(#l)" cx="36.857" cy="36.435" r="5.386"/><circle fill="url(#m)" cx="108.564" cy="36.435" r="5.386"/><circle fill="url(#n)" cx="125.673" cy="36.435" r="5.386"/><path d="M16.58 9.821l-7.075 14.68c-.212 1.056.21.95.21.95l31.789-8.554a35.376 35.376 0 0 1 9.399-1.267h91.561c3.274 0 6.231-2.007 7.499-4.964l2.112-4.963H23.234c-2.957 0-5.492 1.584-6.654 4.118z" fill="url(#o)"/><path d="M18.587 5.703l-.423.845L7.604 7.92l-1.056.21c-.634.106-1.162.423-1.584.951l-2.957 4.013c-.212.317-1.373.106-1.373-.21l2.64-4.33C4.119 7.18 5.492 6.335 7.076 6.23l11.51-.528z" fill="url(#p)"/><path d="M9.716 21.966s-1.795 5.28-2.64 5.914c-.845.634-1.268.423-1.268.423s.423-3.696.845-4.33c.528-.634 3.063-2.007 3.063-2.007z" fill="url(#q)"/><path d="M17.108 6.653l-8.66 17.954c-.21.528-.739.95-1.267 1.056l-.845.21S8.554 15.525 12.78 7.288l4.33-.634z" fill="url(#r)"/><circle fill="url(#s)" cx="108.564" cy="36.435" r="2.746"/><circle fill="url(#t)" cx="125.673" cy="36.435" r="2.746"/><circle fill="url(#u)" cx="36.857" cy="36.435" r="2.746"/><path d="M61.358 15.841s24.712-9.716 58.084-9.716-2.429 9.4-2.429 9.4l-55.655.316z" fill="url(#v)" opacity=".2"/><path d="M154.504 20.805l-.106 9.188c-.845 0-1.584-.74-1.478-1.585.105-3.273.422-10.666.739-11.405.422-.95.845-1.796.845-1.796v5.598z" fill="url(#w)"/><path d="M5.914 31.577l4.224-1.056c.212 0 .317.105.317.316-.105.423-.528 1.056-1.162 1.479-.844.528-2.745.211-3.485.105-.105 0-.21-.105-.21-.316l.105-.317c0-.211.105-.211.211-.211z" fill="#FFF"/></g><path fill="url(#x)" fill-rule="nonzero" d="M69.595 129.32h138.346l67.906 61.569H88.077l-22.284-46.045z"/><g fill-rule="nonzero"><path fill="#9978BA" d="M465.623 149.068h11.617v29.887h-11.617z"/><path fill="url(#y)" d="M12.673 6.442h14.785v29.887H12.673z" transform="translate(464.673 142.626)"/><path fill="#E95B72" d="M465.623 149.068l7.076-6.125h12.04l-7.393 6.125z"/><path fill="#FA929F" d="M477.346 149.068l7.392-6.125 7.393 6.125z"/><path d="M53.543 24.29H.95v21.966h59.352V40.66c-2.43-5.492-4.33-10.983-6.759-16.37z" fill="url(#z)" transform="translate(464.673 142.626)"/><path fill="#9978BA" d="M465.623 166.916l11.723-8.132 11.828 8.132z"/><path d="M514.625 160.157c-.105-.106-.105-.211-.211-.317l-1.584-1.056h-35.484l11.828 8.132h29.042a59.346 59.346 0 0 0-3.59-6.759z" fill="#E95B72"/></g><g fill-rule="nonzero"><path fill="#9978BA" d="M116.062 90.456h10.033v25.557h-10.033z"/><path fill="url(#A)" d="M10.983 5.914h12.673v25.557H10.983z" transform="translate(115.112 84.542)"/><path fill="#E95B72" d="M116.063 90.456l6.02-5.175h10.243l-6.23 5.175z"/><path fill="#FA929F" d="M126.095 90.456l6.231-5.175 6.337 5.175z"/><path fill="url(#B)" d="M.95 21.227h50.797v23.55H.95z" transform="translate(115.112 84.542)"/><path fill="#9978BA" d="M116.063 105.77l10.032-6.97 10.139 6.97z"/><path fill="#E95B72" d="M126.095 98.8h30.415l10.35 6.97h-30.626z"/><path fill="url(#C)" d="M30.626 19.537l-1.9-3.38 3.59-1.372v4.647z" transform="translate(115.112 84.542)"/><path fill="url(#D)" d="M38.124 19.537l-1.9-3.38 3.696-1.372v4.647z" transform="translate(115.112 84.542)"/><path fill="#FA929F" d="M149.223 100.594l-1.795-1.267-1.69 1.267v3.485h3.485z"/><path fill="url(#E)" d="M7.076 5.28l1.9-3.38L5.28.529v4.541z" transform="translate(115.112 84.542)"/><path fill="#FA929F" d="M118.703 86.232l1.69-1.162 1.795 1.162v3.59h-3.485zM156.721 100.594l-1.795-1.267-1.69 1.267v3.485h3.485z"/></g><path d="M158.728 135.128s12.673-21.86 28.092-21.86c15.418 0 24.606 21.86 24.606 21.86s4.541-8.977 13.73-8.977c9.187 0 15.523 8.977 15.523 8.977l5.28 9.4s3.591-6.02 8.133-4.542c4.54 1.478 7.075 7.181 7.075 7.181H145.844s-2.64-12.145 12.884-12.039z" fill="url(#F)" fill-rule="nonzero"/><path d="M271.94 107.987v-8.66h-.106l-2.957-11.406-2.957 11.406h.105v8.66h-1.584l-1.584-17.637c0-.844-.634-1.478-1.478-1.478-.845 0-1.479-.634-1.479-1.479v-4.118c0-.845-.634-1.479-1.479-1.479l-4.54-13.623-4.542 13.623c-.845 0-1.478.634-1.478 1.479v4.118c0 .845-.634 1.479-1.479 1.479-.845 0-1.478.634-1.478 1.478l-1.584 17.637h-1.584v-8.66l-2.957-11.406-2.958 11.406v8.66h-3.801v151.019h43.299v-151.02h-3.38zm-24.396 14.785c.211-.845.95-1.584 1.795-1.795.634-.212 1.162-.106 1.69.105l.634-.633c-.106-.317-.212-.634-.212-1.056a2.62 2.62 0 0 1 3.274-2.535c.845.211 1.584.95 1.796 1.795.105.634.105 1.162-.106 1.69.211.211.528.422.634.634.528-.212 1.056-.317 1.69-.106.844.211 1.583.95 1.795 1.795a2.62 2.62 0 0 1-2.535 3.274c-.422 0-.74-.105-1.056-.211l-.634.634c.106.316.212.633.212 1.056a2.62 2.62 0 0 1-3.274 2.534c-.845-.21-1.584-.95-1.796-1.795-.105-.634-.105-1.162.106-1.69l-.634-.633c-.316.105-.633.21-1.056.21-1.478 0-2.746-1.583-2.323-3.273zm15.419 106.241H245.22V146.85c0-4.857 4.013-8.87 8.87-8.87 4.859 0 8.872 4.013 8.872 8.87v82.163z" fill="url(#G)" fill-rule="nonzero"/><path d="M494.665 128.897c-1.267-1.584-3.062-4.118-4.33-5.703-2.112-2.745-3.801-4.54-5.702-7.392-4.753-6.865-11.195-12.884-15.736-18.587l-1.056 10.772h-1.584v-8.66l-1.795-6.97a4.689 4.689 0 0 1-.845-1.162c-.317-.316-.528-.739-.845-1.056l-2.323 9.082v8.66h-3.802V258.9h43.299V136.079c-1.479-2.007-3.274-4.753-5.28-7.182zm-22.81-6.125c.21-.845.95-1.584 1.795-1.795.633-.212 1.161-.106 1.69.105l.633-.633c-.106-.317-.211-.634-.211-1.056a2.62 2.62 0 0 1 3.274-2.535c.844.211 1.584.95 1.795 1.795.105.634.105 1.162-.106 1.69.211.211.528.422.634.634.528-.212 1.056-.317 1.69-.106.844.211 1.584.95 1.795 1.795a2.62 2.62 0 0 1-2.535 3.274c-.422 0-.739-.105-1.056-.211l-.633.634c.105.316.21.633.21 1.056a2.62 2.62 0 0 1-3.273 2.534c-.845-.21-1.584-.95-1.795-1.795-.106-.634-.106-1.162.105-1.69l-.633-.633c-.317.105-.634.21-1.056.21-1.479 0-2.746-1.583-2.324-3.273zm15.418 106.241H469.53V146.85c0-4.857 4.013-8.87 8.87-8.87 4.859 0 8.872 4.013 8.872 8.87v82.163z" fill="url(#H)" fill-rule="nonzero"/><g fill-rule="nonzero"><path fill="url(#I)" d="M.317.739h53.332v91.034H.317z" transform="translate(227.056 182.757)"/><path fill="url(#J)" d="M2.535.739h15.524V9.61H2.535z" transform="translate(227.056 183.813)"/><path fill="url(#K)" d="M19.221.739h15.524V9.61H19.221z" transform="translate(227.056 183.813)"/><path fill="url(#L)" d="M35.907.739h15.524V9.61H35.907z" transform="translate(227.056 183.813)"/><path fill="url(#M)" d="M10.35 10.772h15.524v8.871H10.35z" transform="translate(227.056 183.813)"/><path fill="url(#N)" d="M.317 10.772h8.871v8.871H.317z" transform="translate(227.056 183.813)"/><path fill="url(#O)" d="M27.036 10.772H42.56v8.871H27.036z" transform="translate(227.056 183.813)"/><path fill="url(#P)" d="M43.616 10.772h10.033v8.871H43.616z" transform="translate(227.056 183.813)"/><path fill="url(#Q)" d="M2.535 20.805h15.524v8.871H2.535z" transform="translate(227.056 183.813)"/><path fill="url(#R)" d="M19.221 20.805h15.524v8.871H19.221z" transform="translate(227.056 183.813)"/><path fill="url(#S)" d="M35.907 20.805h15.524v8.871H35.907z" transform="translate(227.056 183.813)"/><path fill="url(#T)" d="M10.35 30.732h15.524v8.871H10.35z" transform="translate(227.056 183.813)"/><path fill="url(#U)" d="M.317 30.732h8.871v8.871H.317z" transform="translate(227.056 183.813)"/><path fill="url(#V)" d="M27.036 30.732H42.56v8.871H27.036z" transform="translate(227.056 183.813)"/><path fill="url(#W)" d="M43.616 30.732h10.033v8.871H43.616z" transform="translate(227.056 183.813)"/><path fill="url(#X)" d="M2.535 40.764h15.524v8.871H2.535z" transform="translate(227.056 183.813)"/><path fill="url(#Y)" d="M19.221 40.764h15.524v8.871H19.221z" transform="translate(227.056 183.813)"/><path fill="url(#Z)" d="M35.907 40.764h15.524v8.871H35.907z" transform="translate(227.056 183.813)"/><path fill="url(#aa)" d="M10.35 50.797h15.524v8.871H10.35z" transform="translate(227.056 183.813)"/><path fill="url(#ab)" d="M.317 50.797h8.871v8.871H.317z" transform="translate(227.056 183.813)"/><path fill="url(#ac)" d="M27.036 50.797H42.56v8.871H27.036z" transform="translate(227.056 183.813)"/><path fill="url(#ad)" d="M43.616 50.797h10.033v8.871H43.616z" transform="translate(227.056 183.813)"/><path fill="url(#ae)" d="M2.535 60.724h15.524v8.871H2.535z" transform="translate(227.056 183.813)"/><path fill="url(#af)" d="M19.221 60.724h15.524v8.871H19.221z" transform="translate(227.056 183.813)"/><path fill="url(#ag)" d="M35.907 60.724h15.524v8.871H35.907z" transform="translate(227.056 183.813)"/><path fill="url(#ah)" d="M10.35 70.757h15.524v8.871H10.35z" transform="translate(227.056 183.813)"/><path fill="url(#ai)" d="M.317 70.757h8.871v8.871H.317z" transform="translate(227.056 183.813)"/><path fill="url(#aj)" d="M27.036 70.757H42.56v8.871H27.036z" transform="translate(227.056 183.813)"/><path fill="url(#ak)" d="M43.616 70.757h10.033v8.871H43.616z" transform="translate(227.056 183.813)"/><path fill="url(#al)" d="M2.535 80.79h15.524v8.871H2.535z" transform="translate(227.056 183.813)"/><path fill="url(#am)" d="M19.221 80.79h15.524v8.871H19.221z" transform="translate(227.056 183.813)"/><path fill="url(#an)" d="M35.907 80.79h15.524v8.871H35.907z" transform="translate(227.056 183.813)"/></g><g fill-rule="nonzero"><path fill="url(#ao)" d="M.845.739h53.332v91.034H.845z" transform="translate(452 182.757)"/><path fill="url(#ap)" d="M3.063.739h15.524V9.61H3.063z" transform="translate(452 183.813)"/><path fill="url(#aq)" d="M19.749.739h15.524V9.61H19.749z" transform="translate(452 183.813)"/><path fill="url(#ar)" d="M36.329.739h15.524V9.61H36.329z" transform="translate(452 183.813)"/><path fill="url(#as)" d="M10.878 10.772h15.524v8.871H10.878z" transform="translate(452 183.813)"/><path fill="url(#at)" d="M.845 10.772h8.871v8.871H.845z" transform="translate(452 183.813)"/><path fill="url(#au)" d="M27.458 10.772h15.524v8.871H27.458z" transform="translate(452 183.813)"/><path fill="url(#av)" d="M44.144 10.772h10.033v8.871H44.144z" transform="translate(452 183.813)"/><path fill="url(#aw)" d="M3.063 20.805h15.524v8.871H3.063z" transform="translate(452 183.813)"/><path fill="url(#ax)" d="M19.749 20.805h15.524v8.871H19.749z" transform="translate(452 183.813)"/><path fill="url(#ay)" d="M36.329 20.805h15.524v8.871H36.329z" transform="translate(452 183.813)"/><path fill="url(#az)" d="M10.878 30.732h15.524v8.871H10.878z" transform="translate(452 183.813)"/><path fill="url(#aA)" d="M.845 30.732h8.871v8.871H.845z" transform="translate(452 183.813)"/><path fill="url(#aB)" d="M27.458 30.732h15.524v8.871H27.458z" transform="translate(452 183.813)"/><path fill="url(#aC)" d="M44.144 30.732h10.033v8.871H44.144z" transform="translate(452 183.813)"/><path fill="url(#aD)" d="M3.063 40.764h15.524v8.871H3.063z" transform="translate(452 183.813)"/><path fill="url(#aE)" d="M19.749 40.764h15.524v8.871H19.749z" transform="translate(452 183.813)"/><path fill="url(#aF)" d="M36.329 40.764h15.524v8.871H36.329z" transform="translate(452 183.813)"/><path fill="url(#aG)" d="M10.878 50.797h15.524v8.871H10.878z" transform="translate(452 183.813)"/><path fill="url(#aH)" d="M.845 50.797h8.871v8.871H.845z" transform="translate(452 183.813)"/><path fill="url(#aI)" d="M27.458 50.797h15.524v8.871H27.458z" transform="translate(452 183.813)"/><path fill="url(#aJ)" d="M44.144 50.797h10.033v8.871H44.144z" transform="translate(452 183.813)"/><path fill="url(#aK)" d="M3.063 60.724h15.524v8.871H3.063z" transform="translate(452 183.813)"/><path fill="url(#aL)" d="M19.749 60.724h15.524v8.871H19.749z" transform="translate(452 183.813)"/><path fill="url(#aM)" d="M36.329 60.724h15.524v8.871H36.329z" transform="translate(452 183.813)"/><path fill="url(#aN)" d="M10.878 70.757h15.524v8.871H10.878z" transform="translate(452 183.813)"/><path fill="url(#aO)" d="M.845 70.757h8.871v8.871H.845z" transform="translate(452 183.813)"/><path fill="url(#aP)" d="M27.458 70.757h15.524v8.871H27.458z" transform="translate(452 183.813)"/><path fill="url(#aQ)" d="M44.144 70.757h10.033v8.871H44.144z" transform="translate(452 183.813)"/><path fill="url(#aR)" d="M3.063 80.79h15.524v8.871H3.063z" transform="translate(452 183.813)"/><path fill="url(#aS)" d="M19.749 80.79h15.524v8.871H19.749z" transform="translate(452 183.813)"/><path fill="url(#aT)" d="M36.329 80.79h15.524v8.871H36.329z" transform="translate(452 183.813)"/></g><path d="M108.987 105.77v4.118h-2.535V95.736h-3.59v-5.28h1.373v-1.69h-1.373v-6.653l-8.238-16.897-8.237 16.897v6.653h-1.373v1.584h1.373v5.28h-3.59v14.258h-2.535v-4.119h-7.076v23.55h42.877v-23.55h-7.076zm-17.003 4.118v-1.795c0-1.479 1.162-2.746 2.746-2.746 1.478 0 2.746 1.161 2.746 2.746v1.795h-5.492zm4.013-14.152h-2.64v-5.28h2.64v5.28zm8.132 12.357v1.795h-5.386v-1.795c0-1.479 1.162-2.746 2.746-2.746 1.373.105 2.64 1.267 2.64 2.746zm-3.59-12.357h-2.64v-5.28h2.64v5.28zm-11.618-5.28h2.64v5.28h-2.64v-5.28zm-3.59 17.637c0-1.479 1.162-2.746 2.746-2.746 1.478 0 2.745 1.161 2.745 2.746v1.795h-5.386v-1.795h-.105z" fill="url(#aU)" fill-rule="nonzero"/><g fill-rule="nonzero"><path d="M36.118 106.192v.105c0 .423.105.845.105 1.267 0 1.373-.105 2.746-.528 4.014a9.766 9.766 0 0 1-1.795 3.062c1.9 1.69 2.64 4.224 2.323 6.865 0-.106 0-.317.106-.423-.106 1.162-.106 2.218-.106 3.38 0 2.534-1.267 4.646-3.062 6.02-.317.527-.634.95-.95 1.267h4.54v-25.557h-.633z" fill="#9978BA"/><path fill="url(#aV)" d="M6.97 5.808h12.673v25.557H6.97z" transform="translate(29.57 100.383)"/><path d="M36.857 101.017c0 .95-.106 1.795-.317 2.746 0 .21-.317.95-.528 1.584v.845h.423l6.336-5.175h-5.914z" fill="#E95B72"/><path fill="#FA929F" d="M36.54 106.192l6.337-5.175 6.336 5.175z"/><path d="M6.653 21.121c-.105.951-.105 1.901-.105 2.852 0 2.534-1.268 4.647-3.063 6.02-.634 1.056-1.478 2.006-2.535 2.64 1.796 3.062 4.12 5.597 7.182 7.181 1.9.95 3.062 2.746 3.485 4.752H47.84V21.121H6.653z" fill="url(#aW)" transform="translate(29.57 100.383)"/><path d="M36.118 121.4c0-.107 0-.318.105-.423v.528h10.561l-10.138-6.97-1.69 1.161c.95 1.69 1.479 3.697 1.162 5.703z" fill="#9978BA"/><path fill="#E95B72" d="M36.54 114.64h30.52l10.245 6.865H46.679z"/><path fill="url(#aX)" d="M26.613 19.537l-1.9-3.485 3.695-1.267v4.541z" transform="translate(29.57 100.383)"/><path fill="url(#aY)" d="M34.217 19.537l-1.901-3.485 3.59-1.267v4.541z" transform="translate(29.57 100.383)"/><path fill="#FA929F" d="M59.774 116.33l-1.795-1.162-1.796 1.162v3.59h3.59zM67.166 116.33l-1.69-1.162-1.795 1.162v3.59h3.485z"/></g><g fill-rule="nonzero"><path fill="#FA929F" d="M116.825 148.428h-10.033v-25.557h10.033z"/><path fill="#FA929F" d="M106.852 148.428H94.179v-25.557h12.673z"/><path fill="#E95B72" d="M116.802 122.983l-6.02-5.175h-10.244l6.337 5.175z"/><path fill="#FA929F" d="M106.875 122.983l-6.337-5.175-6.336 5.175z"/><path fill="url(#aZ)" d="M.634 21.016h50.691v23.55H.634z" transform="translate(65.477 117.28)"/><path fill="#FA929F" d="M116.802 138.296l-9.927-6.97-10.139 6.97z"/><path fill="#9978BA" d="M106.875 131.326h-30.52l-10.245 6.97h30.626z"/></g><path fill="url(#ba)" fill-rule="nonzero" d="M48.051 150.019h84.275l68.011 61.569H66.533l-22.39-46.045z"/><path d="M.07.805v69.912h15.523C26.154 40.936 54.457 19.603 87.83 19.603c33.372 0 61.675 21.333 72.235 51.114h13.307V.805H.069z" transform="translate(279.58 203.813)" fill="url(#bb)" fill-rule="nonzero"/><path d="M525.292 258.372c5.174-17.742 6.23-36.118 3.379-53.754h-22.494v69.912h13.095a133.831 133.831 0 0 0 6.02-16.158z" fill="url(#bc)" fill-rule="nonzero"/><path fill="url(#bd)" fill-rule="nonzero" d="M278.487 351.2l-47.735-16.685V274.53h47.735z"/><path fill="url(#be)" fill-rule="nonzero" d="M503.959 294.595l-47.84 39.92V274.53h47.84z"/><g fill-rule="nonzero"><path d="M17.425.95H.74v51.96c5.386 2.534 10.983 5.069 16.686 7.603V.95z" fill="url(#bf)" transform="translate(213.327 273.58)"/><path d="M81.846 81.74V.95H65.16v76.566c5.491 1.584 11.089 2.957 16.686 4.224z" fill="url(#bg)" transform="translate(213.327 273.58)"/><path d="M226.211.95V70.23c5.597-2.64 11.195-5.703 16.686-9.082V.95h-16.686z" fill="url(#bh)" transform="translate(213.327 273.58)"/><path d="M290.632.95v24.185c4.963-5.598 9.716-16.264 14.468-22.706.317-.634.528-1.056.634-1.479h-15.102z" fill="url(#bi)" transform="translate(213.327 273.58)"/><path d="M290.632 25.135V.95h-47.735v62.52c16.58-10.138 32.633-21.121 47.735-38.335z" fill="url(#bj)" transform="translate(213.327 273.58)"/></g><path d="M296.44 294.595c-.633 0-1.267.212-1.69.423-3.801 2.746-10.138 4.646-17.425 4.646-6.547 0-12.461-1.584-16.369-3.907-1.162-.74-2.851-1.162-4.752-1.162-1.901 0-3.59.423-4.753 1.162-3.907 2.429-9.715 3.907-16.369 3.907-6.653 0-12.461-1.584-16.369-3.907-1.162-.74-2.851-1.162-4.752-1.162-1.901 0-3.59.423-4.753 1.162-3.907 2.429-9.715 3.907-16.369 3.907-6.547 0-12.461-1.584-16.369-3.907-1.162-.74-2.851-1.162-4.752-1.162-1.901 0-3.59.423-4.753 1.162-3.907 2.429-9.715 3.907-16.369 3.907-7.181 0-13.623-1.795-17.425-4.646-.422-.317-.95-.423-1.69-.423-1.161 0-2.006.423-2.006 1.056v28.409h168.76V295.65c.212-.633-.633-1.056-1.795-1.056z" fill="url(#bk)" fill-rule="nonzero"/><path d="M448.62 314.027c-.633 0-1.267.211-1.69.423-3.801 2.745-10.137 4.646-17.424 4.646-6.548 0-12.462-1.584-16.37-3.907-1.161-.74-2.851-1.162-4.752-1.162-1.9 0-3.59.423-4.752 1.162-3.908 2.429-9.716 3.907-16.37 3.907-6.547 0-12.461-1.584-16.369-3.907-1.161-.74-2.85-1.162-4.752-1.162-1.9 0-3.59.423-4.752 1.162-3.908 2.429-9.716 3.907-16.37 3.907-6.653 0-12.461-1.584-16.369-3.907-1.161-.74-2.85-1.162-4.752-1.162-1.9 0-3.59.423-4.752 1.162-3.908 2.429-9.716 3.907-16.37 3.907-7.18 0-13.623-1.795-17.425-4.646-.422-.317-.95-.423-1.69-.423-1.161 0-2.006.423-2.006 1.056v28.409h168.76v-28.409c.212-.633-.738-1.056-1.794-1.056z" fill="url(#bl)" fill-rule="nonzero"/><path d="M360.86 284.035c-.633 0-1.267.21-1.689.422-3.802 2.746-10.138 4.647-17.425 4.647-6.548 0-12.462-1.584-16.37-3.908-1.161-.739-2.85-1.161-4.752-1.161-1.9 0-3.59.422-4.752 1.161-3.908 2.43-9.716 3.908-16.37 3.908-6.547 0-12.46-1.584-16.368-3.908-1.162-.739-2.852-1.161-4.753-1.161-1.9 0-3.59.422-4.752 1.161-3.908 2.43-9.716 3.908-16.37 3.908-6.652 0-12.46-1.584-16.368-3.908-1.162-.739-2.852-1.161-4.753-1.161-1.9 0-3.59.422-4.752 1.161-3.907 2.43-9.716 3.908-16.37 3.908-7.18 0-13.623-1.796-17.424-4.647-.423-.317-.95-.422-1.69-.422-1.162 0-2.007.422-2.007 1.056v28.408h168.761v-28.408c.211-.634-.634-1.056-1.795-1.056z" fill="url(#bm)" fill-rule="nonzero"/><path d="M427.5 287.308c-.635 0-1.268.212-1.69.423-3.803 2.746-10.139 4.647-17.426 4.647-6.548 0-12.462-1.585-16.369-3.908-1.162-.74-2.851-1.162-4.752-1.162-1.901 0-3.591.423-4.753 1.162-3.907 2.43-9.716 3.908-16.369 3.908-6.653 0-12.462-1.585-16.369-3.908-1.162-.74-2.851-1.162-4.752-1.162-1.901 0-3.591.423-4.753 1.162-3.907 2.43-9.716 3.908-16.369 3.908-6.548 0-12.462-1.585-16.369-3.908-1.162-.74-2.851-1.162-4.752-1.162-1.901 0-3.591.423-4.753 1.162-3.907 2.43-9.716 3.908-16.369 3.908-7.181 0-13.623-1.796-17.425-4.647-.423-.317-.95-.423-1.69-.423-1.161 0-2.006.423-2.006 1.056v28.409h168.76v-28.409c.212-.528-.739-1.056-1.795-1.056z" fill="url(#bn)" fill-rule="nonzero"/><path d="M562.993 301.777c-.633 0-1.267.21-1.69.422-3.801 2.746-10.138 4.647-17.424 4.647-6.548 0-12.462-1.584-16.37-3.908-1.161-.739-2.851-1.161-4.752-1.161-1.9 0-3.59.422-4.752 1.161-3.908 2.43-9.716 3.908-16.37 3.908-6.547 0-12.461-1.584-16.369-3.908-1.161-.739-2.851-1.161-4.752-1.161-1.9 0-3.59.422-4.752 1.161-3.908 2.43-9.716 3.908-16.37 3.908-6.653 0-12.461-1.584-16.369-3.908-1.161-.739-2.851-1.161-4.752-1.161-1.9 0-3.59.422-4.752 1.161-3.908 2.43-9.716 3.908-16.37 3.908-7.18 0-13.623-1.796-17.425-4.647-.422-.317-.95-.422-1.69-.422-1.161 0-2.006.422-2.006 1.056v28.408H565v-28.408c0-.634-.95-1.056-2.007-1.056z" fill="url(#bo)" fill-rule="nonzero"/><path d="M377.547 329.551c-.634 0-1.268.212-1.69.423-3.802 2.746-10.138 4.647-17.425 4.647-6.548 0-12.462-1.585-16.37-3.908-1.161-.74-2.85-1.162-4.752-1.162-1.9 0-3.59.423-4.752 1.162-3.908 2.43-9.716 3.908-16.37 3.908-6.652 0-12.46-1.585-16.368-3.908-1.162-.74-2.852-1.162-4.753-1.162-1.9 0-3.59.423-4.752 1.162-3.908 2.43-9.716 3.908-16.37 3.908-6.652 0-12.46-1.585-16.368-3.908-1.162-.74-2.852-1.162-4.753-1.162-1.9 0-3.59.423-4.752 1.162-3.908 2.43-9.716 3.908-16.37 3.908-7.18 0-13.623-1.796-17.424-4.647-.423-.317-.95-.423-1.69-.423-1.162 0-2.007.423-2.007 1.056v28.409h168.761v-28.409c.211-.633-.74-1.056-1.795-1.056z" fill="url(#bp)" fill-rule="nonzero"/><path fill="url(#bq)" fill-rule="nonzero" d="M230.224 175.998h48.896v7.498h-48.896z"/><path fill="url(#br)" fill-rule="nonzero" d="M456.119 175.998h48.896v7.498h-48.896z"/><path d="M44.46 107.987v-8.66h-.105l-2.957-11.406-2.957 11.406h.106v8.66h-1.584L35.379 90.35c0-.844-.634-1.478-1.479-1.478-.845 0-1.479-.634-1.479-1.479v-4.118c0-.845-.633-1.479-1.478-1.479l-4.541-13.623-4.541 13.623c-.845 0-1.479.634-1.479 1.479v4.118c0 .845-.633 1.479-1.478 1.479s-1.479.634-1.479 1.478l-1.584 17.637h-1.584v-8.66L11.3 87.921 8.343 99.327v8.66H4.541v151.019h43.3v-151.02h-3.38zm-24.395 14.785c.212-.845.95-1.584 1.796-1.795.633-.212 1.161-.106 1.69.105l.633-.633c-.105-.317-.211-.634-.211-1.056a2.62 2.62 0 0 1 3.274-2.535c.845.211 1.584.95 1.795 1.795.106.634.106 1.162-.106 1.69.212.211.528.422.634.634.528-.212 1.056-.317 1.69-.106.845.211 1.584.95 1.795 1.795a2.62 2.62 0 0 1-2.534 3.274c-.423 0-.74-.105-1.057-.211l-.633.634c.105.316.211.633.211 1.056a2.62 2.62 0 0 1-3.274 2.534c-.845-.21-1.584-.95-1.795-1.795-.106-.634-.106-1.162.106-1.69l-.634-.633c-.317.105-.634.21-1.056.21-1.479 0-2.852-1.583-2.324-3.273zm15.42 106.241H17.741V146.85c0-4.857 4.013-8.87 8.871-8.87 4.858 0 8.871 4.013 8.871 8.87v82.163z" fill="url(#bs)" fill-rule="nonzero"/><g fill-rule="nonzero"><path fill="url(#bt)" d="M.845.739h53.332v91.034H.845z" transform="translate(0 182.757)"/><path fill="url(#bu)" d="M3.063.739h15.524V9.61H3.063z" transform="translate(0 183.813)"/><path fill="url(#bv)" d="M19.749.739h15.524V9.61H19.749z" transform="translate(0 183.813)"/><path fill="url(#bw)" d="M36.435.739h15.524V9.61H36.435z" transform="translate(0 183.813)"/><path fill="url(#bx)" d="M10.878 10.772h15.524v8.871H10.878z" transform="translate(0 183.813)"/><path fill="url(#by)" d="M.845 10.772h8.871v8.871H.845z" transform="translate(0 183.813)"/><path fill="url(#bz)" d="M27.564 10.772h15.524v8.871H27.564z" transform="translate(0 183.813)"/><path fill="url(#bA)" d="M44.144 10.772h10.033v8.871H44.144z" transform="translate(0 183.813)"/><path fill="url(#bB)" d="M3.063 20.805h15.524v8.871H3.063z" transform="translate(0 183.813)"/><path fill="url(#bC)" d="M19.749 20.805h15.524v8.871H19.749z" transform="translate(0 183.813)"/><path fill="url(#bD)" d="M36.435 20.805h15.524v8.871H36.435z" transform="translate(0 183.813)"/><path fill="url(#bE)" d="M10.878 30.732h15.524v8.871H10.878z" transform="translate(0 183.813)"/><path fill="url(#bF)" d="M.845 30.732h8.871v8.871H.845z" transform="translate(0 183.813)"/><path fill="url(#bG)" d="M27.564 30.732h15.524v8.871H27.564z" transform="translate(0 183.813)"/><path fill="url(#bH)" d="M44.144 30.732h10.033v8.871H44.144z" transform="translate(0 183.813)"/><path fill="url(#bI)" d="M3.063 40.764h15.524v8.871H3.063z" transform="translate(0 183.813)"/><path fill="url(#bJ)" d="M19.749 40.764h15.524v8.871H19.749z" transform="translate(0 183.813)"/><path fill="url(#bK)" d="M36.435 40.764h15.524v8.871H36.435z" transform="translate(0 183.813)"/><path fill="url(#bL)" d="M10.878 50.797h15.524v8.871H10.878z" transform="translate(0 183.813)"/><path fill="url(#bM)" d="M.845 50.797h8.871v8.871H.845z" transform="translate(0 183.813)"/><path fill="url(#bN)" d="M27.564 50.797h15.524v8.871H27.564z" transform="translate(0 183.813)"/><path fill="url(#bO)" d="M44.144 50.797h10.033v8.871H44.144z" transform="translate(0 183.813)"/><path fill="url(#bP)" d="M3.063 60.724h15.524v8.871H3.063z" transform="translate(0 183.813)"/><path fill="url(#bQ)" d="M19.749 60.724h15.524v8.871H19.749z" transform="translate(0 183.813)"/><path fill="url(#bR)" d="M36.435 60.724h15.524v8.871H36.435z" transform="translate(0 183.813)"/><path fill="url(#bS)" d="M10.878 70.757h15.524v8.871H10.878z" transform="translate(0 183.813)"/><path fill="url(#bT)" d="M.845 70.757h8.871v8.871H.845z" transform="translate(0 183.813)"/><path fill="url(#bU)" d="M27.564 70.757h15.524v8.871H27.564z" transform="translate(0 183.813)"/><path fill="url(#bV)" d="M44.144 70.757h10.033v8.871H44.144z" transform="translate(0 183.813)"/><path fill="url(#bW)" d="M3.063 80.79h15.524v8.871H3.063z" transform="translate(0 183.813)"/><path fill="url(#bX)" d="M19.749 80.79h15.524v8.871H19.749z" transform="translate(0 183.813)"/><path fill="url(#bY)" d="M36.435 80.79h15.524v8.871H36.435z" transform="translate(0 183.813)"/></g><path fill="url(#bZ)" fill-rule="nonzero" d="M3.063 175.998h48.896v7.498H3.063z"/><g transform="translate(48 183.511)"><mask id="cc" fill="#fff"><use xlink:href="#ca"/></mask><path d="M154.884.549V8.457C153.449 3.97 149.243.712 144.287.712c-1.502 0-2.962.295-4.332.875a10.266 10.266 0 0 0-3.76 2.734 10.3 10.3 0 0 0-3.758-2.734 11.063 11.063 0 0 0-4.33-.875c-4.956 0-9.162 3.258-10.598 7.745V.549h-5.349V8.456C110.724 3.97 106.518.712 101.562.712c-1.501 0-2.959.295-4.33.875-1.481.627-2.75 1.57-3.762 2.734a10.297 10.297 0 0 0-3.756-2.734 11.057 11.057 0 0 0-4.332-.875c-4.954 0-9.16 3.257-10.597 7.743V.549h-5.348V8.455C68.001 3.969 63.795.712 58.84.712c-1.504 0-2.96.295-4.33.875a10.288 10.288 0 0 0-3.762 2.733 10.31 10.31 0 0 0-3.758-2.733 11.063 11.063 0 0 0-4.33-.875c-4.956 0-9.163 3.258-10.598 7.744V.549h-5.348V8.459C25.227 4.065 21.07.887 16.18.887c-1.503 0-2.96.295-4.331.876A10.271 10.271 0 0 0 8.09 4.495a10.26 10.26 0 0 0-3.76-2.732A11.046 11.046 0 0 0 0 .887v1.06c1.36 0 2.677.267 3.918.79a9.266 9.266 0 0 1 3.507 2.608c-1.853 2.621-2.548 6.079-1.653 9.442l.4 1.504a1.938 1.938 0 0 0 1.878 1.45h.013c.887 0 1.641-.572 1.88-1.426l.404-1.443c.23-.821.361-1.648.407-2.468a9.191 9.191 0 0 1 6.503 8.532H5.914v70.215h15.538c10.559-29.865 39.029-51.267 72.51-51.267 33.48 0 61.95 21.402 72.508 51.267h13.31V20.936h-11.352c.034-4.102 2.77-7.57 6.513-8.707.046.82.177 1.647.407 2.469l.404 1.442a1.932 1.932 0 0 0 1.88 1.427h.012a1.934 1.934 0 0 0 1.877-1.451l.4-1.503c.897-3.364.2-6.822-1.65-9.443a9.235 9.235 0 0 1 3.504-2.607 10.01 10.01 0 0 1 3.92-.79V.712c-1.501 0-2.96.294-4.332.874-1.48.627-2.75 1.57-3.76 2.734a10.292 10.292 0 0 0-3.758-2.734 11.065 11.065 0 0 0-4.332-.875c-3.874 0-7.287 1.994-9.281 5.006V.55h-5.348zm5.348 10.43V7.946c1.526-3.624 5.112-6.174 9.281-6.174 1.361 0 2.68.266 3.92.79a9.244 9.244 0 0 1 3.503 2.608c-1.21 1.717-1.909 3.794-1.996 5.966a10.273 10.273 0 0 0-7.046 6.647c-1.146-3.436-4.06-6.07-7.662-6.804zm-21.354.162c-.098-2.174-.803-4.253-2.017-5.97a9.247 9.247 0 0 1 3.506-2.608 10.01 10.01 0 0 1 3.92-.79c5.222 0 9.525 3.998 10.018 9.093a10.26 10.26 0 0 0-8.399 6.917 10.273 10.273 0 0 0-7.028-6.642zm-20.79-.275c.491-5.095 4.796-9.094 10.018-9.094 1.36 0 2.679.266 3.919.79a9.252 9.252 0 0 1 3.503 2.608c-1.212 1.717-1.91 3.794-1.996 5.966a10.27 10.27 0 0 0-7.046 6.647 10.26 10.26 0 0 0-8.398-6.917zm-21.933.276c-.099-2.175-.804-4.254-2.017-5.972a9.255 9.255 0 0 1 3.506-2.607 10.01 10.01 0 0 1 3.918-.79c5.224 0 9.528 3.998 10.02 9.093a10.26 10.26 0 0 0-8.399 6.917 10.265 10.265 0 0 0-7.028-6.641zm-20.791-.276c.492-5.095 4.797-9.094 10.018-9.094 1.36 0 2.68.266 3.92.79a9.24 9.24 0 0 1 3.501 2.608c-1.21 1.717-1.908 3.794-1.995 5.967a10.268 10.268 0 0 0-7.045 6.646c-1.224-3.665-4.462-6.41-8.4-6.917zm-21.933.276c-.097-2.175-.8-4.254-2.015-5.972a9.239 9.239 0 0 1 3.506-2.607 9.998 9.998 0 0 1 3.918-.79c5.222 0 9.526 3.998 10.018 9.093-3.936.507-7.175 3.252-8.398 6.917a10.265 10.265 0 0 0-7.029-6.641zm-20.79-.276c.492-5.095 4.796-9.094 10.019-9.094 1.359 0 2.677.266 3.918.79a9.252 9.252 0 0 1 3.503 2.608c-1.21 1.717-1.909 3.794-1.997 5.966a10.274 10.274 0 0 0-7.045 6.647 10.26 10.26 0 0 0-8.398-6.917zm-21.885.445c-.088-2.173-.787-4.25-1.997-5.966a9.243 9.243 0 0 1 3.502-2.607 10.026 10.026 0 0 1 3.92-.791c5.221 0 9.525 3.998 10.018 9.094a10.256 10.256 0 0 0-8.4 6.917 10.27 10.27 0 0 0-7.043-6.647zm166.848-5.239c1.526 2.333 2.073 5.339 1.293 8.266l-.401 1.505c-.13.486-.529.66-.857.663h-.008c-.327 0-.724-.17-.858-.652l-.405-1.442a10.448 10.448 0 0 1-.372-2.429 9.148 9.148 0 0 1 1.609-.15v-1.06c-.544 0-1.074.054-1.596.137a10.065 10.065 0 0 1 1.595-4.838zm-41.408 0c.93 1.42 1.489 3.09 1.613 4.84a10.096 10.096 0 0 0-1.612-.14c-.544 0-1.074.055-1.596.138a10.065 10.065 0 0 1 1.595-4.838zm-42.725 0a10.17 10.17 0 0 1 1.616 4.84 10.147 10.147 0 0 0-1.615-.14c-.544 0-1.072.055-1.595.138a10.076 10.076 0 0 1 1.594-4.838zm-42.722 0c.93 1.42 1.49 3.09 1.615 4.84a10.144 10.144 0 0 0-1.614-.14c-.544 0-1.075.055-1.595.138a10.065 10.065 0 0 1 1.594-4.838zM7.198 16.017l-.4-1.504c-.781-2.928-.235-5.934 1.293-8.266a10.076 10.076 0 0 1 1.594 4.837 10.154 10.154 0 0 0-1.595-.136v1.06c.55 0 1.086.057 1.61.15-.03.806-.146 1.619-.373 2.428l-.405 1.443c-.134.481-.53.653-.86.653h-.006c-.33-.002-.729-.178-.858-.665zm128.166-.163l-.404-1.442a10.45 10.45 0 0 1-.373-2.429 9.17 9.17 0 0 1 1.61-.15c.558 0 1.102.058 1.632.153-.025.78-.132 1.57-.34 2.352l-.401 1.505c-.13.486-.529.66-.859.663h-.006c-.327 0-.726-.17-.86-.652zm-42.725 0l-.403-1.442a10.45 10.45 0 0 1-.373-2.429 9.157 9.157 0 0 1 1.61-.15c.558 0 1.103.058 1.635.154a10.485 10.485 0 0 1-.342 2.351l-.401 1.505c-.13.486-.53.66-.858.663h-.006c-.329 0-.727-.17-.862-.652zm-42.722 0l-.404-1.442a10.403 10.403 0 0 1-.373-2.429 9.17 9.17 0 0 1 1.61-.15c.557 0 1.102.058 1.633.154a10.367 10.367 0 0 1-.342 2.351l-.4 1.505c-.129.486-.528.66-.858.663-.352-.04-.73-.168-.866-.652zm104.967-3.984V20.936h-8.443c.039-4.779 3.748-8.693 8.443-9.066zm-37.375 8.411V11.87c4.694.373 8.403 4.287 8.443 9.066h-8.443v-.655zm-5.349-8.411V20.936h-8.443c.04-4.779 3.75-8.692 8.443-9.066zM74.785 20.28V11.87c4.694.374 8.404 4.287 8.443 9.066h-8.443v-.655zm-5.348-8.411V20.936h-8.443c.039-4.779 3.749-8.692 8.443-9.066zM32.062 20.28V11.87c4.694.374 8.404 4.287 8.443 9.066h-8.443v-.655zm-5.348-8.233V20.936h-8.371a9.183 9.183 0 0 1 8.37-8.888zm133.518 8.233V12.072c4.054.928 7.093 4.54 7.128 8.864h-7.128v-.655zm-26.7-8.052c.047.82.177 1.647.407 2.469l.404 1.442c.24.854.993 1.427 1.88 1.427h.013a1.934 1.934 0 0 0 1.876-1.451l.4-1.503c.212-.792.327-1.589.368-2.379 3.733 1.144 6.46 4.607 6.492 8.702H127.02c.034-4.102 2.77-7.57 6.512-8.707zm-42.723 0c.046.82.177 1.647.407 2.469l.402 1.442c.241.854.996 1.427 1.882 1.427h.015a1.935 1.935 0 0 0 1.874-1.451l.401-1.503c.211-.792.327-1.589.367-2.379 3.733 1.144 6.459 4.607 6.493 8.702H84.297c.033-4.102 2.77-7.57 6.512-8.707zm-42.723 0c.045.82.177 1.647.406 2.469l.404 1.442c.24.854.994 1.427 1.88 1.427h.014a1.935 1.935 0 0 0 1.876-1.451l.4-1.503a11.43 11.43 0 0 0 .368-2.379c3.731 1.144 6.458 4.607 6.491 8.702H41.573c.033-4.102 2.77-7.57 6.513-8.707z" fill="url(#cb)" mask="url(#cc)"/></g><g transform="translate(280.117 203.65)"><mask id="cf" fill="#fff"><use xlink:href="#cd"/></mask><path d="M.046.798v70.215h15.538c10.558-29.865 39.028-51.267 72.51-51.267 33.48 0 61.948 21.402 72.508 51.267h13.309V.798H.046z" fill="url(#ce)" mask="url(#cf)"/></g><path d="M86.281 245.171l9.323-6.331-15.342-34.222-9.505.211v66.85l8.66-18.06a38.177 38.177 0 0 1 6.864-8.448z" fill="url(#cg)" fill-rule="nonzero"/><path fill="url(#ch)" fill-rule="nonzero" d="M98.849 204.829l3.254 29.581 9.735-5.397 1.373-24.184z"/><path d="M182.384 204.829l11.828-.211 8.449 24.395s3.485 5.808 8.132 7.604c4.646 1.795 9.927 4.752 10.35 12.356.316 7.71 1.372 25.346 1.372 25.346l-8.343.21s-8.765-28.936-34.85-41.397l3.062-28.303z" fill="url(#ci)" fill-rule="nonzero"/><path fill="url(#cj)" fill-rule="nonzero" d="M279.649 204.618l15.524 69.912h-16.686z"/><path fill="url(#ck)" fill-rule="nonzero" d="M507.233 204.618l12.25 69.912h-13.306z"/><path fill="url(#cl)" fill-rule="nonzero" d="M54.6 204.618l14.869 69.912H53.543z"/><path d="M309.641 204.829h7.71s-.529 7.498 1.267 8.66c1.795 1.161 8.448 3.274 8.448 3.274l2.43 16.686s-11.09 6.02-17.426 13.517l-2.429-42.137z" fill="url(#cm)" fill-rule="nonzero"/><path d="M157.25 69.335s10.35-17.848 22.916-17.848c12.568 0 20.066 17.848 20.066 17.848s3.802-7.393 11.3-7.393c7.498 0 12.673 7.393 12.673 7.393l4.33 7.603s2.957-4.858 6.653-3.802c3.802 1.162 5.808 5.914 5.808 5.914h-94.202c0 .106-2.217-9.821 10.456-9.715z" fill="url(#cn)" fill-rule="nonzero"/></g></svg>
