<svg viewBox="0 0 800 240" xmlns="http://www.w3.org/2000/svg"><defs><linearGradient x1="50.025%" y1="110.709%" x2="50.025%" y2="1.426%" id="a"><stop stop-color="#ACCDEB" offset="0%"/><stop stop-color="#FFF" offset="100%"/></linearGradient><linearGradient x1="49.65%" y1="102.39%" x2="49.65%" y2="-82.252%" id="b"><stop stop-color="#031B7F" offset="0%"/><stop stop-color="#0080FC" offset="100%"/></linearGradient><linearGradient x1="49.704%" y1="102.39%" x2="49.704%" y2="-82.252%" id="c"><stop stop-color="#031B7F" offset="0%"/><stop stop-color="#0080FC" offset="100%"/></linearGradient><linearGradient x1="49.659%" y1="102.39%" x2="49.659%" y2="-82.252%" id="d"><stop stop-color="#031B7F" offset="0%"/><stop stop-color="#0080FC" offset="100%"/></linearGradient><linearGradient x1="49.94%" y1="82.555%" x2="49.94%" y2="-75.005%" id="e"><stop stop-color="#011677" offset="0%"/><stop stop-color="#0626B4" stop-opacity=".4" offset="100%"/></linearGradient><linearGradient x1="129.979%" y1="43.545%" x2="67.455%" y2="48.903%" id="f"><stop stop-color="#D2D2D2" offset="0%"/><stop stop-color="#FFF" offset="100%"/></linearGradient><linearGradient x1="58.454%" y1="94.965%" x2="46.808%" y2="18.767%" id="g"><stop stop-color="#9EBDD9" offset="0%"/><stop stop-color="#FFF" offset="100%"/></linearGradient><linearGradient x1="14.559%" y1="101.354%" x2="104.683%" y2="-41.491%" id="h"><stop stop-color="#011677" offset="0%"/><stop stop-color="#0626B4" stop-opacity=".4" offset="100%"/></linearGradient><linearGradient x1="49.419%" y1="99.929%" x2="49.419%" y2="3.242%" id="i"><stop stop-color="#878986" offset="0%"/><stop stop-color="#FCFCFC" offset="100%"/></linearGradient><linearGradient x1="49.331%" y1="99.929%" x2="49.331%" y2="3.242%" id="j"><stop stop-color="#878986" offset="0%"/><stop stop-color="#FCFCFC" offset="100%"/></linearGradient><linearGradient x1="49.313%" y1="99.929%" x2="49.313%" y2="3.242%" id="k"><stop stop-color="#878986" offset="0%"/><stop stop-color="#FCFCFC" offset="100%"/></linearGradient><linearGradient x1="89.598%" y1="99.138%" x2="29.604%" y2="33.565%" id="l"><stop stop-color="#FCFCFC" stop-opacity="0" offset="0%"/><stop stop-color="#FCFCFC" offset="100%"/></linearGradient><linearGradient x1="134.235%" y1="110.151%" x2="-43.38%" y2="-25.961%" id="m"><stop stop-color="#D2D2D2" offset="0%"/><stop stop-color="#FFF" offset="100%"/></linearGradient><linearGradient x1="0%" y1="65.435%" x2="49.998%" y2="1.144%" id="n"><stop stop-color="#297FEB" offset="0%"/><stop stop-color="#1477EC" offset="100%"/></linearGradient><linearGradient x1="50%" y1="152.037%" x2="49.581%" y2="2.127%" id="o"><stop stop-color="#004FDB" offset="0%"/><stop stop-color="#F993A0" offset="100%"/></linearGradient><linearGradient x1="49.969%" y1="97.237%" x2="49.969%" y2=".077%" id="p"><stop stop-color="#3685E9" offset="0%"/><stop stop-color="#F993A0" offset="100%"/></linearGradient><linearGradient x1="-.618%" y1="50.751%" x2="101.097%" y2="50.751%" id="q"><stop stop-color="#004FDB" offset="0%"/><stop stop-color="#F993A0" offset="100%"/></linearGradient><linearGradient x1=".709%" y1="50.751%" x2="99.52%" y2="50.751%" id="r"><stop stop-color="#004FDB" offset="0%"/><stop stop-color="#F993A0" offset="100%"/></linearGradient><linearGradient x1="99.76%" y1="49.622%" x2=".949%" y2="49.622%" id="s"><stop stop-color="#004FDB" offset="0%"/><stop stop-color="#F993A0" offset="100%"/></linearGradient><linearGradient x1="50%" y1="-19.257%" x2="50%" y2="100%" id="t"><stop stop-color="#EFF4FA" offset="0%"/><stop stop-color="#2D8BF3" offset="100%"/></linearGradient><linearGradient x1="50.899%" y1="-.553%" x2="50.899%" y2="99.927%" id="u"><stop stop-color="#0B2BAE" offset="0%"/><stop stop-color="#0B5CD8" offset="100%"/></linearGradient><linearGradient x1="50.036%" y1="-3.577%" x2="50.036%" y2="102.468%" id="v"><stop stop-color="#0B2BAE" offset="0%"/><stop stop-color="#0B5CD8" offset="100%"/></linearGradient><linearGradient x1="50.307%" y1="-3.01%" x2="50.307%" y2="103.158%" id="w"><stop stop-color="#0B2BAE" offset="0%"/><stop stop-color="#0B5CD8" offset="100%"/></linearGradient><linearGradient x1="50.125%" y1="-3.01%" x2="50.125%" y2="103.158%" id="x"><stop stop-color="#0B2BAE" offset="0%"/><stop stop-color="#0B5CD8" offset="100%"/></linearGradient><linearGradient x1="49.942%" y1="-3.01%" x2="49.942%" y2="103.158%" id="y"><stop stop-color="#0B2BAE" offset="0%"/><stop stop-color="#0B5CD8" offset="100%"/></linearGradient><linearGradient x1="50.041%" y1="-3.439%" x2="50.041%" y2="102.729%" id="z"><stop stop-color="#0B2BAE" offset="0%"/><stop stop-color="#0B5CD8" offset="100%"/></linearGradient><linearGradient x1="50.446%" y1="-3.439%" x2="50.446%" y2="102.729%" id="A"><stop stop-color="#0B2BAE" offset="0%"/><stop stop-color="#0B5CD8" offset="100%"/></linearGradient><linearGradient x1="49.858%" y1="-3.439%" x2="49.858%" y2="102.729%" id="B"><stop stop-color="#0B2BAE" offset="0%"/><stop stop-color="#0B5CD8" offset="100%"/></linearGradient><linearGradient x1="50.246%" y1="-3.439%" x2="50.246%" y2="102.729%" id="C"><stop stop-color="#0B2BAE" offset="0%"/><stop stop-color="#0B5CD8" offset="100%"/></linearGradient><linearGradient x1="50.307%" y1="-3.87%" x2="50.307%" y2="102.299%" id="D"><stop stop-color="#0B2BAE" offset="0%"/><stop stop-color="#0B5CD8" offset="100%"/></linearGradient><linearGradient x1="50.125%" y1="-3.87%" x2="50.125%" y2="102.299%" id="E"><stop stop-color="#0B2BAE" offset="0%"/><stop stop-color="#0B5CD8" offset="100%"/></linearGradient><linearGradient x1="49.942%" y1="-3.87%" x2="49.942%" y2="102.299%" id="F"><stop stop-color="#0B2BAE" offset="0%"/><stop stop-color="#0B5CD8" offset="100%"/></linearGradient><linearGradient x1="50.041%" y1="-3.11%" x2="50.041%" y2="103.058%" id="G"><stop stop-color="#0B2BAE" offset="0%"/><stop stop-color="#0B5CD8" offset="100%"/></linearGradient><linearGradient x1="50.446%" y1="-3.11%" x2="50.446%" y2="103.058%" id="H"><stop stop-color="#0B2BAE" offset="0%"/><stop stop-color="#0B5CD8" offset="100%"/></linearGradient><linearGradient x1="49.858%" y1="-3.11%" x2="49.858%" y2="103.058%" id="I"><stop stop-color="#0B2BAE" offset="0%"/><stop stop-color="#0B5CD8" offset="100%"/></linearGradient><linearGradient x1="50.246%" y1="-3.11%" x2="50.246%" y2="103.058%" id="J"><stop stop-color="#0B2BAE" offset="0%"/><stop stop-color="#0B5CD8" offset="100%"/></linearGradient><linearGradient x1="50.307%" y1="-3.539%" x2="50.307%" y2="102.629%" id="K"><stop stop-color="#0B2BAE" offset="0%"/><stop stop-color="#0B5CD8" offset="100%"/></linearGradient><linearGradient x1="50.125%" y1="-3.539%" x2="50.125%" y2="102.629%" id="L"><stop stop-color="#0B2BAE" offset="0%"/><stop stop-color="#0B5CD8" offset="100%"/></linearGradient><linearGradient x1="49.942%" y1="-3.539%" x2="49.942%" y2="102.629%" id="M"><stop stop-color="#0B2BAE" offset="0%"/><stop stop-color="#0B5CD8" offset="100%"/></linearGradient><linearGradient x1="50.041%" y1="-3.969%" x2="50.041%" y2="102.199%" id="N"><stop stop-color="#0B2BAE" offset="0%"/><stop stop-color="#0B5CD8" offset="100%"/></linearGradient><linearGradient x1="50.446%" y1="-3.969%" x2="50.446%" y2="102.199%" id="O"><stop stop-color="#0B2BAE" offset="0%"/><stop stop-color="#0B5CD8" offset="100%"/></linearGradient><linearGradient x1="49.858%" y1="-3.969%" x2="49.858%" y2="102.199%" id="P"><stop stop-color="#0B2BAE" offset="0%"/><stop stop-color="#0B5CD8" offset="100%"/></linearGradient><linearGradient x1="50.246%" y1="-3.969%" x2="50.246%" y2="102.199%" id="Q"><stop stop-color="#0B2BAE" offset="0%"/><stop stop-color="#0B5CD8" offset="100%"/></linearGradient><linearGradient x1="50.307%" y1="-3.21%" x2="50.307%" y2="102.96%" id="R"><stop stop-color="#0B2BAE" offset="0%"/><stop stop-color="#0B5CD8" offset="100%"/></linearGradient><linearGradient x1="50.125%" y1="-3.21%" x2="50.125%" y2="102.96%" id="S"><stop stop-color="#0B2BAE" offset="0%"/><stop stop-color="#0B5CD8" offset="100%"/></linearGradient><linearGradient x1="49.942%" y1="-3.21%" x2="49.942%" y2="102.96%" id="T"><stop stop-color="#0B2BAE" offset="0%"/><stop stop-color="#0B5CD8" offset="100%"/></linearGradient><linearGradient x1="50.041%" y1="-3.639%" x2="50.041%" y2="102.529%" id="U"><stop stop-color="#0B2BAE" offset="0%"/><stop stop-color="#0B5CD8" offset="100%"/></linearGradient><linearGradient x1="50.446%" y1="-3.639%" x2="50.446%" y2="102.529%" id="V"><stop stop-color="#0B2BAE" offset="0%"/><stop stop-color="#0B5CD8" offset="100%"/></linearGradient><linearGradient x1="49.858%" y1="-3.639%" x2="49.858%" y2="102.529%" id="W"><stop stop-color="#0B2BAE" offset="0%"/><stop stop-color="#0B5CD8" offset="100%"/></linearGradient><linearGradient x1="50.246%" y1="-3.639%" x2="50.246%" y2="102.529%" id="X"><stop stop-color="#0B2BAE" offset="0%"/><stop stop-color="#0B5CD8" offset="100%"/></linearGradient><linearGradient x1="50.307%" y1="-4.069%" x2="50.307%" y2="102.099%" id="Y"><stop stop-color="#0B2BAE" offset="0%"/><stop stop-color="#0B5CD8" offset="100%"/></linearGradient><linearGradient x1="50.125%" y1="-4.069%" x2="50.125%" y2="102.099%" id="Z"><stop stop-color="#0B2BAE" offset="0%"/><stop stop-color="#0B5CD8" offset="100%"/></linearGradient><linearGradient x1="49.942%" y1="-4.069%" x2="49.942%" y2="102.099%" id="aa"><stop stop-color="#0B2BAE" offset="0%"/><stop stop-color="#0B5CD8" offset="100%"/></linearGradient><linearGradient x1="49.963%" y1="-3.577%" x2="49.963%" y2="102.468%" id="ab"><stop stop-color="#0B2BAE" offset="0%"/><stop stop-color="#0B5CD8" offset="100%"/></linearGradient><linearGradient x1="50.056%" y1="-3.01%" x2="50.056%" y2="103.158%" id="ac"><stop stop-color="#0B2BAE" offset="0%"/><stop stop-color="#0B5CD8" offset="100%"/></linearGradient><linearGradient x1="49.873%" y1="-3.01%" x2="49.873%" y2="103.158%" id="ad"><stop stop-color="#0B2BAE" offset="0%"/><stop stop-color="#0B5CD8" offset="100%"/></linearGradient><linearGradient x1="50.37%" y1="-3.01%" x2="50.37%" y2="103.158%" id="ae"><stop stop-color="#0B2BAE" offset="0%"/><stop stop-color="#0B5CD8" offset="100%"/></linearGradient><linearGradient x1="49.789%" y1="-3.439%" x2="49.789%" y2="102.729%" id="af"><stop stop-color="#0B2BAE" offset="0%"/><stop stop-color="#0B5CD8" offset="100%"/></linearGradient><linearGradient x1="50.006%" y1="-3.439%" x2="50.006%" y2="102.729%" id="ag"><stop stop-color="#0B2BAE" offset="0%"/><stop stop-color="#0B5CD8" offset="100%"/></linearGradient><linearGradient x1="50.286%" y1="-3.439%" x2="50.286%" y2="102.729%" id="ah"><stop stop-color="#0B2BAE" offset="0%"/><stop stop-color="#0B5CD8" offset="100%"/></linearGradient><linearGradient x1="49.857%" y1="-3.439%" x2="49.857%" y2="102.729%" id="ai"><stop stop-color="#0B2BAE" offset="0%"/><stop stop-color="#0B5CD8" offset="100%"/></linearGradient><linearGradient x1="50.056%" y1="-3.87%" x2="50.056%" y2="102.299%" id="aj"><stop stop-color="#0B2BAE" offset="0%"/><stop stop-color="#0B5CD8" offset="100%"/></linearGradient><linearGradient x1="49.873%" y1="-3.87%" x2="49.873%" y2="102.299%" id="ak"><stop stop-color="#0B2BAE" offset="0%"/><stop stop-color="#0B5CD8" offset="100%"/></linearGradient><linearGradient x1="50.37%" y1="-3.87%" x2="50.37%" y2="102.299%" id="al"><stop stop-color="#0B2BAE" offset="0%"/><stop stop-color="#0B5CD8" offset="100%"/></linearGradient><linearGradient x1="49.789%" y1="-3.11%" x2="49.789%" y2="103.058%" id="am"><stop stop-color="#0B2BAE" offset="0%"/><stop stop-color="#0B5CD8" offset="100%"/></linearGradient><linearGradient x1="50.006%" y1="-3.11%" x2="50.006%" y2="103.058%" id="an"><stop stop-color="#0B2BAE" offset="0%"/><stop stop-color="#0B5CD8" offset="100%"/></linearGradient><linearGradient x1="50.286%" y1="-3.11%" x2="50.286%" y2="103.058%" id="ao"><stop stop-color="#0B2BAE" offset="0%"/><stop stop-color="#0B5CD8" offset="100%"/></linearGradient><linearGradient x1="49.857%" y1="-3.11%" x2="49.857%" y2="103.058%" id="ap"><stop stop-color="#0B2BAE" offset="0%"/><stop stop-color="#0B5CD8" offset="100%"/></linearGradient><linearGradient x1="50.056%" y1="-3.539%" x2="50.056%" y2="102.629%" id="aq"><stop stop-color="#0B2BAE" offset="0%"/><stop stop-color="#0B5CD8" offset="100%"/></linearGradient><linearGradient x1="49.873%" y1="-3.539%" x2="49.873%" y2="102.629%" id="ar"><stop stop-color="#0B2BAE" offset="0%"/><stop stop-color="#0B5CD8" offset="100%"/></linearGradient><linearGradient x1="50.37%" y1="-3.539%" x2="50.37%" y2="102.629%" id="as"><stop stop-color="#0B2BAE" offset="0%"/><stop stop-color="#0B5CD8" offset="100%"/></linearGradient><linearGradient x1="49.789%" y1="-3.969%" x2="49.789%" y2="102.199%" id="at"><stop stop-color="#0B2BAE" offset="0%"/><stop stop-color="#0B5CD8" offset="100%"/></linearGradient><linearGradient x1="50.006%" y1="-3.969%" x2="50.006%" y2="102.199%" id="au"><stop stop-color="#0B2BAE" offset="0%"/><stop stop-color="#0B5CD8" offset="100%"/></linearGradient><linearGradient x1="50.286%" y1="-3.969%" x2="50.286%" y2="102.199%" id="av"><stop stop-color="#0B2BAE" offset="0%"/><stop stop-color="#0B5CD8" offset="100%"/></linearGradient><linearGradient x1="49.857%" y1="-3.969%" x2="49.857%" y2="102.199%" id="aw"><stop stop-color="#0B2BAE" offset="0%"/><stop stop-color="#0B5CD8" offset="100%"/></linearGradient><linearGradient x1="50.056%" y1="-3.21%" x2="50.056%" y2="102.96%" id="ax"><stop stop-color="#0B2BAE" offset="0%"/><stop stop-color="#0B5CD8" offset="100%"/></linearGradient><linearGradient x1="49.873%" y1="-3.21%" x2="49.873%" y2="102.96%" id="ay"><stop stop-color="#0B2BAE" offset="0%"/><stop stop-color="#0B5CD8" offset="100%"/></linearGradient><linearGradient x1="50.37%" y1="-3.21%" x2="50.37%" y2="102.96%" id="az"><stop stop-color="#0B2BAE" offset="0%"/><stop stop-color="#0B5CD8" offset="100%"/></linearGradient><linearGradient x1="49.789%" y1="-3.639%" x2="49.789%" y2="102.529%" id="aA"><stop stop-color="#0B2BAE" offset="0%"/><stop stop-color="#0B5CD8" offset="100%"/></linearGradient><linearGradient x1="50.006%" y1="-3.639%" x2="50.006%" y2="102.529%" id="aB"><stop stop-color="#0B2BAE" offset="0%"/><stop stop-color="#0B5CD8" offset="100%"/></linearGradient><linearGradient x1="50.286%" y1="-3.639%" x2="50.286%" y2="102.529%" id="aC"><stop stop-color="#0B2BAE" offset="0%"/><stop stop-color="#0B5CD8" offset="100%"/></linearGradient><linearGradient x1="49.857%" y1="-3.639%" x2="49.857%" y2="102.529%" id="aD"><stop stop-color="#0B2BAE" offset="0%"/><stop stop-color="#0B5CD8" offset="100%"/></linearGradient><linearGradient x1="50.056%" y1="-4.069%" x2="50.056%" y2="102.099%" id="aE"><stop stop-color="#0B2BAE" offset="0%"/><stop stop-color="#0B5CD8" offset="100%"/></linearGradient><linearGradient x1="49.873%" y1="-4.069%" x2="49.873%" y2="102.099%" id="aF"><stop stop-color="#0B2BAE" offset="0%"/><stop stop-color="#0B5CD8" offset="100%"/></linearGradient><linearGradient x1="50.37%" y1="-4.069%" x2="50.37%" y2="102.099%" id="aG"><stop stop-color="#0B2BAE" offset="0%"/><stop stop-color="#0B5CD8" offset="100%"/></linearGradient><linearGradient x1="50.169%" y1="109.226%" x2="50.17%" y2="34.679%" id="aH"><stop stop-color="#348FF2" offset="0%"/><stop stop-color="#F993A0" offset="100%"/></linearGradient><linearGradient x1="50.018%" y1="97.248%" x2="50.018%" y2="2.196%" id="aI"><stop stop-color="#004FDB" offset="0%"/><stop stop-color="#F993A0" offset="100%"/></linearGradient><linearGradient x1="49.811%" y1="97.75%" x2="49.811%" y2=".153%" id="aJ"><stop stop-color="#3685E9" offset="0%"/><stop stop-color="#F993A0" offset="100%"/></linearGradient><linearGradient x1=".903%" y1="48.902%" x2="99.711%" y2="48.902%" id="aK"><stop stop-color="#004FDB" offset="0%"/><stop stop-color="#F993A0" offset="100%"/></linearGradient><linearGradient x1="-.665%" y1="48.902%" x2="101.05%" y2="48.902%" id="aL"><stop stop-color="#004FDB" offset="0%"/><stop stop-color="#F993A0" offset="100%"/></linearGradient><linearGradient x1="50.008%" y1="97.103%" x2="50.008%" y2="-.057%" id="aM"><stop stop-color="#348FF2" offset="0%"/><stop stop-color="#F993A0" offset="100%"/></linearGradient><linearGradient x1="-.005%" y1="50%" x2="99.995%" y2="50%" id="aN"><stop stop-color="#90D1FF" offset="0%"/><stop stop-color="#7CC6FF" offset="100%"/></linearGradient><linearGradient x1="0%" y1="50%" y2="50%" id="aO"><stop stop-color="#90D1FF" offset="0%"/><stop stop-color="#7CC6FF" offset="100%"/></linearGradient><linearGradient x1="0%" y1="50%" y2="50%" id="aP"><stop stop-color="#90D1FF" offset="0%"/><stop stop-color="#7CC6FF" offset="100%"/></linearGradient><linearGradient x1=".001%" y1="50%" x2="99.993%" y2="50%" id="aQ"><stop stop-color="#90D1FF" offset="0%"/><stop stop-color="#7CC6FF" offset="100%"/></linearGradient><linearGradient x1="-.002%" y1="50%" x2="99.999%" y2="50%" id="aR"><stop stop-color="#90D1FF" offset="0%"/><stop stop-color="#7CC6FF" offset="100%"/></linearGradient><linearGradient x1="49.999%" y1="97.985%" x2="49.999%" y2="1.203%" id="aS"><stop stop-color="#1259D6" offset="0%"/><stop stop-color="#F697A3" offset="100%"/></linearGradient><linearGradient x1="49.954%" y1="-3.611%" x2="49.954%" y2="102.477%" id="aT"><stop stop-color="#0B2BAE" offset="0%"/><stop stop-color="#0B5CD8" offset="100%"/></linearGradient><linearGradient x1="49.879%" y1="-3.573%" x2="49.879%" y2="102.385%" id="aU"><stop stop-color="#0B2BAE" offset="0%"/><stop stop-color="#0B5CD8" offset="100%"/></linearGradient><linearGradient x1="50.071%" y1="-3.573%" x2="50.071%" y2="102.385%" id="aV"><stop stop-color="#0B2BAE" offset="0%"/><stop stop-color="#0B5CD8" offset="100%"/></linearGradient><linearGradient x1="50.86%" y1="-.553%" x2="50.86%" y2="99.927%" id="aW"><stop stop-color="#0B2BAE" offset="0%"/><stop stop-color="#0B5CD8" offset="100%"/></linearGradient><linearGradient x1="50.008%" y1="-3.577%" x2="50.008%" y2="102.468%" id="aX"><stop stop-color="#0B2BAE" offset="0%"/><stop stop-color="#0B5CD8" offset="100%"/></linearGradient><linearGradient x1="50.21%" y1="-3.01%" x2="50.21%" y2="103.158%" id="aY"><stop stop-color="#0B2BAE" offset="0%"/><stop stop-color="#0B5CD8" offset="100%"/></linearGradient><linearGradient x1="50.027%" y1="-3.01%" x2="50.027%" y2="103.158%" id="aZ"><stop stop-color="#0B2BAE" offset="0%"/><stop stop-color="#0B5CD8" offset="100%"/></linearGradient><linearGradient x1="49.844%" y1="-3.01%" x2="49.844%" y2="103.158%" id="ba"><stop stop-color="#0B2BAE" offset="0%"/><stop stop-color="#0B5CD8" offset="100%"/></linearGradient><linearGradient x1="49.943%" y1="-3.439%" x2="49.943%" y2="102.729%" id="bb"><stop stop-color="#0B2BAE" offset="0%"/><stop stop-color="#0B5CD8" offset="100%"/></linearGradient><linearGradient x1="50.275%" y1="-3.439%" x2="50.275%" y2="102.729%" id="bc"><stop stop-color="#0B2BAE" offset="0%"/><stop stop-color="#0B5CD8" offset="100%"/></linearGradient><linearGradient x1="49.76%" y1="-3.439%" x2="49.76%" y2="102.729%" id="bd"><stop stop-color="#0B2BAE" offset="0%"/><stop stop-color="#0B5CD8" offset="100%"/></linearGradient><linearGradient x1="50.095%" y1="-3.439%" x2="50.095%" y2="102.729%" id="be"><stop stop-color="#0B2BAE" offset="0%"/><stop stop-color="#0B5CD8" offset="100%"/></linearGradient><linearGradient x1="50.21%" y1="-3.87%" x2="50.21%" y2="102.299%" id="bf"><stop stop-color="#0B2BAE" offset="0%"/><stop stop-color="#0B5CD8" offset="100%"/></linearGradient><linearGradient x1="50.027%" y1="-3.87%" x2="50.027%" y2="102.299%" id="bg"><stop stop-color="#0B2BAE" offset="0%"/><stop stop-color="#0B5CD8" offset="100%"/></linearGradient><linearGradient x1="49.844%" y1="-3.87%" x2="49.844%" y2="102.299%" id="bh"><stop stop-color="#0B2BAE" offset="0%"/><stop stop-color="#0B5CD8" offset="100%"/></linearGradient><linearGradient x1="49.943%" y1="-3.11%" x2="49.943%" y2="103.058%" id="bi"><stop stop-color="#0B2BAE" offset="0%"/><stop stop-color="#0B5CD8" offset="100%"/></linearGradient><linearGradient x1="50.275%" y1="-3.11%" x2="50.275%" y2="103.058%" id="bj"><stop stop-color="#0B2BAE" offset="0%"/><stop stop-color="#0B5CD8" offset="100%"/></linearGradient><linearGradient x1="49.76%" y1="-3.11%" x2="49.76%" y2="103.058%" id="bk"><stop stop-color="#0B2BAE" offset="0%"/><stop stop-color="#0B5CD8" offset="100%"/></linearGradient><linearGradient x1="50.095%" y1="-3.11%" x2="50.095%" y2="103.058%" id="bl"><stop stop-color="#0B2BAE" offset="0%"/><stop stop-color="#0B5CD8" offset="100%"/></linearGradient><linearGradient x1="50.21%" y1="-3.539%" x2="50.21%" y2="102.629%" id="bm"><stop stop-color="#0B2BAE" offset="0%"/><stop stop-color="#0B5CD8" offset="100%"/></linearGradient><linearGradient x1="50.027%" y1="-3.539%" x2="50.027%" y2="102.629%" id="bn"><stop stop-color="#0B2BAE" offset="0%"/><stop stop-color="#0B5CD8" offset="100%"/></linearGradient><linearGradient x1="49.844%" y1="-3.539%" x2="49.844%" y2="102.629%" id="bo"><stop stop-color="#0B2BAE" offset="0%"/><stop stop-color="#0B5CD8" offset="100%"/></linearGradient><linearGradient x1="49.943%" y1="-3.969%" x2="49.943%" y2="102.199%" id="bp"><stop stop-color="#0B2BAE" offset="0%"/><stop stop-color="#0B5CD8" offset="100%"/></linearGradient><linearGradient x1="50.275%" y1="-3.969%" x2="50.275%" y2="102.199%" id="bq"><stop stop-color="#0B2BAE" offset="0%"/><stop stop-color="#0B5CD8" offset="100%"/></linearGradient><linearGradient x1="49.76%" y1="-3.969%" x2="49.76%" y2="102.199%" id="br"><stop stop-color="#0B2BAE" offset="0%"/><stop stop-color="#0B5CD8" offset="100%"/></linearGradient><linearGradient x1="50.095%" y1="-3.969%" x2="50.095%" y2="102.199%" id="bs"><stop stop-color="#0B2BAE" offset="0%"/><stop stop-color="#0B5CD8" offset="100%"/></linearGradient><linearGradient x1="50.21%" y1="-3.21%" x2="50.21%" y2="102.96%" id="bt"><stop stop-color="#0B2BAE" offset="0%"/><stop stop-color="#0B5CD8" offset="100%"/></linearGradient><linearGradient x1="50.027%" y1="-3.21%" x2="50.027%" y2="102.96%" id="bu"><stop stop-color="#0B2BAE" offset="0%"/><stop stop-color="#0B5CD8" offset="100%"/></linearGradient><linearGradient x1="49.844%" y1="-3.21%" x2="49.844%" y2="102.96%" id="bv"><stop stop-color="#0B2BAE" offset="0%"/><stop stop-color="#0B5CD8" offset="100%"/></linearGradient><linearGradient x1="49.943%" y1="-3.639%" x2="49.943%" y2="102.529%" id="bw"><stop stop-color="#0B2BAE" offset="0%"/><stop stop-color="#0B5CD8" offset="100%"/></linearGradient><linearGradient x1="50.275%" y1="-3.639%" x2="50.275%" y2="102.529%" id="bx"><stop stop-color="#0B2BAE" offset="0%"/><stop stop-color="#0B5CD8" offset="100%"/></linearGradient><linearGradient x1="49.76%" y1="-3.639%" x2="49.76%" y2="102.529%" id="by"><stop stop-color="#0B2BAE" offset="0%"/><stop stop-color="#0B5CD8" offset="100%"/></linearGradient><linearGradient x1="50.095%" y1="-3.639%" x2="50.095%" y2="102.529%" id="bz"><stop stop-color="#0B2BAE" offset="0%"/><stop stop-color="#0B5CD8" offset="100%"/></linearGradient><linearGradient x1="50.21%" y1="-4.069%" x2="50.21%" y2="102.099%" id="bA"><stop stop-color="#0B2BAE" offset="0%"/><stop stop-color="#0B5CD8" offset="100%"/></linearGradient><linearGradient x1="50.027%" y1="-4.069%" x2="50.027%" y2="102.099%" id="bB"><stop stop-color="#0B2BAE" offset="0%"/><stop stop-color="#0B5CD8" offset="100%"/></linearGradient><linearGradient x1="49.844%" y1="-4.069%" x2="49.844%" y2="102.099%" id="bC"><stop stop-color="#0B2BAE" offset="0%"/><stop stop-color="#0B5CD8" offset="100%"/></linearGradient><linearGradient x1="50.008%" y1="-3.573%" x2="50.008%" y2="102.385%" id="bD"><stop stop-color="#0B2BAE" offset="0%"/><stop stop-color="#0B5CD8" offset="100%"/></linearGradient><linearGradient x1="50%" y1="-3.572%" x2="50%" y2="102.441%" id="bE"><stop stop-color="#0B2AAE" offset="0%"/><stop stop-color="#0B5BD8" offset="100%"/></linearGradient><linearGradient x1="96.289%" y1="50%" x2="3.036%" y2="59.71%" id="bF"><stop stop-color="#1B4BC7" offset="0%"/><stop stop-color="#0B39BA" offset="100%"/></linearGradient><linearGradient x1="96.289%" y1="50%" x2="3.036%" y2="59.71%" id="bG"><stop stop-color="#0336BF" offset="0%"/><stop stop-color="#0B39BA" stop-opacity="0" offset="100%"/></linearGradient><linearGradient x1="50%" y1="-3.572%" x2="50%" y2="102.441%" id="bH"><stop stop-color="#0B2AAE" offset="0%"/><stop stop-color="#0B5BD8" offset="100%"/></linearGradient><linearGradient x1="49.852%" y1="5.984%" x2="49.852%" y2="25.669%" id="bI"><stop stop-color="#0B2BAE" offset="0%"/><stop stop-color="#0336BF" offset="100%"/></linearGradient><linearGradient x1="50.165%" y1="12.766%" x2="50.165%" y2="57.092%" id="bJ"><stop stop-color="#0B2BAE" offset="0%"/><stop stop-color="#0336BF" offset="100%"/></linearGradient><linearGradient x1="49.792%" y1="5.74%" x2="49.792%" y2="24.622%" id="bK"><stop stop-color="#0B2BAE" offset="0%"/><stop stop-color="#0336BF" offset="100%"/></linearGradient><linearGradient x1="49.93%" y1="5.985%" x2="49.93%" y2="25.668%" id="bL"><stop stop-color="#0B2BAE" offset="0%"/><stop stop-color="#0336BF" offset="100%"/></linearGradient><linearGradient x1="49.857%" y1="5.985%" x2="49.857%" y2="25.668%" id="bM"><stop stop-color="#0B2BAE" offset="0%"/><stop stop-color="#0336BF" offset="100%"/></linearGradient><linearGradient x1="49.87%" y1="97.16%" x2="49.87%" y2="1.907%" id="bN"><stop stop-color="#0B2BAE" offset="0%"/><stop stop-color="#0336BF" offset="100%"/></linearGradient><linearGradient x1="50%" y1="-19.257%" x2="50%" y2="100%" id="bO"><stop stop-color="#EFF4FA" offset="0%"/><stop stop-color="#3199FC" offset="100%"/></linearGradient><radialGradient cx="49.027%" cy="-160.046%" fx="49.027%" fy="-160.046%" r="250.079%" gradientTransform="matrix(.17456 0 0 1 .405 0)" id="bP"><stop stop-color="#EFF4FA" offset="0%"/><stop stop-color="#EFF4FA" stop-opacity="0" offset="100%"/></radialGradient><radialGradient cx="49.02%" cy="-160.008%" fx="49.02%" fy="-160.008%" r="250.079%" gradientTransform="matrix(.17456 0 0 1 .405 0)" id="bQ"><stop stop-color="#EFF4FA" offset="0%"/><stop stop-color="#EFF4FA" stop-opacity="0" offset="100%"/></radialGradient><radialGradient cx="49.017%" cy="-159.813%" fx="49.017%" fy="-159.813%" r="273.703%" gradientTransform="matrix(.17456 0 0 .92889 .405 -.114)" id="bR"><stop stop-color="#EFF4FA" offset="0%"/><stop stop-color="#EFF4FA" stop-opacity="0" offset="100%"/></radialGradient><radialGradient cx="48.956%" cy="-159.92%" fx="48.956%" fy="-159.92%" r="250.079%" gradientTransform="matrix(.17438 0 0 1 .404 0)" id="bS"><stop stop-color="#EFF4FA" offset="0%"/><stop stop-color="#EFF4FA" stop-opacity="0" offset="100%"/></radialGradient></defs><g fill="none" fill-rule="evenodd"><path d="M282.229 207.35c0-.097-.098-.097-.098-.195" fill="#5DBAFF" fill-rule="nonzero"/><g transform="translate(430.897 103.43)" fill-rule="nonzero"><path d="M76.15 2.355C76.05 2.257 73.402.295 65.748.196 57.995.098 26.398.098 26.398.098s-4.22.295-8.636 2.257H76.15z" fill="url(#a)"/><path fill="#011678" d="M25.612 23.159h102.939v12.364H25.612z"/><path d="M5.3 27.28s-.492.785 0 1.963c0 0-.59 2.355-.492 3.533.099 1.177.197 3.532 5.201 3.532h17.762c.294 0 .589-.294.589-.588v-3.042c0-2.454 2.06-4.514 4.514-4.514h2.747c2.454 0 4.515 2.06 4.515 4.514v3.042c0 .294.294.588.588.588H94.5c.294 0 .589-.294.589-.588v-3.042c0-2.454 2.06-4.514 4.514-4.514h2.747c2.454 0 4.514 2.06 4.514 4.514v3.042c0 .294.295.588.59.588h2.845c.294 0 .589-.294.589-.588v-3.042c0-2.454 2.06-4.514 4.514-4.514h2.748c2.453 0 4.514 2.06 4.514 4.514v3.042c0 .294.294.588.588.588h1.767l13.247-2.257c3.042-.49 5.3-3.14 5.3-6.28 0-5.986.098-14.621.098-14.621l-.197-7.066s1.178-1.963.59-2.846c-.393-.687-1.473-.785-6.085-.785l-61.724-.196H17.86c-1.963.883-3.925 2.06-5.692 3.729.098 0-5.593 11.58-6.869 21.294z" fill="#FFF"/><circle fill="url(#b)" cx="34.248" cy="33.855" r="5.005"/><circle fill="url(#c)" cx="100.879" cy="33.855" r="5.005"/><circle fill="url(#d)" cx="116.776" cy="33.855" r="5.005"/><path d="M15.407 9.126l-6.575 13.64c-.196.982.196.884.196.884l29.537-7.95a32.871 32.871 0 0 1 8.734-1.177h85.08c3.042 0 5.79-1.864 6.967-4.612l1.962-4.612H21.588c-2.747 0-5.102 1.472-6.181 3.827z" fill="url(#e)"/><path d="M17.271 5.3l-.392.784L7.065 7.36l-.98.196c-.59.098-1.08.393-1.473.883l-2.748 3.73c-.196.294-1.275.097-1.275-.197l2.453-4.023c.785-1.276 2.06-2.061 3.533-2.16L17.27 5.3z" fill="url(#f)"/><path d="M9.028 20.411s-1.668 4.907-2.453 5.496c-.785.588-1.178.392-1.178.392s.393-3.435.785-4.023c.49-.59 2.846-1.865 2.846-1.865z" fill="url(#g)"/><path d="M15.897 6.182L7.85 22.864a1.69 1.69 0 0 1-1.177.982l-.785.196s2.06-9.617 5.986-17.271l4.023-.589z" fill="url(#h)"/><circle fill="url(#i)" cx="100.879" cy="33.855" r="2.551"/><circle fill="url(#j)" cx="116.776" cy="33.855" r="2.551"/><circle fill="url(#k)" cx="34.248" cy="33.855" r="2.551"/><path d="M57.014 14.72s22.963-9.028 53.972-9.028c31.01 0-2.257 8.733-2.257 8.733l-51.715.295z" fill="url(#l)" opacity=".2"/><path d="M143.565 19.332l-.098 8.537c-.785 0-1.472-.687-1.374-1.472.099-3.042.393-9.911.687-10.598.393-.883.785-1.668.785-1.668v5.2z" fill="url(#m)"/><path d="M5.495 29.341l3.926-.981c.196 0 .294.098.294.294-.098.393-.49.982-1.08 1.374-.785.49-2.55.196-3.238.098-.098 0-.196-.098-.196-.294l.098-.295c0-.196.098-.196.196-.196z" fill="#FFF"/></g><path fill="url(#n)" fill-rule="nonzero" opacity=".6" d="M231.668 72.42H360.22L423.318 143H248.84l-20.705-56.154z" transform="translate(-4)"/><g fill-rule="nonzero"><path fill="#9978BA" d="M270.846 36.308h9.322v23.748h-9.322z"/><path d="M21.883 5.495h.098v23.748H10.206V5.495l5.79-4.808 5.887 4.808z" fill="url(#o)" transform="translate(269.963 30.813)"/><path fill="#E95B72" d="M270.846 36.309l5.593-4.809h9.519l-5.79 4.809z"/><path fill="url(#p)" d="M.883 19.724h47.201v21.883H.883z" transform="translate(269.963 30.813)"/><path fill="#9978BA" d="M270.846 50.538l9.322-6.477 9.42 6.477z"/><path fill="#E95B72" d="M280.168 44.061h28.262l9.617 6.477h-28.458z"/><path fill="url(#q)" d="M28.458 18.154l-1.766-3.14 3.336-1.276v4.318z" transform="translate(269.963 30.813)"/><path fill="url(#r)" d="M35.425 18.154l-1.766-3.14 3.434-1.276v4.318z" transform="translate(269.963 30.813)"/><path fill="#FA929F" d="M301.659 45.73l-1.668-1.178-1.57 1.177v3.239h3.238z"/><path fill="url(#s)" d="M6.575 4.907l1.766-3.14L4.907.49v4.22z" transform="translate(269.963 30.813)"/><path fill="#FA929F" d="M273.3 32.384l1.57-1.08 1.667 1.08v3.336H273.3zM308.626 45.73l-1.668-1.178-1.57 1.177v3.239h3.238z"/></g><path d="M501.711 65.44S516.963 39 535.521 39c18.556 0 29.614 26.44 29.614 26.44s5.465-10.857 16.523-10.857 18.684 10.856 18.684 10.856l6.355 11.368s4.322-7.28 9.787-5.492C621.95 73.103 625 80 625 80H486.205s-3.178-14.688 15.506-14.56z" fill="url(#t)" fill-rule="nonzero" opacity=".3" transform="translate(-4)"/><path d="M419.687 52.598v-8.046h-.098l-2.748-10.598-2.748 10.598h.099v8.046h-1.472l-1.472-16.387c0-.785-.59-1.374-1.374-1.374a1.342 1.342 0 0 1-1.374-1.374v-3.827c0-.785-.589-1.374-1.374-1.374l-4.22-12.659-4.22 12.659c-.784 0-1.373.589-1.373 1.374v3.827c0 .785-.589 1.374-1.374 1.374-.785 0-1.374.589-1.374 1.374l-1.472 16.387h-1.472v-8.046l-2.747-10.598-2.748 10.598v8.046h-3.533v140.328h40.234V52.598h-3.14zm-22.668 13.739c.196-.785.883-1.472 1.668-1.668.589-.197 1.08-.099 1.57.098l.589-.59c-.098-.293-.196-.588-.196-.98a2.434 2.434 0 0 1 3.042-2.356c.785.197 1.472.884 1.668 1.669.098.588.098 1.08-.098 1.57.196.196.49.392.588.589.491-.197.982-.295 1.57-.099.786.197 1.473.884 1.669 1.669a2.434 2.434 0 0 1-2.355 3.042c-.393 0-.687-.098-.982-.197l-.588.59c.098.294.196.588.196.98a2.434 2.434 0 0 1-3.042 2.356c-.785-.197-1.472-.884-1.668-1.669-.099-.588-.099-1.079.098-1.57l-.59-.588c-.294.098-.588.196-.98.196-1.374 0-2.552-1.472-2.16-3.042zm14.327 98.72H394.86V88.71c0-4.514 3.729-8.243 8.243-8.243s8.243 3.729 8.243 8.243v76.345zM630.093 52.598v-8.046h-.098l-2.747-10.598-2.748 10.598h.098v8.046h-1.472l-1.472-16.387c0-.785-.589-1.374-1.374-1.374a1.342 1.342 0 0 1-1.373-1.374v-3.827c0-.785-.59-1.374-1.374-1.374l-4.22-12.659-4.22 12.659c-.785 0-1.373.589-1.373 1.374v3.827c0 .785-.59 1.374-1.374 1.374-.785 0-1.374.589-1.374 1.374L603.5 52.598h-1.472v-8.046l-2.748-10.598-2.747 10.598v8.046H593v140.328h40.234V52.598h-3.14zm-22.668 13.739c.196-.785.883-1.472 1.668-1.668.59-.197 1.08-.099 1.57.098l.59-.59c-.099-.293-.197-.588-.197-.98a2.434 2.434 0 0 1 3.042-2.356c.785.197 1.472.884 1.668 1.669.098.588.098 1.08-.098 1.57.196.196.49.392.589.589.49-.197.981-.295 1.57-.099.785.197 1.472.884 1.668 1.669a2.434 2.434 0 0 1-2.355 3.042c-.392 0-.687-.098-.981-.197l-.589.59c.098.294.196.588.196.98a2.434 2.434 0 0 1-3.042 2.356c-.785-.197-1.472-.884-1.668-1.669-.098-.588-.098-1.079.098-1.57l-.589-.588c-.294.098-.588.196-.98.196-1.375 0-2.552-1.472-2.16-3.042zm14.327 98.72h-16.486V88.71c0-4.514 3.73-8.243 8.243-8.243 4.514 0 8.243 3.729 8.243 8.243v76.345z" fill="url(#u)" fill-rule="nonzero" transform="translate(-4)"/><g fill-rule="nonzero"><path fill="url(#v)" d="M.294.687H49.85v84.589H.294z" transform="translate(373.981 122.075)"/><path fill="url(#w)" d="M2.355.687H16.78V8.93H2.355z" transform="translate(373.981 123.056)"/><path fill="url(#x)" d="M17.86.687h14.425V8.93H17.86z" transform="translate(373.981 123.056)"/><path fill="url(#y)" d="M33.364.687h14.425V8.93H33.364z" transform="translate(373.981 123.056)"/><path fill="url(#z)" d="M9.617 10.009h14.425v8.243H9.617z" transform="translate(373.981 123.056)"/><path fill="url(#A)" d="M.294 10.009h8.243v8.243H.294z" transform="translate(373.981 123.056)"/><path fill="url(#B)" d="M25.121 10.009h14.425v8.243H25.121z" transform="translate(373.981 123.056)"/><path fill="url(#C)" d="M40.528 10.009h9.322v8.243h-9.322z" transform="translate(373.981 123.056)"/><path fill="url(#D)" d="M2.355 19.332H16.78v8.243H2.355z" transform="translate(373.981 123.056)"/><path fill="url(#E)" d="M17.86 19.332h14.425v8.243H17.86z" transform="translate(373.981 123.056)"/><path fill="url(#F)" d="M33.364 19.332h14.425v8.243H33.364z" transform="translate(373.981 123.056)"/><path fill="url(#G)" d="M9.617 28.556h14.425v8.243H9.617z" transform="translate(373.981 123.056)"/><path fill="url(#H)" d="M.294 28.556h8.243v8.243H.294z" transform="translate(373.981 123.056)"/><path fill="url(#I)" d="M25.121 28.556h14.425v8.243H25.121z" transform="translate(373.981 123.056)"/><path fill="url(#J)" d="M40.528 28.556h9.322v8.243h-9.322z" transform="translate(373.981 123.056)"/><path fill="url(#K)" d="M2.355 37.879H16.78v8.243H2.355z" transform="translate(373.981 123.056)"/><path fill="url(#L)" d="M17.86 37.879h14.425v8.243H17.86z" transform="translate(373.981 123.056)"/><path fill="url(#M)" d="M33.364 37.879h14.425v8.243H33.364z" transform="translate(373.981 123.056)"/><path fill="url(#N)" d="M9.617 47.201h14.425v8.243H9.617z" transform="translate(373.981 123.056)"/><path fill="url(#O)" d="M.294 47.201h8.243v8.243H.294z" transform="translate(373.981 123.056)"/><path fill="url(#P)" d="M25.121 47.201h14.425v8.243H25.121z" transform="translate(373.981 123.056)"/><path fill="url(#Q)" d="M40.528 47.201h9.322v8.243h-9.322z" transform="translate(373.981 123.056)"/><path fill="url(#R)" d="M2.355 56.425H16.78v8.243H2.355z" transform="translate(373.981 123.056)"/><path fill="url(#S)" d="M17.86 56.425h14.425v8.243H17.86z" transform="translate(373.981 123.056)"/><path fill="url(#T)" d="M33.364 56.425h14.425v8.243H33.364z" transform="translate(373.981 123.056)"/><path fill="url(#U)" d="M9.617 65.748h14.425v8.243H9.617z" transform="translate(373.981 123.056)"/><path fill="url(#V)" d="M.294 65.748h8.243v8.243H.294z" transform="translate(373.981 123.056)"/><path fill="url(#W)" d="M25.121 65.748h14.425v8.243H25.121z" transform="translate(373.981 123.056)"/><path fill="url(#X)" d="M40.528 65.748h9.322v8.243h-9.322z" transform="translate(373.981 123.056)"/><path fill="url(#Y)" d="M2.355 75.07H16.78v8.243H2.355z" transform="translate(373.981 123.056)"/><path fill="url(#Z)" d="M17.86 75.07h14.425v8.243H17.86z" transform="translate(373.981 123.056)"/><path fill="url(#aa)" d="M33.364 75.07h14.425v8.243H33.364z" transform="translate(373.981 123.056)"/></g><g fill-rule="nonzero"><path fill="url(#ab)" d="M.785.687h49.556v84.589H.785z" transform="translate(583 122.075)"/><path fill="url(#ac)" d="M2.846.687h14.425V8.93H2.846z" transform="translate(583 123.056)"/><path fill="url(#ad)" d="M18.35.687h14.425V8.93H18.35z" transform="translate(583 123.056)"/><path fill="url(#ae)" d="M33.757.687h14.425V8.93H33.757z" transform="translate(583 123.056)"/><path fill="url(#af)" d="M10.107 10.009h14.425v8.243H10.107z" transform="translate(583 123.056)"/><path fill="url(#ag)" d="M.785 10.009h8.243v8.243H.785z" transform="translate(583 123.056)"/><path fill="url(#ah)" d="M25.514 10.009h14.425v8.243H25.514z" transform="translate(583 123.056)"/><path fill="url(#ai)" d="M41.019 10.009h9.322v8.243h-9.322z" transform="translate(583 123.056)"/><path fill="url(#aj)" d="M2.846 19.332h14.425v8.243H2.846z" transform="translate(583 123.056)"/><path fill="url(#ak)" d="M18.35 19.332h14.425v8.243H18.35z" transform="translate(583 123.056)"/><path fill="url(#al)" d="M33.757 19.332h14.425v8.243H33.757z" transform="translate(583 123.056)"/><path fill="url(#am)" d="M10.107 28.556h14.425v8.243H10.107z" transform="translate(583 123.056)"/><path fill="url(#an)" d="M.785 28.556h8.243v8.243H.785z" transform="translate(583 123.056)"/><path fill="url(#ao)" d="M25.514 28.556h14.425v8.243H25.514z" transform="translate(583 123.056)"/><path fill="url(#ap)" d="M41.019 28.556h9.322v8.243h-9.322z" transform="translate(583 123.056)"/><path fill="url(#aq)" d="M2.846 37.879h14.425v8.243H2.846z" transform="translate(583 123.056)"/><path fill="url(#ar)" d="M18.35 37.879h14.425v8.243H18.35z" transform="translate(583 123.056)"/><path fill="url(#as)" d="M33.757 37.879h14.425v8.243H33.757z" transform="translate(583 123.056)"/><path fill="url(#at)" d="M10.107 47.201h14.425v8.243H10.107z" transform="translate(583 123.056)"/><path fill="url(#au)" d="M.785 47.201h8.243v8.243H.785z" transform="translate(583 123.056)"/><path fill="url(#av)" d="M25.514 47.201h14.425v8.243H25.514z" transform="translate(583 123.056)"/><path fill="url(#aw)" d="M41.019 47.201h9.322v8.243h-9.322z" transform="translate(583 123.056)"/><path fill="url(#ax)" d="M2.846 56.425h14.425v8.243H2.846z" transform="translate(583 123.056)"/><path fill="url(#ay)" d="M18.35 56.425h14.425v8.243H18.35z" transform="translate(583 123.056)"/><path fill="url(#az)" d="M33.757 56.425h14.425v8.243H33.757z" transform="translate(583 123.056)"/><path fill="url(#aA)" d="M10.107 65.748h14.425v8.243H10.107z" transform="translate(583 123.056)"/><path fill="url(#aB)" d="M.785 65.748h8.243v8.243H.785z" transform="translate(583 123.056)"/><path fill="url(#aC)" d="M25.514 65.748h14.425v8.243H25.514z" transform="translate(583 123.056)"/><path fill="url(#aD)" d="M41.019 65.748h9.322v8.243h-9.322z" transform="translate(583 123.056)"/><path fill="url(#aE)" d="M2.846 75.07h14.425v8.243H2.846z" transform="translate(583 123.056)"/><path fill="url(#aF)" d="M18.35 75.07h14.425v8.243H18.35z" transform="translate(583 123.056)"/><path fill="url(#aG)" d="M33.757 75.07h14.425v8.243H33.757z" transform="translate(583 123.056)"/></g><path d="M268.271 50.538v3.827h-2.355v-13.15h-3.337V36.31h1.276v-1.57h-1.276v-6.183l-7.654-15.7-7.654 15.7v6.183h-1.276v1.472h1.276v4.906h-3.336v13.248h-2.356v-3.827h-6.574V72.42h39.84V50.538h-6.574zm-15.799 3.827v-1.668a2.534 2.534 0 0 1 2.551-2.552 2.534 2.534 0 0 1 2.552 2.552v1.668h-5.103zm3.729-13.15h-2.453V36.31h2.453v4.906zm7.556 11.482v1.668h-5.005v-1.668a2.534 2.534 0 0 1 2.552-2.552c1.275.098 2.453 1.178 2.453 2.552zm-3.336-11.482h-2.454V36.31h2.454v4.906zm-10.795-4.906h2.453v4.906h-2.453V36.31zm-3.336 16.388a2.534 2.534 0 0 1 2.551-2.552 2.534 2.534 0 0 1 2.552 2.552v1.668h-5.005v-1.668h-.098z" fill="url(#aH)" fill-rule="nonzero" transform="translate(-4)"/><g fill-rule="nonzero"><path d="M196.56 50.93v.098c0 .393.099.785.099 1.178 0 1.276-.098 2.551-.49 3.729a9.074 9.074 0 0 1-1.669 2.846c1.766 1.57 2.453 3.925 2.159 6.378 0-.098 0-.294.098-.392-.098 1.08-.098 2.06-.098 3.14 0 2.355-1.178 4.318-2.846 5.593-.294.491-.589.884-.883 1.178h4.22V50.93h-.59z" fill="#9978BA"/><path fill="url(#aI)" d="M6.477 5.397h11.776v23.748H6.477z" transform="translate(190.477 45.533)"/><path d="M197.248 46.122c0 .883-.098 1.668-.295 2.551 0 .196-.294.883-.49 1.472V50.93h.392l5.888-4.808h-5.495z" fill="#E95B72"/><path fill="#FA929F" d="M196.953 50.93l5.888-4.808 5.888 4.808z"/><path d="M6.182 19.626c-.098.883-.098 1.767-.098 2.65 0 2.355-1.177 4.317-2.846 5.593-.588.981-1.374 1.865-2.355 2.453 1.668 2.846 3.827 5.201 6.673 6.673 1.766.884 2.846 2.552 3.238 4.416h33.66V19.626H6.181z" fill="url(#aJ)" transform="translate(190.477 45.533)"/><path d="M196.56 65.061c0-.098 0-.294.099-.392v.49h9.813l-9.42-6.476-1.57 1.079c.882 1.57 1.373 3.435 1.079 5.3z" fill="#9978BA"/><path fill="#E95B72" d="M196.953 58.78h28.36l9.519 6.38h-28.458z"/><path fill="url(#aK)" d="M24.729 18.154l-1.766-3.238 3.434-1.178v4.22z" transform="translate(190.477 45.533)"/><path fill="url(#aL)" d="M31.794 18.154l-1.766-3.238 3.336-1.178v4.22z" transform="translate(190.477 45.533)"/><path fill="#FA929F" d="M218.542 60.35l-1.668-1.079-1.668 1.08v3.336h3.336zM225.411 60.35l-1.57-1.079-1.668 1.08v3.336h3.238z"/></g><g fill-rule="nonzero"><path d="M262.232 90.177h-11.72V66.429h21.042v23.748h-9.322z" fill="#FA929F"/><path fill="#E95B72" d="M271.533 66.533l-5.594-4.808h-9.518l5.887 4.808z"/><path fill="#FA929F" d="M262.308 66.533l-5.887-4.808-5.888 4.808z"/><path fill="url(#aM)" d="M.589 19.528h47.103v21.883H.589z" transform="translate(223.841 61.234)"/><path fill="#FA929F" d="M271.533 80.762l-9.225-6.477-9.42 6.477z"/><path fill="#9978BA" d="M262.308 74.285h-28.36l-9.518 6.477h28.458z"/></g><g opacity=".3"><path fill="url(#aN)" d="M27.488 41.771H39.11V9.024H27.488z" transform="translate(35 51)"/><path fill="url(#aO)" d="M11.622 41.771h65.122V21.304H11.622z" transform="translate(35 51)"/><path fill="url(#aP)" d="M0 41.771h11.622V9.024H0z" transform="translate(35 51)"/><path fill="url(#aQ)" d="M76.744 41.771h11.623V9.024H76.744z" transform="translate(35 51)"/><path fill="#1B58CF" d="M68.298 51l-5.81 9.023H74.11L68.299 51zM111.744 66.35H46.622l-2.79 5.954h70.703zM40.81 51L35 60.023h11.622L40.812 51z"/><path fill="url(#aR)" d="M49.257 41.771h11.622V9.024H49.257z" transform="translate(35 51)"/><path fill="#1B58CF" d="M90.068 51l-5.811 9.023h11.622L90.069 51zM117.555 51l-5.811 9.023h11.623L117.556 51zM47.967 81.793h2.791V77.7h-2.791zM54.108 81.793h2.791V77.7h-2.791zM60.248 81.793h2.791V77.7h-2.791zM66.388 81.793h2.791V77.7h-2.791zM72.528 81.793h2.791V77.7h-2.791zM78.668 81.793h2.791V77.7h-2.791zM99.346 81.793h2.791V77.7h-2.791zM105.486 81.793h2.791V77.7h-2.791z"/></g><path fill="url(#n)" fill-rule="nonzero" d="M105.696 91.655h184.262l63.196 57.21L105.5 150.63z" transform="translate(-4)"/><path fill="#0F4FB5" d="M94 57.9v11.655h23.176l6.951-3.75 6.983 3.75h23.311V57.9zM110.545 37l-4.22 13.266h8.44zM137.876 37l-4.221 13.266h8.44z"/><path d="M39.655.367v19.29L30.21 5.791l-9.445 13.866V.367h-8.44v19.29H0V43h14.134v-5.294a4.018 4.018 0 1 1 8.037 0V43h3.919v-5.294a4.02 4.02 0 0 1 8.039 0V43h4.019v-5.294a4.019 4.019 0 1 1 8.038 0V43h14.235V19.657H48.096V.367h-8.441zM26.09 22.085a4.037 4.037 0 0 1 8.072 0v5.374H26.09v-5.374z" transform="translate(94 49.899)" fill="url(#aS)"/><path d="M.064.748V65.71H14.49c9.814-27.673 36.113-47.495 67.122-47.495 31.01 0 57.308 19.822 67.121 47.495h12.365V.748H.064z" transform="translate(422.786 141.64)" fill="url(#aT)" fill-rule="nonzero"/><path fill="url(#aU)" fill-rule="nonzero" d="M380.925 115.795h45.435v6.967h-45.435z" transform="translate(-4)"/><path fill="url(#aV)" fill-rule="nonzero" d="M590.827 115.795h45.435v6.967h-45.435z" transform="translate(-4)"/><path d="M208.313 52.598v-8.046h-.098l-2.748-10.598-2.747 10.598h.098v8.046h-1.472l-1.472-16.387c0-.785-.589-1.374-1.374-1.374a1.342 1.342 0 0 1-1.374-1.374v-3.827c0-.785-.589-1.374-1.374-1.374l-4.22-12.659-4.219 12.659c-.785 0-1.374.589-1.374 1.374v3.827c0 .785-.589 1.374-1.374 1.374-.785 0-1.373.589-1.373 1.374l-1.472 16.387h-1.472v-8.046L177.5 33.954l-2.748 10.598v8.046h-3.532v140.328h40.233V52.598h-3.14zm-22.668 13.739c.196-.785.883-1.472 1.668-1.668.589-.197 1.08-.099 1.57.098l.589-.59c-.098-.293-.196-.588-.196-.98a2.434 2.434 0 0 1 3.042-2.356c.785.197 1.472.884 1.668 1.669.098.588.098 1.08-.098 1.57.196.196.49.392.589.589.49-.197.98-.295 1.57-.099.785.197 1.472.884 1.668 1.669a2.434 2.434 0 0 1-2.355 3.042c-.393 0-.687-.098-.981-.197l-.59.59c.099.294.197.588.197.98a2.434 2.434 0 0 1-3.042 2.356c-.785-.197-1.472-.884-1.668-1.669-.098-.588-.098-1.079.098-1.57l-.589-.588c-.294.098-.589.196-.981.196-1.374 0-2.65-1.472-2.16-3.042zm14.327 98.72h-16.486V88.71c0-4.514 3.729-8.243 8.243-8.243s8.243 3.729 8.243 8.243v76.345z" fill="url(#aW)" fill-rule="nonzero" transform="translate(-4)"/><g fill-rule="nonzero"><path fill="url(#aX)" d="M.785.687h49.556v84.589H.785z" transform="translate(163 122.075)"/><path fill="url(#aY)" d="M2.846.687h14.425V8.93H2.846z" transform="translate(163 123.056)"/><path fill="url(#aZ)" d="M18.35.687h14.425V8.93H18.35z" transform="translate(163 123.056)"/><path fill="url(#ba)" d="M33.855.687H48.28V8.93H33.855z" transform="translate(163 123.056)"/><path fill="url(#bb)" d="M10.107 10.009h14.425v8.243H10.107z" transform="translate(163 123.056)"/><path fill="url(#bc)" d="M.785 10.009h8.243v8.243H.785z" transform="translate(163 123.056)"/><path fill="url(#bd)" d="M25.612 10.009h14.425v8.243H25.612z" transform="translate(163 123.056)"/><path fill="url(#be)" d="M41.019 10.009h9.322v8.243h-9.322z" transform="translate(163 123.056)"/><path fill="url(#bf)" d="M2.846 19.332h14.425v8.243H2.846z" transform="translate(163 123.056)"/><path fill="url(#bg)" d="M18.35 19.332h14.425v8.243H18.35z" transform="translate(163 123.056)"/><path fill="url(#bh)" d="M33.855 19.332H48.28v8.243H33.855z" transform="translate(163 123.056)"/><path fill="url(#bi)" d="M10.107 28.556h14.425v8.243H10.107z" transform="translate(163 123.056)"/><path fill="url(#bj)" d="M.785 28.556h8.243v8.243H.785z" transform="translate(163 123.056)"/><path fill="url(#bk)" d="M25.612 28.556h14.425v8.243H25.612z" transform="translate(163 123.056)"/><path fill="url(#bl)" d="M41.019 28.556h9.322v8.243h-9.322z" transform="translate(163 123.056)"/><path fill="url(#bm)" d="M2.846 37.879h14.425v8.243H2.846z" transform="translate(163 123.056)"/><path fill="url(#bn)" d="M18.35 37.879h14.425v8.243H18.35z" transform="translate(163 123.056)"/><path fill="url(#bo)" d="M33.855 37.879H48.28v8.243H33.855z" transform="translate(163 123.056)"/><path fill="url(#bp)" d="M10.107 47.201h14.425v8.243H10.107z" transform="translate(163 123.056)"/><path fill="url(#bq)" d="M.785 47.201h8.243v8.243H.785z" transform="translate(163 123.056)"/><path fill="url(#br)" d="M25.612 47.201h14.425v8.243H25.612z" transform="translate(163 123.056)"/><path fill="url(#bs)" d="M41.019 47.201h9.322v8.243h-9.322z" transform="translate(163 123.056)"/><path fill="url(#bt)" d="M2.846 56.425h14.425v8.243H2.846z" transform="translate(163 123.056)"/><path fill="url(#bu)" d="M18.35 56.425h14.425v8.243H18.35z" transform="translate(163 123.056)"/><path fill="url(#bv)" d="M33.855 56.425H48.28v8.243H33.855z" transform="translate(163 123.056)"/><path fill="url(#bw)" d="M10.107 65.748h14.425v8.243H10.107z" transform="translate(163 123.056)"/><path fill="url(#bx)" d="M.785 65.748h8.243v8.243H.785z" transform="translate(163 123.056)"/><path fill="url(#by)" d="M25.612 65.748h14.425v8.243H25.612z" transform="translate(163 123.056)"/><path fill="url(#bz)" d="M41.019 65.748h9.322v8.243h-9.322z" transform="translate(163 123.056)"/><path fill="url(#bA)" d="M2.846 75.07h14.425v8.243H2.846z" transform="translate(163 123.056)"/><path fill="url(#bB)" d="M18.35 75.07h14.425v8.243H18.35z" transform="translate(163 123.056)"/><path fill="url(#bC)" d="M33.855 75.07H48.28v8.243H33.855z" transform="translate(163 123.056)"/></g><path fill="url(#bD)" fill-rule="nonzero" d="M169.846 115.795h45.435v6.967h-45.435z" transform="translate(-4)"/><path d="M354.918.51v7.348c-1.333-4.169-5.241-7.196-9.846-7.196-1.396 0-2.752.274-4.025.812a9.539 9.539 0 0 0-3.495 2.541 9.571 9.571 0 0 0-3.49-2.54 10.28 10.28 0 0 0-4.025-.813c-4.604 0-8.513 3.027-9.848 7.196V.51h-4.97v7.348c-1.334-4.169-5.242-7.196-9.847-7.196-1.395 0-2.75.274-4.024.812a9.559 9.559 0 0 0-3.495 2.541 9.568 9.568 0 0 0-3.49-2.54 10.274 10.274 0 0 0-4.026-.813c-4.603 0-8.51 3.026-9.846 7.194V.51h-4.97V7.856c-1.334-4.168-5.242-7.194-9.847-7.194-1.397 0-2.75.274-4.024.812a9.56 9.56 0 0 0-3.495 2.54 9.58 9.58 0 0 0-3.491-2.54 10.28 10.28 0 0 0-4.024-.812c-4.606 0-8.515 3.027-9.848 7.195V.51h-4.97v7.35c-1.381-4.083-5.243-7.036-9.787-7.036-1.397 0-2.75.274-4.025.814a9.544 9.544 0 0 0-3.492 2.539 9.534 9.534 0 0 0-3.494-2.54A10.264 10.264 0 0 0 211 .825v.985c1.264 0 2.488.248 3.641.735a8.61 8.61 0 0 1 3.258 2.423c-1.722 2.435-2.368 5.648-1.535 8.773l.372 1.397a1.8 1.8 0 0 0 1.744 1.349h.012c.824 0 1.525-.532 1.747-1.326l.375-1.34c.214-.764.336-1.532.378-2.294a8.54 8.54 0 0 1 6.043 7.928h-10.54v65.244h14.439c9.81-27.75 36.265-47.638 67.376-47.638 31.11 0 57.564 19.887 67.375 47.638h12.367V19.454h-10.548c.031-3.811 2.573-7.034 6.052-8.09.042.762.164 1.53.378 2.293l.375 1.34a1.795 1.795 0 0 0 1.746 1.326h.012a1.797 1.797 0 0 0 1.744-1.348l.372-1.397c.834-3.126.187-6.338-1.534-8.774a8.581 8.581 0 0 1 3.257-2.423 9.302 9.302 0 0 1 3.642-.734V.662c-1.394 0-2.75.274-4.025.812a9.555 9.555 0 0 0-3.494 2.541 9.563 9.563 0 0 0-3.491-2.54 10.281 10.281 0 0 0-4.026-.813c-3.6 0-6.771 1.852-8.624 4.651V.51h-4.97zm4.97 9.692V7.383c1.418-3.367 4.75-5.736 8.624-5.736 1.265 0 2.49.247 3.642.734a8.59 8.59 0 0 1 3.255 2.423 10.34 10.34 0 0 0-1.854 5.544 9.546 9.546 0 0 0-6.547 6.176c-1.065-3.193-3.772-5.64-7.12-6.322zm-19.842.15c-.092-2.02-.746-3.951-1.874-5.548a8.592 8.592 0 0 1 3.258-2.423 9.302 9.302 0 0 1 3.642-.734c4.852 0 8.85 3.716 9.309 8.45a9.534 9.534 0 0 0-7.804 6.427 9.545 9.545 0 0 0-6.53-6.172zm-19.318-.255c.456-4.734 4.457-8.45 9.309-8.45 1.264 0 2.489.247 3.641.734a8.597 8.597 0 0 1 3.255 2.423c-1.126 1.596-1.774 3.525-1.855 5.544a9.542 9.542 0 0 0-6.547 6.176 9.534 9.534 0 0 0-7.803-6.427zm-20.38.256c-.092-2.021-.747-3.952-1.875-5.549a8.6 8.6 0 0 1 3.258-2.423 9.3 9.3 0 0 1 3.641-.734c4.854 0 8.853 3.716 9.31 8.45a9.534 9.534 0 0 0-7.804 6.427 9.538 9.538 0 0 0-6.53-6.171zm-19.32-.256c.457-4.734 4.458-8.45 9.31-8.45 1.264 0 2.489.247 3.641.734a8.586 8.586 0 0 1 3.254 2.423 10.341 10.341 0 0 0-1.854 5.545 9.541 9.541 0 0 0-6.547 6.175 9.531 9.531 0 0 0-7.804-6.427zm-20.38.256c-.09-2.021-.744-3.952-1.872-5.549a8.585 8.585 0 0 1 3.257-2.423 9.29 9.29 0 0 1 3.641-.734c4.853 0 8.852 3.716 9.31 8.45a9.533 9.533 0 0 0-7.805 6.427 9.538 9.538 0 0 0-6.53-6.171zm-19.318-.256c.458-4.734 4.456-8.45 9.31-8.45a9.3 9.3 0 0 1 3.64.734 8.597 8.597 0 0 1 3.256 2.423c-1.125 1.596-1.774 3.525-1.856 5.544a9.546 9.546 0 0 0-6.546 6.176 9.534 9.534 0 0 0-7.804-6.427zm-20.336.413c-.081-2.019-.73-3.949-1.855-5.543a8.589 8.589 0 0 1 3.254-2.423 9.316 9.316 0 0 1 3.642-.735c4.852 0 8.85 3.715 9.309 8.45a9.53 9.53 0 0 0-7.804 6.427 9.543 9.543 0 0 0-6.546-6.176zM376.03 5.642c1.418 2.168 1.926 4.961 1.201 7.681l-.372 1.399c-.12.45-.491.613-.797.615h-.007a.802.802 0 0 1-.797-.605l-.376-1.34a9.709 9.709 0 0 1-.346-2.257 8.5 8.5 0 0 1 1.495-.14v-.985c-.505 0-.998.05-1.482.127a9.353 9.353 0 0 1 1.48-4.495zm-38.477 0a9.436 9.436 0 0 1 1.5 4.498 9.382 9.382 0 0 0-1.499-.13c-.505 0-.997.05-1.482.127a9.353 9.353 0 0 1 1.481-4.495zm-39.7 0a9.45 9.45 0 0 1 1.503 4.498 9.429 9.429 0 0 0-1.501-.13c-.506 0-.997.05-1.483.127a9.363 9.363 0 0 1 1.482-4.495zm-39.697 0a9.449 9.449 0 0 1 1.501 4.498 9.426 9.426 0 0 0-1.5-.13c-.505 0-.999.05-1.482.127a9.353 9.353 0 0 1 1.481-4.495zm-40.468 9.241l-.372-1.397c-.725-2.721-.218-5.515 1.202-7.681A9.363 9.363 0 0 1 220 10.3a9.435 9.435 0 0 0-1.483-.127v.984a8.5 8.5 0 0 1 1.495.14 9.656 9.656 0 0 1-.345 2.257l-.376 1.34a.803.803 0 0 1-.8.607h-.005c-.306-.002-.678-.166-.798-.618zm119.092-.151l-.375-1.34a9.71 9.71 0 0 1-.347-2.257 8.52 8.52 0 0 1 1.496-.14c.52 0 1.025.054 1.517.143a9.63 9.63 0 0 1-.316 2.185l-.372 1.399c-.121.45-.492.613-.798.615h-.006c-.304 0-.675-.158-.799-.605zm-39.7 0l-.374-1.34a9.71 9.71 0 0 1-.346-2.257c.486-.087.985-.14 1.495-.14a8.5 8.5 0 0 1 1.52.144 9.743 9.743 0 0 1-.318 2.184l-.373 1.399a.805.805 0 0 1-.797.615h-.006c-.305 0-.675-.158-.8-.605zm-39.697 0l-.375-1.34a9.667 9.667 0 0 1-.347-2.257 8.52 8.52 0 0 1 1.496-.14c.518 0 1.024.054 1.518.144a9.633 9.633 0 0 1-.318 2.184l-.373 1.399c-.119.45-.49.613-.796.615-.327-.037-.679-.155-.805-.605zm97.535-3.703V19.454h-7.845c.036-4.44 3.483-8.078 7.845-8.425zm-34.729 7.816V11.03c4.362.347 7.81 3.984 7.846 8.425h-7.846v-.609zm-4.97-7.816V19.454h-7.845c.038-4.44 3.485-8.077 7.846-8.425zm-34.728 7.816V11.03c4.362.348 7.809 3.984 7.845 8.425h-7.845v-.609zm-4.97-7.816V19.454h-7.845c.036-4.44 3.483-8.077 7.845-8.425zm-34.729 7.816V11.03c4.362.348 7.809 3.984 7.845 8.425h-7.845v-.609zm-4.97-7.65V19.454h-7.778a8.533 8.533 0 0 1 7.778-8.26zm124.066 7.65V11.217c3.767.862 6.59 4.22 6.623 8.237h-6.623v-.609zm-24.81-7.482c.044.763.165 1.53.379 2.294l.375 1.34a1.796 1.796 0 0 0 1.747 1.326h.012a1.797 1.797 0 0 0 1.743-1.348l.372-1.397c.197-.735.304-1.476.342-2.21 3.469 1.063 6.002 4.28 6.032 8.086h-17.053c.032-3.811 2.574-7.034 6.051-8.09zm-39.698 0c.043.763.164 1.53.378 2.294l.374 1.34a1.8 1.8 0 0 0 1.748 1.326h.014a1.798 1.798 0 0 0 1.741-1.348l.374-1.397c.196-.735.303-1.476.34-2.21 3.469 1.063 6.002 4.28 6.034 8.086h-17.054c.03-3.811 2.573-7.034 6.05-8.09zm-39.698 0c.041.763.165 1.53.377 2.294l.375 1.34a1.797 1.797 0 0 0 1.748 1.326h.012a1.798 1.798 0 0 0 1.744-1.348l.37-1.397c.198-.735.305-1.476.343-2.21 3.467 1.063 6 4.28 6.032 8.086H249.63c.03-3.811 2.574-7.034 6.052-8.09z" fill="url(#bE)" transform="translate(-3.398 122.776)"/><path d="M774.317.51v7.348C772.983 3.69 769.075.662 764.47.662c-1.396 0-2.752.274-4.025.812a9.539 9.539 0 0 0-3.494 2.541 9.571 9.571 0 0 0-3.492-2.54 10.28 10.28 0 0 0-4.024-.813c-4.604 0-8.513 3.027-9.847 7.196V.51h-4.97v7.348c-1.335-4.169-5.242-7.196-9.848-7.196-1.395 0-2.75.274-4.024.812a9.559 9.559 0 0 0-3.495 2.541 9.568 9.568 0 0 0-3.49-2.54 10.274 10.274 0 0 0-4.025-.813c-4.604 0-8.512 3.026-9.847 7.194V.51h-4.97V7.856c-1.334-4.168-5.242-7.194-9.846-7.194-1.398 0-2.751.274-4.024.812a9.56 9.56 0 0 0-3.496 2.54 9.58 9.58 0 0 0-3.491-2.54 10.28 10.28 0 0 0-4.024-.812c-4.605 0-8.514 3.027-9.848 7.195V.51h-4.97v7.35c-1.381-4.083-5.243-7.036-9.787-7.036-1.396 0-2.75.274-4.025.814a9.544 9.544 0 0 0-3.491 2.539 9.534 9.534 0 0 0-3.495-2.54 10.264 10.264 0 0 0-4.024-.813v.985c1.264 0 2.488.248 3.641.735a8.61 8.61 0 0 1 3.258 2.423c-1.721 2.435-2.367 5.648-1.535 8.773l.372 1.397a1.8 1.8 0 0 0 1.744 1.349h.012c.824 0 1.526-.532 1.747-1.326l.375-1.34c.214-.764.336-1.532.379-2.294a8.54 8.54 0 0 1 6.043 7.928h-10.54v65.244h14.438c9.81-27.75 36.265-47.638 67.376-47.638 31.11 0 57.564 19.887 67.375 47.638h12.367V19.454h-10.548c.032-3.811 2.574-7.034 6.052-8.09.042.762.165 1.53.378 2.293l.376 1.34a1.795 1.795 0 0 0 1.746 1.326h.012a1.797 1.797 0 0 0 1.744-1.348l.371-1.397c.834-3.126.187-6.338-1.533-8.774a8.581 8.581 0 0 1 3.256-2.423 9.302 9.302 0 0 1 3.643-.734V.662c-1.395 0-2.751.274-4.026.812a9.555 9.555 0 0 0-3.494 2.541 9.563 9.563 0 0 0-3.491-2.54 10.281 10.281 0 0 0-4.025-.813c-3.6 0-6.772 1.852-8.625 4.651V.51h-4.97zm4.97 9.692V7.383c1.417-3.367 4.75-5.736 8.624-5.736 1.264 0 2.49.247 3.642.734a8.59 8.59 0 0 1 3.255 2.423 10.34 10.34 0 0 0-1.855 5.544 9.546 9.546 0 0 0-6.547 6.176c-1.065-3.193-3.772-5.64-7.12-6.322zm-19.843.15c-.091-2.02-.746-3.951-1.874-5.548a8.592 8.592 0 0 1 3.258-2.423 9.302 9.302 0 0 1 3.642-.734c4.852 0 8.851 3.716 9.309 8.45a9.534 9.534 0 0 0-7.804 6.427 9.545 9.545 0 0 0-6.53-6.172zm-19.318-.255c.456-4.734 4.457-8.45 9.31-8.45 1.263 0 2.488.247 3.64.734a8.597 8.597 0 0 1 3.255 2.423c-1.126 1.596-1.774 3.525-1.854 5.544a9.542 9.542 0 0 0-6.548 6.176 9.534 9.534 0 0 0-7.803-6.427zm-20.38.256c-.092-2.021-.747-3.952-1.875-5.549a8.6 8.6 0 0 1 3.258-2.423 9.3 9.3 0 0 1 3.641-.734c4.854 0 8.853 3.716 9.31 8.45a9.534 9.534 0 0 0-7.804 6.427 9.538 9.538 0 0 0-6.53-6.171zm-19.32-.256c.458-4.734 4.458-8.45 9.31-8.45 1.264 0 2.49.247 3.642.734a8.586 8.586 0 0 1 3.253 2.423 10.341 10.341 0 0 0-1.854 5.545 9.541 9.541 0 0 0-6.546 6.175 9.531 9.531 0 0 0-7.804-6.427zm-20.38.256c-.09-2.021-.744-3.952-1.872-5.549a8.585 8.585 0 0 1 3.258-2.423 9.29 9.29 0 0 1 3.64-.734c4.853 0 8.853 3.716 9.31 8.45a9.533 9.533 0 0 0-7.804 6.427 9.538 9.538 0 0 0-6.531-6.171zm-19.318-.256c.458-4.734 4.456-8.45 9.31-8.45a9.3 9.3 0 0 1 3.64.734 8.597 8.597 0 0 1 3.256 2.423c-1.125 1.596-1.774 3.525-1.856 5.544a9.546 9.546 0 0 0-6.546 6.176 9.534 9.534 0 0 0-7.804-6.427zm-20.335.413c-.082-2.019-.731-3.949-1.856-5.543a8.589 8.589 0 0 1 3.254-2.423 9.316 9.316 0 0 1 3.642-.735c4.852 0 8.851 3.715 9.309 8.45a9.53 9.53 0 0 0-7.804 6.427 9.543 9.543 0 0 0-6.545-6.176zm155.035-4.868c1.418 2.168 1.926 4.961 1.202 7.681l-.373 1.399c-.12.45-.491.613-.796.615h-.007a.802.802 0 0 1-.798-.605l-.376-1.34a9.709 9.709 0 0 1-.346-2.257 8.5 8.5 0 0 1 1.495-.14v-.985c-.505 0-.998.05-1.482.127a9.353 9.353 0 0 1 1.481-4.495zm-38.476 0a9.436 9.436 0 0 1 1.499 4.498 9.382 9.382 0 0 0-1.498-.13c-.506 0-.998.05-1.483.127a9.353 9.353 0 0 1 1.482-4.495zm-39.7 0a9.45 9.45 0 0 1 1.502 4.498 9.429 9.429 0 0 0-1.501-.13c-.505 0-.997.05-1.482.127a9.363 9.363 0 0 1 1.481-4.495zm-39.698 0a9.449 9.449 0 0 1 1.501 4.498 9.426 9.426 0 0 0-1.5-.13c-.505 0-.998.05-1.482.127a9.353 9.353 0 0 1 1.481-4.495zm-40.468 9.241l-.372-1.397c-.725-2.721-.218-5.515 1.203-7.681a9.363 9.363 0 0 1 1.48 4.495 9.435 9.435 0 0 0-1.481-.127v.984a8.5 8.5 0 0 1 1.495.14 9.656 9.656 0 0 1-.346 2.257l-.376 1.34a.803.803 0 0 1-.799.607h-.006c-.306-.002-.677-.166-.798-.618zm119.093-.151l-.376-1.34a9.71 9.71 0 0 1-.346-2.257 8.52 8.52 0 0 1 1.496-.14c.519 0 1.024.054 1.516.143a9.63 9.63 0 0 1-.316 2.185l-.372 1.399c-.121.45-.492.613-.798.615h-.006c-.304 0-.674-.158-.798-.605zm-39.7 0l-.374-1.34a9.71 9.71 0 0 1-.347-2.257c.486-.087.985-.14 1.495-.14a8.5 8.5 0 0 1 1.52.144 9.743 9.743 0 0 1-.318 2.184l-.373 1.399a.805.805 0 0 1-.797.615h-.005c-.306 0-.676-.158-.801-.605zm-39.698 0l-.375-1.34a9.667 9.667 0 0 1-.347-2.257 8.52 8.52 0 0 1 1.496-.14c.518 0 1.025.054 1.518.144a9.633 9.633 0 0 1-.318 2.184l-.372 1.399c-.12.45-.49.613-.797.615-.327-.037-.679-.155-.805-.605zm97.536-3.703V19.454h-7.846c.037-4.44 3.484-8.078 7.846-8.425zm-34.73 7.816V11.03c4.363.347 7.81 3.984 7.846 8.425h-7.845v-.609zm-4.969-7.816V19.454h-7.845c.037-4.44 3.484-8.077 7.845-8.425zm-34.73 7.816V11.03c4.363.348 7.81 3.984 7.846 8.425h-7.845v-.609zm-4.969-7.816V19.454h-7.845c.036-4.44 3.483-8.077 7.845-8.425zm-34.729 7.816V11.03c4.362.348 7.81 3.984 7.846 8.425h-7.846v-.609zm-4.97-7.65V19.454h-7.778a8.533 8.533 0 0 1 7.779-8.26zm124.066 7.65V11.217c3.767.862 6.59 4.22 6.623 8.237h-6.623v-.609zm-24.81-7.482c.044.763.165 1.53.379 2.294l.375 1.34a1.796 1.796 0 0 0 1.747 1.326h.012a1.797 1.797 0 0 0 1.743-1.348l.373-1.397c.196-.735.303-1.476.341-2.21 3.469 1.063 6.002 4.28 6.033 8.086h-17.053c.031-3.811 2.573-7.034 6.05-8.09zm-39.698 0c.043.763.164 1.53.378 2.294l.374 1.34a1.8 1.8 0 0 0 1.749 1.326h.013a1.798 1.798 0 0 0 1.742-1.348l.373-1.397c.196-.735.303-1.476.34-2.21 3.47 1.063 6.002 4.28 6.034 8.086h-17.054c.03-3.811 2.573-7.034 6.051-8.09zm-39.698 0c.042.763.165 1.53.377 2.294l.376 1.34a1.797 1.797 0 0 0 1.747 1.326h.013a1.798 1.798 0 0 0 1.743-1.348l.371-1.397c.197-.735.304-1.476.342-2.21 3.468 1.063 6 4.28 6.032 8.086h-17.053c.03-3.811 2.574-7.034 6.052-8.09z" fill="url(#bF)" transform="translate(-3.398 122.776)"/><path d="M144.317.51v7.348C142.983 3.69 139.075.662 134.47.662c-1.396 0-2.752.274-4.025.812a9.539 9.539 0 0 0-3.494 2.541 9.571 9.571 0 0 0-3.492-2.54 10.28 10.28 0 0 0-4.024-.813c-4.604 0-8.513 3.027-9.847 7.196V.51h-4.97v7.348C103.283 3.688 99.376.661 94.77.661c-1.395 0-2.75.274-4.024.812a9.559 9.559 0 0 0-3.495 2.541 9.568 9.568 0 0 0-3.49-2.54 10.274 10.274 0 0 0-4.025-.813c-4.604 0-8.512 3.026-9.847 7.194V.51h-4.97V7.856C63.585 3.688 59.677.662 55.073.662c-1.398 0-2.751.274-4.024.812a9.56 9.56 0 0 0-3.496 2.54 9.58 9.58 0 0 0-3.491-2.54 10.28 10.28 0 0 0-4.024-.812c-4.605 0-8.514 3.027-9.848 7.195V.51h-4.97v7.35C23.84 3.777 19.978.824 15.434.824c-1.396 0-2.75.274-4.025.814a9.544 9.544 0 0 0-3.491 2.539 9.534 9.534 0 0 0-3.495-2.54A10.264 10.264 0 0 0 .398.825v.985c1.264 0 2.488.248 3.641.735a8.61 8.61 0 0 1 3.258 2.423C5.576 7.402 4.93 10.615 5.762 13.74l.372 1.397a1.8 1.8 0 0 0 1.744 1.349h.012c.824 0 1.526-.532 1.747-1.326l.375-1.34c.214-.764.336-1.532.379-2.294a8.54 8.54 0 0 1 6.043 7.928H5.894v65.244h14.438c9.81-27.75 36.265-47.638 67.376-47.638 31.11 0 57.564 19.887 67.375 47.638h12.367V19.454h-10.548c.032-3.811 2.574-7.034 6.052-8.09.042.762.165 1.53.378 2.293l.376 1.34a1.795 1.795 0 0 0 1.746 1.326h.012a1.797 1.797 0 0 0 1.744-1.348l.371-1.397c.834-3.126.187-6.338-1.533-8.774a8.581 8.581 0 0 1 3.256-2.423 9.302 9.302 0 0 1 3.643-.734V.662c-1.395 0-2.751.274-4.026.812a9.555 9.555 0 0 0-3.494 2.541 9.563 9.563 0 0 0-3.491-2.54 10.281 10.281 0 0 0-4.025-.813c-3.6 0-6.772 1.852-8.625 4.651V.51h-4.97zm4.97 9.692V7.383c1.417-3.367 4.75-5.736 8.624-5.736 1.264 0 2.49.247 3.642.734a8.59 8.59 0 0 1 3.255 2.423 10.34 10.34 0 0 0-1.855 5.544 9.546 9.546 0 0 0-6.547 6.176c-1.065-3.193-3.772-5.64-7.12-6.322zm-19.843.15c-.091-2.02-.746-3.951-1.874-5.548a8.592 8.592 0 0 1 3.258-2.423 9.302 9.302 0 0 1 3.642-.734c4.852 0 8.851 3.716 9.309 8.45a9.534 9.534 0 0 0-7.804 6.427 9.545 9.545 0 0 0-6.53-6.172zm-19.318-.255c.456-4.734 4.457-8.45 9.31-8.45 1.263 0 2.488.247 3.64.734a8.597 8.597 0 0 1 3.255 2.423c-1.126 1.596-1.774 3.525-1.854 5.544a9.542 9.542 0 0 0-6.548 6.176 9.534 9.534 0 0 0-7.803-6.427zm-20.38.256c-.092-2.021-.747-3.952-1.875-5.549a8.6 8.6 0 0 1 3.258-2.423 9.3 9.3 0 0 1 3.641-.734c4.854 0 8.853 3.716 9.31 8.45a9.534 9.534 0 0 0-7.804 6.427 9.538 9.538 0 0 0-6.53-6.171zm-19.32-.256c.458-4.734 4.458-8.45 9.31-8.45 1.264 0 2.49.247 3.642.734a8.586 8.586 0 0 1 3.253 2.423 10.341 10.341 0 0 0-1.854 5.545 9.541 9.541 0 0 0-6.546 6.175 9.531 9.531 0 0 0-7.804-6.427zm-20.38.256c-.09-2.021-.744-3.952-1.872-5.549a8.585 8.585 0 0 1 3.258-2.423 9.29 9.29 0 0 1 3.64-.734c4.853 0 8.853 3.716 9.31 8.45a9.533 9.533 0 0 0-7.804 6.427 9.538 9.538 0 0 0-6.531-6.171zm-19.318-.256c.458-4.734 4.456-8.45 9.31-8.45a9.3 9.3 0 0 1 3.64.734 8.597 8.597 0 0 1 3.256 2.423C45.809 6.4 45.16 8.33 45.078 10.348a9.546 9.546 0 0 0-6.546 6.176 9.534 9.534 0 0 0-7.804-6.427zm-20.335.413c-.082-2.019-.731-3.949-1.856-5.543a8.589 8.589 0 0 1 3.254-2.423 9.316 9.316 0 0 1 3.642-.735c4.852 0 8.851 3.715 9.309 8.45a9.53 9.53 0 0 0-7.804 6.427 9.543 9.543 0 0 0-6.545-6.176zm155.035-4.868c1.418 2.168 1.926 4.961 1.202 7.681l-.373 1.399c-.12.45-.491.613-.796.615h-.007a.802.802 0 0 1-.798-.605l-.376-1.34a9.709 9.709 0 0 1-.346-2.257 8.5 8.5 0 0 1 1.495-.14v-.985c-.505 0-.998.05-1.482.127a9.353 9.353 0 0 1 1.481-4.495zm-38.476 0a9.436 9.436 0 0 1 1.499 4.498 9.382 9.382 0 0 0-1.498-.13c-.506 0-.998.05-1.483.127a9.353 9.353 0 0 1 1.482-4.495zm-39.7 0a9.45 9.45 0 0 1 1.502 4.498 9.429 9.429 0 0 0-1.501-.13c-.505 0-.997.05-1.482.127a9.363 9.363 0 0 1 1.481-4.495zm-39.698 0a9.449 9.449 0 0 1 1.501 4.498 9.426 9.426 0 0 0-1.5-.13c-.505 0-.998.05-1.482.127a9.353 9.353 0 0 1 1.481-4.495zM7.086 14.883l-.372-1.397c-.725-2.721-.218-5.515 1.203-7.681a9.363 9.363 0 0 1 1.48 4.495 9.435 9.435 0 0 0-1.481-.127v.984a8.5 8.5 0 0 1 1.495.14 9.656 9.656 0 0 1-.346 2.257l-.376 1.34a.803.803 0 0 1-.799.607h-.006c-.306-.002-.677-.166-.798-.618zm119.093-.151l-.376-1.34a9.71 9.71 0 0 1-.346-2.257 8.52 8.52 0 0 1 1.496-.14c.519 0 1.024.054 1.516.143a9.63 9.63 0 0 1-.316 2.185l-.372 1.399c-.121.45-.492.613-.798.615h-.006c-.304 0-.674-.158-.798-.605zm-39.7 0l-.374-1.34a9.71 9.71 0 0 1-.347-2.257c.486-.087.985-.14 1.495-.14a8.5 8.5 0 0 1 1.52.144 9.743 9.743 0 0 1-.318 2.184l-.373 1.399a.805.805 0 0 1-.797.615h-.005c-.306 0-.676-.158-.801-.605zm-39.698 0l-.375-1.34a9.666 9.666 0 0 1-.347-2.257 8.52 8.52 0 0 1 1.496-.14c.518 0 1.025.054 1.518.144a9.633 9.633 0 0 1-.318 2.184l-.372 1.399c-.12.45-.49.613-.797.615-.327-.037-.679-.155-.805-.605zm97.536-3.703V19.454h-7.846c.037-4.44 3.484-8.078 7.846-8.425zm-34.73 7.816V11.03c4.363.347 7.81 3.984 7.846 8.425h-7.845v-.609zm-4.969-7.816V19.454h-7.845c.037-4.44 3.484-8.077 7.845-8.425zm-34.73 7.816V11.03c4.363.348 7.81 3.984 7.846 8.425H69.89v-.609zM64.92 11.03V19.454h-7.845c.036-4.44 3.483-8.077 7.845-8.425zM30.19 18.845V11.03c4.362.348 7.81 3.984 7.846 8.425H30.19v-.609zm-4.97-7.65V19.454h-7.778a8.533 8.533 0 0 1 7.779-8.26zm124.066 7.65V11.217c3.767.862 6.59 4.22 6.623 8.237h-6.623v-.609zm-24.81-7.482c.044.763.165 1.53.379 2.294l.375 1.34a1.796 1.796 0 0 0 1.747 1.326h.012a1.797 1.797 0 0 0 1.743-1.348l.373-1.397c.196-.735.303-1.476.341-2.21 3.469 1.063 6.002 4.28 6.033 8.086h-17.053c.031-3.811 2.573-7.034 6.05-8.09zm-39.698 0c.043.763.164 1.53.378 2.294l.374 1.34a1.8 1.8 0 0 0 1.749 1.326h.013a1.798 1.798 0 0 0 1.742-1.348l.373-1.397c.196-.735.303-1.476.34-2.21 3.47 1.063 6.002 4.28 6.034 8.086H78.727c.03-3.811 2.573-7.034 6.051-8.09zm-39.698 0c.042.763.165 1.53.377 2.294l.376 1.34a1.797 1.797 0 0 0 1.747 1.326h.013a1.798 1.798 0 0 0 1.743-1.348l.371-1.397c.197-.735.304-1.476.342-2.21 3.468 1.063 6 4.28 6.032 8.086H39.028c.03-3.811 2.574-7.034 6.052-8.09z" fill="url(#bG)" transform="translate(-3.398 122.776)"/><path d="M.042.742v65.244H14.48c9.812-27.75 36.266-47.638 67.378-47.638 31.11 0 57.562 19.887 67.374 47.638h12.367V.742H.042z" transform="translate(423.286 141.488)" fill="url(#bH)"/><path d="M247.173 180.07l8.662-5.882-14.256-31.8-8.831.196v62.117l8.046-16.78a35.474 35.474 0 0 1 6.379-7.85z" fill="url(#bI)" fill-rule="nonzero" transform="translate(-4)"/><path fill="url(#bJ)" fill-rule="nonzero" d="M258.85 142.584l3.024 27.488 9.047-5.016 1.275-22.472z" transform="translate(-4)"/><path d="M336.472 142.584l10.99-.196 7.851 22.668s3.238 5.398 7.556 7.066c4.318 1.668 9.224 4.416 9.617 11.481.294 7.164 1.276 23.552 1.276 23.552l-7.753.196s-8.145-26.888-32.383-38.467l2.846-26.3z" fill="url(#bK)" fill-rule="nonzero" transform="translate(-4)"/><path fill="url(#bL)" fill-rule="nonzero" d="M426.85 142.388l14.426 64.963H425.77z" transform="translate(-4)"/><path fill="url(#bM)" fill-rule="nonzero" d="M217.734 142.388l13.817 64.963h-14.799z" transform="translate(-4)"/><path d="M454.72 142.584h7.163s-.49 6.968 1.178 8.047c1.668 1.08 7.85 3.042 7.85 3.042l2.257 15.505s-10.304 5.593-16.191 12.56l-2.257-39.154z" fill="url(#bN)" fill-rule="nonzero" transform="translate(-4)"/><path d="M313.117 16.683S322.734.098 334.41.098c11.678 0 18.645 16.585 18.645 16.585s3.533-6.87 10.5-6.87c6.967 0 11.776 6.87 11.776 6.87l4.023 7.065s2.748-4.514 6.182-3.533c3.533 1.08 5.398 5.496 5.398 5.496h-87.533c0 .098-2.06-9.127 9.715-9.028z" fill="url(#bO)" fill-rule="nonzero" transform="translate(-4)"/><path d="M442.453 213.996c-.589 0-1.177.196-1.57.392-3.533 2.552-9.42 4.318-16.191 4.318-6.085 0-11.58-1.472-15.21-3.63-1.08-.688-2.65-1.08-4.417-1.08-1.766 0-3.336.392-4.415 1.08-3.631 2.256-9.029 3.63-15.21 3.63-6.183 0-11.58-1.472-15.211-3.63-1.08-.688-2.65-1.08-4.416-1.08-1.766 0-3.336.392-4.416 1.08-3.63 2.256-9.028 3.63-15.21 3.63-6.084 0-11.58-1.472-15.21-3.63-1.08-.688-2.65-1.08-4.416-1.08-1.767 0-3.337.392-4.416 1.08-3.631 2.256-9.028 3.63-15.21 3.63-6.673 0-12.66-1.668-16.192-4.318-.393-.294-.883-.392-1.57-.392-1.08 0-1.865.392-1.865.981v26.397h156.813v-26.397c.197-.589-.588-.981-1.668-.981z" fill="url(#bP)" fill-rule="nonzero" transform="translate(-4)"/><path d="M502.313 204.183c-.589 0-1.177.196-1.57.392-3.533 2.551-9.42 4.318-16.192 4.318-6.084 0-11.579-1.472-15.21-3.631-1.08-.687-2.65-1.08-4.416-1.08-1.766 0-3.336.393-4.416 1.08-3.63 2.257-9.028 3.63-15.21 3.63-6.084 0-11.58-1.471-15.21-3.63-1.08-.687-2.65-1.08-4.416-1.08-1.766 0-3.337.393-4.416 1.08-3.63 2.257-9.028 3.63-15.21 3.63-6.183 0-11.58-1.471-15.21-3.63-1.08-.687-2.65-1.08-4.416-1.08-1.767 0-3.337.393-4.416 1.08-3.631 2.257-9.028 3.63-15.21 3.63-6.674 0-12.66-1.667-16.192-4.317-.393-.294-.883-.392-1.57-.392-1.08 0-1.865.392-1.865.98v26.398h156.813v-26.397c.197-.589-.588-.981-1.668-.981zM250.145 204.183c-.589 0-1.178.196-1.57.392-3.533 2.551-9.42 4.318-16.192 4.318-6.084 0-11.58-1.472-15.21-3.631-1.08-.687-2.65-1.08-4.416-1.08-1.766 0-3.336.393-4.416 1.08-3.63 2.257-9.028 3.63-15.21 3.63-6.084 0-11.58-1.471-15.21-3.63-1.08-.687-2.65-1.08-4.416-1.08-1.767 0-3.337.393-4.416 1.08-3.631 2.257-9.028 3.63-15.21 3.63-6.183 0-11.58-1.471-15.21-3.63-1.08-.687-2.65-1.08-4.417-1.08-1.766 0-3.336.393-4.416 1.08-3.63 2.257-9.028 3.63-15.21 3.63-6.673 0-12.659-1.667-16.191-4.317-.393-.294-.884-.392-1.57-.392-1.08 0-1.865.392-1.865.98v26.398h156.813v-26.397c.196-.589-.589-.981-1.668-.981z" fill="url(#bQ)" fill-rule="nonzero" transform="translate(-4)"/><path d="M332.145 211.183c-.589 0-1.178.196-1.57.392-3.533 2.551-9.42 4.318-16.192 4.318-6.084 0-11.58-1.472-15.21-3.631-1.08-.687-2.65-1.08-4.416-1.08-1.766 0-3.336.393-4.416 1.08-3.63 2.257-9.028 3.63-15.21 3.63-6.084 0-11.58-1.471-15.21-3.63-1.08-.687-2.65-1.08-4.416-1.08-1.767 0-3.337.393-4.416 1.08-3.631 2.257-9.028 3.63-15.21 3.63-6.183 0-11.58-1.471-15.21-3.63-1.08-.687-2.65-1.08-4.417-1.08-1.766 0-3.336.393-4.416 1.08-3.63 2.257-9.028 3.63-15.21 3.63-6.673 0-12.659-1.667-16.191-4.317-.393-.294-.884-.392-1.57-.392-1.08 0-1.865.392-1.865.98v26.398h156.813v-26.397c.196-.589-.589-.981-1.668-.981z" fill="url(#bQ)" fill-rule="nonzero" transform="translate(-4)"/><path d="M351.145 205c-.589 0-1.178.196-1.57.393-3.533 2.55-9.42 4.317-16.192 4.317-6.084 0-11.58-1.472-15.21-3.63-1.08-.687-2.65-1.08-4.416-1.08-1.766 0-3.336.393-4.416 1.08-3.63 2.256-9.028 3.63-15.21 3.63s-11.58-1.472-15.21-3.63c-1.08-.687-2.65-1.08-4.416-1.08-1.767 0-3.337.393-4.416 1.08-3.631 2.256-9.028 3.63-15.21 3.63-6.085 0-11.58-1.472-15.21-3.63-1.08-.687-2.65-1.08-4.417-1.08-1.766 0-3.336.393-4.416 1.08-3.63 2.256-9.028 3.63-15.21 3.63-6.673 0-12.659-1.668-16.191-4.317-.393-.295-.884-.393-1.57-.393-1.08 0-1.865.393-1.865.981v26.398h156.813V205.98c.196-.49-.687-.981-1.668-.981zM610.145 205c-.589 0-1.178.196-1.57.393-3.533 2.55-9.42 4.317-16.192 4.317-6.084 0-11.58-1.472-15.21-3.63-1.08-.687-2.65-1.08-4.416-1.08-1.766 0-3.336.393-4.416 1.08-3.63 2.256-9.028 3.63-15.21 3.63s-11.58-1.472-15.21-3.63c-1.08-.687-2.65-1.08-4.416-1.08-1.767 0-3.337.393-4.416 1.08-3.631 2.256-9.028 3.63-15.21 3.63-6.085 0-11.58-1.472-15.21-3.63-1.08-.687-2.65-1.08-4.417-1.08-1.766 0-3.336.393-4.416 1.08-3.63 2.256-9.028 3.63-15.21 3.63-6.673 0-12.659-1.668-16.191-4.317-.393-.295-.884-.393-1.57-.393-1.08 0-1.865.393-1.865.981v26.398h156.813V205.98c.196-.49-.687-.981-1.668-.981z" fill="url(#bR)" fill-rule="nonzero" transform="translate(-4)"/><path d="M726.145 208c-.589 0-1.178.196-1.57.393-3.533 2.55-9.42 4.317-16.192 4.317-6.084 0-11.58-1.472-15.21-3.63-1.08-.687-2.65-1.08-4.416-1.08-1.766 0-3.336.393-4.416 1.08-3.63 2.256-9.028 3.63-15.21 3.63s-11.58-1.472-15.21-3.63c-1.08-.687-2.65-1.08-4.416-1.08-1.767 0-3.337.393-4.416 1.08-3.631 2.256-9.028 3.63-15.21 3.63-6.085 0-11.58-1.472-15.21-3.63-1.08-.687-2.65-1.08-4.417-1.08-1.766 0-3.336.393-4.416 1.08-3.63 2.256-9.028 3.63-15.21 3.63-6.673 0-12.659-1.668-16.191-4.317-.393-.295-.884-.393-1.57-.393-1.08 0-1.865.393-1.865.981v26.398h156.813V208.98c.196-.49-.687-.981-1.668-.981z" fill="url(#bR)" fill-rule="nonzero" transform="translate(-4)"/><path d="M780.145 217c-.589 0-1.178.196-1.57.393-3.533 2.55-9.42 4.317-16.192 4.317-6.084 0-11.58-1.472-15.21-3.63-1.08-.687-2.65-1.08-4.416-1.08-1.766 0-3.336.393-4.416 1.08-3.63 2.256-9.028 3.63-15.21 3.63s-11.58-1.472-15.21-3.63c-1.08-.687-2.65-1.08-4.416-1.08-1.767 0-3.337.393-4.416 1.08-3.631 2.256-9.028 3.63-15.21 3.63-6.085 0-11.58-1.472-15.21-3.63-1.08-.687-2.65-1.08-4.417-1.08-1.766 0-3.336.393-4.416 1.08-3.63 2.256-9.028 3.63-15.21 3.63-6.673 0-12.659-1.668-16.191-4.317-.393-.295-.884-.393-1.57-.393-1.08 0-1.865.393-1.865.981v26.398h156.813V217.98c.196-.49-.687-.981-1.668-.981z" fill="url(#bR)" fill-rule="nonzero" transform="translate(-4)"/><path d="M655.145 221c-.589 0-1.178.196-1.57.393-3.533 2.55-9.42 4.317-16.192 4.317-6.084 0-11.58-1.472-15.21-3.63-1.08-.687-2.65-1.08-4.416-1.08-1.766 0-3.336.393-4.416 1.08-3.63 2.256-9.028 3.63-15.21 3.63-6.084 0-11.58-1.472-15.21-3.63-1.08-.687-2.65-1.08-4.416-1.08-1.767 0-3.337.393-4.416 1.08-3.631 2.256-9.028 3.63-15.21 3.63-6.183 0-11.58-1.472-15.21-3.63-1.08-.687-2.65-1.08-4.417-1.08-1.766 0-3.336.393-4.416 1.08-3.63 2.256-9.028 3.63-15.21 3.63-6.673 0-12.659-1.668-16.191-4.317-.393-.295-.884-.393-1.57-.393-1.08 0-1.865.393-1.865.981v26.398h157.01V221.98c0-.588-.884-.981-1.865-.981z" fill="url(#bS)" fill-rule="nonzero" transform="translate(-4)"/><path d="M529.145 225c-.589 0-1.178.196-1.57.393-3.533 2.55-9.42 4.317-16.192 4.317-6.084 0-11.58-1.472-15.21-3.63-1.08-.687-2.65-1.08-4.416-1.08-1.766 0-3.336.393-4.416 1.08-3.63 2.256-9.028 3.63-15.21 3.63-6.084 0-11.58-1.472-15.21-3.63-1.08-.687-2.65-1.08-4.416-1.08-1.767 0-3.337.393-4.416 1.08-3.631 2.256-9.028 3.63-15.21 3.63-6.183 0-11.58-1.472-15.21-3.63-1.08-.687-2.65-1.08-4.417-1.08-1.766 0-3.336.393-4.416 1.08-3.63 2.256-9.028 3.63-15.21 3.63-6.673 0-12.659-1.668-16.191-4.317-.393-.295-.884-.393-1.57-.393-1.08 0-1.865.393-1.865.981v26.398h157.01V225.98c0-.588-.884-.981-1.865-.981z" fill="url(#bS)" fill-rule="nonzero" transform="translate(-4)"/></g></svg>
