<svg viewBox="0 0 594 373" width="594" height="373" xmlns="http://www.w3.org/2000/svg">
  <style>
    .cloud1 {
      opacity: 0;
      animation: cloud1Translate 16s linear infinite;
    }

    @keyframes cloud1Translate {
      0% {
        opacity: 0;
      }
      20% {
        opacity: 1;
      }
      80% {
        opacity: 1;
      }
      100% {
        transform: translateX(20%);
        opacity: 0;
      }
    }
  </style>
  <defs><linearGradient x1="49.946%" y1="-17.871%" x2="49.946%" y2="126.705%" id="a"><stop stop-color="#FFF" offset="0%"/><stop stop-color="#62BCFF" stop-opacity="0" offset="100%"/></linearGradient><linearGradient x1="50.078%" y1="-60.305%" x2="50.078%" y2="136.042%" id="b"><stop stop-color="#FFF" offset="0%"/><stop stop-color="#62BCFF" stop-opacity="0" offset="100%"/></linearGradient><linearGradient x1="6.944%" y1="123.868%" x2="87.244%" y2="48.16%" id="c"><stop stop-color="#52ACFF" offset="0%"/><stop stop-color="#1482FB" offset="100%"/></linearGradient><linearGradient x1="32.025%" y1="140.512%" x2="96.783%" y2="-19.868%" id="d"><stop stop-color="#52ACFF" offset="0%"/><stop stop-color="#1482FB" offset="100%"/></linearGradient><linearGradient x1="49.902%" y1="-18.63%" x2="49.902%" y2="162.402%" id="e"><stop stop-color="#F1E0E2" offset="0%"/><stop stop-color="#62BCFF" stop-opacity="0" offset="100%"/></linearGradient><linearGradient x1="49.958%" y1="-19.082%" x2="49.958%" y2="161.951%" id="f"><stop stop-color="#F1E0E2" offset="0%"/><stop stop-color="#62BCFF" stop-opacity="0" offset="100%"/></linearGradient><linearGradient x1="49.887%" y1="103.758%" x2="49.887%" y2=".673%" id="g"><stop stop-color="#0083FF" offset="0%"/><stop stop-color="#0070F1" offset="100%"/></linearGradient><linearGradient x1="49.997%" y1="-17.972%" x2="49.997%" y2="126.356%" id="h"><stop stop-color="#F1E0E2" offset="0%"/><stop stop-color="#62BCFF" stop-opacity="0" offset="100%"/></linearGradient><linearGradient x1="-.515%" y1="49.749%" x2="100.598%" y2="49.749%" id="i"><stop stop-color="#FB929F" offset="0%"/><stop stop-color="#FBA5B0" offset="100%"/></linearGradient><linearGradient x1="50.025%" y1="100.05%" x2="50.025%" y2=".043%" id="j"><stop stop-color="#0083FF" offset="0%"/><stop stop-color="#0070F1" offset="100%"/></linearGradient><linearGradient x1="49.917%" y1="98.606%" x2="49.917%" y2="-71.817%" id="k"><stop stop-color="#4EADFF" offset="0%"/><stop stop-color="#208CFF" offset="100%"/></linearGradient><linearGradient x1="50.081%" y1="98.672%" x2="50.081%" y2="1.096%" id="l"><stop stop-color="#208CFF" offset="0%"/><stop stop-color="#178CFF" offset="100%"/></linearGradient><linearGradient x1="50.365%" y1="98.841%" x2="50.365%" y2="1.265%" id="m"><stop stop-color="#4EADFF" offset="0%"/><stop stop-color="#218DFF" offset="100%"/></linearGradient><linearGradient x1="49.974%" y1="110.571%" x2="49.974%" y2="-14.931%" id="n"><stop stop-color="#1453D0" offset="0%"/><stop stop-color="#0D8AFF" offset="100%"/></linearGradient><linearGradient x1="50.116%" y1="161.832%" x2="50.116%" y2="1.629%" id="o"><stop stop-color="#52ACFF" offset="0%"/><stop stop-color="#1482FB" offset="100%"/></linearGradient><linearGradient x1="50.875%" y1="98.009%" x2="48.665%" y2="4.791%" id="p"><stop stop-color="#041B76" offset="0%"/><stop stop-color="#022D91" offset="100%"/></linearGradient><linearGradient x1="50.923%" y1="98.549%" x2="49.334%" y2="-.457%" id="q"><stop stop-color="#888A87" offset="0%"/><stop stop-color="#FDFDFD" offset="100%"/></linearGradient><linearGradient x1="98.897%" y1="51.878%" x2=".72%" y2="48.115%" id="r"><stop stop-color="#D3D3D3" offset="0%"/><stop stop-color="#E8F3FF" offset="100%"/></linearGradient><linearGradient x1="51.028%" y1="98.033%" x2="48.818%" y2="4.815%" id="s"><stop stop-color="#041B76" offset="0%"/><stop stop-color="#093391" offset="100%"/></linearGradient><linearGradient x1="111%" y1="58.398%" x2="-2.477%" y2="36.376%" id="t"><stop stop-color="#AFB9E7" offset="0%"/><stop stop-color="#E6EEF7" offset="100%"/></linearGradient><linearGradient x1="50.987%" y1="98.726%" x2="49.398%" y2="-.281%" id="u"><stop stop-color="#888A87" offset="0%"/><stop stop-color="#FDFDFD" offset="100%"/></linearGradient><linearGradient x1="97.52%" y1="61.336%" x2="27.888%" y2="46.27%" id="v"><stop stop-color="#FDFDFD" stop-opacity="0" offset="0%"/><stop stop-color="#FFF" offset="100%"/></linearGradient><linearGradient x1="51.588%" y1="98.088%" x2="49.39%" y2="4.692%" id="w"><stop stop-color="#041B76" offset="0%"/><stop stop-color="#093391" offset="100%"/></linearGradient><linearGradient x1="51.546%" y1="98.592%" x2="49.963%" y2="-.155%" id="x"><stop stop-color="#888A87" offset="0%"/><stop stop-color="#FDFDFD" offset="100%"/></linearGradient><linearGradient x1="51.376%" y1="97.987%" x2="49.177%" y2="4.593%" id="y"><stop stop-color="#041B76" offset="0%"/><stop stop-color="#093391" offset="100%"/></linearGradient><linearGradient x1="51.249%" y1="98.389%" x2="49.666%" y2="-.367%" id="z"><stop stop-color="#888A87" offset="0%"/><stop stop-color="#FDFDFD" offset="100%"/></linearGradient><linearGradient x1=".531%" y1="50.495%" x2="100.454%" y2="49.613%" id="A"><stop stop-color="#FDFDFD" stop-opacity="0" offset="0%"/><stop stop-color="#FDFDFD" offset="100%"/></linearGradient><linearGradient x1="50.353%" y1="37.268%" x2="49.485%" y2="84.489%" id="B"><stop stop-color="#AFB9E7" offset="0%"/><stop stop-color="#E6EEF7" offset="100%"/></linearGradient><linearGradient x1="-.158%" y1="51.24%" x2="100.291%" y2="49.247%" id="C"><stop stop-color="#BEC5DD" offset="0%"/><stop stop-color="#E1E8EF" offset="100%"/></linearGradient><linearGradient x1="-.194%" y1="51.239%" x2="100.513%" y2="49.472%" id="D"><stop stop-color="#BEC5DD" offset="0%"/><stop stop-color="#E1E8EF" offset="100%"/></linearGradient><linearGradient x1="29.104%" y1="-16.733%" x2="75.099%" y2="94.871%" id="E"><stop stop-color="#BEC5DD" offset="0%"/><stop stop-color="#E1E8EF" offset="100%"/></linearGradient><linearGradient x1="70.543%" y1="-15.735%" x2="26.92%" y2="94.886%" id="F"><stop stop-color="#BEC5DD" offset="0%"/><stop stop-color="#E1E8EF" offset="100%"/></linearGradient><linearGradient x1=".021%" y1="49.934%" x2="100.004%" y2="49.934%" id="G"><stop stop-color="#FDFDFD" stop-opacity="0" offset="0%"/><stop stop-color="#FDFDFD" offset="100%"/></linearGradient><linearGradient x1="-.005%" y1="56.843%" x2="99.995%" y2="44.196%" id="H"><stop stop-color="#BEC5DD" offset="0%"/><stop stop-color="#E1E8EF" offset="100%"/></linearGradient><linearGradient x1="-29.861%" y1="56.334%" x2="79.605%" y2="48.779%" id="I"><stop stop-color="#D3D3D3" offset="0%"/><stop stop-color="#0C2BC0" stop-opacity="0" offset="100%"/></linearGradient><linearGradient x1=".096%" y1="49.73%" x2="99.932%" y2="49.73%" id="J"><stop stop-color="#041B76" offset="0%"/><stop stop-color="#0C2BC0" offset="100%"/></linearGradient><linearGradient x1="49.986%" y1="-21.359%" x2="49.986%" y2="117.25%" id="K"><stop stop-color="#EEDFE3" offset="0%"/><stop stop-color="#73D6BA" offset="100%"/></linearGradient><linearGradient x1="50.167%" y1="-21.718%" x2="50.167%" y2="116.804%" id="L"><stop stop-color="#FB929F" offset="0%"/><stop stop-color="#FBA5B0" offset="100%"/></linearGradient><linearGradient x1="50.121%" y1="99.129%" x2="50.121%" y2="-.666%" id="M"><stop stop-color="#FB929F" offset="0%"/><stop stop-color="#FBA5B0" offset="100%"/></linearGradient><linearGradient x1="47.42%" y1="-22.7%" x2="47.42%" y2="118.398%" id="N"><stop stop-color="#FB929F" offset="0%"/><stop stop-color="#FBA5B0" offset="100%"/></linearGradient><linearGradient x1="-.237%" y1="50.133%" x2="98.105%" y2="50.133%" id="O"><stop stop-color="#FB929F" offset="0%"/><stop stop-color="#FBA5B0" offset="100%"/></linearGradient><linearGradient x1="-12.102%" y1="48.136%" x2="112.246%" y2="52.665%" id="P"><stop stop-color="#FB929F" offset="0%"/><stop stop-color="#FBA5B0" offset="100%"/></linearGradient><linearGradient x1="-.942%" y1="46.673%" x2="96.581%" y2="53.006%" id="Q"><stop stop-color="#FB929F" offset="0%"/><stop stop-color="#FBA5B0" offset="100%"/></linearGradient><linearGradient x1=".018%" y1="49.51%" x2="99.923%" y2="49.51%" id="R"><stop stop-color="#041B76" offset="0%"/><stop stop-color="#0C2BC0" offset="100%"/></linearGradient><linearGradient x1=".081%" y1="49.437%" x2="100.227%" y2="49.437%" id="S"><stop stop-color="#041B76" offset="0%"/><stop stop-color="#0C2BC0" offset="100%"/></linearGradient><linearGradient x1="-.373%" y1="50.131%" x2="99.985%" y2="50.131%" id="T"><stop stop-color="#1A8BFC" offset="0%"/><stop stop-color="#389BFF" offset="100%"/></linearGradient><linearGradient x1="2.607%" y1="49.549%" x2="101.501%" y2="49.549%" id="U"><stop stop-color="#FB929F" offset="0%"/><stop stop-color="#FBA5B0" offset="100%"/></linearGradient><linearGradient x1="50.277%" y1="102.942%" x2="48.872%" y2="1.442%" id="V"><stop stop-color="#EE7083" offset="0%"/><stop stop-color="#F794A1" offset="100%"/></linearGradient><linearGradient x1=".389%" y1="50.019%" x2="99.525%" y2="50.019%" id="W"><stop stop-color="#FB929F" offset="0%"/><stop stop-color="#FBA5B0" offset="100%"/></linearGradient><linearGradient x1=".239%" y1="49.314%" x2="99.926%" y2="49.314%" id="X"><stop stop-color="#FB929F" offset="0%"/><stop stop-color="#FBA5B0" offset="100%"/></linearGradient><linearGradient x1="1.399%" y1="50.124%" x2="101.779%" y2="50.124%" id="Y"><stop stop-color="#FB929F" offset="0%"/><stop stop-color="#FBA5B0" offset="100%"/></linearGradient><linearGradient x1="50.086%" y1="99.071%" x2="50.086%" y2="1.028%" id="Z"><stop stop-color="#EE7083" offset="0%"/><stop stop-color="#F794A1" offset="100%"/></linearGradient><linearGradient x1="50.07%" y1="100.014%" x2="50.07%" y2="1.019%" id="aa"><stop stop-color="#D3D3D3" offset="0%"/><stop stop-color="#E8F3FF" offset="100%"/></linearGradient><linearGradient x1="-.192%" y1="49.179%" x2="99.547%" y2="49.179%" id="ab"><stop stop-color="#FB929F" offset="0%"/><stop stop-color="#FBA5B0" offset="100%"/></linearGradient></defs><g fill="none" fill-rule="evenodd"><path d="M422.1 89.2c-68.4-20.9-76.9-60.4-156.3-82.4-74.4-20.6-122 16.9-145.9 46.1-17.3 21.1-29.7 52.4-30.8 75.8C88 152 93.9 175.1 106 195l4.5 7.4c24 39.6 68.5 62.2 114.7 58.1 115.6-10.2 323-34.4 327.7-77.7 6.4-59.9-71.8-75.6-130.8-93.6z" fill="#62BCFF" fill-rule="nonzero"/><path d="M147.1 69.2s19.2-33.1 42.6-33.1c23.4 0 37.2 33.1 37.2 33.1s7-13.7 20.9-13.7c13.9 0 23.5 13.7 23.5 13.7l8 14.2s5.4-9 12.4-7c7 2.1 10.7 10.9 10.7 10.9H127.6s-4-18.3 19.5-18.1z" class="cloud1" fill="url(#a)" fill-rule="nonzero"/><g fill-rule="nonzero"><path d="M361.1 84c-13.9 0-23.5 13.7-23.5 13.7l-8 14.2s-5.4-9-12.4-7c-7 2.1-10.7 10.9-10.7 10.9h174.6s1-4.5-.9-9c-19.2-6.7-39.7-12.1-58.3-17.8-10.5-3.2-19.7-6.9-27.8-10.9-7.9 9.1-12.3 19.5-12.3 19.5S375 84 361.1 84z" fill="#62BCFF"/><path d="M55.1 6C41.2 6 31.6 19.7 31.6 19.7l-8 14.2s-5.4-9-12.4-7C4.2 29 .5 37.8.5 37.8h174.6s1-4.5-.9-9C155 22.1 134.5 16.7 115.9 11 105.4 7.8 96.2 4.1 88.1.1c-7.9 9.1-12.3 19.5-12.3 19.5S69 6 55.1 6z" fill="url(#b)" transform="translate(306 78)"/></g><g fill-rule="nonzero"><path fill="#4EADFF" d="M145.1 139.4l85.3-63.6 93.6 91.4-41.7 12.7-77.1-4.5-34.7 3z"/><path fill="url(#c)" d="M120.2 81l33.9-2 19.7 13.2-116 .3-57.1-.3L123.4.2l-21.5 31.9 36.8.7-17.1 37.9z" transform="translate(107 75)"/><path fill="#1C8AFF" d="M209.6 101.1h-11.7l5.8-22.7z"/><path fill="#1C8AFF" d="M214.8 98.4h-10.4l5.2-20z"/><path fill="#4EADFF" d="M264.9 93.5l-5.8 30.3h11.7z"/><path fill="#4EADFF" d="M276 120.7h-6.6l3.3-12.8zM285.6 130.2H279l3.3-12.8z"/></g><path d="M536.6 137.3l-.2-.2-68.9 51.7 55.7.2h1.4l26-.1c1.2-2.1 2-4.2 2.2-6.3 2.1-19.1-4.4-33.7-16.2-45.3z" fill="url(#d)" fill-rule="nonzero"/><path d="M487.6 20.7s-1.9-10-15.9-9.5c-8.7.4-13.9 9.5-13.9 9.5s-2.6-5.4-7.8-5.4c-5.2 0-8.8 5.4-8.8 5.4l-3 5.6s-2-3.6-4.6-2.7c-2.6.8-4 4.3-4 4.3h65.3s1.5-7.3-7.3-7.2z class" fill="url(#e)" fill-rule="nonzero" class="cloud1"/><path d="M124.3 49.9s-1.9-10-15.9-9.5c-8.7.4-13.9 9.5-13.9 9.5s-2.6-5.4-7.8-5.4c-5.2 0-8.8 5.4-8.8 5.4l-3 5.6s-2-3.6-4.6-2.7c-2.6.8-4 4.3-4 4.3h65.3c0-.1 1.5-7.3-7.3-7.2z" class="cloud1" fill="url(#f)" fill-rule="nonzero"/><path d="M174.7 142v-22.3h-5.8l-4.9-5.4v-6.9h-3.5v-6.1H155v6.1h-3.5v6.9l-4.9 5.4h-9.5v-4.5c0-2.3-1.5-4.4-3.8-5l-.5-.2h.3v-3.3c0-1.7-1.1-3.1-2.7-3.6l-.2-.1h.2v-2.4c0-1.2-.8-2.3-2-2.6l-2.8-.8v-5.6c0-1.4-1.2-2.6-2.6-2.6-1.4 0-2.6 1.2-2.6 2.6v5.6l-2.8.8c-1.2.3-2 1.4-2 2.6v2.4h.2l-.2.1c-1.6.5-2.7 1.9-2.7 3.6v3.3h.3l-.5.2c-2.2.6-3.8 2.7-3.8 5v4.5h-6.7V115h-5.6l-2.1-3.5v-4.1h-2.1c-1.2 4.6-2.1 9-2.7 13.3h.9v2.3h-1.2c-.2 1.9-.4 3.8-.5 5.6v1.1h2.8v13h-2.6c.6 7.8 1.9 15.6 4.1 23.1h78.5v3.7h9.2v-14.2c0-4.5 3.7-8.2 8.2-8.2 4.5 0 8.2 3.7 8.2 8.2v14.2h5v-14.2c0-4.5 3.7-8.2 8.2-8.2 4.5 0 8.2 3.7 8.2 8.2v14.2h5v-14.2c0-4.5 3.7-8.2 8.2-8.2 4.5 0 8.2 3.7 8.2 8.2v14.2h5v-14.2c0-4.5 3.7-8.2 8.2-8.2 4.5 0 8.2 3.7 8.2 8.2v14.2h4.8V142h-91.6zm-72.4.9h-6.7v-13h6.7v13zm13.4 0H109v-13h6.7v13zm5.1-24.7c0-1.2 1-2.2 2.2-2.2 1.2 0 2.2 1 2.2 2.2v4.9h-4.4v-4.9zm5.7 24.7h-6.7v-13h6.7v13zm10.5 0h-6.7v-13h6.7v13zm13.4 0h-6.7v-13h6.7v13zm5.2-24.7c0-1.2 1-2.2 2.2-2.2 1.2 0 2.2 1 2.2 2.2v4.9h-4.4v-4.9zm5.6 24.7h-6.7v-13h6.7v13zm3.8 0v-13h6.7v12.9H165v.1z" fill="url(#g)" fill-rule="nonzero"/><path d="M317.9 45.8S331.7 22 348.5 22s26.8 23.8 26.8 23.8 5-9.8 15-9.8 16.9 9.8 16.9 9.8l5.7 10.2s3.9-6.5 8.9-5 7.7 7.9 7.7 7.9H303.9c0-.1-2.9-13.3 14-13.1z" class="cloud1" fill="url(#h)" fill-rule="nonzero"/><path d="M150.9 322.5s-.9 3.9-.5 4.3c.4.4.7 1.3 1.1.9.4-.4 2.7-.6 2.5-5.2-.2-4.5-3.1 0-3.1 0z" fill="url(#i)" fill-rule="nonzero"/><path d="M93.2 165.9h150.9l31.1 39.8-93.8 50.2c.1 0-62.1-9.1-88.2-90z" fill="url(#j)" fill-rule="nonzero"/><path d="M399.4 108.7h-1.8v-1.6c0-1.9-1.6-3.5-3.5-3.5s-3.5 1.6-3.5 3.5v1.6h-1.8c-2 0-3.6 1.6-3.6 3.6v11.3H403v-11.3c0-2-1.6-3.6-3.6-3.6z" fill="#0089FF" fill-rule="nonzero"/><g fill-rule="nonzero"><path d="M45.8 42.6V30.9c0-11.2-6.2-21-15.4-26.2-9.2 5.1-15.3 14.9-15.3 26.2v11.9c2.3.6 4 2.7 4 5.2v13h5.7V48c0-3 2.4-5.3 5.3-5.3 3 0 5.3 2.4 5.3 5.3v13h5.7V48c0-2.9 2-5.1 4.7-5.4z" fill="url(#k)" transform="translate(364 112)"/><path d="M60 30.9c0-14-9.6-25.7-22.5-29-2.5.6-4.9 1.6-7.1 2.9C39.6 9.9 45.8 19.7 45.8 31v11.7h.7c3 0 5.3 2.4 5.3 5.3v13H60V30.9z" fill="url(#l)" transform="translate(364 112)"/><path d="M8.3 47.9c0-3 2.4-5.3 5.3-5.3.5 0 .9.1 1.4.2V30.9c0-11.2 6.2-21 15.3-26.2-2.3-1.3-4.8-2.3-7.5-2.9C9.7 5 0 16.8 0 30.9v30h8.2v-13h.1z" fill="url(#m)" transform="translate(364 112)"/><path d="M401.6 113.8c-.1 0-.1 0 0 0-.5-.1-1.1-.3-1.7-.4-.2 0-.3-.1-.5-.1-.4-.1-.8-.1-1.2-.2-.2 0-.4-.1-.6-.1-.4 0-.8-.1-1.2-.1h-.5c-.6 0-1.2-.1-1.8-.1-.6 0-1.2 0-1.7.1h-.4c-.4 0-.9.1-1.3.1h-.4c-.5.1-.9.1-1.4.2h-.2c-.5.1-1.1.2-1.6.3 2.6.6 5.2 1.6 7.5 2.9 2-.9 4.4-1.9 7-2.6z" fill="#0089FF"/></g><path d="M15.9 44.4V66L.9 44.5l15 27.9V97h11.3V61.2L47 25.3l14.6-5.7-3-1.2-10 4 3.5-6.4c-1.4-.5-2.7-1-4.1-1.4L42 25l-8 3.2.1-.1 7.3-15.8c-.7-.2-1.4-.5-2.1-.7l-6.4 12.7L31 9c-.5-.2-1.1-.3-1.6-.5l1.8 18.4-4 4.3V7.8c-3.8-1.1-7.6-2.3-11.3-3.4v23.2L4.8 1.1C3.6.7 2.4.4 1.2.1l14.7 38.6v5.7zM27.2 36l3.8-4.4 9.3-3.6-13.1 22.7V36z" opacity=".7" transform="translate(431 92)" fill="url(#n)" fill-rule="nonzero"/><path fill="#43A7FF" fill-rule="nonzero" d="M471.3 152h14.3v46.9h-14.3z"/><path fill="#0D83FF" fill-rule="nonzero" d="M491.5 146.8l-5.9 5.2v46.4h11.8V152z"/><path fill="#0D83FF" fill-rule="nonzero" d="M471.3 152l5.9-5.2h14.3l-5.9 5.2z"/><g fill-rule="nonzero"><path fill="#2896FF" d="M324.6 111.1h32.1v77.7h-32.1z"/><path fill="#4EADFF" d="M350.2 116.2h-19l4.5-19.3h10z"/><path fill="url(#o)" d="M34.7 3.7l-2.6 7.8v3.6H5.3v-3.6L2.6 3.7 0 11.5v18.6h5.3v-9h26.8v9h5.2V11.5z" transform="translate(322 96)"/><path fill="#0D83FF" d="M351.6 135.2v-12.3l-2.2-2.5-2.3 2.5v12.3h-1.3v-12.3l-2.2-2.5-2.2 2.5v12.3H340v-12.3l-2.2-2.5-2.2 2.5v12.3h-1.3v-12.3l-2.3-2.5-2.2 2.5v12.3H322v6.8h37.3v-6.8z"/><path fill="#47A6FF" d="M337.5 153.7h6.4v24.4h-6.4z"/><path fill="#4EADFF" d="M339.1 75.2h3.2v24.3h-3.2z"/></g><g transform="translate(139 165)" fill-rule="nonzero"><path d="M449.7 157.5l-30.1-1.9 9.2 3.6-14.2-4.5-91.3-2.6L64 186.4c-2.8.4-2.8 4.4 0 4.8l135 16c10.6 1.3 21.4.9 31.9-1.2l212.8-40.9 7.1-1.4-.8-.2c9.7-3.2-.3-6-.3-6z" fill="#041B76"/><path d="M225.5 147.5c-6.1.1-10.9 12.4-10.7 27.6.1 15.2 5.2 27.4 11.2 27.4l13.2-.1-.5-54.9h-13.2zM370.7 134.5c-4.5 0-8 9.1-7.9 20.3.1 11.2 3.8 20.2 8.3 20.1l9.7-.1-.4-40.4-9.7.1zM403.7 127.1c-4.5 0-8 9.1-7.9 20.3.1 11.2 3.8 20.2 8.3 20.1l9.7-.1-.4-40.4-9.7.1zM99.9 133.5c-6.1.1-10.9 12.4-10.7 27.6.1 15.2 5.2 27.4 11.2 27.4l13.2-.1-.5-54.9H99.9z" fill="#041B76"/><path d="M35.4 27.7c.1 15.2-4.7 27.5-10.7 27.6-6.1.1-11.1-12.2-11.2-27.4C13.4 12.7 18.2.4 24.2.3c6 0 11 12.2 11.2 27.4z" fill="url(#p)" transform="translate(89 133)"/><path d="M103.8 160.9c.1 7.4-3.4 13.4-7.7 13.4-4.3 0-7.9-5.9-8-13.3-.1-7.4 3.4-13.4 7.7-13.4 4.4 0 7.9 5.9 8 13.3z" fill="url(#q)"/><path d="M431.8 13.3L303.5 9c-9.3-.3-18.6-.3-27.9.1l-104.2 4.5-101 3.5c-6.9.1-13.1 4.2-15.7 10.6-4.1 9.8-8.6 27.6-13.5 50.9-4.5 21.7-9.4 48.1-12.2 78.2-.7 7.4 4.8 14 12.2 14.7l103 7.6 33.4 4.7c3.5.3 7.1.1 10.5-.5l60.5-8.5 5.8-.3 137.7-20.7 33.7-5c3.4-.5 6.5-2.3 8.6-5.1l7.2-9.4c0-.1.1-.1.1-.2 4.2-5.2 6.4-11.8 6.3-18.5l2.8-83.4c9.2-22.1-19-18.9-19-18.9z" fill="url(#r)"/><path d="M227.7 180.4s-2.1-42.8 12.1-43c20-3.9 14.6 24.9 14.7 36.9l-5.8.3-21 5.8z" fill="#041B76"/><path d="M249.9 174.7c.1 15.2-4.7 27.5-10.7 27.6-6.1.1-11.1-12.2-11.2-27.4-.1-15.2 4.7-27.5 10.7-27.6 6 0 11 12.2 11.2 27.4z" fill="url(#s)"/><path d="M180.7 126.2c-1.1 6-6.3 10.5-12.4 10.8l-64.9.6c-14.1.6-28.2-1.1-41.7-5l-28.9-7.9c-.2 1.8-.5 3.5-.7 5.3l29.7 8.1c13.5 3.9 27.6 5.6 41.7 5l64.9-.6c6.1-.3 11.3-4.7 12.4-10.8l13.9-92.1c.1-1 0-2-.5-2.8l-13.5 89.4z" fill="url(#t)"/><path d="M32.5 126l29.7 8.1c13.5 3.9 27.6 5.6 41.7 5l64.9-.6c6.1-.3 11.3-4.7 12.4-10.8l13.9-92.1c.4-2.9-1.8-5.4-4.7-5.5L53.6 28c-.1.1-15.7 54-21.1 98z" fill="#322F90"/><path d="M246.9 174.7c.1 7.4-3.4 13.4-7.7 13.4-4.3 0-7.9-5.9-8-13.3-.1-7.4 3.4-13.4 7.7-13.4 4.4 0 7.9 6 8 13.3z" fill="url(#u)"/><ellipse fill="#9EA09E" transform="rotate(-.541 240.228 174.836)" cx="240.228" cy="174.836" rx="5.5" ry="10.2"/><path d="M268.9 172.4s108.8-87.7 156.5-87.5c22.1.1 23.7 5.4 23.3 14.6-.3 5.7.5 14.2-.8 20-.7 3.1-4.8 7.9-5.7 14.2-.6 3.9-14.1 14.3-14.1 14.3-23.3 5.2-44.2 6.3-70.6 10.8-45.6 7.9-88.6 13.6-88.6 13.6z" fill="url(#v)"/><path d="M372.4 156.5s-1.5-31.5 8.9-31.6c14.7-2.8 10.8 20 10.9 28.7l-5.6.9-14.2 2z" fill="#041B76"/><path d="M388.7 154.5c.1 11.2-3.4 20.2-7.9 20.3-4.5 0-8.2-9-8.3-20.1-.1-11.2 3.4-20.2 7.9-20.3 4.5-.1 8.2 8.9 8.3 20.1z" fill="url(#w)"/><path d="M386.5 154.5c.1 5.4-2.5 9.8-5.7 9.9-3.2 0-5.8-4.3-5.9-9.8-.1-5.4 2.5-9.8 5.7-9.9 3.2-.1 5.9 4.4 5.9 9.8z" fill="url(#x)"/><ellipse fill="#9EA09E" transform="rotate(-.541 381.635 154.635)" cx="381.635" cy="154.635" rx="4" ry="7.5"/><path d="M405.4 151.4s-1.5-31.5 8.9-31.6c14.7-2.8 10.7 20.2 10.8 29l-4.6.7-15.1 1.9z" fill="#041B76"/><path d="M421.7 147.2c.1 11.2-3.4 20.2-7.9 20.3-4.5.1-8.2-9-8.3-20.1-.1-11.2 3.4-20.2 7.9-20.3 4.5-.1 8.2 8.9 8.3 20.1z" fill="url(#y)"/><path d="M419.5 147.2c.1 5.4-2.5 9.8-5.7 9.9-3.2 0-5.8-4.3-5.9-9.8-.1-5.4 2.5-9.8 5.7-9.9 3.2 0 5.8 4.4 5.9 9.8z" fill="url(#z)"/><ellipse fill="#9EA09E" transform="rotate(-.541 414.536 147.236)" cx="414.536" cy="147.236" rx="4" ry="7.5"/><path fill="url(#A)" opacity=".2" d="M53.5 28.1l14 145.6 53.7 4.7 73.5-146.2-4.4-2.1-54.2-2.8z"/><path d="M167.4 160.6c-22.5.9-84.4 1.8-137.6-12.5l1-9s40.3 18.3 144.6 14.4l-8 7.1z" fill="url(#B)"/><path d="M135.2 161.1c-1-.1-1.2-1.5-.2-1.8 10.2-3.5 37-12.4 40.6-11.4 4.4 1.2 1.1 5.5-6 11.4-5.5 4.6-25.7 2.8-34.4 1.8zM51 151.6l-17.2-16.3c-1.1-1-2.8-.3-3 1.1l-1 11.7 20.4 4.8c.9.2 1.4-.7.8-1.3z" fill="#FFF"/><path d="M133 173c-11.1-.9-38.5-3.8-56.7-5.1-21.7-1.5-22.4 4.7-22.4 4.7l98.7 8.6c-5.6-4.8-12.4-7.6-19.6-8.2z" fill="#041B76"/><path d="M53.5.1L18.7.4c-3.3 0-6.3 1.8-7.9 4.7l-9.9 18c-.5 1 .2 2.2 1.3 2.1h4.6c4.1 0 7.8-2.2 9.8-5.7C19.2 15 23.1 9.2 26.6 8l25.3-2.1L53.5.1z" fill="url(#C)" transform="translate(0 28)"/><path d="M16 28.4c-.4.1-.6.4-.6.7-3.4 1.5-5.2 5.3-7.7 9.9-3.3 5.9-9.5 13.8-5.4 14.3s8.4-.7 8.4-.7 7.4-11.2 11.2-17l15.9-7.3c-.2-.1-19.8-.4-21.8.1z" fill="#FFF"/><path d="M49.7.2L19.1.5c-2.9 0-5.5 1.8-6.9 4.7l-8.7 18c-.5 1 .2 2.2 1.1 2.1h4c3.6 0 6.8-2.2 8.6-5.7 2.3-4.5 5.7-10.2 8.7-11.5L50 2.7 49.7.2z" fill="url(#D)" transform="translate(145 32)"/><path d="M159.4 32.6c-.4.1-.6.4-.6.7-3.2 1.5-4.9 5.3-7.3 9.9-3 5.9-8.9 13.7-5 14.3 3.9.5 7.8-.7 7.8-.7s6.9-11.1 10.5-17l14.9-7.3c0-.1-18.4-.5-20.3.1z" fill="#FFF"/><path d="M61.9 151.3c.8 2.6 1 3.9-1.9 4.4l-3-5.4c-.4-.7.3-1.6 1.1-1.4 1.5.3 3.4 1 3.8 2.4z" fill="url(#E)"/><ellipse fill="#FFF" transform="rotate(-18.935 58.497 152.336)" cx="58.496" cy="152.336" rx="2" ry="3.3"/><path d="M119.3 158c-.8 2.6-.9 3.9 2 4.3l2.9-5.5c.4-.8-.3-1.6-1.1-1.4-1.6.4-3.4 1.1-3.8 2.6z" fill="url(#F)"/><ellipse fill="#FFF" transform="rotate(-60.541 122.854 159.37)" cx="122.854" cy="159.37" rx="3.3" ry="2"/><path d="M188 119.5l16.2-88.2c.3-1.8 1.9-3.2 3.8-3.2l234-5c2.4-.1 4.3 2.1 4 4.5-1 7.8-3.5 23-6.7 25.8-3.6 3.1-119.5 21.3-159.3 28-9.7 1.6-19.2 4.5-28.1 8.7L188 119.5z" fill="#322F90"/><path d="M268.9 83.7S333.1 13 380.8 13.2c35.8.1 68.6-.9 65.2 14.3-.7 3.1-2.8 11.3-3.7 17.6-.6 3.9-3.1 8.2-3.1 8.2-23.3 5.2-56 9.5-82.4 14-45.6 7.8-87.9 16.4-87.9 16.4z" fill="url(#G)" opacity=".2"/><path d="M68 17.3l101.9.4c21.9.6 43.7.1 65.6-1.5l59.9-4.5s-3.2-9.1-27.3-9.6C243.9 1.6 79.5-4.4 68 17.3z" fill="url(#H)"/><path d="M179.8 170.6l8.3-51 35.7-16.6-9 76.4s-12.4 2.2-23.2 3.5c-7.1.8-13-5.4-11.8-12.3z" fill="url(#I)" opacity=".2"/></g><path d="M147 341.2l4.3-15.1M153.3 325.9l6.5 18.1" stroke="#F78B99"/><path d="M125.8 98l43.1 1s5.5 3.8 2.2 4.3-6-.1-8.8.9c-2.8 1-37.4-1.1-37.4-1.1l.9-5.1z" fill="url(#J)" fill-rule="nonzero" transform="translate(0 259)"/><path d="M146 315.8c.3-2-.1-11.3-.8-13.1h-22c-1.2 5.6-1.8 40.4-1.8 40.4l1.1 13.4 3.2.5s7.6-44 8-43c.4 1 8.2 42.5 8.2 42.5h3c.6-4.5-.1-31.3 1.1-40.7z" fill="#03147A" fill-rule="nonzero"/><path d="M122.5 356.5l-1.1 3.2s-2.2 2-2.6 2.4c-.4.4-1.2.7-.9.9.4.2 2.6.1 3.1 0 1.4-.2 3.1-.9 3.9-1 .8-.1.5-.5.6-1.8 0-1.1.2-3.1.2-3.1l-3.2-.6zM141.9 356.5l.2 5.6s6.7 1.1 6.9 1c.2-.1 0-1.2-1.6-1.7-1.5-.4-2.3.4-2.2-1.3.1-1.7-.4-3.7-.4-3.7h-2.9v.1z" fill="#FFF" fill-rule="nonzero"/><path d="M154 48.2c-.2-1.9-5.4-16.5-7.5-22.3-.6-1.5-1.7-2.8-3.2-3.4l-4.9-2.1h-8.6l-2.6 1.5c-4 2.3-6.4 3.3-11 2.9l-.9-.1s-2.5-1-3.7-3.1c-1.2-2.1-1.8-5.9-1.8-5.9L108 17s-1.8 10.7 4.3 14.1c5 2.7 10 1.6 11.6 1.2l-.6 11.6h22c.3.9 1.2-1 1.5 0 2 5.8 4.2 14.6 4.2 14.6h3.1c-.1-.1.1-7.9-.1-10.3z" fill="url(#K)" fill-rule="nonzero" transform="translate(0 259)"/><path d="M131.5 10.7s-.4 5.1 2.6 5.9c3.1.7 4-1.9 4-1.9l1.3-6.6s-6.8-3.4-7.9-2.8c-1.1.5 0 5.4 0 5.4z" fill="url(#L)" fill-rule="nonzero" transform="translate(0 259)"/><path d="M134.2 16.5l-.7 2.8c-.4 1.5.8 3 2.4 3 1.4 0 2.5-1.2 2.4-2.5l-.2-5.1-3.9 1.8z" fill="url(#M)" fill-rule="nonzero" transform="translate(0 259)"/><path d="M129.9 266.5s2.3 1.4 3.2 1c.9-.4 3.1-1 3.1-1s1 1.2 1 1.6c0 .5.6 3.1.6 3.1l.5.7s.7-1.9 1.1-2.7c.4-.9.8-2 0-3.1-.8-1-4.5-2.7-5.6-2.8-1.1-.1-2.9-.1-3.4-.5s-2.3 1.6-.5 3.7z" fill="#03147A" fill-rule="nonzero"/><path d="M138.4 13.3s1.1-1 1.1-1.4c0-.4-1.1-1.1-1.8-.4-.7.7.7 1.8.7 1.8z" fill="url(#N)" fill-rule="nonzero" transform="translate(0 259)"/><path d="M145.1 302.8l.3-13.3s1.4 7.6 1.2 9.8c-.1 2.2-1.5 3.5-1.5 3.5z" fill="#82C9B4" fill-rule="nonzero"/><path d="M109.7 11.6c-.1.6-.6-2.4-1.1-2.7-.5-.3-1 0-.9 1.4.1 1.4-1.5-1-1.5-1s-.8 1.5-.8 1.6c0 .1-.2.8 0 1.3s-.6 1.3-.1 2.1S108 17 108 17l1.8-1.4 1.1-4.4c-.1 0-1.1-.3-1.2.4z" fill="url(#O)" fill-rule="nonzero" transform="translate(0 259)"/><path d="M82.8 266.8s5.6-2-.9-5.1c-6.5-3.1-7.2-3.2-10.4 5s-5.5 8.5-4.9 11.4c.5 2.1 8.4 5.8 9.4 4.5 3.2-4.2.8-19.1 6.8-15.8z" fill="#C4DCD5" fill-rule="nonzero"/><path fill="url(#P)" fill-rule="nonzero" d="M75.4 17l-.3-9.8 3.7 2.2.3 7.9z" transform="translate(0 259)"/><path d="M75.1 7.2s4.5 8.7 5.9 5.7c1.5-3 3.3-9.8.9-10.1-2.4-.2-6.4-2.6-6.8 4.4z" fill="url(#Q)" fill-rule="nonzero" transform="translate(0 259)"/><path d="M75.1 267.4s3.6-3.1 4.1-3.5c.4-.4 2.1 2.2 3.7 2.9 1.6.7.4-4.4.4-4.4s-4.7-3.3-8.2-1.3c-3.5 2 0 6.3 0 6.3z" fill="#C4DCD5" fill-rule="nonzero"/><path d="M65.4 97.9s-1.1-1 1.6-1.2c2.7-.2 6.6.2 11.3 0 4.7-.2 6.4 1.9 12.4.6 6-1.3 20.9 1.1 17.3 2.5-3.6 1.4-28.4 1.9-34.7 1.1-6.3-.8-7.9-3-7.9-3z" fill="url(#R)" fill-rule="nonzero" transform="translate(0 259)"/><path d="M15 99.8s-1.6-1 2.4-1.2c4.1-.2 10 .2 17.1 0 7.1-.2 9.7 1.9 18.8.6 9.1-1.3 12.3.6 6.8 2.1-5.5 1.4-23.6 2.4-33.3 1.5-9.6-.9-11.8-3-11.8-3z" fill="url(#S)" fill-rule="nonzero" transform="translate(0 259)"/><path d="M80.4 277.4s5.8 19.5 6.9 21.5c1.2 2.1 4 10 4 10s-2 .3-2.4-.3c-.3-.5-6.8-8.2-6.9-13.4-.2-5.1-1.6-17.8-1.6-17.8z" fill="#03147A" fill-rule="nonzero"/><path d="M88.4 70.6c0 3.6-2.8 21.5-2.8 21.5l-1.9-1.2-1.8-24.7c-1.2-2.9-2.9-13.1-3.8-18.8-.2.8-.4 1.8-.7 3.2-.6 3.2-4 44.1-4 44.1l-1.6.2s1 2.3-.3-.9c-1.3-3.2-.9-11.7-1.2-14.2-.3-2.5.5-15.8-.5-18.1-1-2.3-1.6-13.4-1.6-13.4 0-7.6 3.4-10.4 3.4-10.4h11.2l.3 5.8c0 .1 5.2 6.6 5.3 26.9z" fill="url(#T)" fill-rule="nonzero" transform="translate(0 259)"/><path d="M66.1 287.2c-1.3 4.8-.4 25.4-.4 25.4h2s2.3-16.3 3.6-19.8c1.2-3.4-.6-6.2-.6-6.2l1 10 11.1 1.6s.2-7.7.8-8.9c.6-1.1 2-.9 2-2.9-.1-2-5.3-10-5.3-10l-4.9-.4s-3.7.9-6.4 2.6l-2.9 8.6z" fill="#03147A" fill-rule="nonzero"/><path d="M83.6 349.9l-.6 5.6s6.7 1.1 7.7.8c1-.3-2.9-.8-3.9-1.7-1-.8-1.3-3.5-1.3-3.5l-1.9-1.2zM71.5 353.1l-.8 4.4s6.7 1.1 7.7.8c1-.3-2.9-.8-3.9-1.7-1-.9-1.3-3.5-1.3-3.5h-1.7z" fill="#FFF" fill-rule="nonzero"/><path d="M54.7 322.4l14.1 6.3c.6.3.8.9.6 1.5L56.9 358c-.3.6-.9.8-1.5.6l-14.2-6.4c-.6-.3-.8-.9-.6-1.5l12.6-27.8c.3-.5 1-.8 1.5-.5z" fill="#041B76" fill-rule="nonzero"/><path d="M61.7 325.5l4.7-10.1" stroke="#041B76"/><path d="M67.6 57.5c-.8.6-1.9.2-2.2-.7-.2-.6-.3-1.4-.1-2.4.1-.5 1.1-3.1 2.5-1 1.3 1.8 1.6 2.7-.2 4.1z" fill="url(#U)" fill-rule="nonzero" transform="translate(0 259)"/><path d="M147 77s-1.3 1 0 0c1.2-1 3.3-1.1 4.7-1 1.4.1 4.3 1.5 8.4 1.6 4.1.1 5.1 2 5 3.5-.1 1.5 1 10.3-1.5 11.1-2.5.8-16.6-1.2-20.4-2.2-3.8-1-4.1-.5-4-3.7.1-3.2-.1-9.3 1.9-9.7 2-.4 5.9.4 5.9.4z" fill="url(#V)" fill-rule="nonzero" transform="translate(0 259)"/><path fill="url(#W)" fill-rule="nonzero" d="M22.5 10.4l-1.1 4.3 4.7 1.1.8-4.6z" transform="translate(0 259)"/><path d="M23.1 4.5s-1.5 5.7 0 7.3c1.5 1.6 5.2 0 5.2 0l3-4.4-8.2-2.9z" fill="url(#X)" fill-rule="nonzero" transform="translate(0 259)"/><path d="M22.8 265.2s-.5-2.3-.3-2.3H28l4.1 1.8.3 2s.1.4-.5.4-2.9-1.2-2.9-1.2l-3.1-.6-3.1-.1z" fill="#041B76" fill-rule="nonzero"/><path d="M12 301.7l-5.5.9c-1.3.2-2.7-.2-3.6-1.1l-1.4-1.4c-1-1-1.5-2.3-1.5-3.7v-2.2c0-1 .2-2.1.6-3 1.7-3.8 6.2-13.7 7.1-14.9 1.1-1.5 9.6-2.8 9.6-2.8l-1 13.1h-3.5l6.4-.8-7.2 15.9z" fill="#03147A" fill-rule="nonzero"/><path fill="#1454D1" fill-rule="nonzero" d="M29.1 300.4l-.5-2.6H12.9l-1.8 7.8 1.2 27.9.9 20.5h3.1l2.9-22.9 2-21.4 1.4-.1 2.9 20.3 1.9 24.1h3.2l2.2-25.3z"/><path d="M13.2 354s-1 3.8-.8 4.6l1.9.9.6-.6 1.7.6s1.4.2 1.8.3c.4.1 2.1-.1 2.3 0 .2.1-1.6-1.7-2.5-2.2-.9-.5-1.5-.5-1.7-1.7-.1-1.2-.2-1.9-.2-1.9h-3.1zM27.2 354s-1 3.8-.8 4.6l1.9.9.6-.6 1.7.6s1.4.2 1.8.3c.4.1 2.1-.1 2.3 0 .2.1-1.6-1.7-2.5-2.2-.9-.5-1.5-.5-1.7-1.7-.1-1.2-.2-1.9-.2-1.9h-3.1z" fill="#041B76" fill-rule="nonzero"/><path d="M91.2 49.4s1.9 2.5 1.8 2.6c-.1.1-.2 0-.6 0-.4 0 .3 2 0 2.5s-.6 1.4-.9 1.2c-.3-.1-.6-1.3-.8-1.5-.2-.2 0 1.2 0 1.3 0 .1-.6.3-.8-.3-.2-.6-.2-1-.3-1.4 0-.4.3-.8 0-1.6s-.7-2.5-.7-2.5l2.3-.3z" fill="url(#Y)" fill-rule="nonzero" transform="translate(0 259)"/><path d="M14 25.4s-5.3 4.9-4.2 5.8c1.1.9 6.4 0 9.7-.4 3.3-.3 1.9-.4 1.9-.4l1.5 2.3s.9-.2-1.8 1c-2.7 1.1-7.1 2.7-9.9 2.4-1.6-.2-4.8.2-6.2-1.1-1.1-1.1-1.4-2.7-.8-4.1 1.3-2.7 3.2-6.9 3.4-8.1.3-1.8 2.7-5.2 4.4-6.5 1.8-1.3 7.4-2.2 7.4-2.2l9.8 1.6 2.1 5.6.2 7.5s6.9.7 7.5.6c.6-.1 3-.8 3-.8l1.7 1.7s-2 1.2-2.3 1.6c-.4.4-1.4 1.2-4.2 1.5-2.8.3-6.7.2-8.9-.6l.2 6.9-15.8-.8 1.9-12.4-.6-1.1z" fill="url(#Z)" fill-rule="nonzero" transform="translate(0 259)"/><path fill="url(#aa)" fill-rule="nonzero" d="M21.9 14.5l4.2 9.5.8-8.7z" transform="translate(0 259)"/><path fill="#FFF" fill-rule="nonzero" d="M19.5 289.8l14 5.2 9.4-2.3 4.1-16.4-9.5 2.4-14.7-3.2z"/><path d="M20.9 289.6s1.3-.9 2.7-1.1c.2 0 3.5-2.4 3.8-1.7.3.7-2.6 3.6-2.8 3.8-1.2 1.4-3 1.2-3 1.2l-.7-2.2zM41.7 287.6l1.9-1.7s1.1-2.3 1.3-1.9c.2.5.8-.3.6-.1-.2.2.7.3.7.3.3 1.3.9 1.7.4 2.5-.5.7-.7 1.3-1.4 1.5-.6.3-2 .8-2 .8l-1.5-1.4z" fill="#FD9CA8" fill-rule="nonzero"/><path d="M22.8 6.2s-.9-1.3-1.1-.6c-.1.7-.9 2.6.8 2.9 1.6.2.3-2.3.3-2.3z" fill="url(#ab)" fill-rule="nonzero" transform="translate(0 259)"/><path fill="#041B76" fill-rule="nonzero" d="M24.4 264.9l-1.3 1.7-.4-2.1 2-.1z"/><path d="M22.4 265.2l9.8.3-.4-3.8s-4.2-1.5-5.7-1.2c-1.5.3-3.6.9-3.6.9l-.1 3.8z" fill="#82C9B4" fill-rule="nonzero"/><path d="M36.3 264.4s-6.1-.3-6.5 0c-.4.3-1.9.9-1.9.9l6.6.1 1.8-1z" fill="#82C9B4" fill-rule="nonzero"/><path d="M13.3 295s13.9-.9 12.3 0c-1.5.9-12.8 2.8-12.8 2.8l.5-2.8z" fill="#D95F73" fill-rule="nonzero"/><path d="M15.8 273.9l-1.1 11.6-.1.4 1.4-2.2c.8-1.3 1.2-2.7 1.2-4.3v-5.8l-1.4.3z" fill="#03147A" fill-rule="nonzero"/><path d="M394.1 103.5V91.1" stroke="#0089FF"/></g></svg>
