<svg class="the-date__input-icon" viewBox="0 0 17 18" width="17" height="18" xmlns="http://www.w3.org/2000/svg"><path d="M1.275 16.571h2.868v-2.868H1.275v2.868zm3.505 0h3.187v-2.868H4.78v2.868zm-3.505-3.505h2.868V9.879H1.275v3.187zm3.505 0h3.187V9.879H4.78v3.187zM1.275 9.242h2.868V6.374H1.275v2.868zm7.33 7.33h3.186v-2.869H8.604v2.868zM4.78 9.241h3.187V6.374H4.78v2.868zm7.649 7.33h2.868v-2.869h-2.868v2.868zm-3.825-3.506h3.187V9.879H8.604v3.187zM5.1 4.462V1.593c0-.169-.15-.318-.319-.318h-.637c-.17 0-.319.15-.319.318v2.869c0 .169.15.318.319.318h.637c.17 0 .319-.15.319-.318zm7.33 8.604h2.868V9.879h-2.868v3.187zM8.604 9.242h3.187V6.374H8.604v2.868zm3.825 0h2.868V6.374h-2.868v2.868zm.318-4.78V1.593c0-.169-.15-.318-.318-.318h-.638c-.17 0-.318.15-.318.318v2.869c0 .169.149.318.318.318h.638c.169 0 .318-.15.318-.318zm3.824-.638v12.747c0 .698-.577 1.275-1.274 1.275H1.275A1.284 1.284 0 0 1 0 16.571V3.824C0 3.127.578 2.55 1.275 2.55h1.274v-.956C2.55.717 3.266 0 4.143 0h.637c.877 0 1.594.717 1.594 1.593v.956h3.824v-.956C10.198.717 10.915 0 11.79 0h.638c.876 0 1.593.717 1.593 1.593v.956h1.275c.697 0 1.274.578 1.274 1.275z" fill="#A6B2D9" fill-rule="nonzero"/></svg>
