<svg viewBox="0 0 44 49" width="44" height="49" xmlns="http://www.w3.org/2000/svg"><defs><linearGradient x1="49.684%" y1="-1.344%" x2="49.684%" y2="98.118%" id="a"><stop stop-color="#CD6582" offset="0%"/><stop stop-color="#FB929F" stop-opacity="0" offset="100%"/></linearGradient><linearGradient x1="49.48%" y1="97.506%" x2="49.48%" y2="-.909%" id="b"><stop stop-color="#CD6582" offset="0%"/><stop stop-color="#FB929F" stop-opacity="0" offset="100%"/></linearGradient><linearGradient x1="50.683%" y1="97.98%" x2="50.683%" y2="-3.255%" id="c"><stop stop-color="#FAB7C0" offset="0%"/><stop stop-color="#FB929F" stop-opacity="0" offset="100%"/></linearGradient></defs><g transform="translate(-1)" fill-rule="nonzero" fill="none"><path fill="#FB929F" d="M22.72 44.78H8.89l2.195-12.073h9.44z"/><path fill="url(#a)" d="M10.646 34.573L8.89 44.78h13.83l-1.866-10.207z"/><ellipse fill="#FB929F" cx="15.805" cy="19.207" rx="12.732" ry="16.683"/><g fill="#FB929F"><path d="M4.72 23.598H2.854c-.55 0-1.098-.44-1.208-.988l-.658-4.171c-.11-.768.439-1.427 1.207-1.427H4.83v6.586h-.11zM26.78 23.598h1.866c.55 0 1.098-.44 1.208-.988l.658-4.171c.11-.768-.439-1.427-1.207-1.427H26.67v6.586h.11z"/></g><path d="M28.756 4.5c2.744 2.963 2.085 11.963.659 12.512-1.427.549-23.159-2.195-23.159-2.195L4.72 21.622l-2.635-4.61C1.098 7.902 7.463 5.927 7.463 5.927S18.988-5.927 28.756 4.5z" fill="#0B40C0"/><path d="M26.78 21.732l-1.207-7.354 3.183-1.207s1.537 2.853-1.976 8.56z" fill="#0B40C0"/><circle fill="#0B40C0" cx="10.756" cy="20.305" r="1.098"/><circle fill="#0B40C0" cx="20.744" cy="20.305" r="1.098"/><path d="M11.415 24.805l2.305 2.085c1.207 1.098 2.963 1.098 4.17 0l2.305-2.085h-8.78z" fill="url(#b)"/><path d="M13.939 26.012c.878 1.208 2.744 1.208 3.622 0 .33-.439.439-.988.22-1.427l-1.866-5.817-2.305 5.708c-.11.439 0 .987.329 1.536z" fill="url(#c)"/><g fill="#0B40C0"><path d="M7.573 17.67c.878-.329 1.756-.548 2.634-.658.44-.11.878-.22 1.317-.22.44.11.878.22 1.317.55v.11c-.439.219-.878.328-1.317.438-.439.11-.878 0-1.317 0l-2.634-.22zM23.927 17.78l-2.634.11c-.44 0-.878.11-1.317 0-.44-.11-.878-.22-1.317-.439v-.11c.439-.329.878-.439 1.317-.548.439-.11.878.11 1.317.22.987.109 1.866.438 2.634.767z"/></g><path d="M10.756 28.646l3.732 1.098a4.51 4.51 0 0 0 2.414 0l3.732-1.098-1.756 1.866a4.505 4.505 0 0 1-6.366 0l-1.756-1.866z" fill="#FFF"/><path fill="#29AAFF" d="M10.207 37.207l5.598 3.952v3.621L5.598 48.073z"/><path fill="#29AAFF" d="M21.183 37.207l-5.488 3.952v3.621l10.098 3.293z"/><g fill="#FB929F"><path d="M33.037 34.573l-4.39 8.67 3.292-1.097 1.098 3.403 5.048-10.976z"/><path d="M40.5 34.573l4.39 8.67-3.292-1.097L40.5 45.55l-5.049-10.976z"/></g><circle fill="#0B40C0" cx="36.768" cy="34.573" r="5.159"/><circle fill="#29AAFF" cx="36.768" cy="34.573" r="2.305"/></g></svg>
