<svg width="147" height="129" xmlns="http://www.w3.org/2000/svg" xmlns:xlink="http://www.w3.org/1999/xlink"><defs><ellipse id="a" cx="62.962" cy="63" rx="62.5" ry="63"/><linearGradient x1="52.179%" y1="96.214%" x2="52.179%" y2="0%" id="c"><stop stop-color="#03147A" stop-opacity=".3" offset="0%"/><stop stop-color="#1454D1" stop-opacity="0" offset="100%"/></linearGradient><linearGradient x1="50%" y1="0%" x2="50%" y2="100%" id="d"><stop stop-color="#7BC1B4" offset="0%"/><stop stop-color="#B6EFDA" offset="100%"/></linearGradient><linearGradient x1="16.952%" y1="91.857%" y2="29.024%" id="e"><stop stop-color="#03147A" stop-opacity=".3" offset="0%"/><stop stop-color="#1454D1" stop-opacity="0" offset="100%"/></linearGradient></defs><g fill="none" fill-rule="evenodd"><g transform="translate(21.538 3)"><mask id="b" fill="#fff"><use xlink:href="#a"/></mask><use fill="#536AFF" xlink:href="#a"/><g mask="url(#b)"><path fill="#82C9B4" fill-rule="nonzero" d="M35.796 42.553h97.383v68H35.796z"/><path fill="url(#c)" fill-rule="nonzero" d="M0 0l33.35 36.447L64.7 0z" transform="translate(35.796 42.553)"/><path fill="url(#d)" d="M0 0l33.35 33.447L64.7 0z" transform="translate(35.796 42.553)"/><path fill="url(#d)" transform="rotate(-180 51.381 72.34)" d="M1.267 34.5l32.35 34 32.35-34z"/><path fill="url(#e)" fill-rule="nonzero" d="M65.034 1.553h32.683v68H65.034z" transform="translate(35.462 41)"/><path fill="#B6EFDA" fill-rule="nonzero" d="M112.462 43h8v20h-8z"/></g></g><path d="M12.911 2.42c10.494-4.673 22.704.1 27.33 10.49 2.822 6.338 2.25 13.44-1.108 19.044l5.689 10.54-11.366-4.277c-1.155.763-2.413 1.572-3.66 2.127-10.494 4.672-22.703-.1-27.33-10.49C-2.31 19.404 2.418 7.091 12.912 2.418z" fill="#01D17E" fill-rule="nonzero"/><path stroke="#FFF" stroke-width="3" stroke-linecap="round" stroke-linejoin="round" d="M14.472 21.898l5.835 6.251 8.378-11.836"/></g></svg>
