<svg viewBox="0 0 1438 170" xmlns="http://www.w3.org/2000/svg"><g fill="#102591" fill-rule="evenodd"><path d="M-3.26 135.113h-17.423v-11.6a8.712 8.712 0 0 1 17.424 0v11.6zm30.078-42.001V76.633L17.707 48l-9.11 28.633v16.479H-8.538l-3.251-4.77-3.25 4.77h-17.138V76.633L-41.287 48l-9.109 28.633h-.002v16.479H-77v75.547h30.507v-11.427a8.676 8.676 0 0 1 8.675-8.676 8.676 8.676 0 0 1 8.678 8.676v11.427h8.457v-11.427a8.676 8.676 0 0 1 8.675-8.676 8.676 8.676 0 0 1 8.677 8.676v11.427h8.676v-11.427a8.674 8.674 0 0 1 8.675-8.676 8.674 8.674 0 0 1 8.675 8.676v11.427H53.42V93.112H26.818zM1382.74 135.113h-17.423v-11.6a8.712 8.712 0 0 1 17.424 0v11.6zm30.078-42.001V76.633L1403.707 48l-9.11 28.633v16.479h-17.136l-3.251-4.77-3.25 4.77h-17.138V76.633L1344.713 48l-9.109 28.633h-.002v16.479H1309v75.547h30.507v-11.427a8.676 8.676 0 0 1 8.675-8.676 8.676 8.676 0 0 1 8.678 8.676v11.427h8.457v-11.427a8.676 8.676 0 0 1 8.675-8.676 8.676 8.676 0 0 1 8.677 8.676v11.427h8.676v-11.427a8.674 8.674 0 0 1 8.675-8.676 8.674 8.674 0 0 1 8.675 8.676v11.427h30.725V93.112h-26.602z"/><path d="M160.864 116.548h-7.102v-10.382h1.316l3.357-3.161h-30.349v-4.65h-8.724c.822-3.05 2.435-9.479 1.552-9.857-1.162-.499-1.99 1.657-1.99 1.657s-1.658 2.488-2.156 2.985c-.499.498-1.493 1.041-1.493 1.041h-2.487s-1.825-8.503-2.489-8.172c-.662.332-1.99 6.961-1.99 6.961l-.97 3.4-.97-3.4s-1.327-6.63-1.991-6.96c-.662-.332-2.487 8.171-2.487 8.171h-2.487s-.995-.543-1.493-1.04c-.498-.498-2.156-2.986-2.156-2.986s-.829-2.156-1.99-1.657c-.884.378.73 6.806 1.552 9.857h-8.725v4.65H54.888l3.357 3.16h1.315v10.383H49l3.457 2.765v8.449h4.238l1.801 3.29h-3.608l4.672 3.045v44.434h8.97v-44.317h5.983v44.317h8.97v-44.317h6.029v44.317h8.972v-44.317h16.355v44.317h8.971v-44.317h5.982v44.317h8.97v-44.317h6.029v44.317h8.97v-44.434l4.674-3.045h-3.608l1.801-3.29h4.236v-8.449l3.459-2.765h-3.459zM186.929 116.054c-6.29 0-11.389-5.097-11.389-11.386 0-6.289 5.1-11.386 11.389-11.386s11.386 5.097 11.386 11.386c0 6.29-5.097 11.386-11.386 11.386zm-7.703-37.745a1.664 1.664 0 1 1 3.329 0v6.083h-3.329V78.31zm6.038 0a1.664 1.664 0 1 1 3.329 0v6.083h-3.329V78.31zm6.038 0a1.665 1.665 0 0 1 3.329 0v6.083h-3.329V78.31zm11.215 6.083V55.744h-.995v11.16L194.66 50.48h-.01V20.167h-.996V30.44c-1.94-6.533-6.099-21.36-6.725-30.439-.627 9.08-4.786 23.906-6.728 30.439V20.167h-.995V50.48h-.01l-6.86 16.425v-11.16h-.998v28.648H169v40.552l2.338 4.025v51.823h31.179V128.97l2.338-4.025V84.392h-2.338zM412.979 81l-12.387 19.234v13.487h-33.819v-13.487L354.384 81l-12.385 19.234v13.487h-21.632v-13.487L307.98 81l-12.387 19.234v13.487h-33.821v-13.487L249.387 81 237 100.234v69.807H425.366v-69.807L412.979 81zm-25.727 65.64h5.95v-8.727h-5.95v8.727zm-13.088 0h5.95v-8.727h-5.95v8.727zm-44.079 0h5.95v-8.727h-5.95v8.727zm-13.088 0h5.95v-8.727h-5.95v8.727zm-13.09 0h5.949v-8.727h-5.95v8.727zm-13.09 0h5.95v-8.727h-5.95v8.727zm-13.085 0h5.95v-8.727h-5.95v8.727zm-13.089 0h5.95v-8.727h-5.95v8.727zM442.258 111L427 170.027h30.516zM771.258 111L756 170.027h30.516zM219.258 141L204 200.027h30.516zM538.45 140.42v-6.804a2.506 2.506 0 0 0-5.013 0v6.803h5.012zm35.094 9.07l3.342 6.186h-1.671v13.585h-3.463v-13.585h-2.664v13.585h-11.42v-13.762l-21.725-10.167-21.725 10.167v13.762h-11.42v-13.585h-2.664v13.585h-3.462v-13.585H495l3.341-6.185h4.457v-9.072h19.218v-21.29h.036c.328-6.432 5.143-11.665 11.385-12.636v-8.061a2.43 2.43 0 0 1 2.43-2.432h.15a2.431 2.431 0 0 1 2.432 2.432V106.494c6.242.97 11.056 6.203 11.385 12.634h.035v21.291h19.22v9.072h4.455zm-49.251 19.772v-13.764h3.148v13.764h-3.148zm-6.611 0v-13.764h3.148v13.764h-3.148zm18.26-13.763h5.038v13.763h-10.075v-13.763h5.038zm8.503 13.763v-13.764h3.148v13.764h-3.148zm6.61 0v-13.764h3.15v13.764h-3.15zM676.055 149.09c.232-.396.259-.77 0-1.102v-4.52a2.469 2.469 0 0 0-2.468-2.468H618.55a6.284 6.284 0 0 0-4.75 2.169c-2.485 2.653-5.178 5.89-6.504 7.509l-.739.853s-6.27 2.42-7.117 4.537c-.062-.014-.098-.02-.098-.02l-.776 4.56a.566.566 0 0 0-.566.566V164.809c0 .681.527 1.247 1.207 1.294 2.557.179 7.504.37 7.685.175.232-.25.43-.113.43-1.14v-.783h1.115a3.618 3.618 0 1 0 7.19 0h1.36c0 .203-.014.403-.038.6a.64.64 0 0 0 .64.713h38.939a.643.643 0 0 0 .64-.72 4.854 4.854 0 0 1-.033-.593h1.424a3.618 3.618 0 1 0 7.19 0h1.428c0 .203-.013.403-.038.6a.64.64 0 0 0 .641.713H671l3.258-.898a2.45 2.45 0 0 0 1.754-1.91c.026.002.05.008.077.008l.044-5.214v-3.489l-.078.15v-5.224zM865.684 124.965h-6.164v-7.604a3.081 3.081 0 0 1 6.164 0v7.604zm-50.012 0h-6.164v-7.604a3.082 3.082 0 0 1 6.164 0v7.604zm61.52-18.699v-9.453l-4.114-17.26-3.047 12.79-7.43-31.17-7.428 31.17-3.047-12.79-4.114 17.26v9.453l4.114 1.644v23.562l-.773-1.294a19.927 19.927 0 0 0-5.145-5.715 19.903 19.903 0 0 1-7.716-12.81l-.897-5.662-.895 5.662a19.903 19.903 0 0 1-7.716 12.81 19.927 19.927 0 0 0-5.145 5.715l-.773 1.294V107.91l4.113-1.644v-9.453l-4.113-17.26-3.048 12.79-7.428-31.17-7.43 31.17-3.047-12.79L798 96.812v9.453l4.113 1.644v23.562H798.656v4.796h3.35v33.216h28.745v-16.268l6.844-6.639 6.843 6.64v16.267h28.748v-33.216h3.35v-4.796h-3.458V107.91l4.113-1.644zM1045.42 136.799h9.786v-19.072h-9.785V136.8zm-15.461 0h9.785v-19.072h-9.785V136.8zm1.68-36.126a3.214 3.214 0 0 1 3.212-3.214 3.214 3.214 0 0 1 3.213 3.214v7.167h-6.425v-7.167zm-17.427 36.126h9.785v-19.072h-9.785V136.8zm-19.705 0h9.785v-19.072h-9.785V136.8zm-15.462 0h9.785v-19.072h-9.785V136.8zm1.537-36.126a3.214 3.214 0 1 1 6.427 0v7.167h-6.427v-7.167zM963.3 136.8h9.783v-19.072H963.3V136.8zm-19.707 0h9.785v-19.072h-9.785V136.8zm-15.462 0h9.785v-19.072h-9.785V136.8zm1.68-28.96h6.425v-3.336h-6.425v3.337zm-17.427 28.96h9.785v-19.072h-9.785V136.8zm138.705-33.863l-7.236-7.96v-10.06h-5.19v-9.008h-7.908v9.009h-5.19v10.061l-7.235 7.958h-13.898v-6.639a7.645 7.645 0 0 0-5.533-7.348l-.773-.222h.499v-4.77a5.493 5.493 0 0 0-3.976-5.28l-.308-.09h.308v-3.49a4.02 4.02 0 0 0-2.91-3.865l-4.11-1.181v-8.22a3.832 3.832 0 0 0-7.666 0v8.22l-4.11 1.181a4.02 4.02 0 0 0-2.91 3.865v3.49h.307l-.307.09a5.492 5.492 0 0 0-3.978 5.28v4.77h.5l-.774.222a7.645 7.645 0 0 0-5.532 7.348v6.639H953.378V96.1h-8.223l-3.128-5.207v-5.976h-3.591l-1.6-2.663v-6.346h-7.909v6.7l-1.412 2.309h-3.778V91.1l-3.056 5h-8.295v6.836H908v67.726h151.59v-67.726h-8.5zM1223.477 80v14.707h-81.108V80h-3.12l-4.011 48.129v-6.788l-8.467-29.19-7.573 29.19v30.814h-15.154v-19.57l-8.468-29.19-7.576 29.19v43.228H1298.347v-47.684l-8.02-26.737h-61.517L1226.598 80h-3.12zm48.13 59.494l3.455-2.675 3.455 2.675v6.907h-6.91v-6.907zm-13.369 0l3.453-2.675 3.454 2.675v6.907h-6.907v-6.907zm-13.37 0l3.455-2.675 3.455 2.675v6.907h-6.91v-6.907zm-72.72 0l3.454-2.675 3.455 2.675v6.907h-6.91v-6.907zm-13.37 0l3.455-2.675 3.452 2.675v6.907h-6.907v-6.907zm-13.37 0l3.453-2.675 3.454 2.675v6.907h-6.906v-6.907z"/></g></svg>
