<svg width="47" height="52" xmlns="http://www.w3.org/2000/svg"><defs><linearGradient x1="50.663%" y1="100.557%" x2="-2.478%" y2="34.485%" id="a"><stop stop-color="#EFF4FA" offset="0%"/><stop stop-color="#29AAFF" offset="100%"/></linearGradient></defs><g fill-rule="nonzero" fill="none"><path fill="#FFF" d="M37.8 0h9v51.6h-9z"/><path fill="#FB929F" d="M45.3 11.2h1.5V14h-1.5zM45.3 33.7h1.5v2.8h-1.5zM45.3 26.2h1.5V29h-1.5zM45.3 3.7h1.5v2.8h-1.5zM45.3 18.7h1.5v2.8h-1.5zM45.3 48.7h1.5v2.8h-1.5zM45.3 41.2h1.5V44h-1.5zM40.6 17.8V15H34v2.8h2.8zM46.8 15h-5.2v2.8h5.2zM37.8 18.7v2.9h6.6v-2.9h-3.8zM40.6 25.3v-2.8H34v2.8h2.8zM46.8 22.5h-5.2v2.8h5.2zM37.8 26.2v2.9h6.6v-2.9h-3.8zM40.6 2.8V0H34v2.8h2.8zM46.8 2.8V0h-5.2v2.8h3.7zM37.8 3.7v2.9h6.6V3.7h-3.8zM40.6 10.3V7.5H34v2.8h2.8zM46.8 7.5h-5.2v2.8h5.2zM44.4 14.1v-2.9h-6.6v2.9h3.8zM40.6 32.8V30H34v2.8h2.8zM46.8 30h-5.2v2.8h5.2zM37.8 33.7v2.9h6.6v-2.9h-3.8zM40.6 40.3v-2.8H34v2.8h2.8zM46.8 37.5h-5.2v2.8h5.2zM37.8 41.2v2.9h6.6v-2.9h-3.8zM40.6 47.8V45H34v2.8h2.8zM46.8 47.8V45h-5.2v2.8h3.7zM41.6 51.6h2.8v-2.9h-6.6v2.9h2.8z"/><path fill="#023AC2" d="M8 0h29.8v5.9H8z"/><path fill="#FFF" d="M10.2 5.9h27.6v33.9H10.2z"/><path fill="#1AA7FF" d="M.8 51.6v-3h3.1v-2.9h3.2v-3h3.1v-2.9h18.5v11.8z"/><path fill="#023AC2" d="M19.3 51.6v-3h3.1v-2.9h3.2v-3h3.1v-2.9h9.1v11.8z"/><path fill="url(#a)" opacity=".3" d="M37.8 39.8l-27.5-28-.1 28z"/><path d="M9.1 11.9c-4.1.5-7.5 3.7-8.2 7.8-.4 2.6.2 5.1 1.6 7.1 1.9 2.7 3.9 5.4 5.4 8.4l2.4 4.6 2.4-4.6c1.5-2.8 3.2-5.5 5.1-8 1.3-1.6 2-3.6 2-5.8 0-5.7-4.9-10.2-10.7-9.5zm1.2 12.9c-1.7 0-3-1.4-3-3s1.4-3 3-3c1.7 0 3 1.4 3 3s-1.3 3-3 3z" fill="#FB929F"/><circle fill="#023AC2" cx="30.6" cy="22.8" r="1.9"/></g></svg>
