<svg viewBox="0 0 47 45" width="47" height="45" xmlns="http://www.w3.org/2000/svg"><defs><linearGradient x1="201.979%" y1="-22.239%" x2="23.65%" y2="98.109%" id="a"><stop stop-color="#0B40C0" offset="0%"/><stop stop-color="#29AAFF" offset="100%"/></linearGradient><linearGradient x1="49.76%" y1="3.252%" x2="49.76%" y2="99.737%" id="b"><stop stop-color="#EFF4FA" offset="0%"/><stop stop-color="#29AAFF" offset="100%"/></linearGradient><linearGradient x1="51.491%" y1="-90.255%" x2="51.491%" y2="165.126%" id="c"><stop stop-color="#EFF4FA" offset="0%"/><stop stop-color="#29AAFF" offset="100%"/></linearGradient><linearGradient x1="51.846%" y1="-90.255%" x2="51.846%" y2="165.126%" id="d"><stop stop-color="#EFF4FA" offset="0%"/><stop stop-color="#29AAFF" offset="100%"/></linearGradient><linearGradient x1="50.651%" y1="5.353%" x2="50.651%" y2="99.573%" id="e"><stop stop-color="#EFF4FA" offset="0%"/><stop stop-color="#29AAFF" offset="100%"/></linearGradient></defs><g fill-rule="nonzero" fill="none"><path fill="#29AAFF" d="M32.6 12.5H15.1v25.4L12 44.1h20.6zM21.9 5.3l-6.8 7.2H39.4V5.3z"/><path fill="#0B40C0" d="M39.4 5.3l-6.8 7.2v31.6h13.6V12.5z"/><path d="M38.4.2H22.9c-.6 0-1 .4-1 1v4.1h17.5V1.2c0-.6-.4-1-1-1z" fill="#29AAFF"/><path fill="url(#a)" d="M27 29l-9.5 15.1h10.7z"/><path fill="url(#b)" d="M40.1 44.1H27.5l-1-15.8h14.7z"/><path d="M31.6 39.4h-.3c-.9 0-1.6.7-1.6 1.6v3.1h3.4V41c.1-.9-.6-1.6-1.5-1.6z" fill="url(#c)"/><path d="M36.2 39.4h-.3c-.9 0-1.6.7-1.6 1.6v3.1h3.4V41c.1-.9-.6-1.6-1.5-1.6z" fill="url(#d)"/><path d="M20.7 31.4c.2-1.4-2.6-3.3-.9-4.3 1.7-1.1 2.7-.8 1.8-2.9-.8-2-6.1-1.6-7.4-2.9-1.3-1.3.3-2.4 2-3.6 1.7-1.2-2.2-5.1-5.2-4.1-1.9.7-9.6 1.9-9.6 3 .1 1.1 2.2 1.9 3.8 3.3 1.6 1.3.5 1.9-.8 3.3-1.3 1.3-4.9 2.7-3.9 5.1.7 1.7 4.3 1.1 4.5 2.5.2 1.3-2.8 2.4-2.8 2.4h20.3c.1-.1-2.2.6-1.8-1.8z" fill="url(#e)" opacity=".3"/><path d="M12 44.1C5.6 44.1.5 38.9.5 32.6h23.1c0 6.3-5.2 11.5-11.6 11.5z" fill="#FB929F"/><circle fill="#EFF4FA" cx="25.9" cy="8.2" r="2.3"/></g></svg>
