<svg viewBox="0 0 45 64" width="45" height="64" xmlns="http://www.w3.org/2000/svg"><defs><linearGradient x1="50.099%" y1="96.774%" x2="50.099%" y2="-.11%" id="a"><stop stop-color="#6FD6B9" offset="0%"/><stop stop-color="#29AAFF" offset="100%"/></linearGradient><linearGradient x1="131.796%" y1="11.28%" x2="43%" y2="106.409%" id="b"><stop stop-color="#0B40C0" offset="0%"/><stop stop-color="#54C8D1" offset="100%"/></linearGradient></defs><g fill-rule="nonzero" fill="none"><path fill="url(#a)" d="M.3 7h15.1v43.4H.3z"/><path d="M37.1 28.8H24.9v-6.1c0-3.4 2.7-6.1 6.1-6.1 3.4 0 6.1 2.7 6.1 6.1v6.1zm-11.3-1H36v-5.1c0-2.8-2.3-5.1-5.1-5.1s-5.1 2.3-5.1 5.1v5.1z" fill="#0B40C0"/><path fill="#0B40C0" d="M30.8 26h13.6v24.4H30.8z"/><path fill="url(#b)" opacity=".5" d="M12.9 26L.3 50.4h13.8z"/><path fill="#29AAFF" d="M12.4 26h18.7v24.4H12.4z"/><g fill="#FB929F"><path d="M38.3 51s-12.7 3.8-15.6 4.3c-2.9.5-14.4-.6-14.4-.6l3-5.3 17 .7s9.6-2.3 10 .9z"/><path d="M10.8 45.8s10.9-.5 13.1.2c2.3.7-1.1 2.4-3.5 2.7-1.7.2-8.3 1.9-9.6 3.9-1.3 2-2.6 9.7-2.6 9.7L.3 60.4s3.1-12 10.5-14.6z"/></g><path d="M29.8 28.8H17.6v-6.1c0-3.4 2.7-6.1 6.1-6.1 3.4 0 6.1 2.7 6.1 6.1v6.1zm-11.2-1h10.2v-5.1c0-2.8-2.3-5.1-5.1-5.1s-5.1 2.3-5.1 5.1v5.1zM14 13.1H1.8V7C1.8 3.6 4.5.9 7.9.9 11.3.9 14 3.6 14 7v6.1zm-11.3-1h10.2V7c0-2.8-2.3-5.1-5.1-5.1S2.7 4.2 2.7 7v5.1z" fill="#29AAFF"/><path fill="#0B40C0" d="M9.2 57.9l-.4 1.6-7.7-1.6-.8 2.5 10.4 2.8 3.1-3.4z"/></g></svg>
