<svg viewBox="0 0 540 392" width="540" height="392" xmlns="http://www.w3.org/2000/svg">
  <style>
    .pin1 {
      opacity: 0;
      animation: pinTranslate 8s ease-in-out infinite;
    }
    .pin2 {
      opacity: 0;
      animation: pinTranslate 8s ease-in-out infinite;
      animation-delay: 4s;
    }
    .pin3 {
      opacity: 0;
      animation: pinTranslate 8s ease-in-out infinite;
      animation-delay: 6s;
    }

    @keyframes pinTranslate {
      0% {
        opacity: 0;
        transform: translate(0, -8%);
      }
      10% {
        opacity: 1;
        transform: translate(0, 0);
      }
      40% {
        opacity: 1;
        transform: translate(0, 0);
      }
      50% {
        opacity: 0;
        transform: translate(0, -8%);
      }
    }
  </style>
  <defs><linearGradient x1=".135%" y1="49.659%" x2="100.106%" y2="49.659%" id="a"><stop stop-color="#041B76" offset="0%"/><stop stop-color="#0C2BC0" offset="100%"/></linearGradient><linearGradient x1=".101%" y1="48.685%" x2="100.072%" y2="48.685%" id="b"><stop stop-color="#041B76" offset="0%"/><stop stop-color="#0C2BC0" offset="100%"/></linearGradient><linearGradient x1="-18.016%" y1="-8.51%" x2="95.252%" y2="111.643%" id="c"><stop stop-color="#03147A" stop-opacity=".3" offset="0%"/><stop stop-color="#1454D1" stop-opacity="0" offset="99.65%"/></linearGradient><linearGradient x1="49.392%" y1="97.975%" x2="51.602%" y2="4.758%" id="d"><stop stop-color="#041B76" offset="0%"/><stop stop-color="#022D91" offset="100%"/></linearGradient><linearGradient x1="-.001%" y1="50.023%" x2="99.997%" y2="50.023%" id="e"><stop stop-color="#CF6683" offset="0%"/><stop stop-color="#F895A2" offset="100%"/></linearGradient><linearGradient x1="-.001%" y1="50.063%" x2="100.024%" y2="50.063%" id="f"><stop stop-color="#CF6683" offset="0%"/><stop stop-color="#F895A2" offset="100%"/></linearGradient><linearGradient x1="49.563%" y1="98.022%" x2="51.771%" y2="4.658%" id="g"><stop stop-color="#041B76" offset="0%"/><stop stop-color="#093391" offset="100%"/></linearGradient><linearGradient x1="49.984%" y1="98.423%" x2="51.585%" y2="-.713%" id="h"><stop stop-color="#888A87" offset="0%"/><stop stop-color="#FDFDFD" offset="100%"/></linearGradient><linearGradient x1="90.422%" y1="28.641%" x2="-.988%" y2="77.082%" id="i"><stop stop-color="#888A87" offset="0%"/><stop stop-color="#FDFDFD" offset="100%"/></linearGradient><linearGradient x1="48.976%" y1="97.991%" x2="51.177%" y2="4.647%" id="j"><stop stop-color="#041B76" offset="0%"/><stop stop-color="#093391" offset="100%"/></linearGradient><linearGradient x1="49.716%" y1="98.66%" x2="51.307%" y2="-.641%" id="k"><stop stop-color="#888A87" offset="0%"/><stop stop-color="#FDFDFD" offset="100%"/></linearGradient><linearGradient x1="90.256%" y1="28.818%" x2="-1.292%" y2="77.327%" id="l"><stop stop-color="#888A87" offset="0%"/><stop stop-color="#FDFDFD" offset="100%"/></linearGradient><linearGradient x1="-.041%" y1="50.288%" x2="99.964%" y2="50.288%" id="m"><stop stop-color="#CF6683" offset="0%"/><stop stop-color="#F895A2" offset="100%"/></linearGradient><linearGradient x1="27.739%" y1="95.106%" x2="72.046%" y2="-7.546%" id="n"><stop stop-color="#041B75" offset="0%"/><stop stop-color="#0C2EB2" stop-opacity=".4" offset="100%"/></linearGradient><linearGradient x1="91.218%" y1="25.041%" x2="8.674%" y2="69.376%" id="o"><stop stop-color="#FDFDFD" stop-opacity="0" offset="0%"/><stop stop-color="#FDFDFD" offset="100%"/></linearGradient><linearGradient x1="34.493%" y1="75.435%" x2="109.252%" y2="4.672%" id="p"><stop stop-color="#FDFDFD" stop-opacity="0" offset="0%"/><stop stop-color="#FDFDFD" offset="100%"/></linearGradient><linearGradient x1="39.854%" y1="-28.242%" x2="74.753%" y2="117.703%" id="q"><stop stop-color="#FB929F" offset="0%"/><stop stop-color="#FBA5B0" offset="100%"/></linearGradient><linearGradient x1="59.221%" y1="99.047%" x2="29.962%" y2="6.415%" id="r"><stop stop-color="#FB929F" offset="0%"/><stop stop-color="#FBA5B0" offset="100%"/></linearGradient><linearGradient x1="37.049%" y1="-18.631%" x2="65.931%" y2="117.853%" id="s"><stop stop-color="#FB929F" offset="0%"/><stop stop-color="#FBA5B0" offset="100%"/></linearGradient><linearGradient x1="96.238%" y1="61.427%" x2="9.735%" y2="38.582%" id="t"><stop stop-color="#FB929F" offset="0%"/><stop stop-color="#FBA5B0" offset="100%"/></linearGradient><linearGradient x1=".717%" y1="46.915%" x2="100.766%" y2="52.912%" id="u"><stop stop-color="#FB929F" offset="0%"/><stop stop-color="#FBA5B0" offset="100%"/></linearGradient><linearGradient x1=".166%" y1="49.682%" x2="100.149%" y2="49.682%" id="v"><stop stop-color="#06207D" offset="0%"/><stop stop-color="#0C2EB2" stop-opacity="0" offset="100%"/></linearGradient><linearGradient x1=".183%" y1="50.072%" x2="100.323%" y2="50.072%" id="w"><stop stop-color="#03147A" stop-opacity=".3" offset="0%"/><stop stop-color="#1454D1" stop-opacity="0" offset="99.65%"/></linearGradient><linearGradient x1="50.154%" y1="100%" x2="50.154%" y2="1.044%" id="x"><stop stop-color="#52ACFF" offset="0%"/><stop stop-color="#1482FB" offset="100%"/></linearGradient><linearGradient x1="49.946%" y1="100.13%" x2="49.946%" y2=".875%" id="y"><stop stop-color="#52ACFF" offset="0%"/><stop stop-color="#1482FB" offset="100%"/></linearGradient><linearGradient x1="50.017%" y1="100%" x2="50.017%" y2="2.165%" id="z"><stop stop-color="#52ACFF" offset="0%"/><stop stop-color="#1482FB" offset="100%"/></linearGradient><linearGradient x1="50.185%" y1="99.741%" x2="50.185%" y2=".25%" id="A"><stop stop-color="#52ACFF" offset="0%"/><stop stop-color="#1482FB" offset="100%"/></linearGradient><linearGradient x1="50%" y1="96.809%" x2="50%" y2="3.571%" id="B"><stop stop-color="#52ACFF" offset="0%"/><stop stop-color="#1482FB" offset="100%"/></linearGradient><linearGradient x1=".241%" y1="50.212%" x2="100.314%" y2="50.212%" id="C"><stop stop-color="#52ACFF" offset="0%"/><stop stop-color="#1482FB" offset="100%"/></linearGradient><linearGradient x1="49.922%" y1="104.798%" x2="49.922%" y2="-1.795%" id="D"><stop stop-color="#CF6683" offset="0%"/><stop stop-color="#F895A2" offset="100%"/></linearGradient><linearGradient x1="49.956%" y1="104.99%" x2="49.956%" y2="-1.603%" id="E"><stop stop-color="#CF6683" offset="0%"/><stop stop-color="#F895A2" offset="100%"/></linearGradient><linearGradient x1="49.961%" y1="104.921%" x2="49.961%" y2="-1.672%" id="F"><stop stop-color="#CF6683" offset="0%"/><stop stop-color="#F895A2" offset="100%"/></linearGradient><linearGradient x1="50.012%" y1="104.826%" x2="50.012%" y2="-1.766%" id="G"><stop stop-color="#CF6683" offset="0%"/><stop stop-color="#F895A2" offset="100%"/></linearGradient><linearGradient x1="49.852%" y1="104.918%" x2="49.852%" y2="-1.674%" id="H"><stop stop-color="#CF6683" offset="0%"/><stop stop-color="#F895A2" offset="100%"/></linearGradient><linearGradient x1="49.986%" y1="-17.927%" x2="49.986%" y2="126.401%" id="I"><stop stop-color="#F1E0E2" offset="0%"/><stop stop-color="#62BCFF" stop-opacity="0" offset="100%"/></linearGradient><linearGradient x1="50.085%" y1="-18.037%" x2="50.085%" y2="126.842%" id="J"><stop stop-color="#F1E0E2" offset="0%"/><stop stop-color="#62BCFF" stop-opacity="0" offset="100%"/></linearGradient></defs><g fill="none" fill-rule="evenodd"><circle fill="#62BCFF" fill-rule="nonzero" cx="279.7" cy="172" r="171.7"/><path d="M386.7 357.5l56.8 1s7.2 3.8 2.9 4.3c-4.3.5-7.9-.1-11.5.9-3.6 1-49.3-1.1-49.3-1.1l1.1-5.1z" fill="url(#a)" fill-rule="nonzero"/><path d="M478.1 356.9l56.8 1s7.2 3.8 2.9 4.3c-4.3.5-7.9-.1-11.5.9-3.6 1-49.3-1.1-49.3-1.1l1.1-5.1z" fill="url(#b)" fill-rule="nonzero"/><path fill="#1A8AFF" fill-rule="nonzero" d="M313.2 178.4l-61.4-58.9-12.3.2-20.9 21.8-2.4 28 48.5 43.5z"/><path d="M401.1 180.1l43.5 41.2c1.3-4.4 2.4-8.8 3.4-13.3l-38.4-36.5 37.8-38.5c-.5-2.3-1.1-4.5-1.7-6.8l-40.4 41.2-39.1-37 55.2-56.2c-2.3-3.3-4.7-6.6-7.3-9.7l-56.6 57.6-82.7-78.4L317 4.2c-2.4-.5-4.8-1-7.3-1.4l-39.4 36.8-35.2-33.4c-4.4 1.2-8.8 2.6-13.1 4.1l39.6 37.5-77.2 72.1-2.9-88.6c-4.2 2.9-8.2 6.1-12.1 9.4l3.2 90.3-.8.8c-9.8 9.2-17.6 20-23.1 32.2l-15.6 34.2 5.5 2.5 15.6-34.2c4.6-10.2 11-19.4 18.8-27.4l2.1 59.1 12-.4-2.3-69.8L266 51.9l83 78.7-37.1 37.8-46.4-44.2-9.1-9.1c-2.8-2.8-6.5-4.3-10.5-4.3s-7.6 1.6-10.4 4.5l-20.9 21.8c-4.3 4.5-6.7 10.4-6.7 16.6v9.9c0 7.1 3.1 13.8 8.6 18.4l13 10.9 29.6 29.3-24 24.4 8.6 8.4 68.5-69.8 39 37.1-56.5 57.5 4.3 4.2 56.6-57.6 57.2 54.4c2.6-3.1 5-6.3 7.3-9.6L364 217.9l37.1-37.8zm-133.6 33.5l-29.7-29.4-13.5-11.4c-2.7-2.3-4.3-5.6-4.3-9.2v-9.9c0-3.1 1.2-6 3.3-8.3l20.9-21.8c.7-.7 1.4-.8 1.9-.8.4 0 1.2.1 1.9.8l9.1 9.1 46.5 44.2-36.1 36.7zm53.1-36.9l37.1-37.8 39.1 37-37.2 37.8-39-37z" fill="#96D6FF" fill-rule="nonzero"/><g fill-rule="nonzero"><path d="M386.4 269.6l-.7 15.4s.3 21.2 0 23.3c-1.1 7.9.1 15.9 0 20.5-.3 12.6 1.7 29.9 1.7 29.9l9.4-2 .3-36.8.1-24-1.4-3.6 9.5 30.1.6 34.1 8.9-.9 1.9-32.3-4.2-18.7s-1.9-9.4-3.8-18.7c-1.4-6.5-4.1-14.5-4.1-14.5l-18.2-1.8z" fill="#03147A"/><path d="M405.2 217.9l-2.1.2s-7.6 1.3-8.3 4.3l-.7 3.7-1.4 4.8 6 3.7 1.4-5.8c2.3.4 4.6.1 5.1.1.8-.1.5-3.9.5-3.9l1.4-.8-1.9-6.3z" fill="pink"/><path d="M409.2 216.6c-.1.2-1.8.2-2.7.2 1-.8 1.9-1.9 2.7-3.2l-2.4.5c.5-1.9-2.1-.9-3.3-.8-7 .4-9.2 3.7-9.2 3.7-.3.3-.5.6-.6 1l-.8 2.9c-.5 2-.2 4.1.9 5.8l3.7-3.1s.7-2.6 2.4-3.2c.9-.3 2.6-.9 4.5-2 .4.1.9.2 1.4.3 1.4.3 1.2-.4 2.5-1.1 1.5-.7 1.1-1.2.9-1z" fill="#03147A"/><path d="M398.1 222.3s-2.3-1.2-2.4 0c-.1 1.2 0 3.2 0 3.2l3.1-1.1-.7-2.1z" fill="pink"/><path d="M396.8 356.9l3.5 4.5s-8-.5-9.6-.7c-1.6-.2-3.3-1.8-3.3-1.8l9.4-2zM405.9 356.7v3.5h2.4l1.2-1.4 6.1 2.2h6.8s-1-1.5-3.3-2.2c-2.3-.6-4.4-3-4.4-3l-8.8.9z" fill="#03147A"/><path d="M410.3 257.6c-1.6-1.1-2.5-3.5-3.5-5.6 0-5.9-2.5-11.5-6.8-15.6l-7.4-5.9-3 5.5-1.9 2.6-2.5 14.5 1.2 16.6 18.3 2.2-.3-6.7c1.7.7 4.8 2.4 9.9 3.3 7.7 1.4 12 .8 12 .8l1-4.4c-4.6-.1-12.9-4.5-17-7.3z" fill="#FCFCFC"/><path d="M5.3 40.5S6.2 51 7.2 52.2c1 1.3 14.6 6.7 14.6 6.7v-4.4l-6.4-3.6L5.3 40.5z" fill="url(#c)" transform="translate(385 212)"/><path d="M425.9 264.7s7.9-1.7 8.1-.5c.2 1.2-.8 2.3 0 2.9.8.6.4.5 0 2-.3 1.5-.8 1.1-3.1 1.2-2.3.1-4.6-1.2-4.6-1.2l-.4-4.4z" fill="pink"/></g><g fill-rule="nonzero"><path d="M10.6 340.5l20.1-1.9 5-.8 91.3-2.6 254 27.7c2.8.4 2.8 4.4 0 4.8l-129.7 22.6c-10.6 1.3-21.4.9-31.9-1.2l-202.9-41-7.1-1.4.8-.2c-9.7-3.2.4-6 .4-6z" fill="#041B76"/><path d="M56.7 305.4c5 0 8.9 10.2 8.8 22.6-.1 12.5-4.3 22.5-9.2 22.5l-10.8-.1.4-45.1 10.8.1zM335.6 307.9c6.1.1 10.9 12.4 10.7 27.6-.1 15.2-5.2 27.4-11.2 27.4l-13.2-.1.5-54.9h13.2z" fill="#041B76"/><path d="M.2 28.1C.1 43.3 4.9 55.6 10.9 55.7c6 .1 11.1-12.2 11.2-27.4C22.2 13.1 17.4.8 11.4.7 5.4.7.3 12.9.2 28.1z" fill="url(#d)" transform="translate(311 307)"/><path d="M217.2 324.9c5.8.1 10.3 11.8 10.2 26.2-.1 14.4-4.9 26.1-10.7 26l-12.5-.1.5-52.2 12.5.1z" fill="#041B76"/><path d="M387.3 309.8l-2.1-22.7c-.4-4.5 0-5-3-8.3-3.2-3.5-12.9-10.6-17-13.2l-23.5-14-32.2-39c-7.7-10.6-19.7-17.2-32.8-18.2-134.3-10-240.1 6.2-251.5 7.1-3.5.3-8.1 2.1-10.4 4-.5.4-.9.8-1.3 1.2-5.6 7.8-6.3 19.4-7.8 28.3-1.3 7.7-2.5 15.5-3.8 23.2l-1 36.3c0 6.7 2.1 13.2 6.3 18.5 0 .1.1.1.1.2l6.2 9.4c2.1 2.7 5.2 4.6 8.6 5.1l33.7 5 137.7 20.7 5.8.3 60.5 8.5c3.5.7 7 .8 10.5.5L304 358l70.7-14.4c4.6-.7 13.1-4.2 13.7-8.8.7-5.2 2.1-12 2.7-17.2.3-3.1-1.2-6.1-3.8-7.8z" fill="#F895A2"/><path d="M385.3 121.3s-22.9 12.4-46.8 15.3c-34.9 4.3-62.6 5.7-81.2 3.4-2.7-.3-27.2-3-29.9-5-2.7-2-8.6-8.7 0-8.7s47.9 7.3 47.9 7.3l-4.5-16.9c-4.3-5.3-13-1.8-16-7.8l33 12c-1-8.3-6.1-15.6-13.6-19.3l-51.4-26.1c-1.9-4.8-3.5-9.8-4.7-14.9-4.4-18.6-22.3-49.5-27.3-51.1-8.2-2.7-7.1-2.2-10.1-2.5C162 5.2 87.3 1.3 19.3 11.9c0 0-1.5.3-3.5 1.2C8.1 20.7 7.5 34 5.8 44c-1.3 7.9-2.6 15.8-3.9 23.6-.4 3.7-.8 8-.9 12.5-.1 9.9.3 20.5.1 27.1-.1 1.7.3 3.5 1.2 5l.6 1.2c2.1 3.9 3.9 8 5 12.3 1 3.8 4.2 9.2 14.5 10.8 13.5 2.1 187.6 27.9 240.8 35.2 8.6 1.2 91.8-16.3 112.8-19.3 3.2-.5 5.7-2.7 6.7-5.8 2.1-7.1 5.4-20.1 2.6-25.3z" fill="url(#e)" transform="translate(0 191)"/><path d="M199.8 97.5S126.5 72.5 6 70.2L4.5 85c0 .1 64.6-11.6 195.3 12.5z" fill="url(#f)" transform="translate(0 191)"/><path d="M56.4 332.8s1.9-39.7-11.2-39.8c-18.5-3.6-13.6 25.1-13.7 36.2l7.1 1.1 17.8 2.5z" fill="#041B76"/><path d="M36.6 136.8c-.1 12.5 3.8 22.6 8.8 22.6 5 0 9.1-10 9.2-22.5.1-12.5-3.8-22.6-8.8-22.6-4.9-.1-9 10-9.2 22.5z" fill="url(#g)" transform="translate(0 191)"/><path d="M39.1 136.8c-.1 6.1 2.8 11 6.3 11 3.6 0 6.5-4.8 6.5-10.9 0-6.1-2.8-11-6.3-11s-6.5 4.8-6.5 10.9z" fill="url(#h)" transform="translate(0 191)"/><path d="M40.1 136.8c0 4.6 1.9 8.4 4.4 8.4 2.5 0 4.5-3.7 4.6-8.3.1-4.6-1.9-8.4-4.4-8.4-2.5-.1-4.5 3.7-4.6 8.3z" fill="url(#i)" transform="translate(0 191)"/><g fill="#8C8E8B"><path d="M47.7 321.7c-1.8.8-3.1 3.3-3.1 6.2 0 2.8 1.3 5.2 3 6.1.9-1.5 1.5-3.7 1.5-6.1.1-2.5-.5-4.7-1.4-6.2z"/><path d="M47.7 321.7c-1.8.8-3.1 3.3-3.1 6.2 0 2.8 1.3 5.2 3 6.1.9-1.5 1.5-3.7 1.5-6.1.1-2.5-.5-4.7-1.4-6.2z"/></g><path d="M216.9 356.6s2.2-45.9-12.9-46.1c-21.4-4.1-15.7 29.1-15.9 41.9l8.2 1.3 20.6 2.9z" fill="#041B76"/><path d="M194 159.8c-.1 14.4 4.4 26.1 10.2 26.2 5.8.1 10.6-11.6 10.7-26 .1-14.4-4.4-26.1-10.2-26.2-5.8-.1-10.6 11.6-10.7 26z" fill="url(#j)" transform="translate(0 191)"/><path d="M196.8 159.8c-.1 7 3.2 12.7 7.3 12.7s7.5-5.6 7.6-12.6c.1-7-3.2-12.7-7.3-12.7s-7.5 5.6-7.6 12.6z" fill="url(#k)" transform="translate(0 191)"/><path d="M198 159.8c-.1 5.4 2.2 9.7 5.1 9.7 2.9 0 5.3-4.3 5.3-9.6s-2.2-9.7-5.1-9.7c-2.9 0-5.3 4.3-5.3 9.6z" fill="url(#l)" transform="translate(0 191)"/><g fill="#8C8E8B"><path d="M206.8 343.8c-2.1 1-3.6 3.8-3.6 7.1s1.5 6 3.5 7.1c1-1.8 1.7-4.3 1.7-7.1.1-2.8-.6-5.4-1.6-7.1z"/><path d="M206.8 343.8c-2.1 1-3.6 3.8-3.6 7.1s1.5 6 3.5 7.1c1-1.8 1.7-4.3 1.7-7.1.1-2.8-.6-5.4-1.6-7.1z"/></g><path d="M260 295.9c-2.2.5-4.5 1.4-6.2 1.9-1.3.4-1.6 2.1-.6 3 5.1 4.3 16.6 17.9 20.1 21.6 3.5 3.8 17.3 1.7 23.3.6 1.2-.2 1.7-1.7.9-2.6L282.8 304s-8.8-11.3-22.8-8.1zM385.3 285s-1.3 15.3-.5 17c.8 1.7 2.3 2.4 2.3 2.4l-1.8-19.4z" fill="#FCFCFC"/><path d="M381.9 342.4c1.7-.6 3.2-3 1-5-2.8-2.6-10.9-.2-15 .4-13.8 2.2-46.9 9.3-52.9 10-7.6.9-14.4 11.3-14.4 11.3l81.3-16.7z" fill="#041B76"/><path d="M194.2 296.3s-13.1-1.1-19.1 9.9c-6 11-2.5 29.1-2.5 29.1l5.8-.4s-2.5-33.2 22.2-33.2v-4.4l-6.4-1z" fill="#DA6F88"/><path d="M226.7 254c-2.2-6.3-19.8-30.9-28.6-42.9-3.2-4.4-7.8-7.6-13.1-8.9-14.3-3.6-18.7-3.2-23.4-1.8-2.7.8-4.5 3.4-4.4 6.2l1.1 25.4c.9 12.4-2.7 22.8 9.7 24.2l61.7 6.3c0-.1 0-.1-3-8.5z" fill="#111D7F"/><path d="M240.6 261s63.4 24.7 77.8 28.3l14.5 3.6s-71-16.1-83-21.8c-11.9-5.7-14.2-9.9-9.3-10.1z" fill="#F8A2B0"/><path d="M234.8 67s2.3 6.9 15.3 7.4 96.3-9.4 96.3-9.4l-4.6-4.4L240.6 70l-5.8-3z" fill="url(#m)" transform="translate(0 191)"/><path d="M197.6 9.1L234.8 67c1.3 2 3.5 3.1 5.8 3l101.2-9.3-27.4-33.2-9.4-11.1s-2.5-4.1-6.8-5.5c-9.1-2.9-31.6-4.2-94.1-2.1l-6.5.3z" fill="url(#n)" transform="translate(0 191)"/><path d="M229.7 262.4s-4-16.5-13.5-25.8l3.3 25.8h10.2z" fill="#D86D87"/><path d="M201.9 235.4l7.5.3c1.5.1 2.8 1 3.4 2.4l7.9 21.2c.3.7-.2 1.4-.9 1.5l-14.6 2.1c-2.1.3-4-1.1-4.2-3.2l-2.9-20c-.4-2.3 1.5-4.4 3.8-4.3z" fill="#F895A2"/><path d="M144.8 199.3c-47.2.1-108.7 4.7-121.7 5.7-1.5.1-7.3.7-8.4 1.8l-2 1.2c-4.8 7.7-5.5 18.5-7 27-.9 5.1-1.7 10.2-2.5 15.3.4.4 1 .7 1.7.7l130.9 4.8c4.8.2 8.9-3.3 9.5-8.1l5.2-42c.4-3.4-2.2-6.4-5.7-6.4z" fill="#111D7F"/><path d="M385.2 286.1l-1.5 14.4c-.4 3.6-2.7 6.8-6.1 8.2-10.3 4.6-19.7 7.4-31.4 8.9-4.7.6-9.5.8-14.3.6l-18.7-1c-2.2 0-4.4-.7-6.2-2.1l-20.3-15.2c-1.2-.9-.7-2.9.8-3l31.5-1.7c21.2-1.2 42.2-4 62.9-8.5l3.3-.6z" fill="#041B76"/><path fill="url(#o)" opacity=".2" d="M298.2 10.8l19.1 51.6-37.1 4.3-82.6-57.6L275.8 8z" transform="translate(0 191)"/><path d="M90.3 9.9S48.5 1.4 4.9 60l85.4 3.1 39-53.7-39 .5z" fill="url(#p)" opacity=".2" transform="translate(0 191)"/></g><g fill-rule="nonzero"><path d="M5.4 9.9s.7 7.1 5.1 7.3c4.4.2 4.9-3.6 4.9-3.6l.1-9.3S5.4 1.5 4 2.6c-1.5 1 1.4 7.3 1.4 7.3z" fill="url(#q)" transform="translate(476 213)"/><path d="M10.5 17.2l-.2 3.9c-.1 2.2 1.9 3.9 4 3.5 1.9-.4 3.1-2.2 2.7-4.1l-1.6-7-4.9 3.7z" fill="url(#r)" transform="translate(476 213)"/><path d="M478.3 219s3.5 1.4 4.6.6c1.1-.8 3.9-2.2 3.9-2.2s1.7 1.3 1.8 2c.1.7 1.7 4 1.7 4l.9.8s.5-2.7.8-4c.3-1.3.5-3-.8-4.2-1.3-1.2-6.8-2.6-8.4-2.4-1.6.2-3.9.7-4.8.2-.8-.3-2.7 2.8.3 5.2z" fill="#03147A"/><path d="M15.4 11.7s1.2-1.7 1.1-2.2c-.2-.6-1.8-1.3-2.5-.1-.8 1.3 1.4 2.3 1.4 2.3z" fill="url(#s)" transform="translate(476 213)"/><path fill="#1454D1" d="M480.2 265.7l27.9 1.5-1.1 45.7-1.4 43.5-5.6.3-2.9-33-4.5-36.5-1.4-1-3.1 25.3L484 357l-5.6.3-3.5-37.9z"/><path d="M524.7 293.6c-.3-3.6-.9-10.3-2.1-18.8-2.4-17.4-8.8-28.2-15.1-34.8-3.8-4-9.3-6-14.8-5.5l-3.8.4-2 .3c-6.2 1-11.4 5.2-13.7 11.1-2.6 6.6-6 14.8-7.6 17.7-2 3.6-8.2 4.5-12.9 5.4-.6 1.9-.3 2.6-1.3 4.4 4.3.5 8.8.9 16.2-.2 11.5-1.7 9.7-17.8 9.5-20.2l.7 26.8s12.4 1.1 13.3-12.6c3.5 13.2 20.1 11 20.1 11l-4.7-20c4.7 4.4 10.9 19 13.6 29.7l4.6 5.3z" fill="#03147A"/><path fill="#FCFCFC" d="M489.7 238.5l3.2-6.8 1.2 1.2.2 6.6zM486.4 233.7l2.2 4.3-4.9 2.4.7-4.1z"/><path d="M478.4 357.3s-7.9 6-6.8 7c1.1 1 8.7-2.7 8.7-2.7l4.1-1.6-.1-3-5.9.3zM500 356.7l.6 4s2.4 2.7 4.6 3.6c1.4.5 2.8.7 3.6.8.5 0 .9-.4.8-.9-.1-.4-.4-.9-.9-1.4-1.3-1.1-2.3-6.4-2.3-6.4l-6.4.3z" fill="#03147A"/><path d="M77.3 81.2c.5-.9-.3 3.8.4 4.4.7.7 1.5.5 1.9-1.6.5-2.1 1.7 2.2 1.7 2.2s1.9-1.8 2-2c.1-.2.7-1.1.6-1.9 0-.9 1.5-1.6 1.1-3-.4-1.5-2.6-5.2-2.6-5.2l-3.2 1.1-3.7 6c.1.1 1.3.9 1.8 0z" fill="url(#t)" transform="translate(441 213)"/><path d="M5.8 53.4s-2.1-1.7-2-.1c.1 1.6-2.5.4-2.6 1.3-.1.9-.4 1.6-.1 2.9.3 1.3 9.3 3.1 9.3 3.1l1.8-4.3-6.4-2.9z" fill="url(#u)" transform="translate(441 213)"/></g><path d="M433.7 291.1c-2 .1-3.4 1.9-3.3 3.8.6 6.1 1.8 18.2 3.1 19.9 1.7 2.3 7.8 3.6 7.8 3.6l13.2.9 11.8-1.6c2.1-.3 3.8-2 3.9-4.2.4-5.7 1.2-16.2.8-17.1-.5-1.2-5-7.7-5-7.7l-32.3 2.4z" fill="#03147A" fill-rule="nonzero"/><path d="M464.3 293.6l3 3.3s-6 6.7-15 9-10.3 1.9-10.3 1.9 20.7-9.5 22.3-14.2z" fill="url(#v)" fill-rule="nonzero"/><path d="M446.8 266.4s4.5 22.9 4.7 25.6c.2 2.7 3.2 1.2 3.2 1.2l-5.8-25.9c-.1 0 0-2.5-2.1-.9zM443.9 271.8l1.9.4-1.9 20.1h-2.4z" fill="#03147A" fill-rule="nonzero"/><path fill="#82C9B4" fill-rule="nonzero" d="M83.2 337.2h73v45.2h-73z"/><path fill="#9AE0C9" fill-rule="nonzero" d="M131.7 359.7l-15.5 10H96.5l-13.3-10v-22.5h48.5z"/><path fill="url(#w)" fill-rule="nonzero" d="M79.7 23.2h24.5v45.2H79.7z" transform="translate(52 314)"/><path fill="#FCFCFC" fill-rule="nonzero" d="M83.2 349.9H68.3l-15.5 19.8v6.5h30.4z"/><path d="M135 343.5s2.9 23.1 11.5 23.1 8.6-23.1 8.6-23.1" stroke="#82C9B4"/><path d="M149 331.6c-1.2 0-2.3-1-2.3-2.3v-7.5c0-4-3.2-7.2-7.2-7.2-4.7 0-10.8.1-15-.1-8-.3-11.4 6.6-11.4 6.6s-5.2 6.6-10.1 6.8c-4.9.2-10.9 9.3-10.9 9.3h59.3v-3.4c-.1-1.2-1.1-2.2-2.4-2.2z" fill="#111D7F" fill-rule="nonzero"/><path fill="#1454D1" fill-rule="nonzero" d="M119.8 359.1H175v32h-55.2z"/><path fill="#2871E7" fill-rule="nonzero" d="M130.6 374.2h7.2v17h-7.2z"/><path fill="#B6EFDA" fill-rule="nonzero" d="M92.1 337.2h8.1v45.5h-8.1z"/><path d="M158.2 105.8c1.2-7.9-4.5-15.3-11.4-14.3-1.6.2-2.8.8-3.4 1.9-2.1 4.5-13.3 13.9-14.3 17.8-1.1 4-5.8 24.3 12.2 22 11-1.4 15.2-16.3 16.9-27.4z" fill="#1A8AFF" fill-rule="nonzero"/><g fill-rule="nonzero"><path fill="#0A84FF" d="M345.4 62.5h19.2V87h-19.2z"/><path fill="url(#x)" d="M7.2.3L.9 7.5V32h12.5V7.5z" transform="translate(332 55)"/><path fill="#0072FA" d="M339.2 55.3h17l8.5 7.2h-19.3z"/></g><g fill-rule="nonzero"><path fill="#0A84FF" d="M358.9 166.7h19.2v18.6h-19.2z"/><path fill="url(#y)" d="M6.6.6L.4 7.7v18.6h12.5V7.7z" transform="translate(346 159)"/><path fill="#0072FA" d="M352.6 159.6h17l8.5 7.1h-19.2z"/></g><g fill-rule="nonzero"><path fill="url(#z)" d="M.4 20h11.7V5H.4z" transform="translate(356 67)"/><path fill="#0A84FF" d="M372 67.6l3.8 4.4v15h-7.7V72z"/><path fill="#0072FA" d="M372 67.6h-10.4l-5.2 4.4h11.7z"/></g><path fill="#0072FA" fill-rule="nonzero" d="M332.9 77.3l-4.7 9.7h9.4zM323.6 60.1l-4.7 9.7h9.3zM196 145.9l-4.6 9.7h9.3zM204.5 44.4l-7 14.5h14z"/><path fill="#0072FA" fill-rule="nonzero" d="M213.7 47.7l-5.4 11.2H219zM330.1 42.9l-4.7 9.7h9.3zM332.9 215l-4.7 9.7h9.4zM426.2 214.1l-4.6 9.7h9.3zM120.9 145.9l-4.6 9.7h9.3z"/><path fill="#0072FA" fill-rule="nonzero" d="M323.6 45.9l-3.2 6.7h6.4zM204.7 82.1l-4.7 9.8h9.3zM380.6 118.6l-6.5 13.5h13z"/><path fill="#0072FA" fill-rule="nonzero" d="M198.2 85.2l-3.2 6.7h6.4z"/><path fill="url(#A)" fill-rule="nonzero" d="M293.3 99.6h18v25.8h-18z"/><path fill="#0072FA" fill-rule="nonzero" d="M291.3 96.8h22.1v4.5h-22.1zM291.3 106.5h22.1v4.5h-22.1zM291.3 116.3h22.1v4.5h-22.1z"/><path d="M417.7 128.2v-6.9h-18v6.9h-8.6V142h7v-3.9c0-.9.7-1.6 1.6-1.6.9 0 1.6.7 1.6 1.6v3.9h5.8v-3.9c0-.9.7-1.6 1.6-1.6.9 0 1.6.7 1.6 1.6v3.9h5.8v-3.9c0-.9.7-1.6 1.6-1.6.9 0 1.6.7 1.6 1.6v3.9h7v-13.8h-8.6z" fill="#0A84FF" fill-rule="nonzero"/><path d="M409.8 113.5h-2.3c-4.3 0-7.8 3.5-7.8 7.8h18c0-4.3-3.5-7.8-7.9-7.8z" fill="#0072FA" fill-rule="nonzero"/><path d="M408.7 115.1v-6.7" stroke="#0072FA"/><path fill="#0072FA" fill-rule="nonzero" d="M275 106.5h11.2v18.8H275z"/><path fill="url(#B)" fill-rule="nonzero" d="M271.2 115.9h7.6v9.4h-7.6z"/><circle stroke="#0A84FF" stroke-width="2" cx="264.1" cy="82.9" r="15.7"/><path d="M245.1 82.9h38M250.7 96.3l26.8-26.9M264 101.8v-38M277.3 96.3l-26.8-26.9" stroke="#0A84FF"/><g fill="#0A84FF" fill-rule="nonzero"><path d="M370.4 169.8h-3.7v-4.2c0-1 .8-1.8 1.8-1.8s1.8.8 1.8 1.8v4.2h.1zM375.4 169.8h-3.7v-4.2c0-1 .8-1.8 1.8-1.8s1.8.8 1.8 1.8v4.2h.1zM365.4 169.8h-3.7v-4.2c0-1 .8-1.8 1.8-1.8s1.8.8 1.8 1.8v4.2h.1z"/></g><path fill="#0072FA" fill-rule="nonzero" d="M338.8 180h26.6v5.3h-26.6z"/><path fill="url(#C)" fill-rule="nonzero" d="M338.8 174.1h13.8v5.9h-13.8z"/><path d="M200.2 98.3c0-7.9-6.4-14.2-14.2-14.2-7.8 0-14.2 6.4-14.2 14.2 0 3.3 1.1 6.2 2.9 8.6l.2.2.3.3 10.9 13.3 10.9-13.3.3-.3.2-.2c1.6-2.4 2.7-5.4 2.7-8.6zm-14.2 4.9c-2.9 0-5.2-2.3-5.2-5.2 0-2.9 2.3-5.2 5.2-5.2 2.9 0 5.2 2.3 5.2 5.2 0 2.8-2.3 5.2-5.2 5.2z" class="pin1" fill="url(#D)" fill-rule="nonzero"/><path d="M315.2 70.6c0-7.9-6.4-14.2-14.2-14.2-7.8 0-14.2 6.4-14.2 14.2 0 3.3 1.1 6.2 2.9 8.6l.2.2.3.3L301.1 93 312 79.7l.3-.3.2-.2c1.6-2.3 2.7-5.3 2.7-8.6zM301 75.5c-2.9 0-5.2-2.3-5.2-5.2 0-2.9 2.3-5.2 5.2-5.2 2.9 0 5.2 2.3 5.2 5.2 0 2.9-2.3 5.2-5.2 5.2z" class="pin2" fill="url(#E)" fill-rule="nonzero"/><path d="M375.9 135c0-7.9-6.4-14.2-14.2-14.2-7.8 0-14.2 6.4-14.2 14.2 0 3.3 1.1 6.2 2.9 8.6l.2.2.3.3 10.9 13.3 10.9-13.3.3-.3.2-.2c1.6-2.3 2.7-5.3 2.7-8.6zm-14.2 4.9c-2.9 0-5.2-2.3-5.2-5.2 0-2.9 2.3-5.2 5.2-5.2 2.9 0 5.2 2.3 5.2 5.2 0 2.9-2.3 5.2-5.2 5.2z" class="pin1" fill="url(#F)" fill-rule="nonzero"/><path d="M326.1 162.9c0-7.9-6.4-14.2-14.2-14.2-7.8 0-14.2 6.4-14.2 14.2 0 3.3 1.1 6.2 2.9 8.6l.2.2.3.3 10.9 13.3 10.9-13.3.3-.3.2-.2c1.6-2.4 2.7-5.4 2.7-8.6zm-14.2 4.9c-2.9 0-5.2-2.3-5.2-5.2 0-2.9 2.3-5.2 5.2-5.2 2.9 0 5.2 2.3 5.2 5.2 0 2.8-2.3 5.2-5.2 5.2z" class="pin2" fill="url(#G)" fill-rule="nonzero"/><path d="M369.3 16.8c0-7.9-6.4-14.2-14.2-14.2-7.8 0-14.2 6.4-14.2 14.2 0 3.3 1.1 6.2 2.9 8.6l.2.2.3.3 10.9 13.3L365.9 26l.3-.3.2-.2c1.8-2.4 2.9-5.4 2.9-8.7zm-14.2 4.9c-2.9 0-5.2-2.3-5.2-5.2 0-2.9 2.3-5.2 5.2-5.2 2.9 0 5.2 2.3 5.2 5.2 0 2.9-2.4 5.2-5.2 5.2z" class="pin3" fill="url(#H)" fill-rule="nonzero"/><path d="M58.8 134.9s13.8-23.8 30.6-23.8 26.8 23.8 26.8 23.8 5-9.8 15-9.8 16.9 9.8 16.9 9.8l5.7 10.2s3.9-6.5 8.9-5 7.7 7.9 7.7 7.9H44.8c0-.1-2.9-13.3 14-13.1z" fill="url(#I)" fill-rule="nonzero"/><path d="M429.8 89.8s7.2-12.4 16-12.4 14 12.4 14 12.4 2.6-5.1 7.8-5.1c5.2 0 8.8 5.1 8.8 5.1l3 5.3s2-3.4 4.6-2.6c2.6.8 4 4.1 4 4.1h-65.6s-1.5-6.9 7.4-6.8z" fill="url(#J)" fill-rule="nonzero"/></g></svg>
