<svg viewBox="0 0 60 73" width="60" height="73" xmlns="http://www.w3.org/2000/svg"><defs><linearGradient x1="-.183%" y1="50.289%" x2="99.796%" y2="50.289%" id="a"><stop stop-color="#6FD6B9" offset="0%"/><stop stop-color="#29AAFF" offset="100%"/></linearGradient><linearGradient x1="-10.318%" y1="90.103%" x2="92.461%" y2="31.056%" id="b"><stop stop-color="#F36F84" offset="0%"/><stop stop-color="#FB929F" offset="99.83%"/></linearGradient></defs><g fill-rule="nonzero" fill="none"><path d="M29.3 4.7v3c-1.3-.6-2.4-1.6-3.2-2.8L23 0l-3.1 4.9c-.8 1.2-1.9 2.2-3.2 2.8v-3H15v39.5h16V4.7h-1.7z" fill="#29AAFF"/><path fill="#0B40C0" d="M.1 18h24.1v27H.1z"/><path fill="#0B40C0" d="M0 14h15.1v31H0z"/><circle fill="#0B40C0" cx="49.6" cy="45" r="3.2"/><path d="M58.3 36.3l-6.6-8.1c-.2-.4-.5-.6-.9-.6h-33c-.6 0-1 .4-1 1l1 15.3c0 .6.4 1 1 1h40.1c.6 0 1-.4 1-1v-5c-.1-1.1-.7-2.1-1.6-2.6z" fill="#0B40C0"/><path d="M46.5 36.3l-6.6-8.1c-.2-.4-.5-.6-.9-.6H6c-.6 0-1 .4-1 1l1 15.3c0 .6.4 1 1 1h40.1c.6 0 1-.4 1-1v-5c-.1-1.1-.7-2.1-1.6-2.6z" fill="url(#a)"/><circle fill="#0B40C0" cx="13.5" cy="45" r="3.2"/><circle fill="#0B40C0" cx="21" cy="45" r="3.2"/><circle fill="#0B40C0" cx="42" cy="45" r="3.2"/><path fill="#0B40C0" d="M44 35.3H5.4l-.3-4.7h35.1z"/><path fill="#29AAFF" d="M48 39.9h11.8v1.8H48z"/><path d="M7.389 8.09S5.34 2.97 5.713.456c.093-.466.745-.652 1.024-.186l2.42 3.817 3.911 4.655 4.655 3.072 5.4 2.514v5.866H3.944L2.454 8.37l4.935-.28z" fill="url(#b)" transform="translate(31.864 51.91)"/><path d="M40.463 61.025c-1.117-1.676-3.259-.745-4.562-.745-1.024-.093-.931-.093-1.583-.093-.652 0-1.303.28-1.676.745-.279.372-.744.651-.744.838 0 1.117.93.93.744 1.49-.186.558-.558.837-.744 1.489-.187.652.465.838.372 1.676-.093.93.093 1.117.559 2.048.465.931 1.862 1.397 1.396 2.235-.465.838 1.583 1.582 1.583 1.582l2.327-.651 1.676-.652 1.77-3.072c-.094-.094 1.117-3.632-1.118-6.89z" fill="#FD919E"/><path fill="#0B40C0" d="M49.68 63.725h8.752v8.38h-6.238V65.12z"/></g></svg>
