<svg width="64" height="45" xmlns="http://www.w3.org/2000/svg"><g fill-rule="nonzero" fill="none"><path d="M63 37.3H40.3c-.6 0-1-.4-1-1V13.6c0-.6.4-1 1-1H63c.6 0 1 .4 1 1v22.7c0 .5-.4 1-1 1z" fill="#1AA7FF"/><circle fill="#FFF" cx="51.7" cy="25" r="6.5"/><circle fill="#023AC2" cx="49.3" cy="25" r="1"/><circle fill="#023AC2" cx="54" cy="25" r="1"/><path d="M56.3 30.4h-1.8v-1.5c0-.3-.2-.5-.5-.5s-.5.2-.5.5v1.5h-3.7v-1.5c0-.3-.2-.5-.5-.5s-.5.2-.5.5v1.5H47v6.8h4.2v3.4c0 1.9-1.5 3.4-3.4 3.4H37.3c-1.9 0-3.4-1.5-3.4-3.4v-6.7c0-2.4-2-4.4-4.4-4.4h-7.8c-1.9 0-3.4-1.5-3.4-3.4v-4.8h15.4c.6 0 1-.4 1-1v-6.8c0-.6-.4-1-1-1H1.9c-.6 0-1 .4-1 1v6.8c0 .6.4 1 1 1h15.4v4.8c0 2.4 2 4.4 4.4 4.4h7.8c1.9 0 3.4 1.5 3.4 3.4v6.7c0 2.4 2 4.4 4.4 4.4h10.5c2.4 0 4.4-2 4.4-4.4v-3.4h4.2v-6.8h-.1z" fill="#023AC2"/><circle fill="#FC909D" cx="6" cy="17" r="1"/><circle fill="#FC909D" cx="10.7" cy="17" r="1"/><path d="M17.9 7.6c-1.7 0-3.1 1-3.8 2.4l1 .6c.4-1.1 1.5-1.9 2.7-1.9 1.2 0 2.3.8 2.7 1.9l1-.6c-.5-1.4-1.9-2.4-3.6-2.4z" fill="#FC909D"/><path d="M17.9 4.1c-2.9 0-5.5 1.7-6.8 4.1l1 .6c1.1-2.1 3.3-3.6 5.8-3.6s4.7 1.4 5.8 3.6l1-.6c-1.3-2.5-3.8-4.1-6.8-4.1z" fill="#FC909D"/><path d="M17.9.5C13.7.5 10 2.9 8.1 6.3l1 .6c1.7-3.1 5-5.2 8.8-5.2 3.8 0 7.1 2.1 8.8 5.2l1-.6C25.8 2.9 22.1.5 17.9.5z" fill="#FC909D"/></g></svg>
