<svg viewBox="0 0 502 225" xmlns="http://www.w3.org/2000/svg"><defs><linearGradient x1="-.008%" y1="49.768%" x2="100.542%" y2="49.768%" id="a"><stop stop-color="#27A7FF" stop-opacity="0" offset="0%"/><stop stop-color="#041B76" offset="26.44%"/><stop stop-color="#021679" offset="66.18%"/><stop stop-color="#0F91FF" stop-opacity="0" offset="100%"/></linearGradient><linearGradient x1="-.024%" y1="50.125%" x2="100.553%" y2="50.125%" id="b"><stop stop-color="#27A7FF" stop-opacity="0" offset="0%"/><stop stop-color="#041B76" offset="26.44%"/><stop stop-color="#021679" offset="66.18%"/><stop stop-color="#0F91FF" stop-opacity="0" offset="100%"/></linearGradient><linearGradient x1="-.034%" y1="50.274%" x2="100.542%" y2="50.274%" id="c"><stop stop-color="#27A7FF" stop-opacity="0" offset="0%"/><stop stop-color="#041B76" offset="26.44%"/><stop stop-color="#021679" offset="66.18%"/><stop stop-color="#0F91FF" stop-opacity="0" offset="100%"/></linearGradient><linearGradient x1="-.039%" y1="49.877%" x2="100.538%" y2="49.877%" id="d"><stop stop-color="#27A7FF" stop-opacity="0" offset="0%"/><stop stop-color="#041B76" offset="26.44%"/><stop stop-color="#021679" offset="66.18%"/><stop stop-color="#0F91FF" stop-opacity="0" offset="100%"/></linearGradient><linearGradient x1="-.048%" y1="49.762%" x2="100.529%" y2="49.762%" id="e"><stop stop-color="#27A7FF" stop-opacity="0" offset="0%"/><stop stop-color="#041B76" offset="26.44%"/><stop stop-color="#021679" offset="66.18%"/><stop stop-color="#0F91FF" stop-opacity="0" offset="100%"/></linearGradient><linearGradient x1="-.039%" y1="49.715%" x2="100.538%" y2="49.715%" id="f"><stop stop-color="#27A7FF" stop-opacity="0" offset="0%"/><stop stop-color="#041B76" offset="26.44%"/><stop stop-color="#021679" offset="66.18%"/><stop stop-color="#0F91FF" stop-opacity="0" offset="100%"/></linearGradient><linearGradient x1="-.008%" y1="50.291%" x2="100.569%" y2="50.291%" id="g"><stop stop-color="#27A7FF" stop-opacity="0" offset="0%"/><stop stop-color="#041B76" offset="26.44%"/><stop stop-color="#021679" offset="66.18%"/><stop stop-color="#0F91FF" stop-opacity="0" offset="100%"/></linearGradient><linearGradient x1=".088%" y1="49.959%" x2="99.901%" y2="49.959%" id="h"><stop stop-color="#1A8BFC" offset="0%"/><stop stop-color="#389BFF" offset="100%"/></linearGradient><linearGradient x1="-.162%" y1="50.087%" x2="99.993%" y2="50.087%" id="i"><stop stop-color="#128BFF" offset="0%"/><stop stop-color="#031B7F" offset="100%"/></linearGradient><linearGradient x1=".004%" y1="50.265%" x2="100.115%" y2="50.265%" id="j"><stop stop-color="#128BFF" offset="0%"/><stop stop-color="#031B7F" offset="100%"/></linearGradient><linearGradient x1="59.663%" y1="-1.774%" x2="21.823%" y2="68.563%" id="k"><stop stop-color="#55A495" offset="0%"/><stop stop-color="#82C9B4" offset="100%"/></linearGradient><linearGradient x1=".175%" y1="49.919%" x2="100.251%" y2="49.919%" id="l"><stop stop-color="#9DD2B6" offset="0%"/><stop stop-color="#82C9B4" offset="100%"/></linearGradient><linearGradient x1=".067%" y1="49.802%" x2="99.953%" y2="49.802%" id="m"><stop stop-color="#1A8BFC" offset="0%"/><stop stop-color="#389BFF" offset="100%"/></linearGradient><linearGradient x1="-.06%" y1="50.002%" x2="100.073%" y2="50.002%" id="n"><stop stop-color="#1A8BFC" offset="0%"/><stop stop-color="#389BFF" offset="100%"/></linearGradient><linearGradient x1="34.218%" y1="99.732%" x2="96.092%" y2="5.097%" id="o"><stop stop-color="#128BFF" offset="0%"/><stop stop-color="#031B7F" offset="100%"/></linearGradient><linearGradient x1="-.17%" y1="49.707%" x2="100.262%" y2="49.707%" id="p"><stop stop-color="#1A8BFC" offset="0%"/><stop stop-color="#389BFF" offset="100%"/></linearGradient><linearGradient x1=".296%" y1="49.867%" x2="100.162%" y2="49.867%" id="q"><stop stop-color="#FB929F" offset="0%"/><stop stop-color="#FBA5B0" offset="100%"/></linearGradient><linearGradient x1="-.153%" y1="49.918%" x2="99.676%" y2="49.918%" id="r"><stop stop-color="#FB929F" offset="0%"/><stop stop-color="#FBA5B0" offset="100%"/></linearGradient><linearGradient x1="42.925%" y1="-26.324%" x2="68.961%" y2="117.709%" id="s"><stop stop-color="#FB929F" offset="0%"/><stop stop-color="#FBA5B0" offset="100%"/></linearGradient><linearGradient x1="57.282%" y1="98.976%" x2="35.441%" y2="4.306%" id="t"><stop stop-color="#FB929F" offset="0%"/><stop stop-color="#FBA5B0" offset="100%"/></linearGradient><linearGradient x1="41.032%" y1="-19.023%" x2="62.307%" y2="117.297%" id="u"><stop stop-color="#FB929F" offset="0%"/><stop stop-color="#FBA5B0" offset="100%"/></linearGradient><linearGradient x1="50.438%" y1="92.546%" x2="50.438%" y2="9.708%" id="v"><stop stop-color="#128BFF" offset="0%"/><stop stop-color="#031B7F" offset="100%"/></linearGradient><linearGradient x1="25.361%" y1="20.711%" x2="92.292%" y2="58.759%" id="w"><stop stop-color="#CD6582" offset="0%"/><stop stop-color="#FB929F" offset="100%"/></linearGradient><linearGradient x1="49.986%" y1="99.283%" x2="49.986%" y2="34.517%" id="x"><stop stop-color="#FFBA96" offset="0%"/><stop stop-color="#FFC398" offset="100%"/></linearGradient><linearGradient x1="49.956%" y1="104.693%" x2="49.956%" y2="37.817%" id="y"><stop stop-color="#FFD8AA" offset="0%"/><stop stop-color="#FFBE94" offset="100%"/></linearGradient><linearGradient x1="14.391%" y1="-11.239%" x2="86.997%" y2="45.599%" id="z"><stop stop-color="#CD6582" offset="0%"/><stop stop-color="#FB929F" offset="100%"/></linearGradient><linearGradient x1="-9.191%" y1="20.447%" x2="112.98%" y2="89.278%" id="A"><stop stop-color="#FD919E" offset="0%"/><stop stop-color="#FFC398" offset="100%"/></linearGradient><linearGradient x1="-.037%" y1="50.094%" x2="99.779%" y2="50.094%" id="B"><stop stop-color="#4978FF" offset="0%"/><stop stop-color="#031B7F" offset="100%"/></linearGradient><linearGradient x1="103.773%" y1="89.943%" x2="7.18%" y2="14.05%" id="C"><stop stop-color="#FD919E" offset="0%"/><stop stop-color="#FDB4B1" offset="100%"/></linearGradient><linearGradient x1="73.922%" y1="17.661%" x2="37.702%" y2="78.403%" id="D"><stop stop-color="#CD6582" offset="0%"/><stop stop-color="#FB929F" offset="100%"/></linearGradient><linearGradient x1="124.876%" y1="105.145%" x2="3.11%" y2="38.987%" id="E"><stop stop-color="#E7E9EE" offset="0%"/><stop stop-color="#919295" offset="100%"/></linearGradient><linearGradient x1="48.33%" y1="3.505%" x2="53.271%" y2="97.172%" id="F"><stop stop-color="#E7E9EE" offset="0%"/><stop stop-color="#919295" offset="100%"/></linearGradient><linearGradient x1="103.009%" y1="107.4%" x2="39.356%" y2="26.087%" id="G"><stop stop-color="#E7E9EE" offset="0%"/><stop stop-color="#919295" offset="100%"/></linearGradient><linearGradient x1="48.19%" y1="-10913.474%" x2="48.19%" y2="6.366%" id="H"><stop stop-color="#949598" offset="0%"/><stop stop-color="#646466" offset="100%"/></linearGradient><linearGradient x1="49.946%" y1="2.145%" x2="49.946%" y2="99.725%" id="I"><stop stop-color="#949598" offset="0%"/><stop stop-color="#646466" offset="100%"/></linearGradient><linearGradient x1="63.975%" y1="106.298%" x2="47.646%" y2="5.514%" id="J"><stop stop-color="#949598" offset="0%"/><stop stop-color="#646466" offset="100%"/></linearGradient><linearGradient x1="15.871%" y1="95.944%" x2="55.993%" y2="44.593%" id="K"><stop stop-color="#E7E9EE" offset="0%"/><stop stop-color="#919295" offset="100%"/></linearGradient><linearGradient x1="49.71%" y1="-10913.453%" x2="49.71%" y2="6.376%" id="L"><stop stop-color="#949598" offset="0%"/><stop stop-color="#646466" offset="100%"/></linearGradient><linearGradient x1=".047%" y1="45.143%" x2="96.993%" y2="51.111%" id="M"><stop stop-color="#FB929F" offset="0%"/><stop stop-color="#FBA5B0" offset="100%"/></linearGradient><linearGradient x1=".09%" y1="50.645%" x2="99.669%" y2="50.645%" id="N"><stop stop-color="#CD6582" offset="0%"/><stop stop-color="#FB929F" offset="100%"/></linearGradient><linearGradient x1="-.003%" y1="49.979%" x2="100.189%" y2="49.979%" id="O"><stop stop-color="#CD6582" offset="0%"/><stop stop-color="#FB929F" offset="100%"/></linearGradient><linearGradient x1="27.181%" y1="18.714%" x2="72.497%" y2="57.288%" id="P"><stop stop-color="#FD919E" offset="0%"/><stop stop-color="#FCB7C3" offset="100%"/></linearGradient><linearGradient x1="28.128%" y1="4.223%" x2="60.453%" y2="83.395%" id="Q"><stop stop-color="#B84259" offset="0%"/><stop stop-color="#F07184" offset="100%"/></linearGradient><linearGradient x1="74.958%" y1="8.708%" x2="47.422%" y2="59.453%" id="R"><stop stop-color="#B84259" offset="0%"/><stop stop-color="#F07184" offset="100%"/></linearGradient><linearGradient x1="-.053%" y1="50.751%" x2="99.489%" y2="50.751%" id="S"><stop stop-color="#FB929F" offset="0%"/><stop stop-color="#FBA5B0" offset="100%"/></linearGradient><linearGradient x1="48.579%" y1="-19.764%" x2="48.579%" y2="118.405%" id="T"><stop stop-color="#FB929F" offset="0%"/><stop stop-color="#FBA5B0" offset="100%"/></linearGradient><linearGradient x1="100.231%" y1="49.872%" x2=".528%" y2="49.872%" id="U"><stop stop-color="#FB929F" offset="0%"/><stop stop-color="#FBA5B0" offset="100%"/></linearGradient><linearGradient x1="-1.224%" y1="50.358%" x2="99.635%" y2="50.358%" id="V"><stop stop-color="#FB929F" offset="0%"/><stop stop-color="#FBA5B0" offset="100%"/></linearGradient><linearGradient x1="100.563%" y1="50.358%" x2="-.295%" y2="50.358%" id="W"><stop stop-color="#FB929F" offset="0%"/><stop stop-color="#FBA5B0" offset="100%"/></linearGradient><linearGradient x1=".08%" y1="50.201%" x2="100.182%" y2="50.201%" id="X"><stop stop-color="#FB929F" offset="0%"/><stop stop-color="#FBA5B0" offset="100%"/></linearGradient><linearGradient x1="101.819%" y1="-29.918%" x2="38.921%" y2="54.454%" id="Y"><stop stop-color="#CD6582" offset="0%"/><stop stop-color="#FB929F" offset="100%"/></linearGradient><linearGradient x1=".037%" y1="49.978%" x2="99.982%" y2="49.978%" id="Z"><stop stop-color="#FFBA96" offset="0%"/><stop stop-color="#FFC398" offset="100%"/></linearGradient></defs><g fill="none" fill-rule="evenodd"><path d="M476.252.463H.834a.633.633 0 0 0-.649.648v7.873c0 .834.741 1.575 1.575 1.575h473.565c.834 0 1.575-.741 1.575-1.575V1.111a.633.633 0 0 0-.648-.648z" opacity=".1" transform="translate(22.229 194.502)" fill="url(#a)" fill-rule="nonzero"/><path d="M112.904.37H.74a.633.633 0 0 0-.648.649v7.873c0 .833.74 1.574 1.574 1.574h110.31c.834 0 1.575-.74 1.575-1.574V1.019c0-.278-.278-.649-.648-.649z" opacity=".1" transform="translate(0 200.059)" fill="url(#b)" fill-rule="nonzero"/><path d="M113.274.556H1.111a.633.633 0 0 0-.648.648v7.873c0 .833.741 1.574 1.575 1.574h110.31c.834 0 1.575-.74 1.575-1.574V1.204c0-.278-.278-.648-.649-.648z" opacity=".1" transform="translate(211.173 213.952)" fill="url(#c)" fill-rule="nonzero"/><path d="M112.811.185H.648A.633.633 0 0 0 0 .834v7.872c0 .834.741 1.575 1.575 1.575h110.31c.833 0 1.574-.741 1.574-1.575V.834a.633.633 0 0 0-.648-.649z" opacity=".1" transform="translate(146.34 180.609)" fill="url(#d)" fill-rule="nonzero"/><path d="M112.904.556H.74a.633.633 0 0 0-.648.648v7.873c0 .833.74 1.574 1.574 1.574h110.31c.834 0 1.575-.74 1.575-1.574V1.204a.633.633 0 0 0-.648-.648z" opacity=".1" transform="translate(314.908 180.609)" fill="url(#e)" fill-rule="nonzero"/><path d="M112.811.463H.648A.633.633 0 0 0 0 1.111v7.873c0 .834.741 1.575 1.575 1.575h110.31c.833 0 1.574-.741 1.574-1.575V1.111a.633.633 0 0 0-.648-.648z" opacity=".1" transform="translate(146.34 194.502)" fill="url(#f)" fill-rule="nonzero"/><path d="M113.46.648H1.296a.633.633 0 0 0-.649.649v7.872c0 .834.741 1.575 1.575 1.575h110.31c.834 0 1.575-.741 1.575-1.575V1.297c0-.278-.278-.649-.649-.649z" opacity=".1" transform="translate(382.52 193.576)" fill="url(#g)" fill-rule="nonzero"/><g fill="#EFF4FA" fill-rule="nonzero"><path d="M356.031 176.811c-.741-.648-4.538-4.167-4.538-4.167l-1.945-5.65 1.945-23.248s-1.02-60.203-3.057-70.02H310.37c-1.296 3.056-1.852 19.172-1.482 22.691.927 7.41 1.205 21.025 1.297 34.455a73.114 73.114 0 0 0-2.964.556c-.555-.463-1.204-.741-1.945-1.02l-4.26-14.633.278-.278c.74-.74-.927-7.41-.927-7.41s-5.094-7.872-5.372 0c-.092 2.686.278 4.446.834 5.743l-.463-.185-6.576 18.524c-1.297.185-2.686.37-4.168.37-7.132.185-8.891 3.52-8.706 6.113.185 2.593-1.853 17.876 2.593 19.265 3.798 1.204 22.507-1.297 31.769-3.056.092 5.742.185 10.188.463 12.133 0 0-.185.648-.278 1.667h-.926c.833 2.5.74 5.187.556 7.965 0 .185.092 1.019.185 1.76.37 0 .833 0 1.204-.093 1.574-.463 3.612-.926 4.909-1.482.278-.092.648-.277.926-.37-.648-2.5-.648-5.28.092-7.965h-1.389l.093-1.482s1.111-5.743 2.593-14.079c2.223-.648 2.408-1.574 2.223-5.279-.093-1.574-.093-3.612-.185-5.742 3.982-20.932 8.984-47.514 9.447-48.533.741-1.667 13.893 74.559 13.893 74.559h-.834c.37.74.556 1.667.556 2.5.093 2.13.185 4.169.093 6.206 1.019-.092 1.574-.092 1.574-.092 1.39.277 4.353 1.481 6.762 1.76 1.018.185 4.816.37 5.464 0 .463-.279-.926-.834-1.667-1.483zm-56.961-47.05c-1.667.092-4.539 1.296-8.429 2.037l5.928-16.671c1.111 1.296 2.316 1.574 2.686 1.945.093.092.185.185.278.185l3.612 12.781c-1.297-.37-2.871-.37-4.075-.277z"/><path d="M300.366 99.196s3.89-15.375 7.317-25.285c.556-1.667 2.223 1.574 2.686 0h38.067l-1.111-20.006c.926.278 2.5.648 4.538.926-.278-4.816 1.112-9.447 3.242-13.893-4.816-.37-8.429-2.13-13.615-5.094l-4.539-2.593h-6.39a6.2 6.2 0 0 0 0-1.853l-1.205-4.816c5.372-1.297 4.539-10.188 4.539-10.188s4.723 1.204 5.835-.926c.648-1.205-.556-4.168-1.945-6.391 1.111-2.871-1.112-5.094-1.945-4.539-.926.741-4.075.741-5.928.834-1.945.093-8.336 3.056-9.725 4.909-1.39 1.76-.648 3.797 0 5.28.185.555.556 1.203.834 1.944-.463.278-.834.649-.834.926-.093.741 1.852 2.501 1.852 2.501l.464 2.223-.37 8.891c0 .371 0 .649.092 1.02h-.278l-8.429 3.611a10.458 10.458 0 0 0-5.65 5.928c-3.704 10.188-12.78 35.474-13.059 38.715-.37 4.076 0 17.69 0 17.69h5.557v.186z"/><path d="M307.776 111.422c-.463-1.019-1.667-1.482-2.593-1.019l-12.226 5.465.833-.371-7.41-16.023c.093-.185.186-.278.186-.463.278-1.112.463-2.501.093-4.168-.093-.278-.278-1.019-.649-1.667.186-3.242 1.482-35.844-.648-43.81l-4.168-12.41c1.76-1.205 3.057-2.501 3.334-3.52 1.112-5.094-2.87-5.557-8.428-19.728-5.094-12.874-6.576-13.893-15.282-9.91-2.872 1.018-5.094 2.5-5.094 2.5-5.558 3.427-2.501 6.02-.556 7.04.185.555.556.833 1.204.555.093 0 .093-.093.185-.093.649 3.335 1.945 6.854 3.057 9.077.833 1.575 2.13 1.204 3.52 0l-.371 7.595-2.13.185s-9.17 13.893-9.263 17.413c-.092 3.149 1.853 3.056 3.057 4.445-2.5 7.966-5.002 15.56-5.928 17.135-1.76 3.057-5.372 13.152-6.483 16.394h-.278s-3.334 4.26-3.15 4.538c.186.278.464.093 1.112 0 .649-.092-.555 3.427 0 4.353.556.927 1.112 2.409 1.575 2.13.556-.185 1.019-2.315 1.39-2.5.37-.185-.093 2.13 0 2.315.092.186 1.018.556 1.389-.463.37-1.018.463-1.76.555-2.5.093-.741-.555-1.39 0-2.872.556-1.482 1.204-4.353 1.204-4.353h-.092l.092-.092c.463-.741 7.317-8.985 10.466-16.857l-.37 6.483s-8.892 11.3-9.17 46.588c0 6.298 4.91 37.233 4.91 37.233-.093.37-.649 4.724-2.224 6.02-1.667 1.39-8.613 2.316-6.76 2.872-.371-.093-.742-.185-1.205-.185 1.204.463 2.5.833 3.798 1.204.277-.093.555-.278.74-.37-.926-.094-1.944-.279-3.149-.557.927.093 2.872 0 5.002-.277 2.686-.927 5.464-1.482 8.15-1.297l-1.111-9.633 3.15-42.697c2.13-5.095 5.093-22.692 6.575-32.51.37 1.297.741 3.15 1.204 5.465 1.112 5.557 6.947 76.504 6.947 76.504-.186.926-.556 2.315-1.02 3.427h-1.018c.741 1.574 1.482 3.149 2.223 4.816 1.297-1.76 2.686-3.427 4.168-4.91h-.37l-.834-4.537c2.223-5.558 1.482-20.377 2.037-24.637.556-4.26-.833-27.508.834-31.399.648-1.574 1.204-5.464 1.667-9.725.278.741.926 1.482 2.038 2.316a2.556 2.556 0 0 0 2.13.37l7.224 15.653-11.484 5.187c-1.02.463-1.482 1.667-1.02 2.593l13.986 31.12 26.212-16.949-11.763-26.49zm-31.769-45.014h-4.168l3.798-.555.648-6.761c0 .092 0 .092.093.185.648 1.852 1.574 6.02 2.408 10.744-1.482-2.501-2.779-3.613-2.779-3.613zm6.299 26.768c-.464.74-.927 1.389-1.205 1.945.278-2.594.464-5.187.649-7.132.37 2.315.648 4.168.74 5.001-.092.093-.184.093-.184.186z"/><g><path d="M223.4 178.015c-.742-.648-4.54-4.167-4.54-4.167l-1.944-5.65 1.945-23.248s-1.019-60.203-3.057-70.02h-38.066c-1.297 3.056-1.853 19.172-1.482 22.691.926 7.41 1.204 21.025 1.296 34.455-1.667.278-2.963.556-2.963.556-.556-.463-1.204-.741-1.945-1.02l-4.261-14.726.278-.278c.74-.74-.926-7.41-.926-7.41s-5.094-7.872-5.372 0c-.093 2.687.278 4.447.833 5.743l-.463-.185-6.576 18.524c-1.296.185-2.686.37-4.168.37-7.131.186-8.891 3.52-8.706 6.113.185 2.594-1.852 17.876 2.593 19.265 3.798 1.204 22.507-1.296 31.769-3.056.093 5.742.185 10.188.463 12.133 0 0-.185.649-.278 1.667h-.926c.834 2.501.741 5.187.556 7.966 0 .185.092 1.018.185 1.76.37 0 .834 0 1.204-.093 1.575-.463 3.612-.926 4.909-1.482.278-.093.648-.278.926-.37-.648-2.501-.648-5.28.093-7.966h-1.39l.093-1.482s1.112-5.742 2.593-14.078c2.223-.648 2.409-1.575 2.223-5.28-.092-1.574-.092-3.612-.185-5.742 3.983-20.932 8.984-47.514 9.447-48.533.741-1.667 13.893 74.56 13.893 74.56h-.833c.37.74.555 1.667.555 2.5.093 2.13.186 4.168.093 6.206 1.019-.093 1.575-.093 1.575-.093 1.389.278 4.353 1.482 6.76 1.76 1.02.185 4.817.37 5.465 0 .464-.278-.926-.741-1.667-1.39zm-56.962-47.143c-1.667.093-4.538 1.297-8.428 2.038l5.927-16.672c1.112 1.297 2.316 1.575 2.686 1.945.093.093.185.185.278.185l3.612 12.782c-1.389-.278-2.87-.37-4.075-.278z"/><path d="M175.422 133.373c.093.092.093.092 0 0zM239.145 26.211s-1.02 6.391-3.057 10.189c-2.037 3.704-6.39 5.372-6.39 5.372l-1.575.092c-7.965.649-12.226-1.111-19.172-5.001l-4.539-2.594h-6.39a6.2 6.2 0 0 0 0-1.852l-1.205-4.816c5.372-1.297 4.539-10.188 4.539-10.188s.555-2.13.74-4.354c1.112-.555 2.038-1.111 2.038-1.111 3.057-3.705.093-7.04-.833-6.298-.926.74-4.076.74-5.928.833-1.945.093-8.336 3.057-9.725 4.91-1.39 1.759-.648 3.797 0 5.279.185.555.556 1.204.834 1.945-.464.277-.834.648-.834.926-.093.74 1.852 2.5 1.852 2.5l.463 2.223-.37 8.892c0 .37 0 .648.093 1.019h-.278l-8.429 3.612a10.458 10.458 0 0 0-5.65 5.928c-3.704 10.188-12.781 35.473-13.059 38.715-.37 4.075 0 17.69 0 17.69h5.372s3.89-15.375 7.317-25.285c.556-1.667 2.223 1.574 2.686 0h38.067L214.6 54.83c2.779.834 11.393 2.779 20.099-2.038 10.466-5.742 7.41-24.359 7.41-24.359l-2.964-2.223z"/><path d="M246.647 20.284c.278-.926 0-2.038 0-2.316s-1.39-2.778-1.39-2.778-2.87 4.168-2.593 1.76c.185-2.409-.556-2.872-1.482-2.409-.926.463-1.76 5.743-1.945 4.631-.185-1.111-1.852-.648-1.852-.648l1.852 7.687 3.057 2.409s3.705-3.242 4.63-4.631c.742-1.482-.648-2.686-.277-3.705z"/></g></g><g fill-rule="nonzero"><path d="M76.782 60.666c-1.204.093-1.852-1.297-1.852-1.297h1.852c-.093-.648-.278-1.296-.37-1.945.277-.185.463-.37.555-.648.463-1.111-1.76-2.871-1.76-2.871-.74-1.853-1.389-3.335-1.389-3.335-1.852-.185-4.538 2.038-6.576 5.095-2.593 3.89-4.353 8.891-4.353 8.891v3.798l8.336.833s1.111-1.667 1.852-3.427c.556-1.297 2.408-1.019 3.334-2.315.278-.463 0-1.02.093-1.668 0-.277.556-.648.556-.926-.185-.185-.185-.185-.278-.185z" fill="#FD9FAB"/><path d="M22.877 105.124L8.614 119.572l3.612 5.28 25.656-11.578.37-22.784h1.945l3.242 13.615-28.898 1.204.927 6.483 35.38 3.89c3.335.37 6.298-1.945 6.484-5.001l1.389-40.753H31.398l-2.5 2.871c-2.409 2.779-3.798 6.02-4.076 9.54l-1.945 22.785z" fill="url(#h)" transform="translate(23.155 29.638)"/><path d="M31.769 149.21l-8.614 6.391s3.056 11.856 4.353 12.226c1.297.37 2.408 1.945 3.15 1.39.74-.556-1.39-8.058-.557-9.91.741-1.946 5.28-4.724 5.28-4.724l-3.612-5.372z" fill="#031B7F"/><path fill="url(#i)" d="M14.541 115.404l17.042.741 4.631-2.13-20.746-4.353z" transform="translate(23.155 29.638)"/><path d="M44.458 134.947l-6.113-.185-3.242-.185s-4.168 8.799-3.057 10.651c1.112 1.852 2.038 5.187 3.613 4.168 1.574-1.019 1.945-5.65 3.334-7.317 1.39-1.667 6.39-.556 6.39-.556l-.925-6.576z" fill="#031B7F"/><path d="M40.197 90.49s-8.336-3.798-9.262-3.52c-.926.278-1.111 4.538-1.111 4.538l8.428 1.297 1.945-2.315z" fill="url(#j)" transform="translate(23.155 29.638)"/><path d="M53.534 85.766s-13.893-13.8-15.93-23.896c-1.482-7.224 1.019-19.172 1.019-19.172l3.704 2.408S52.98 66.872 58.165 66.872c5.187 0 5.187 6.853 5.187 6.853l-9.818 12.041z" fill="#82C9B4"/><path d="M72.8 48.996c.092-.37 0-.834-.371-1.482-1.945-2.964-4.353 1.204-4.91 2.408a44.31 44.31 0 0 1-2.685.556c-7.965 1.667-1.852 13.985-1.852 13.985s2.963.464 3.056-1.204c0-.648.37-2.686.648-4.63.093-.371.463-.556.741-.371l1.297 1.111s.093-.648.278-1.018c.092-.278-.185-3.15-.278-4.168 1.945-1.204 5.187-3.242 5.28-3.705-.093-.463-.834-1.204-1.205-1.482z" fill="#03147A"/><path d="M82.895 97.158c-.278-1.76-1.39-1.76-1.39-1.76L79.19 66.965H63.352L52.979 76.967l1.296 18.617c-.555.648-1.111 1.482-1.296 2.408-.278 1.667 1.574 1.482 1.574 1.482h27.323c-.093 0 1.297-.556 1.019-2.316z" fill="#82C9B4"/><path fill="url(#k)" d="M48.348 41.679l-17.69 17.598-.279-3.15-7.687-8.706 6.298-5.742z" transform="translate(23.155 29.638)"/><path d="M46.495 37.326S35.66 32.51 33.621 32.324c-2.038-.185-12.411 1.945-10.28 6.113 2.13 4.168 7.501 13.245 14.911 12.597 7.41-.741 10.003-9.355 10.003-9.355l-1.76-4.353z" fill="url(#l)" transform="translate(23.155 29.638)"/><path d="M80.487 83.265s18.987-13.8 20.098-17.597c1.112-3.798 5.002-17.043 5.002-17.043l-3.89-1.574s-17.228 17.598-22.6 20.006c-5.186 2.315 1.39 16.208 1.39 16.208z" fill="#82C9B4"/><g fill="#FD929F"><path d="M48.255 31.769s-1.019-.927-2.408-1.668c-1.39-.74-4.075 1.205-4.075 1.205l-1.112 6.39-1.945 5.094L42.42 45.2l1.945-5.095s3.334-3.241 3.983-3.797c.648-.556-.556-1.667-.741-2.5-.37-.834.648-2.038.648-2.038zM109.94 30.565c-1.204-.464-5.094 4.445-5.094 4.445v5.094l-3.15 6.854 3.89 1.575 2.965-7.41 2.315-3.705 1.575-5.557c0 .093-1.204-.74-2.501-1.296z"/></g><path d="M72.707 48.162s3.149-2.223 3.149-1.204c0 1.02-2.13 3.52-2.13 3.52l-1.02-2.316z" fill="#03147A"/></g><g fill-rule="nonzero"><path d="M52.145 191.538s-2.223 6.02-6.761 8.428c-4.539 2.409-8.614 3.798-5.372 4.446 3.149.649 19.45-4.816 21.21-4.446.648.093 1.39.186 2.037.186a1.705 1.705 0 0 0 1.668-2.13c-.556-2.038-1.39-5.002-1.482-6.484-.093-2.315-11.3 0-11.3 0z" fill="url(#m)" transform="translate(84.284 1.852)"/><path d="M101.326 84.099L93.361 39.27c-1.204-6.854-7.688-11.392-14.541-10.281l-13.338 2.223c-8.336 1.39-15.375 7.039-18.431 14.912-2.871 7.131-6.206 15.282-8.15 18.616l10.836 7.225c2.223-2.964 7.039-5.743 8.15-7.78l2.409 19.82h41.03v.093z" fill="url(#n)" transform="translate(84.284 1.852)"/><path fill="url(#o)" d="M74.559 85.673l13.152-23.34-4.168 23.34z" transform="translate(84.284 1.852)"/><path d="M136.43 193.39h11.299s-3.612-47.699-.926-53.997c2.686-6.298 13.985-29.916 13.985-29.916h2.223l-9.262 31.676c-1.574 6.483-1.019 13.244 1.667 19.265l17.135 32.88h9.91l-10.836-40.475L187 118.46c1.482-3.89 1.945-8.15 1.389-12.319L185.61 85.86h-41.03v8.613l-14.264 39.271a31.546 31.546 0 0 0-1.111 13.152l7.224 46.495z" fill="#031B7F"/><path d="M88.267 191.538s-.741 6.947-1.76 8.892c-1.019 1.945-5.742 5.557-4.353 7.41.833 1.018 5.372.555 8.984-.094 3.52-.555 6.761-2.593 8.614-5.65.463-.833.833-1.574.648-2.037-.463-1.852-2.223-8.428-2.223-8.428h-9.91v-.093z" fill="url(#p)" transform="translate(84.284 1.852)"/><path d="M76.967 56.498l11.022 6.206s-3.427 19.82-29.453 35.38l-12.133 6.113V99.66c.092-.093 23.618-24.081 30.564-43.16z" fill="url(#q)" transform="translate(84.284 1.852)"/><path d="M38.9 64.834c-2.037 3.427-21.21 29.73-21.21 29.73l2.501 2.965s18.802-14.264 29.639-25.47L38.9 64.833z" fill="url(#r)" transform="translate(84.284 1.852)"/><path d="M101.975 96.417s-9.633 2.223-10.189 2.872c-.555.555-4.168 3.612-4.168 3.612s2.223.463 3.613 0c1.389-.463-2.408 2.223-3.613 4.168-1.204 1.945 0 2.593 0 2.593l6.947-4.168s-10.744 3.15-10.188 4.075c.185.278.833.556 1.667.741l9.725-1.018-7.873 1.389c.834.092 1.575.092 1.945.092.927-.185 11.856-3.334 12.134-6.576.277-3.334 2.5-4.723 2.5-4.723l-2.5-3.057zM130.78 101.419l-10.374 5.28s-3.983-.186-3.52.74c.463.926 1.945 1.39 2.872 1.204.926-.185 3.427-.556 3.427-.556s-4.261 1.945-6.391 2.594c-2.038.556-5.835 2.223-2.779 3.334 2.964 1.019 11.022-1.482 16.764-7.965 5.835-6.576 0-4.631 0-4.631z" fill="#FD929F"/><path d="M7.132 14.912s.648 10.929 7.317 11.577c6.668.649 7.78-5.186 7.78-5.186l.833-14.264S7.78 1.945 5.465 3.52C3.149 5.095 7.132 14.913 7.132 14.913z" fill="url(#s)" transform="translate(135.225 3.705)"/><path d="M14.449 26.49l-.556 6.02c-.37 3.334 2.593 6.113 5.928 5.65 2.964-.371 4.909-3.15 4.353-6.114l-1.945-10.743-7.78 5.186z" fill="url(#t)" transform="translate(135.225 3.705)"/><path d="M138.096 12.411s5.187 2.408 6.947 1.204c1.76-1.204 6.205-3.056 6.205-3.056s2.501 2.13 2.686 3.149c.186 1.019 2.223 6.298 2.223 6.298l1.297 1.297s1.019-4.168 1.574-6.02c.556-1.946 1.02-4.54-.926-6.484-1.945-1.945-10.28-4.446-12.689-4.26-2.315.185-6.113.74-7.41 0-1.296-.649-4.352 3.982.093 7.872z" fill="#03147A"/><path d="M22.414 18.431s2.038-2.408 1.852-3.334c-.185-.926-2.686-2.13-3.89-.278-1.204 1.853 2.038 3.612 2.038 3.612z" fill="url(#u)" transform="translate(135.225 3.705)"/><path fill="url(#v)" d="M54.183 67.798l1.574-17.042 2.13 13.522z" transform="translate(84.284 1.852)"/><path d="M141.338 6.02s-2.038-3.334 0-3.427c2.038-.092 6.113 2.779 6.854 3.427.74.649-6.854 0-6.854 0z" fill="#03147A"/><path d="M146.525 25.47l3.334-.926s-.463 2.13-1.297 2.223c-.833.093-2.037-1.297-2.037-1.297z" fill="#FFF"/><path d="M65.39 28.342l-.093 1.389 9.91 4.724-2.037-11.3-2.223 2.779c-1.482 1.574-3.242 2.315-5.557 2.408z" fill="url(#w)" transform="translate(84.284 1.852)"/></g><path fill="#82C9B4" fill-rule="nonzero" d="M185.147 146.339h63.815v41.031h-63.815z"/><path fill="#031B7F" fill-rule="nonzero" d="M340.193 146.339h63.815v41.031h-63.815z"/><g transform="translate(164.863)" fill-rule="nonzero"><path d="M61.13 27.693s12.41 3.613 9.724-10.466c-1.204-6.113.834-9.725-4.26-13.337C61.5.278 57.332 7.502 57.332 7.502s-.834 19.543 3.797 20.191zM45.847 11.855s-10.559 15.746 7.039 15.838h4.168s-2.779-15.56-5.743-15.838c-2.963-.185-5.464 0-5.464 0z" fill="#1C2673"/><path fill="#0F1D5D" d="M47.421 16.301l3.335 11.3 3.52.092 1.203-3.797-7.039-8.521z"/><path fill="#FB929F" d="M61.87 31.306h-9.725l1.575-8.429h6.576z"/><path d="M87.896 59.647c-.092-.37-4.723-14.263-7.317-22.043-1.111-3.242-3.797-5.558-7.131-6.298l-13.43-2.78-14.912 2.965c-2.871.555-5.465 2.223-7.224 4.63-3.15 4.354-8.707 8.337-12.226 15.839l4.445 7.595c4.817-1.297 11.578-9.262 12.782-11.948l.926 10.558-3.797 17.505h38.344l-3.52-9.632c4.725 2.779 9.078 1.575 10.467 1.111 2.593-.833 3.427-4.538 2.593-7.502zm-9.076-3.612c-.556.278-1.76 1.852-3.15.741l.371-4.631c1.574 1.297 3.89 3.242 2.779 3.89z" fill="url(#x)"/><path d="M48.996 30.935S50.2 41.586 59.369 41.586c9.17 0 11.115-10.65 11.115-10.65H48.996z" fill="url(#y)"/><path d="M57.61 28.156l-11.022 2.686c0 4.168 3.427 5.28 7.595 5.28h6.298c4.168 0 7.595-1.019 7.595-5.28L57.61 28.156z" fill="#FD919E"/><path fill="url(#z)" d="M53.442 24.174l-.186 1.296 8.614 5.836-1.297-7.132z"/><ellipse fill="#FB929F" cx="56.961" cy="13.43" rx="8.892" ry="11.67"/><g fill="#FB929F"><path d="M51.59 16.486h-1.297a.89.89 0 0 1-.834-.648l-.463-2.964c-.093-.463.278-.926.834-.926h1.76v4.538zM64.741 16.486h1.297a.89.89 0 0 0 .834-.648l.463-2.964c.092-.463-.278-.926-.834-.926h-1.76v4.538z"/></g><path d="M66.038 3.15C61.037-2.224 55.387.833 52.701 2.87c-.926.649-1.853 1.297-2.871 1.853-1.112.648-2.594 1.945-3.52 4.538-.926 2.5-.926 6.669 1.575 7.224 0 0 2.5-.926 7.502-5.464 2.87.37 6.39.74 8.706.926l.556 3.334c.74-1.296 1.204-2.408 1.389-3.241.185 0 .37 0 .37-.093 1.112-.463 1.575-6.761-.37-8.799z" fill="#1C2673"/><path d="M9.818 38.16L6.39 41.307l4.816 5.095s7.224 13.337 13.06 13.337h5.742l-2.316-7.873L9.818 38.16z" fill="url(#A)"/><path fill="#FD919E" d="M74.837 66.223l.833-9.447 3.427 5.928-1.018 3.52-.741 1.11z"/><path d="M51.126 187.926s.649 9.91 0 11.485c-.648 1.574-6.113 5.464-5.927 6.668.185 1.204 13.522-2.686 13.522-2.686l-1.019-15.467h-6.576zM72.058 187.555s.556 9.91 1.39 11.393c.833 1.482 6.668 4.723 6.668 5.927-.092 1.204-13.708-1.019-13.708-1.019l-.833-15.467 6.483-.834z" fill="#031B7F"/><path d="M80.487 81.876l-1.945-6.113h-38.53l-.834 6.113c-1.852 13.523-1.204 27.23 1.76 40.475l10.28 65.482h6.67l3.612-63.167 4.075 63.63h6.669l7.78-54.182c1.018-7.41 1.667-14.912 1.76-22.414.092-11.3.092-19.45-1.297-29.824z" fill="#4978FF"/><path d="M53.812 90.304l1.575.556c2.686.926 4.538 3.427 4.723 6.298l1.945 40.29-5.094-39.641-6.576-5.372c-.092.092-2.686-4.26 3.427-2.13z" fill="url(#B)"/><path d="M11.3 35.473l-1.945-4.816s-4.076-2.315-4.631-2.315c-.463.092-3.613 1.389-3.613 1.389l-.555 1.39 4.63 2.593 6.021 3.056.093-1.297z" fill="#FD919E"/><path d="M7.595 1.945S4.63.555 3.149 1.297c-1.482.648-1.667 2.87-1.667 2.87s.556 1.853.926 1.853h1.019s.278.186.926.186c.741-.093 2.686-.649 2.686-.649S8.614 7.132 8.8 7.224V3.427L7.595 1.945z" fill="url(#C)" transform="translate(0 27.786)"/><path fill="url(#D)" d="M7.502 5.465L8.8 8.243 3.334 5.372l3.612-.463z" transform="translate(0 27.786)"/><path d="M9.818 33.065l-5.28-2.686s-.833.741 2.13 2.779c2.964 2.038 3.15-.093 3.15-.093z" fill="#FFADAC"/><path d="M53.627 20.654s1.39.834 2.038.834c.648 0 2.13-.834 2.13-.834" fill="#DE738A"/><path d="M57.887 75.578s-12.781 13.06-18.801 13.06c-2.409 0 .926-13.06.926-13.06h17.875zM58.35 75.578S74.56 88.638 81.32 88.73c2.686 0-2.87-13.152-2.87-13.152h-20.1z" fill="#E7E8EC"/></g><path d="M298.607 46.958l.926-1.204c1.76-2.223 4.168-1.945 5.742.649C310 54.368 318.52 72.058 322.41 74.189l5.28 2.778-1.02 5.465s-12.503-1.853-19.635-8.15c-4.63-4.076-8.058-13.523-9.447-17.691-.37-1.204-.649-2.594-.649-3.983 0-2.13.556-4.26 1.668-5.65z" fill="#E7E9EE" fill-rule="nonzero"/><path d="M43.994 34.177s-3.52 22.97-.463 24.73c3.057 1.76 8.244 2.5 8.244 2.5l-7.78-27.23z" fill="url(#E)" fill-rule="nonzero" transform="translate(264.893 17.598)"/><path d="M308.887 90.49h-41.864V62.889c0-11.022 8.892-19.913 19.914-19.913H301.2c4.26 0 7.873 2.778 9.077 6.854l.648 2.315-2.038 38.345z" fill="#6C5156" fill-rule="nonzero"/><path d="M27.323 25.007s4.446 22.137 10.466 22.137 1.945-21.674 1.945-21.674l-12.411-.463z" fill="url(#F)" fill-rule="nonzero" transform="translate(264.893 17.598)"/><path fill="#E7E9EE" fill-rule="nonzero" d="M289.252 42.976l3.983 8.984 7.78-5.928-9.355-5.65zM304.627 42.976l4.26 6.576-7.872-3.52.555-3.427z"/><path fill="url(#G)" fill-rule="nonzero" d="M33.343 26.767l8.15 1.39-1.76-2.78z" transform="translate(264.893 17.598)"/><path d="M309.443 31.12s1.482 11.022-7.687 12.782c-9.17 1.76-11.948-3.89-11.948-3.89l-4.26-14.171s20.19-7.687 23.71-6.483c3.52 1.296.185 11.762.185 11.762z" fill="#FCB7C3" fill-rule="nonzero"/><path d="M302.219 17.598c-3.334 0-14.356 4.168-16.672 6.39-.648.649 0 6.391.093 6.577 1.204 1.852 3.427 5.835 3.427 5.835l.833-.834c.463-.463.741-.926.927-1.482.463-1.574 1.481-5.094 1.481-5.928 0-.185.093-.37.186-.555 1.019-1.945 4.075-2.871 6.761-2.316 1.945.37 4.075.926 5.372 1.297 1.019.278 2.5.093 3.983-.37 3.982-1.112 5.001-5.002 1.667-6.947-1.667-.834-4.26-1.575-8.058-1.667z" fill="#E7E9EE" fill-rule="nonzero"/><path d="M288.974 37.326s-2.408-.834-2.13-4.075c.093-.927 2.13-1.482 4.168.185 2.13 1.482-2.038 3.89-2.038 3.89z" fill="#FCB7C3" fill-rule="nonzero"/><path d="M317.13 200.244c0-.092-.092-.185-.092-.185-.37-.556-5.465-2.223-5.465-2.223-1.111-1.667-3.149-3.334-3.149-3.334l-11.577-.741v6.483c.463.186 1.019.37 1.574.463l8.614 1.668h8.521c.926-.093 1.852-1.112 1.575-2.13z" fill="#352F31" fill-rule="nonzero"/><g fill-rule="nonzero"><path d="M39.178 97.436c0 .185 0 .093 0 0z" fill="url(#H)" transform="translate(265.82 97.25)"/><path d="M47.421 53.071s.834-13.337 0-25.007c-.833-11.67-3.427-21.673-3.334-27.23H2.13C.741 4.26.093 21.95.556 25.748c2.223 17.876.833 63.908 2.037 72.614l14.542 1.02 4.353-54.461c2.778-14.727 2.13-21.859 2.408-22.507.37-.834 3.334 9.447 6.483 27.138v47.792h8.8l6.112-1.02 2.13-43.253z" fill="url(#I)" transform="translate(265.82 97.25)"/></g><path d="M288.604 202.19c0-.093-.093-.186-.093-.186-.37-.556-5.465-2.223-5.465-2.223-1.11-1.667-3.149-3.334-3.149-3.334l-11.577-.741v6.483c.463.186 1.019.37 1.574.463l8.614 1.668h8.521c1.019 0 1.945-1.02 1.575-2.13z" fill="#352F31" fill-rule="nonzero"/><path d="M24.73 102.16s6.298-4.446 6.76-3.335c.371 1.112.927 12.69 0 14.45-.925 1.759-1.666 8.335-1.666 8.335l-5.094-19.45z" fill="url(#J)" fill-rule="nonzero" transform="translate(264.893 17.598)"/><path d="M267.023 90.49s-2.593 7.687-.833 7.687c1.018 0 18.431 2.964 30.75 2.964 8.057 0 12.966-2.964 12.966-2.964s1.39-.556 1.02-2.408c-.371-1.76-2.039-5.28-2.039-5.28h-41.864z" fill="#6C5156" fill-rule="nonzero"/><path d="M6.669 41.772S4.63 53.72 7.687 55.387c3.057 1.76 6.576 0 6.576 0L6.67 41.772z" fill="url(#K)" fill-rule="nonzero" transform="translate(264.893 17.598)"/><path d="M274.433 53.534l1.574-1.204c2.964-2.223 7.132-1.945 9.725.649 7.966 7.965 24.545 23.155 30.936 25.84 7.502 3.15 7.965 4.724 7.965 4.724l-1.76 5.465s-21.95-1.853-34.177-8.15c-7.965-4.076-13.8-13.523-16.023-17.691a8.484 8.484 0 0 1-1.019-3.983c-.092-2.13.926-4.26 2.779-5.65z" fill="#E7E9EE" fill-rule="nonzero"/><path fill="#352F31" fill-rule="nonzero" d="M301.015 46.032l-2.408 1.853 1.852 2.963h2.316l.37-3.797zM299.903 64.093l.463-13.152h2.409l2.222 12.596-.555.926c-.741 1.297-2.501 1.482-3.612.556l-.927-.926z"/><g stroke="#6C5156" stroke-linecap="round" stroke-linejoin="round" stroke-width="3"><path d="M334.265 97.436v106.606M334.265 97.621c0-3.149-2.5-5.65-5.65-5.65-3.149 0-5.65 2.501-5.65 5.65"/></g><path d="M324.633 83.636s11.763 2.686 12.04 4.63a1341.86 1341.86 0 0 0 1.297 8.522s-6.483 1.204-6.669 0c-.185-1.204-3.612-6.02-3.612-6.02l-4.816-1.575 1.76-5.557z" fill="#FAA0AF" fill-rule="nonzero"/><path d="M327.69 77.06s12.873 7.595 12.873 9.632c0 2.038-.555 12.319-2.593 10.096-2.038-2.223-7.595-8.521-7.595-8.521l-3.797-5.743 1.111-5.464z" fill="#FCB7C3" fill-rule="nonzero"/><path d="M298.792 37.789s3.89.926 4.353.834c.463-.093-.926.926-2.223 1.204-1.297.277-2.13-2.038-2.13-2.038z" fill="#F07184" fill-rule="nonzero"/><g transform="translate(344.546 18.524)" fill-rule="nonzero"><path d="M27.138 177.367c0 .185 0 .093 0 0z" fill="url(#L)"/><path d="M13.06 23.062s-1.76-.648-2.13.556c-.371 1.112-.742-4.353-1.76-4.909-1.02-.555-1.946-.185-1.946 2.316 0 2.5-2.778-2.038-2.778-2.038s-1.853 2.5-1.853 2.779c0 .185-.463 1.389-.185 2.408s-1.39 2.13-.463 3.705c.926 1.574 4.724 5.279 4.724 5.279l3.52 2.408 2.87-12.504z" fill="url(#M)"/><path d="M18.894 133.002s-.833-13.337 0-25.007c.834-11.67 3.427-21.673 3.335-27.23l37.974 3.149c1.39 3.427 6.02 17.875 5.557 21.765-2.223 17.876-1.574 63.908-2.778 72.614l-10.837.741-7.317-54.182c-2.779-14.727-2.13-21.859-2.408-22.507-.37-.834-3.334 9.447-6.483 27.138l-1.112 47.792h-7.78l-1.852-.278-6.299-43.995z" fill="#FCB7C3"/><path d="M46.68 11.114s8.985 3.798 7.317 9.355c-1.667 5.557-5.557 7.873-5.557 7.873l-9.725-1.76-1.204-10.188 9.17-5.28z" fill="#E7E9EE"/><path fill="url(#N)" opacity=".5" d="M23.525 165.049l11.485 5.186.186-4.63z"/><path fill="url(#O)" opacity=".5" d="M50.385 165.049l13.06 5.186.37-5.835z"/><path d="M25.1 66.501L21.766 51.59l-3.612-2.964s1.945 4.076-3.613.927c0 0-5.65-10.374-4.353-14.171l-4.446-4.168S-6.946 64.74 8.521 70.483c1.667.65 3.242 3.706 4.538 3.983 9.726 2.13 13.152-5.464 12.041-7.965z" fill="#F07184"/><path d="M20.376 73.448l-1.852 27.322c-2.038 27.323.463 63.075.463 63.075s4.168 1.389 6.483 1.482c2.316.092 38.067.555 40.29-.37 1.39-.557.834-33.53.185-58.074a127.639 127.639 0 0 0-2.5-22.228l-1.39-6.854 2.594-8.707c10.466-10.558-.834-28.341-.834-28.341-2.13-8.707-10.003-15.19-19.357-15.19H30.194c-3.705 0-7.039 2.223-8.52 5.557 0 0-6.392 9.077-8.615 19.543-.277 1.482 6.113 8.521 6.391 9.725l.278 3.705" fill="#F07184"/><path d="M22.692 13.8s-1.482 11.022 7.687 12.782c9.17 1.76 11.948-3.89 11.948-3.89l4.26-14.171S26.398.834 22.878 2.038c-3.52 1.296-.185 11.762-.185 11.762z" fill="#FCB7C3"/><path d="M29.824.278c3.334 0 14.356 4.168 16.671 6.39.649.649 0 6.391-.092 6.577-1.204 1.852-3.427 5.835-3.427 5.835l-.834-.834a3.626 3.626 0 0 1-.926-1.482c-.463-1.574-1.482-5.094-1.482-5.927 0-.186-.093-.37-.185-.556-1.02-1.945-4.076-2.871-6.762-2.316-1.945.37-4.075.927-5.372 1.297-1.018.278-2.5.093-3.982-.37C19.45 7.78 18.43 3.89 21.766 1.945c1.76-.834 4.353-1.575 8.058-1.667z" fill="#E7E9EE"/><path d="M43.16 20.006s2.409-.834 2.131-4.075c-.092-.927-2.13-1.482-4.168.185-2.13 1.482 2.038 3.89 2.038 3.89z" fill="#FCB7C3"/><path d="M15.004 182.924c0-.092.093-.185.093-.185.37-.556 5.465-2.223 5.465-2.223 1.111-1.667 3.149-3.334 3.149-3.334l11.577-.741v6.483a7.823 7.823 0 0 1-1.574.463l-8.614 1.668h-8.428c-1.112-.093-2.038-1.112-1.668-2.13zM43.531 184.87c0-.093.093-.186.093-.186.37-.556 5.465-2.223 5.465-2.223 1.111-1.667 3.149-3.334 3.149-3.334l11.577-.741v6.483a7.823 7.823 0 0 1-1.574.463L53.627 187h-8.521c-1.019 0-1.945-1.02-1.575-2.13z" fill="#B84259"/><path d="M28.25 26.026s1.944 2.038 2.963 3.057c1.019 1.018.278 2.5 3.242 2.5 2.963 0 5.742-1.852 6.668-2.315 1.667-.926 2.408-3.612 2.501-3.612.093 0-1.945-3.612-1.945-3.612l-13.43 3.982z" fill="#FCB7C3"/><path d="M20.932 65.482l.185.186c.741.555 1.575.926 2.501.926l22.414-.093c1.112 0 2.316-.093 3.427-.278l6.206-1.019.833 2.779-3.334.926a31.025 31.025 0 0 1-8.243 1.112l-20.655-.278c-1.204 0-2.222-.556-2.963-1.482l-.37-2.779z" fill="#B84259"/><path d="M28.434 26.119l1.39 1.482 1.574 1.296c1.112.927 6.854.093 7.225-1.296l1.76-7.41-5.187 5.465c-1.482 1.852-4.446.37-6.762.463z" fill="url(#P)"/><path d="M51.497 53.164s-3.057 3.982-2.316 5.372c.37.74 12.226 27.508 13.893 29.36 1.667 1.853-7.039-21.395-7.039-21.395l-4.538-13.337z" fill="url(#Q)"/><path d="M60.018 33.25S70.762 49.923 71.503 64c.74 14.079 2.686 22.692 1.76 24.637-.556 1.112 1.296 3.705 1.296 3.705l-5.465 2.871L60.296 84.1 56.128 60.48" fill="#F07184"/><path d="M28.434 69.743s-1.111-4.168-.278-4.631c.834-.463 3.798-1.482 4.91-.926 1.11.555 3.334 1.389 3.334 1.389l1.204 3.612s-1.297 1.76-1.667 1.852c-.464.093-1.945-.092-3.705 0-1.76.186-3.798-1.296-3.798-1.296z" fill="#FCB7C3"/><path d="M29.916 68.076s-.648-1.76-.278-2.223c.37-.463 1.297-.463 2.501-.185 1.204.277 2.13.37 2.593 1.389.464 1.019.371 2.223.371 2.223s-1.297 2.315-3.242.555l-1.945-1.76zM28.434 69.743s-2.315 5.65-1.945 6.483c.37.834.926 2.779.926 2.779s.186 0 1.02-1.853c.74-1.76 2.407-6.113 2.407-6.113l-2.408-1.296zM33.899 71.04l1.204 6.205 2.593-1.019-1.76-5.094z" fill="#B84259"/><path d="M21.303 66.501s-2.779-7.039-3.52-7.873c-.74-.833-.74-3.149-.74-3.149s-2.41 6.484-1.575 7.78c.833 1.297 5.001 8.8 5.001 8.8l.834-5.558z" fill="url(#R)"/><g fill="#FFF"><path d="M28.25 34.362c.092.278.647 1.667 1.203 2.038.834.463 1.853.185 2.408-.556l2.686-4.168-6.02-5.465c-.093-.092-1.575 5.095-.278 8.151zM34.455 31.583s5.835 5.743 6.576 5.465c.74-.278 2.593-11.392 2.593-11.392l-9.17 5.927z"/></g><circle fill="#FCB7C3" cx="30.101" cy="131.15" r="2.223"/><circle fill="#FCB7C3" cx="50.385" cy="103.364" r="2.223"/><circle fill="#FCB7C3" cx="52.608" cy="146.154" r="2.223"/><circle fill="#FCB7C3" cx="9.54" cy="58.536" r="2.223"/><circle fill="#FCB7C3" cx="26.489" cy="48.255" r="2.223"/><circle fill="#FCB7C3" cx="63.259" cy="53.071" r="2.223"/><path d="M69.094 95.12s3.15 5.28 4.817 6.021c1.667.74 7.41.74 7.41.74s.648-3.982-1.853-5.186c-2.5-1.204-4.816-4.538-4.816-4.538l-5.558 2.964z" fill="url(#S)"/><path d="M29.175 21.117l3.705-1.204s-1.39 1.945-3.705 2.13c-2.315.186-2.686-.648-2.686-.648l2.686-.278z" fill="#F07184"/></g><g fill-rule="nonzero"><path d="M470.694 77.06c.278-.926-.74-2.223-.185-3.15.556-.925-.926-2.037-1.111-2.407-.185-.37-.463-2.13-.093-2.964.278-.834 0-1.297-1.204-1.853-1.204-.555-1.111-3.334-1.111-3.334l-7.317-2.038-6.113 1.575-2.408.185s-.37 1.39-.649 2.13c-.278.741-.648 1.76-1.111 1.482-.463-.278-.278 1.76-1.575 4.353-.463.834-.278 1.482.093 1.946a9.833 9.833 0 0 0-2.593 3.797c-1.76 4.446 4.26 9.262 4.26 9.262l4.816-.741v-2.5l6.113 1.11 6.484-.37s2.315-.556 3.241-2.13c.927-1.575-.463-1.39.463-2.223.927-.834-.37-1.204 0-2.13z" fill="#03147A"/><path d="M447.169 85.025s-5.742 10.837-6.39 12.596c-.464 1.297-5.095 7.966-6.021 8.892-.926.926-12.411 7.687-12.411 7.687s-.741 2.594 0 2.686c.74.186 15.838-2.223 21.117-8.984 3.057-3.982 4.724-10.003 4.724-10.003l-1.019-12.874z" fill="#FD9DA9"/><path d="M470.972 81.969c-.74-.37 0 0-.833-.463h-3.057l-9.91-.556-9.17 3.52c-.37.185-.648.277-.926.462-.555 9.355-1.296 18.71-1.852 28.157 0 1.204 0 2.038.185 1.574h29.176l-3.613-32.694z" fill="#2360F0"/><path d="M461.988 80.765c0-.278 0-.464-.092-.741l-.927-3.89c4.354-1.02 3.705-8.244 3.705-8.244s1.667-6.853 0-7.687c-1.667-.834-11.207 3.89-11.207 3.89l1.853 9.262-.278 7.317c0 .37 0 .648.092 1.019l-5.279 2.037c0 4.168 1.297 4.539 5.465 4.539h6.298c4.168 0 5.464-2.594 5.464-6.761l-5.094-.741z" fill="#FD9DA9"/><path d="M466.99 63.445s-3.242 2.037-4.446 1.482c-1.297-.556-4.353-1.482-4.353-1.482s-1.482 1.667-1.482 2.315c0 .648-.834 4.353-.834 4.353l-.74.926s-1.02-2.593-1.575-3.797c-.556-1.204-1.112-2.871 0-4.353 1.111-1.482 6.39-3.89 7.872-3.983 1.482-.092 4.076-.092 4.817-.648.833-.556 3.241 2.13.74 5.187z" fill="#03147A"/><path d="M10.466 14.17s-1.574-1.388-1.482-2.037c.093-.556 1.575-1.574 2.5-.556.927 1.112-1.018 2.594-1.018 2.594z" fill="url(#T)" transform="translate(444.576 57.424)"/><path d="M50.941 11.763c.185.926.834-3.335 1.574-3.798.741-.37 1.39 0 1.205 1.945-.186 1.945 2.13-1.389 2.13-1.389s1.204 2.13 1.204 2.316c0 .185.278 1.111 0 1.852-.278.74.833 1.76.092 2.964-.74 1.204-3.797 3.797-3.797 3.797l-2.5-1.945-1.483-6.298s1.39-.37 1.575.556z" fill="url(#U)" transform="translate(444.576 57.424)"/><path d="M474.585 114.663h-29.176l-5.65 68.261 5.65.37c.093 3.428.185 6.021.278 7.318h4.26s10.93-58.629 11.485-60.018l10.003 52.979 6.484-.463 3.149-.278-6.483-68.169z" fill="#4978FF"/><path d="M29.916 126.148l-1.574 15.005s-9.448 1.482-9.725 1.39c-.278-.094 0-1.76 2.222-2.41 2.13-.555 3.242.557 3.057-1.851-.093-2.409.185-12.504.185-12.504l5.835.37z" fill="url(#V)" transform="translate(421.42 57.424)"/><path d="M51.311 126.148l1.575 15.005s9.447 1.482 9.725 1.39c.278-.094 0-1.76-2.223-2.41-2.13-.555-3.242.557-3.056-1.851.092-2.409-.186-12.504-.186-12.504l-5.835.37z" fill="url(#W)" transform="translate(421.42 57.424)"/><path fill="#7EB1FF" d="M446.243 97.9l-.649 10.187h28.157l-.648-7.131-.278-5.094z"/><path d="M49.552 24.544s7.965 5.28 12.318 4.076c4.353-1.205 12.133-11.207 12.133-11.207l2.501 1.945s-4.353 11.67-10.096 14.263c-5.742 2.593-15.004 4.816-15.004 4.816s-3.52-6.02-1.852-13.893z" fill="url(#X)" transform="translate(421.42 57.424)"/><path d="M445.224 193.946l4.446 4.631-9.725 1.39s-.186-3.613 4.353-4.076l.926-1.945zM478.845 193.946l-4.446 4.631 9.725 1.39s.186-3.613-4.353-4.076l-.926-1.945z" fill="#03147A"/><path d="M39.549 18.71s-3.057-1.205-3.15-.927c-.092.278-1.203.834-.462 1.482.74.648 3.612-.556 3.612-.556z" fill="url(#Y)" transform="translate(421.42 57.424)"/></g><g transform="translate(238.96 175.884)"><path fill="url(#Z)" fill-rule="nonzero" d="M0 7.687h63.815v41.031H0z"/><path d="M41.216 15.282H22.599V4.446C22.6 1.945 24.637 0 27.045 0h9.725c2.5 0 4.446 2.038 4.446 4.446v10.836z" stroke="#FFC094" stroke-width="2"/><path fill="#E28E64" fill-rule="nonzero" d="M0 48.625v-9.262l9.355 9.262zM63.908 48.625v-9.354l-9.355 9.354z"/><circle fill="#FFF" fill-rule="nonzero" cx="47.236" cy="29.175" r="3.705"/></g><path d="M115.624 189.87c1.668-6.762 6.854-17.32 5.372-20.192-1.852-3.52-21.488 0-21.488 0s-15.282 15.653-19.913 21.58c-4.63 5.836-3.52 27.88-3.52 27.88s15.376.462 28.435 0c13.06-.464 8.058-3.798 8.058-3.798s.648-3.057 1.297-6.947l1.296 1.945s3.52 6.484 4.816 6.669c1.297.185 2.78-1.667 2.78-1.667l-7.133-25.47zm-.833 10.465c.278-2.593.463-5.001.278-6.483v-.74.74l3.612 15.19-3.89-8.707z" fill="#031B7F" fill-rule="nonzero"/><path fill="#64B59A" fill-rule="nonzero" d="M185.24 187.555v-9.91l9.54 9.632z"/><path d="M204.412 169.217l.649-1.76c-1.205-.463-1.853-1.575-1.482-2.594l-6.576-2.5c-.37.926-1.668 1.389-2.872.833l-.648 1.76c1.204.463 1.852 1.575 1.482 2.593l6.576 2.501c.463-.926 1.667-1.296 2.871-.833z" fill="#C5FFE9" fill-rule="nonzero"/></g></svg>
