<svg width="58" height="58" xmlns="http://www.w3.org/2000/svg" xmlns:xlink="http://www.w3.org/1999/xlink"><defs><circle id="b" cx="23" cy="23" r="23"/><filter x="-10.9%" y="-8.7%" width="121.7%" height="121.7%" filterUnits="objectBoundingBox" id="a"><feOffset dy="1" in="SourceAlpha" result="shadowOffsetOuter1"/><feGaussianBlur stdDeviation="1.5" in="shadowOffsetOuter1" result="shadowBlurOuter1"/><feColorMatrix values="0 0 0 0 0.28627451 0 0 0 0 0.309803922 0 0 0 0 0.415686275 0 0 0 0.135544143 0" in="shadowBlurOuter1"/></filter></defs><g fill="none" fill-rule="evenodd"><circle fill="#1639BB" cx="29" cy="29" r="29"/><g transform="translate(6 6)"><use fill="#000" filter="url(#a)" xlink:href="#b"/><use fill="#FFF" xlink:href="#b"/></g><path d="M22.825 38.334a1.442 1.442 0 0 1-2.882 0H17a1 1 0 0 1-1-1v-6.056A2.277 2.277 0 0 1 18.278 29h21.626a1 1 0 0 1 .902.57l2.187 4.583a1 1 0 0 1 .068.674l-.69 2.75a1 1 0 0 1-.97.757H39.206a1.442 1.442 0 0 1-2.883 0H22.825zm15.857-4.668h2.813l-1.63-2.95h-1.183v2.95zm-21.5 0h20.582v-2.95H17.183v2.95z" fill="#FD8E49"/><path d="M23 21.79v-2.317c0-.218.169-.387.386-.387h6.493v-2.703c0-.157.084-.29.23-.35a.412.412 0 0 1 .421.06l4.635 4.224c.072.073.12.17.12.278a.421.421 0 0 1-.12.29l-4.635 4.272a.387.387 0 1 1-.652-.278v-2.703h-6.492A.381.381 0 0 1 23 21.79z" fill="#FD8E49" fill-rule="nonzero"/></g></svg>
