<svg viewBox="0 0 147 129" xmlns="http://www.w3.org/2000/svg" xmlns:xlink="http://www.w3.org/1999/xlink"><defs><ellipse id="a" cx="62.962" cy="63" rx="62.5" ry="63"/><linearGradient x1="51.337%" y1="98.085%" x2="49.134%" y2="4.782%" id="c"><stop stop-color="#041B76" offset="0%"/><stop stop-color="#022D91" offset="100%"/></linearGradient><linearGradient x1="51.184%" y1="98.339%" x2="49.595%" y2="-.843%" id="d"><stop stop-color="#888A87" offset="0%"/><stop stop-color="#FDFDFD" offset="100%"/></linearGradient><linearGradient x1="98.843%" y1="51.926%" x2=".701%" y2="48.16%" id="e"><stop stop-color="#D3D3D3" offset="0%"/><stop stop-color="#FFF" offset="100%"/></linearGradient><linearGradient x1="51.363%" y1="97.988%" x2="49.159%" y2="4.685%" id="f"><stop stop-color="#041B76" offset="0%"/><stop stop-color="#093391" offset="100%"/></linearGradient><linearGradient x1="111.073%" y1="58.52%" x2="-2.489%" y2="36.509%" id="g"><stop stop-color="#AFB9E7" offset="0%"/><stop stop-color="#E6EEF7" offset="100%"/></linearGradient><linearGradient x1="51.048%" y1="98.442%" x2="49.459%" y2="-.739%" id="h"><stop stop-color="#888A87" offset="0%"/><stop stop-color="#FDFDFD" offset="100%"/></linearGradient><linearGradient x1="-.033%" y1="57.086%" x2="99.983%" y2="44.401%" id="i"><stop stop-color="#C9CCD8" offset="0%"/><stop stop-color="#B8BAC1" offset="100%"/></linearGradient><linearGradient x1=".528%" y1="50.48%" x2="100.482%" y2="49.599%" id="j"><stop stop-color="#FDFDFD" stop-opacity="0" offset="0%"/><stop stop-color="#FDFDFD" offset="100%"/></linearGradient><linearGradient x1="50.288%" y1="37.328%" x2="49.42%" y2="84.43%" id="k"><stop stop-color="#AFB9E7" offset="0%"/><stop stop-color="#E6EEF7" offset="100%"/></linearGradient><linearGradient x1="-.233%" y1="51.114%" x2="100.283%" y2="49.126%" id="l"><stop stop-color="#BEC5DD" offset="0%"/><stop stop-color="#E1E8EF" offset="100%"/></linearGradient><linearGradient x1="-.045%" y1="51.061%" x2="100.356%" y2="49.298%" id="m"><stop stop-color="#BEC5DD" offset="0%"/><stop stop-color="#E1E8EF" offset="100%"/></linearGradient><linearGradient x1="26.914%" y1="-15.786%" x2="73.154%" y2="95.156%" id="n"><stop stop-color="#BEC5DD" offset="0%"/><stop stop-color="#E1E8EF" offset="100%"/></linearGradient><linearGradient x1="72.37%" y1="-16.055%" x2="28.552%" y2="94.246%" id="o"><stop stop-color="#BEC5DD" offset="0%"/><stop stop-color="#E1E8EF" offset="100%"/></linearGradient><linearGradient x1="-.002%" y1="49.945%" x2="100.02%" y2="49.945%" id="p"><stop stop-color="#FDFDFD" stop-opacity="0" offset="0%"/><stop stop-color="#FDFDFD" offset="100%"/></linearGradient><linearGradient x1="99.983%" y1="44.401%" x2="-.033%" y2="57.086%" id="q"><stop stop-color="#C9CCD8" offset="0%"/><stop stop-color="#FFF" offset="100%"/></linearGradient><linearGradient x1="-29.882%" y1="56.416%" x2="79.796%" y2="48.86%" id="r"><stop stop-color="#D3D3D3" offset="0%"/><stop stop-color="#0C2BC0" stop-opacity="0" offset="100%"/></linearGradient></defs><g fill="none" fill-rule="evenodd"><g transform="translate(21.538 3)"><mask id="b" fill="#fff"><use xlink:href="#a"/></mask><use fill="#536AFF" xlink:href="#a"/><g mask="url(#b)"><g transform="rotate(-1 2044.933 -1324.457)" fill-rule="nonzero"><path d="M145.18 50.634l-9.723-.611 2.976 1.169-4.57-1.435-29.487-.85L20.64 59.985c-.903.133-.903 1.434 0 1.54l43.594 5.154c3.427.399 6.907.266 10.308-.398l68.725-13.203 2.284-.452-.265-.053c3.134-1.01-.107-1.94-.107-1.94z" fill="#041B76"/><path d="M72.763 47.393c-1.966.026-3.507 4.011-3.454 8.9.054 4.887 1.674 8.846 3.64 8.846l4.25-.054-.16-17.745-4.276.053zM32.224 42.877c-1.966.026-3.507 4.011-3.454 8.9.054 4.887 1.674 8.845 3.64 8.845l4.25-.053-.159-17.745-4.277.053z" fill="#041B76"/><path d="M11.423 8.9c.053 4.887-1.514 8.872-3.453 8.899-1.94.026-3.587-3.932-3.64-8.846C4.277 4.065 5.844.08 7.784.053c1.939-.026 3.613 3.958 3.64 8.846z" fill="url(#c)" transform="translate(28.69 42.77)"/><path d="M33.473 51.75c.026 2.39-1.09 4.33-2.498 4.33-1.408 0-2.55-1.913-2.576-4.277-.027-2.391 1.089-4.33 2.497-4.33 1.408-.027 2.577 1.886 2.577 4.277z" fill="url(#d)"/><path d="M139.416 4.065L97.974 2.683a113.118 113.118 0 0 0-9.006.027L55.336 4.144l-32.623 1.17c-2.231.026-4.223 1.354-5.074 3.4-1.328 3.16-2.789 8.899-4.356 16.417-1.461 7.013-3.055 15.54-3.932 25.264a4.352 4.352 0 0 0 3.958 4.728l33.26 2.444 10.786 1.515c1.142.106 2.285.053 3.4-.16l19.526-2.763 1.886-.08 44.47-6.667 10.893-1.62a4.244 4.244 0 0 0 2.789-1.648l2.338-3.028.053-.053a9.303 9.303 0 0 0 2.045-5.951l.904-26.937c2.869-7.12-6.243-6.11-6.243-6.11z" fill="url(#e)"/><path d="M73.507 58.046s-.664-13.841 3.905-13.868c6.455-1.248 4.702 8.05 4.755 11.902l-1.886.08-6.774 1.886z" fill="#041B76"/><path d="M80.653 56.213c.053 4.888-1.514 8.872-3.454 8.899-1.939.027-3.586-3.932-3.64-8.846-.052-4.915 1.515-8.873 3.454-8.9 1.94-.026 3.613 3.932 3.64 8.847z" fill="url(#f)"/><path d="M58.311 40.512c-.372 1.94-2.019 3.4-4.011 3.48l-20.96.213a42.015 42.015 0 0 1-13.469-1.62l-9.324-2.577c-.08.584-.16 1.142-.213 1.7l9.564 2.63a42.015 42.015 0 0 0 13.468 1.62l20.96-.212c1.993-.08 3.64-1.541 4.012-3.48L62.8 12.512a1.493 1.493 0 0 0-.16-.903l-4.33 28.903z" fill="url(#g)"/><path d="M10.44 40.46l9.564 2.63a42.015 42.015 0 0 0 13.469 1.62l20.96-.213c1.992-.08 3.64-1.54 4.011-3.48l4.463-29.753a1.567 1.567 0 0 0-1.514-1.78L17.214 8.82c.027.026-4.994 17.453-6.774 31.64z" fill="#322F90"/><path d="M79.696 56.213c.027 2.39-1.089 4.33-2.497 4.33s-2.55-1.913-2.577-4.277c-.026-2.391 1.09-4.33 2.498-4.33 1.408-.027 2.55 1.886 2.576 4.277z" fill="url(#h)"/><ellipse fill="#9EA09E" transform="rotate(-.541 77.527 56.246)" cx="77.527" cy="56.246" rx="1.78" ry="3.294"/><path d="M86.816 55.442s35.146-28.319 50.554-28.265c7.12.026 7.678 1.753 7.545 4.728-.08 1.86.16 4.57-.266 6.456-.239 1.01-1.54 2.55-1.833 4.595-.186 1.249-4.543 4.623-4.543 4.623-7.518 1.673-14.265 2.019-22.82 3.48a830.556 830.556 0 0 1-28.637 4.383z" fill="url(#i)"/><path fill="url(#j)" opacity=".2" d="M17.241 8.846l4.516 47.021 17.347 1.541 23.723-47.233-1.408-.665-17.506-.93z"/><path d="M54.034 51.643c-7.279.293-27.256.585-44.417-4.038l.345-2.922s13.017 5.898 46.676 4.65l-2.604 2.31z" fill="url(#k)"/><path d="M43.62 51.83c-.318-.027-.371-.479-.053-.585 3.268-1.116 11.955-3.985 13.097-3.666 1.435.398.346 1.78-1.94 3.692-1.752 1.435-8.288.877-11.103.558zM16.444 48.721l-5.552-5.233c-.345-.32-.93-.107-.957.372l-.318 3.772 6.588 1.567c.239.027.425-.292.239-.478z" fill="#FFF"/><path d="M42.903 55.628c-3.586-.292-12.459-1.222-18.33-1.647-7.013-.505-7.226 1.514-7.226 1.514L49.2 58.258a10.968 10.968 0 0 0-6.296-2.63z" fill="#041B76"/><path d="M17.241.08L6.004.186C4.94.186 3.984.77 3.454 1.7L.266 7.518a.47.47 0 0 0 .425.69l1.487-.026a3.641 3.641 0 0 0 3.162-1.86c.823-1.46 2.098-3.32 3.214-3.692l8.182-.664.505-1.886z" fill="url(#l)" transform="translate(0 8.767)"/><path d="M5.127 8.953c-.133.053-.212.106-.212.212-1.116.478-1.674 1.727-2.498 3.215-1.062 1.912-3.081 4.436-1.726 4.595 1.328.16 2.71-.239 2.71-.239s2.39-3.613 3.612-5.499l5.127-2.364c-.053.026-6.375-.106-7.013.08z" fill="#FFF"/><path d="M16.072.08L6.19.186C5.26.186 4.41.77 3.958 1.7L1.142 7.518c-.16.319.053.69.372.69h1.302c1.142 0 2.205-.717 2.79-1.859.743-1.46 1.832-3.32 2.815-3.692L16.205.93l-.133-.85z" fill="url(#m)" transform="translate(46.755 10.095)"/><path d="M51.43 10.307c-.132.054-.185.107-.185.213-1.036.478-1.568 1.727-2.338 3.214-.983 1.913-2.869 4.437-1.62 4.596 1.248.16 2.523-.239 2.523-.239s2.232-3.613 3.374-5.499l4.808-2.364s-5.95-.107-6.561.08z" fill="#FFF"/><path d="M19.977 48.641c.266.824.319 1.249-.61 1.408l-.957-1.753c-.133-.239.08-.531.345-.452.478.107 1.063.346 1.222.797z" fill="url(#n)"/><ellipse fill="#FFF" transform="rotate(-18.935 18.862 48.967)" cx="18.862" cy="48.967" rx="1" ry="1.063"/><path d="M38.467 50.793c-.266.824-.292 1.275.637 1.408l.93-1.78c.133-.239-.08-.531-.345-.451-.478.106-1.063.345-1.222.823z" fill="url(#o)"/><ellipse fill="#FFF" transform="rotate(-60.541 39.645 51.268)" cx="39.645" cy="51.268" rx="1.063" ry="1"/><path d="M60.676 38.36l5.233-28.504a1.253 1.253 0 0 1 1.222-1.036L142.71 7.2c.77-.027 1.408.663 1.302 1.434-.346 2.524-1.116 7.438-2.179 8.341-1.169.983-38.573 6.88-51.457 9.033-3.135.53-6.19 1.46-9.059 2.816L60.676 38.36z" fill="#322F90"/><path d="M86.816 26.805s20.721-22.82 36.13-22.767c11.555.027 22.155-.292 21.039 4.622-.24 1.01-.903 3.64-1.195 5.685-.186 1.249-.983 2.657-.983 2.657-7.518 1.674-18.065 3.055-26.619 4.516-14.744 2.524-28.372 5.287-28.372 5.287z" fill="url(#p)" opacity=".2"/><path d="M21.943 5.366l32.888.106c7.067.186 14.133.027 21.173-.504L95.37 3.533S94.334.584 86.55.425C78.714.292 25.636-1.647 21.943 5.366z" fill="url(#q)"/><path d="M58.019 54.858l2.657-16.497 11.529-5.34-2.922 24.68s-4.012.717-7.492 1.115c-2.231.292-4.144-1.7-3.772-3.958z" fill="url(#r)" opacity=".2"/></g></g></g><path d="M12.911 2.42c10.494-4.673 22.704.1 27.33 10.49 2.822 6.338 2.25 13.44-1.108 19.044l5.689 10.54-11.366-4.277c-1.155.763-2.413 1.572-3.66 2.127-10.494 4.672-22.703-.1-27.33-10.49C-2.31 19.404 2.418 7.091 12.912 2.418z" fill="#01D17E" fill-rule="nonzero"/><path d="M27.46 15.447a1.5 1.5 0 1 1 2.449 1.733L21.53 29.016a1.5 1.5 0 0 1-2.32.157l-5.836-6.251a1.5 1.5 0 1 1 2.193-2.047l4.579 4.904 7.313-10.332z" fill="#FFF" fill-rule="nonzero"/></g></svg>
