<svg viewBox="0 0 552 202" xmlns="http://www.w3.org/2000/svg"><defs><linearGradient x1=".183%" y1="50.072%" x2="100.323%" y2="50.072%" id="a"><stop stop-color="#03147A" stop-opacity=".3" offset="0%"/><stop stop-color="#1454D1" stop-opacity="0" offset="99.65%"/></linearGradient><linearGradient x1="51.337%" y1="98.085%" x2="49.134%" y2="4.782%" id="b"><stop stop-color="#041B76" offset="0%"/><stop stop-color="#022D91" offset="100%"/></linearGradient><linearGradient x1="51.184%" y1="98.339%" x2="49.595%" y2="-.843%" id="c"><stop stop-color="#888A87" offset="0%"/><stop stop-color="#FDFDFD" offset="100%"/></linearGradient><linearGradient x1="98.843%" y1="51.926%" x2=".701%" y2="48.16%" id="d"><stop stop-color="#D3D3D3" offset="0%"/><stop stop-color="#FFF" offset="100%"/></linearGradient><linearGradient x1="51.363%" y1="97.988%" x2="49.159%" y2="4.685%" id="e"><stop stop-color="#041B76" offset="0%"/><stop stop-color="#093391" offset="100%"/></linearGradient><linearGradient x1="111.073%" y1="58.52%" x2="-2.489%" y2="36.509%" id="f"><stop stop-color="#AFB9E7" offset="0%"/><stop stop-color="#E6EEF7" offset="100%"/></linearGradient><linearGradient x1="51.048%" y1="98.442%" x2="49.459%" y2="-.739%" id="g"><stop stop-color="#888A87" offset="0%"/><stop stop-color="#FDFDFD" offset="100%"/></linearGradient><linearGradient x1="-.033%" y1="57.086%" x2="99.983%" y2="44.401%" id="h"><stop stop-color="#C9CCD8" offset="0%"/><stop stop-color="#B8BAC1" offset="100%"/></linearGradient><linearGradient x1="51.534%" y1="97.969%" x2="49.336%" y2="4.739%" id="i"><stop stop-color="#041B76" offset="0%"/><stop stop-color="#093391" offset="100%"/></linearGradient><linearGradient x1="51.278%" y1="98.579%" x2="49.683%" y2="-.378%" id="j"><stop stop-color="#888A87" offset="0%"/><stop stop-color="#FDFDFD" offset="100%"/></linearGradient><linearGradient x1="51.408%" y1="97.922%" x2="49.209%" y2="4.693%" id="k"><stop stop-color="#041B76" offset="0%"/><stop stop-color="#093391" offset="100%"/></linearGradient><linearGradient x1="51.1%" y1="98.483%" x2="49.506%" y2="-.474%" id="l"><stop stop-color="#888A87" offset="0%"/><stop stop-color="#FDFDFD" offset="100%"/></linearGradient><linearGradient x1=".528%" y1="50.48%" x2="100.482%" y2="49.599%" id="m"><stop stop-color="#FDFDFD" stop-opacity="0" offset="0%"/><stop stop-color="#FDFDFD" offset="100%"/></linearGradient><linearGradient x1="50.288%" y1="37.328%" x2="49.42%" y2="84.43%" id="n"><stop stop-color="#AFB9E7" offset="0%"/><stop stop-color="#E6EEF7" offset="100%"/></linearGradient><linearGradient x1="-.233%" y1="51.114%" x2="100.283%" y2="49.126%" id="o"><stop stop-color="#BEC5DD" offset="0%"/><stop stop-color="#E1E8EF" offset="100%"/></linearGradient><linearGradient x1="-.045%" y1="51.061%" x2="100.356%" y2="49.298%" id="p"><stop stop-color="#BEC5DD" offset="0%"/><stop stop-color="#E1E8EF" offset="100%"/></linearGradient><linearGradient x1="26.914%" y1="-15.786%" x2="73.154%" y2="95.156%" id="q"><stop stop-color="#BEC5DD" offset="0%"/><stop stop-color="#E1E8EF" offset="100%"/></linearGradient><linearGradient x1="72.37%" y1="-16.055%" x2="28.552%" y2="94.246%" id="r"><stop stop-color="#BEC5DD" offset="0%"/><stop stop-color="#E1E8EF" offset="100%"/></linearGradient><linearGradient x1="-.002%" y1="49.945%" x2="100.02%" y2="49.945%" id="s"><stop stop-color="#FDFDFD" stop-opacity="0" offset="0%"/><stop stop-color="#FDFDFD" offset="100%"/></linearGradient><linearGradient x1="99.983%" y1="44.401%" x2="-.033%" y2="57.086%" id="t"><stop stop-color="#C9CCD8" offset="0%"/><stop stop-color="#FFF" offset="100%"/></linearGradient><linearGradient x1="-29.882%" y1="56.416%" x2="79.796%" y2="48.86%" id="u"><stop stop-color="#D3D3D3" offset="0%"/><stop stop-color="#0C2BC0" stop-opacity="0" offset="100%"/></linearGradient><linearGradient x1="51.558%" y1="97.979%" x2="48.353%" y2="4.72%" id="v"><stop stop-color="#041B76" offset="0%"/><stop stop-color="#022D91" offset="100%"/></linearGradient><linearGradient x1=".012%" y1="52.605%" x2="99.752%" y2="47.221%" id="w"><stop stop-color="#CF6683" offset="0%"/><stop stop-color="#F895A2" offset="100%"/></linearGradient><linearGradient x1="-.022%" y1="59.78%" x2="99.84%" y2="40.022%" id="x"><stop stop-color="#CF6683" offset="0%"/><stop stop-color="#F895A2" offset="100%"/></linearGradient><linearGradient x1="51.5%" y1="98.149%" x2="48.32%" y2="4.587%" id="y"><stop stop-color="#041B76" offset="0%"/><stop stop-color="#093391" offset="100%"/></linearGradient><linearGradient x1="51.352%" y1="98.495%" x2="49.046%" y2="-.651%" id="z"><stop stop-color="#888A87" offset="0%"/><stop stop-color="#FDFDFD" offset="100%"/></linearGradient><linearGradient x1="88.63%" y1="27.914%" x2="-.612%" y2="77.584%" id="A"><stop stop-color="#888A87" offset="0%"/><stop stop-color="#FDFDFD" offset="100%"/></linearGradient><linearGradient x1="51.389%" y1="97.98%" x2="48.202%" y2="4.6%" id="B"><stop stop-color="#041B76" offset="0%"/><stop stop-color="#093391" offset="100%"/></linearGradient><linearGradient x1="50.995%" y1="98.65%" x2="48.696%" y2="-.64%" id="C"><stop stop-color="#888A87" offset="0%"/><stop stop-color="#FDFDFD" offset="100%"/></linearGradient><linearGradient x1="88.469%" y1="28.145%" x2="-.451%" y2="77.686%" id="D"><stop stop-color="#888A87" offset="0%"/><stop stop-color="#FDFDFD" offset="100%"/></linearGradient><linearGradient x1="-.08%" y1="59.091%" x2="99.965%" y2="42.89%" id="E"><stop stop-color="#CF6683" offset="0%"/><stop stop-color="#F895A2" offset="100%"/></linearGradient><linearGradient x1="28.39%" y1="95.148%" x2="71.286%" y2="-9.009%" id="F"><stop stop-color="#041B75" offset="0%"/><stop stop-color="#0C2EB2" stop-opacity=".4" offset="100%"/></linearGradient><linearGradient x1="90.661%" y1="23.955%" x2="9.444%" y2="72.237%" id="G"><stop stop-color="#FDFDFD" stop-opacity="0" offset="0%"/><stop stop-color="#FDFDFD" offset="100%"/></linearGradient><linearGradient x1="34.572%" y1="77.725%" x2="109.324%" y2="4.216%" id="H"><stop stop-color="#FDFDFD" stop-opacity="0" offset="0%"/><stop stop-color="#FDFDFD" offset="100%"/></linearGradient></defs><g fill="none" fill-rule="evenodd"><path fill="#82C9B4" fill-rule="nonzero" d="M31.2 119.2h73v45.2h-73z"/><path fill="#9AE0C9" fill-rule="nonzero" d="M79.7 141.7l-15.5 10H44.5l-13.3-10v-22.5h48.5z"/><path fill="url(#a)" fill-rule="nonzero" d="M79.7 23.2h24.5v45.2H79.7z" transform="translate(0 96)"/><path fill="#287BE8" fill-rule="nonzero" d="M31.2 137.9H16.3L.8 157.7v6.5h30.4z"/><path d="M83 125.5s2.9 23.1 11.5 23.1 8.6-23.1 8.6-23.1" stroke="#82C9B4"/><path d="M97 113.6c-1.2 0-2.3-1-2.3-2.3v-7.5c0-4-3.2-7.2-7.2-7.2-4.7 0-10.8.1-15-.1-8-.3-11.4 6.6-11.4 6.6s-5.2 6.6-10.1 6.8c-4.9.2-10.9 9.3-10.9 9.3h59.3v-3.4c-.1-1.2-1.1-2.2-2.4-2.2z" fill="#111D7F" fill-rule="nonzero"/><path fill="#438AFD" fill-rule="nonzero" d="M67.8 133.1H123v32H67.8z"/><path fill="#6DA5FF" fill-rule="nonzero" d="M78.6 148.2h7.2v17h-7.2z"/><path fill="#B6EFDA" fill-rule="nonzero" d="M40.1 119.2h8.1v45.5h-8.1z"/><g fill-rule="nonzero"><g transform="rotate(-1 228.871 -2771.813)"><path d="M402.95 140.535l-26.986-1.696 8.258 3.244-12.682-3.981-81.844-2.36L57.29 166.49c-2.507.368-2.507 3.981 0 4.276l120.996 14.304a93.171 93.171 0 0 0 28.608-1.106l190.747-36.645 6.341-1.253-.737-.148c8.7-2.802-.295-5.382-.295-5.382z" fill="#041B76"/><path d="M201.954 131.54c-5.456.073-9.733 11.133-9.585 24.7.147 13.567 4.645 24.553 10.101 24.553l11.798-.148-.443-49.253-11.87.147zM332.24 119.89c-3.982.073-7.152 8.184-7.078 18.212.073 10.027 3.391 18.064 7.447 18.064l8.7-.074-.369-36.202h-8.7zM361.733 113.327c-3.981.074-7.152 8.185-7.078 18.212.074 10.028 3.391 18.065 7.447 18.065l8.7-.074-.368-36.203h-8.7zM89.438 119.005c-5.456.073-9.733 11.133-9.585 24.7.147 13.567 4.645 24.553 10.101 24.553l11.797-.147-.442-49.254-11.871.148z" fill="#041B76"/><path d="M31.705 24.7c.148 13.567-4.203 24.627-9.585 24.701-5.383.074-9.954-10.912-10.102-24.553-.147-13.567 4.203-24.627 9.586-24.7C26.986.073 31.63 11.133 31.705 24.7z" fill="url(#b)" transform="translate(79.631 118.71)"/><path d="M92.903 143.631c.074 6.636-3.023 12.019-6.93 12.019-3.908 0-7.079-5.309-7.153-11.871-.073-6.636 3.023-12.018 6.931-12.018 3.908-.074 7.152 5.235 7.152 11.87z" fill="url(#c)"/><path d="M386.95 11.281L271.927 7.447c-8.332-.295-16.664-.295-24.996.074l-93.346 3.981-90.543 3.245c-6.194.073-11.724 3.76-14.083 9.437-3.687 8.775-7.742 24.7-12.093 45.567-4.055 19.466-8.479 43.134-10.912 70.12-.59 6.636 4.276 12.535 10.986 13.125l92.314 6.783 29.935 4.203c3.17.295 6.341.147 9.438-.443l54.194-7.668 5.235-.221 123.428-18.507 30.23-4.498c3.097-.442 5.826-2.064 7.743-4.571l6.488-8.406.148-.147c3.76-4.645 5.75-10.544 5.677-16.516l2.507-74.765C412.24 8.48 386.95 11.28 386.95 11.28z" fill="url(#d)"/><path d="M204.019 161.106s-1.844-38.415 10.838-38.488c17.917-3.466 13.051 22.34 13.199 33.032l-5.235.221-18.802 5.235z" fill="#041B76"/><path d="M223.853 156.019c.147 13.566-4.203 24.626-9.585 24.7-5.383.074-9.954-10.912-10.102-24.553-.147-13.64 4.203-24.627 9.585-24.7 5.383-.074 10.028 10.912 10.102 24.553z" fill="url(#e)"/><path d="M161.844 112.443c-1.033 5.382-5.604 9.437-11.134 9.659l-58.175.59c-12.609.516-25.217-.96-37.383-4.498l-25.88-7.152c-.221 1.622-.442 3.17-.59 4.718l26.544 7.3c12.166 3.54 24.774 5.014 37.382 4.498l58.176-.59c5.53-.221 10.101-4.277 11.133-9.66l12.387-82.58c.148-.885-.073-1.77-.442-2.507l-12.018 80.222z" fill="url(#f)"/><path d="M28.977 112.295l26.544 7.3c12.166 3.539 24.774 5.013 37.382 4.497l58.176-.59c5.53-.22 10.1-4.276 11.133-9.659l12.387-82.58c.369-2.58-1.622-4.867-4.202-4.94L47.779 24.479c.074.074-13.862 48.443-18.802 87.816z" fill="#322F90"/><path d="M221.198 156.019c.074 6.636-3.023 12.018-6.93 12.018-3.908 0-7.079-5.309-7.153-11.87-.073-6.637 3.023-12.02 6.931-12.02 3.908-.073 7.079 5.236 7.152 11.872z" fill="url(#g)"/><ellipse fill="#9EA09E" transform="rotate(-.541 215.178 156.111)" cx="215.178" cy="156.111" rx="4.94" ry="9.143"/><path d="M240.959 153.88s97.548-78.599 140.313-78.451c19.76.073 21.31 4.866 20.94 13.124-.22 5.161.443 12.682-.737 17.917-.663 2.802-4.276 7.079-5.087 12.756-.517 3.465-12.609 12.83-12.609 12.83-20.866 4.645-39.594 5.603-63.336 9.658-40.996 7.079-79.484 12.166-79.484 12.166z" fill="url(#h)"/><path d="M333.715 139.65s-1.401-28.24 7.963-28.313c13.198-2.507 9.659 17.917 9.733 25.732l-5.014.811-12.682 1.77z" fill="#041B76"/><path d="M348.314 137.88c.073 10.028-3.097 18.139-7.079 18.212-3.981.074-7.3-8.037-7.447-18.064-.073-10.028 3.097-18.138 7.079-18.212 3.981-.074 7.373 8.037 7.447 18.064z" fill="url(#i)"/><path d="M346.323 137.88c.074 4.867-2.212 8.848-5.088 8.848-2.875 0-5.235-3.908-5.235-8.774-.073-4.866 2.212-8.848 5.088-8.848s5.235 3.908 5.235 8.774z" fill="url(#j)"/><ellipse fill="#9EA09E" transform="rotate(-.541 341.93 137.972)" cx="341.93" cy="137.972" rx="3.613" ry="6.71"/><path d="M363.208 135.078s-1.401-28.24 7.963-28.313c13.198-2.507 9.585 18.065 9.659 25.954l-4.13.664-13.492 1.695z" fill="#041B76"/><path d="M377.88 131.318c.074 10.028-3.096 18.138-7.078 18.212-3.981.074-7.3-8.037-7.447-18.064-.073-10.028 3.097-18.139 7.079-18.212 3.981-.074 7.373 8.036 7.447 18.064z" fill="url(#k)"/><path d="M375.89 131.318c.074 4.866-2.212 8.848-5.088 8.848-2.875 0-5.235-3.908-5.235-8.774-.074-4.867 2.212-8.848 5.088-8.848 2.875 0 5.235 3.908 5.235 8.774z" fill="url(#l)"/><ellipse fill="#9EA09E" transform="rotate(-.541 371.498 131.41)" cx="371.498" cy="131.41" rx="3.613" ry="6.71"/><path fill="url(#m)" opacity=".2" d="M47.853 24.553L60.387 155.06l48.148 4.277L174.378 28.24l-3.908-1.844-48.59-2.58z"/><path d="M149.973 143.337c-20.203.81-75.65 1.622-123.282-11.208l.959-8.11s36.129 16.368 129.548 12.903l-7.225 6.415z" fill="url(#n)"/><path d="M121.07 143.853c-.886-.074-1.033-1.327-.148-1.622 9.069-3.097 33.18-11.06 36.35-10.176 3.982 1.106.959 4.94-5.382 10.25-4.867 3.98-23.005 2.432-30.82 1.548zM45.64 135.226l-15.41-14.525c-.958-.885-2.58-.295-2.654 1.032l-.885 10.47 18.286 4.35c.664.074 1.18-.81.664-1.327z" fill="#FFF"/><path d="M119.078 154.396c-9.953-.81-34.58-3.391-50.875-4.57-19.466-1.402-20.055 4.202-20.055 4.202l88.405 7.668a30.442 30.442 0 0 0-17.475-7.3z" fill="#041B76"/><path d="M47.853.221l-31.19.295c-2.949 0-5.603 1.622-7.078 4.203L.737 20.866c-.442.885.148 1.917 1.18 1.917l4.13-.073c3.612 0 7.004-1.991 8.773-5.162 2.286-4.055 5.825-9.216 8.922-10.248l22.71-1.844 1.4-5.235z" fill="url(#o)" transform="translate(0 24.332)"/><path d="M14.23 24.848c-.368.147-.59.295-.59.59-3.096 1.327-4.645 4.792-6.93 8.921-2.95 5.31-8.553 12.314-4.793 12.756 3.687.443 7.52-.663 7.52-.663s6.637-10.028 10.028-15.263l14.23-6.562c-.147.073-17.695-.295-19.465.221z" fill="#FFF"/><path d="M44.608.221L17.18.516c-2.58 0-4.94 1.622-6.194 4.203L3.171 20.866c-.443.885.147 1.917 1.032 1.917h3.613c3.17 0 6.12-1.99 7.742-5.16 2.064-4.056 5.087-9.217 7.815-10.25l21.604-4.792-.369-2.36z" fill="url(#p)" transform="translate(129.77 28.018)"/><path d="M142.747 28.608c-.369.148-.516.295-.516.59-2.876 1.327-4.35 4.793-6.489 8.922-2.728 5.309-7.963 12.313-4.498 12.756 3.466.442 7.005-.664 7.005-.664s6.194-10.028 9.364-15.263l13.346-6.562s-16.516-.295-18.212.221z" fill="#FFF"/><path d="M55.447 135.005c.737 2.285.885 3.465-1.696 3.908l-2.654-4.867c-.369-.663.221-1.474.958-1.253 1.328.295 2.95.958 3.392 2.212z" fill="url(#q)"/><ellipse fill="#FFF" transform="rotate(-18.935 52.353 135.908)" cx="52.353" cy="135.908" rx="1.843" ry="2.949"/><path d="M106.765 140.977c-.737 2.286-.811 3.54 1.77 3.908l2.58-4.94c.369-.664-.22-1.475-.958-1.254-1.327.295-2.95.959-3.392 2.286z" fill="url(#r)"/><ellipse fill="#FFF" transform="rotate(-60.541 110.034 142.295)" cx="110.034" cy="142.295" rx="2.949" ry="1.843"/><path d="M168.406 106.47l14.525-79.115c.295-1.622 1.696-2.876 3.392-2.876l209.77-4.497c2.138-.074 3.907 1.843 3.613 3.981-.959 7.005-3.097 20.645-6.047 23.152-3.244 2.728-107.06 19.097-142.82 25.07-8.7 1.474-17.18 4.055-25.143 7.815l-57.29 26.47z" fill="#322F90"/><path d="M240.959 74.396S298.47 11.06 341.235 11.207c32.074.074 61.494-.81 58.397 12.83-.664 2.802-2.507 10.101-3.318 15.779-.516 3.465-2.728 7.373-2.728 7.373-20.867 4.645-50.139 8.48-73.88 12.535-40.922 7.004-78.747 14.672-78.747 14.672z" fill="url(#s)" opacity=".2"/><path d="M60.903 14.894l91.282.295c19.612.516 39.225.074 58.765-1.401l53.75-3.982s-2.875-8.184-24.479-8.626C218.471.81 71.152-4.571 60.903 14.894z" fill="url(#t)"/><path d="M161.032 152.258l7.374-45.788 32-14.82-8.11 68.498s-11.135 1.99-20.794 3.096c-6.193.811-11.502-4.718-10.47-10.986z" fill="url(#u)" opacity=".2"/></g><path d="M321.655 173.673l12.166-1.475 3.023-.59 55.3-2.875 154.322 13.198c1.696.221 1.77 2.654.074 2.876l-78.304 15.631c-6.415.885-12.977.811-19.318-.295L325.34 178.171l-4.276-.738.516-.147c-5.972-1.77.074-3.613.074-3.613z" fill="#041B76"/><path d="M349.157 151.774c3.023-.073 5.53 6.046 5.677 13.567.074 7.52-2.285 13.715-5.308 13.715l-6.563.073-.368-27.355h6.562zM518.226 149.341c3.687-.074 6.784 7.373 6.858 16.59.147 9.217-2.729 16.664-6.415 16.737l-7.963.074-.443-33.327 7.963-.074z" fill="#041B76"/><path d="M.221 17.475c.148 9.216 3.244 16.59 6.857 16.59 3.687-.074 6.563-7.521 6.415-16.738-.147-9.216-3.17-16.59-6.857-16.59C2.949.811.074 8.332.221 17.475z" fill="url(#v)" transform="translate(503.627 148.678)"/><path d="M446.706 161.286c3.465-.074 6.414 7.005 6.562 15.705.147 8.774-2.58 15.853-6.12 15.926l-7.595.074-.442-31.631 7.595-.074z" fill="#041B76"/><path d="M549.563 149.784l-1.622-13.715c-.295-2.728-.074-3.023-1.917-5.014-1.991-2.064-7.964-6.267-10.47-7.741l-14.452-8.111-20.055-23.226a27.328 27.328 0 0 0-20.13-10.544c-81.548-4.202-145.548 4.94-152.405 5.604-2.138.221-4.867 1.327-6.267 2.507-.295.221-.517.516-.811.737-3.318 4.793-3.466 14.01-4.277 19.466-.664 4.719-1.327 9.437-1.99 14.083l-.075 22.046c.074 4.055 1.475 7.963 4.13 11.133l.073.074 3.908 5.604c1.327 1.622 3.244 2.728 5.309 2.95l20.498 2.58 83.76 10.617 3.54.074 36.792 4.35c2.138.369 4.276.443 6.415.148l20.129-3.318 42.617-9.733c2.728-.442 7.89-2.728 8.185-5.53.368-3.17 1.106-7.3 1.4-10.47.295-1.77-.663-3.613-2.285-4.571z" fill="#F895A2"/><path d="M233.512 71.226s-13.715 7.816-28.092 9.954c-21.088 3.097-37.825 4.35-49.18 3.244-1.622-.147-16.516-1.475-18.212-2.654-1.696-1.18-5.309-5.162-.148-5.31 5.235-.147 29.125 3.761 29.125 3.761l-2.95-10.175c-2.654-3.17-7.889-.885-9.806-4.498l20.203 6.784c-.738-5.014-3.908-9.364-8.48-11.502L134.49 45.714a61.621 61.621 0 0 1-3.097-8.995c-2.876-11.207-14.23-29.64-17.254-30.6-5.013-1.474-4.35-1.253-6.193-1.4C96.59 3.908 51.17.369 10.1 7.742c0 0-.884.147-2.064.811-4.572 4.719-4.645 14.968-5.53 21.088-.664 4.792-1.327 9.585-2.065 14.377-.147 2.286-.368 4.867-.368 7.595.073 6.046.516 12.46.442 16.442 0 1.033.295 2.139.811 3.023l.443.738c1.327 2.36 2.433 4.792 3.17 7.373.664 2.286 2.654 5.53 8.922 6.341 8.258 1.032 114.064 14.23 146.433 17.99 5.235.59 55.447-11.133 68.055-13.271 1.918-.295 3.466-1.696 3.982-3.613 1.18-4.424 2.95-12.313 1.18-15.41z" fill="url(#w)" transform="translate(314.871 80.106)"/><path d="M120.774 59.429S75.944 45.272 2.95 45.567l-.737 8.995S41.217 46.6 120.774 59.43z" fill="url(#x)" transform="translate(314.871 80.106)"/><path d="M349.378 168.364s.59-24.11-7.373-23.963c-11.281-1.917-7.89 15.41-7.816 22.12l4.277.59 10.912 1.253z" fill="#041B76"/><path d="M22.415 85.456c.074 7.521 2.654 13.64 5.677 13.567 3.023-.074 5.383-6.193 5.309-13.714-.074-7.52-2.654-13.64-5.677-13.567-3.024.074-5.383 6.194-5.31 13.714z" fill="url(#y)" transform="translate(314.871 80.106)"/><path d="M23.89 85.456c.073 3.687 1.843 6.636 3.981 6.563 2.138 0 3.834-3.024 3.834-6.71 0-3.687-1.843-6.636-3.981-6.562-2.139.073-3.835 3.023-3.835 6.71z" fill="url(#z)" transform="translate(314.871 80.106)"/><path d="M24.553 85.456c.074 2.802 1.327 5.088 2.802 5.014 1.475 0 2.728-2.286 2.654-5.087-.073-2.802-1.327-5.088-2.802-5.014-1.474 0-2.728 2.285-2.654 5.087z" fill="url(#A)" transform="translate(314.871 80.106)"/><g fill="#8C8E8B"><path d="M343.922 161.728c-1.106.516-1.843 2.065-1.77 3.76.074 1.697.811 3.171 1.917 3.687.517-.958.812-2.285.812-3.76 0-1.401-.37-2.728-.959-3.687z"/><path d="M343.922 161.728c-1.106.516-1.843 2.065-1.77 3.76.074 1.697.811 3.171 1.917 3.687.517-.958.812-2.285.812-3.76 0-1.401-.37-2.728-.959-3.687z"/></g><path d="M446.927 180.53s.663-27.87-8.48-27.723c-13.05-2.212-9.142 17.843-8.995 25.585l5.014.664 12.46 1.474z" fill="#041B76"/><path d="M118.12 97.254c.147 8.774 3.023 15.778 6.562 15.705 3.466-.074 6.267-7.152 6.12-15.927-.147-8.774-3.023-15.778-6.562-15.705-3.54.074-6.268 7.152-6.12 15.927z" fill="url(#B)" transform="translate(314.871 80.106)"/><path d="M119.816 97.18c.074 4.276 2.138 7.668 4.645 7.594 2.507-.073 4.498-3.539 4.424-7.742-.074-4.276-2.138-7.668-4.645-7.594-2.507.074-4.498 3.54-4.424 7.742z" fill="url(#C)" transform="translate(314.871 80.106)"/><path d="M120.553 97.18c.074 3.244 1.475 5.825 3.244 5.825 1.77 0 3.097-2.655 3.097-5.899s-1.475-5.825-3.244-5.825c-1.77 0-3.17 2.655-3.097 5.899z" fill="url(#D)" transform="translate(314.871 80.106)"/><g fill="#8C8E8B"><path d="M440.66 172.862c-1.254.59-2.139 2.36-2.065 4.35.074 1.991.958 3.613 2.212 4.203.59-1.106.958-2.58.958-4.277-.073-1.622-.442-3.17-1.106-4.276z"/><path d="M440.66 172.862c-1.254.59-2.139 2.36-2.065 4.35.074 1.991.958 3.613 2.212 4.203.59-1.106.958-2.58.958-4.277-.073-1.622-.442-3.17-1.106-4.276z"/></g><path d="M472.29 143.148c-1.326.368-2.727.958-3.686 1.253a1.059 1.059 0 0 0-.295 1.843c3.17 2.507 10.323 10.618 12.461 12.83 2.212 2.212 10.544.811 14.083.074.737-.148 1.032-1.033.516-1.622l-9.143-9.807c-.073 0-5.53-6.71-13.935-4.571zM548.014 134.742s-.59 9.29-.073 10.323c.442 1.032 1.474 1.4 1.474 1.4l-1.4-11.723z" fill="#FCFCFC"/><path d="M546.76 169.618c1.033-.369 1.918-1.844.517-3.023-1.77-1.549-6.636 0-9.07.442-8.33 1.548-28.312 6.267-31.925 6.783-4.646.59-8.553 7.005-8.553 7.005l49.032-11.207z" fill="#041B76"/><path d="M432.328 144.327s-7.964-.516-11.429 6.268c-3.465 6.783-1.106 17.696-1.106 17.696l3.466-.37s-1.991-20.054 13.05-20.423l-.074-2.655-3.907-.516z" fill="#DA6F88"/><path d="M451.498 118.152c-1.474-3.834-12.46-18.433-17.917-25.585a13.991 13.991 0 0 0-8.11-5.235c-8.701-1.99-11.355-1.696-14.23-.811-1.623.516-2.655 2.064-2.582 3.76l1.033 15.41c.737 7.521-1.328 13.862 6.193 14.526l37.53 2.949c0 .148 0 .148-1.917-5.014z" fill="#111D7F"/><path d="M459.977 122.281s38.784 14.083 47.558 16.074l8.848 1.99s-43.281-8.773-50.58-12.018c-7.3-3.391-8.775-5.898-5.826-6.046z" fill="#F8A2B0"/><path d="M141.567 40.406s1.475 4.202 9.364 4.276c7.89.148 58.249-7.078 58.249-7.078l-2.802-2.58L145.18 42.1l-3.613-1.695z" fill="url(#E)" transform="translate(314.871 80.106)"/><path d="M118.194 5.825l23.373 34.58c.811 1.18 2.138 1.844 3.613 1.77l61.198-7.078-17.032-19.76-5.825-6.563s-1.548-2.433-4.203-3.244c-5.53-1.622-19.17-2.065-57.069 0l-4.055.295z" fill="url(#F)" transform="translate(314.871 80.106)"/><path d="M453.415 123.314s-2.654-9.954-8.553-15.41l2.36 15.557 6.193-.147z" fill="#D86D87"/><path d="M436.162 107.313l4.571.074c.885 0 1.77.59 2.065 1.401l5.087 12.756c.148.442-.073.885-.516.958l-8.848 1.475c-1.253.221-2.433-.663-2.58-1.843l-1.991-12.092c-.295-1.549.81-2.802 2.212-2.729z" fill="#F895A2"/><path d="M401.065 86.226c-28.608.737-65.917 2.212-73.807 2.95-.958.073-4.424.515-5.013 1.179l-1.18.737c-2.802 4.793-3.023 13.493-3.76 18.655l-1.328 9.29c.295.221.664.369 1.033.369l79.41 1.032c2.875.074 5.382-2.138 5.603-5.014l2.581-25.511c.221-1.991-1.475-3.76-3.54-3.687z" fill="#111D7F"/><path d="M548.014 135.48l-.737 8.774c-.221 2.212-1.548 4.129-3.54 5.087-6.193 2.95-11.87 4.72-18.875 5.825-2.875.442-5.75.59-8.626.516l-11.355-.295c-1.327 0-2.655-.368-3.76-1.18l-12.535-8.921c-.738-.516-.443-1.696.442-1.843l19.023-1.475a252.806 252.806 0 0 0 37.973-5.972l1.99-.517z" fill="#041B76"/><path fill="url(#G)" opacity=".2" d="M179.244 5.456l12.24 31.042-22.415 3.097-50.875-33.77 47.41-1.77z" transform="translate(314.871 80.106)"/><path d="M53.161 7.816S27.724 3.244 2.138 39.373l51.834.664L76.83 6.93l-23.669.885z" fill="url(#H)" opacity=".2" transform="translate(314.871 80.106)"/></g></g></svg>
