<svg viewBox="0 0 792 250" xmlns="http://www.w3.org/2000/svg"><defs><linearGradient x1="50.128%" y1="99.94%" x2="50.128%" y2=".867%" id="a"><stop stop-color="#47A6FF" offset="0%"/><stop stop-color="#007AFF" offset="100%"/></linearGradient><linearGradient x1="49.858%" y1="100.065%" x2="49.858%" y2="1.026%" id="b"><stop stop-color="#47A6FF" offset="0%"/><stop stop-color="#007AFF" offset="100%"/></linearGradient><linearGradient x1="50.179%" y1="99.873%" x2="50.179%" y2="2.324%" id="c"><stop stop-color="#47A6FF" offset="0%"/><stop stop-color="#007AFF" offset="100%"/></linearGradient><linearGradient x1="50.013%" y1="99.83%" x2="50.013%" y2=".168%" id="d"><stop stop-color="#47A6FF" offset="0%"/><stop stop-color="#007AFF" offset="100%"/></linearGradient><linearGradient x1="49.479%" y1="96.817%" x2="49.479%" y2="3.31%" id="e"><stop stop-color="#47A6FF" offset="0%"/><stop stop-color="#007AFF" offset="100%"/></linearGradient><linearGradient x1="50.072%" y1="104.478%" x2="50.072%" y2="-1.585%" id="f"><stop stop-color="#D16480" offset="0%"/><stop stop-color="#FA919E" offset="100%"/></linearGradient><linearGradient x1="49.981%" y1="104.439%" x2="49.981%" y2="-1.623%" id="g"><stop stop-color="#D16480" offset="0%"/><stop stop-color="#FA919E" offset="100%"/></linearGradient><linearGradient x1="50.009%" y1="104.543%" x2="50.009%" y2="-1.519%" id="h"><stop stop-color="#D16480" offset="0%"/><stop stop-color="#FA919E" offset="100%"/></linearGradient><linearGradient x1="50.122%" y1="104.522%" x2="50.122%" y2="-1.54%" id="i"><stop stop-color="#D16480" offset="0%"/><stop stop-color="#FA919E" offset="100%"/></linearGradient><linearGradient x1="50.033%" y1="104.59%" x2="50.033%" y2="-1.473%" id="j"><stop stop-color="#D16480" offset="0%"/><stop stop-color="#FA919E" offset="100%"/></linearGradient><linearGradient x1="50.045%" y1="99.065%" x2="50.045%" y2="34.359%" id="k"><stop stop-color="#FFBA96" offset="0%"/><stop stop-color="#FFC398" offset="100%"/></linearGradient><linearGradient x1="49.985%" y1="105.41%" x2="49.985%" y2="38.192%" id="l"><stop stop-color="#FFD8AA" offset="0%"/><stop stop-color="#FFBE94" offset="100%"/></linearGradient><linearGradient x1="14.76%" y1="-10.788%" x2="87.341%" y2="46.122%" id="m"><stop stop-color="#CD6582" offset="0%"/><stop stop-color="#FB929F" offset="100%"/></linearGradient><linearGradient x1="50.612%" y1="98.127%" x2="50.612%" y2="-1.901%" id="n"><stop stop-color="#CD6582" offset="0%"/><stop stop-color="#FB929F" stop-opacity="0" offset="100%"/></linearGradient><linearGradient x1="48.958%" y1="98.536%" x2="48.958%" y2="-1.928%" id="o"><stop stop-color="#FAB7C0" offset="0%"/><stop stop-color="#FB929F" stop-opacity="0" offset="100%"/></linearGradient><linearGradient x1="103.649%" y1="92.302%" x2="6.721%" y2="15.444%" id="p"><stop stop-color="#FD919E" offset="0%"/><stop stop-color="#FDB4B1" offset="100%"/></linearGradient><linearGradient x1="89.627%" y1="7.612%" x2="41.057%" y2="58.19%" id="q"><stop stop-color="#CD6582" offset="0%"/><stop stop-color="#FB929F" offset="100%"/></linearGradient><linearGradient x1="103.767%" y1="10.747%" x2="29.621%" y2="117.558%" id="r"><stop stop-color="#CD6582" offset="0%"/><stop stop-color="#FB929F" offset="100%"/></linearGradient><linearGradient x1="102.494%" y1="-11.401%" x2="-.849%" y2="96.884%" id="s"><stop stop-color="#FD919E" offset="0%"/><stop stop-color="#FFC398" offset="100%"/></linearGradient><linearGradient x1="4.361%" y1="-8.859%" x2="109.209%" y2="73.3%" id="t"><stop stop-color="#FD919E" offset="0%"/><stop stop-color="#FFC398" offset="100%"/></linearGradient><linearGradient x1="93.207%" y1="6.3%" x2="25.496%" y2="56.426%" id="u"><stop stop-color="#FFD8AA" offset="0%"/><stop stop-color="#FFBE94" offset="100%"/></linearGradient><linearGradient x1="15.176%" y1="18.151%" x2="59.498%" y2="83.753%" id="v"><stop stop-color="#FFD8AA" offset="0%"/><stop stop-color="#FFBE94" offset="100%"/></linearGradient><linearGradient x1="49.923%" y1="105.124%" x2="49.923%" y2="38.106%" id="w"><stop stop-color="#FFD8AA" offset="0%"/><stop stop-color="#FFBE94" offset="100%"/></linearGradient><linearGradient x1="13.376%" y1="15.928%" x2="88.479%" y2="89.907%" id="x"><stop stop-color="#3679E0" offset="0%"/><stop stop-color="#8FD2FF" offset="100%"/></linearGradient><linearGradient x1="100%" y1="0%" x2="0%" y2="100%" id="y"><stop stop-color="#8FD2FF" offset="0%"/><stop stop-color="#3578DF" offset="100%"/></linearGradient></defs><g fill="none" fill-rule="evenodd"><path fill="#0082FF" fill-rule="nonzero" d="M412.1 198.1l-78-74.7L324 118l-32 33.2-5 33.8 68 70z"/><g fill-rule="nonzero"><path fill="#0068FF" d="M532.8 109.2h1v8.6h-1z"/><path d="M373.8 77.4v-1h-3.1c-.1-5.4-2.3-10.4-5.9-14l2.3-2.3-.7-.7-2.3 2.3c-3.7-3.5-8.6-5.6-14-5.7v-3.3h-1V56c-5.4.2-10.3 2.4-13.9 5.9l-2.4-2.4-.7.7 2.4 2.4c-3.4 3.6-5.6 8.5-5.7 13.9h-3.1v1h3.1c.1 5.4 2.3 10.2 5.7 13.9l-2.2 2.2.7.7 2.2-2.2c3.6 3.5 8.5 5.7 13.9 5.9v3h1v-3c5.4-.1 10.4-2.2 14-5.7l2 2 .7-.7-2-2c3.5-3.7 5.7-8.6 5.9-14h3.1v-.2zm-5.1-1h-17.9l12.6-12.6c3.2 3.3 5.1 7.7 5.3 12.6zm-6-13.3l-12.6 12.6V58c4.8.1 9.3 2 12.6 5.1zM349.1 58v17.7l-12.5-12.5c3.3-3.1 7.6-5 12.5-5.2zm-13.2 6l12.5 12.5h-17.6c.1-4.9 2-9.2 5.1-12.5zm-5.1 13.4h17.6l-12.5 12.5c-3.1-3.3-5-7.7-5.1-12.5zm5.8 13.2l12.5-12.5v17.7c-4.9-.1-9.2-2.1-12.5-5.2zm13.5 5.3V78.1l12.6 12.6c-3.3 3.2-7.8 5.1-12.6 5.2zm13.3-5.8l-12.6-12.6h17.9c-.2 4.8-2.1 9.3-5.3 12.6z" fill="#8FD2FF"/></g><path d="M215.2 105.9c1.5-10.1-5.8-19.4-14.5-18.2-2 .3-3.6 1-4.3 2.4-2.7 5.7-16.8 17.6-18.2 22.6-1.4 5-7.3 30.9 15.5 28 14.1-1.8 19.5-20.6 21.5-34.8z" fill="#0082FF" fill-rule="nonzero"/><g fill-rule="nonzero"><path fill="#007CFF" d="M445 47h24.4v31.1H445z"/><path fill="url(#a)" d="M8 .9L0 10v31.1h16V10z" transform="translate(429 37)"/><path fill="#0068FF" d="M437 37.9h21.6l10.8 9.1H445z"/></g><g fill-rule="nonzero"><path fill="#007CFF" d="M470.1 183.3h24.4v23.6h-24.4z"/><path fill="url(#b)" d="M8.1.2L.2 9.3v23.6h15.9V9.3z" transform="translate(454 174)"/><path fill="#0068FF" d="M462.1 174.2h21.6l10.8 9.1h-24.4z"/></g><g fill-rule="nonzero"><path fill="url(#c)" d="M.8 25.1h15V6H.8z" transform="translate(458 53)"/><path fill="#007CFF" d="M478.7 53.4l4.9 5.6v19.1h-9.8V59z"/><path fill="#0068FF" d="M478.7 53.4h-13.2l-6.7 5.6h15z"/></g><path fill="#0068FF" fill-rule="nonzero" d="M429 65.8l-5.9 12.3H435zM417.2 43.9l-5.9 12.3h11.8zM274.1 28l-8.9 18.4H282.9z"/><path fill="#0068FF" fill-rule="nonzero" d="M285.7 32.2l-6.9 14.2h13.7zM425.4 22l-5.9 12.4h11.9z"/><path fill="#0068FF" fill-rule="nonzero" d="M417.2 25.9l-4.1 8.5h8.2zM274.2 75.9l-5.9 12.3h11.9zM497.6 122.2l-8.2 17.1h16.4z"/><path fill="#0068FF" fill-rule="nonzero" d="M266 79.8l-4.1 8.4h8.2z"/><path fill="url(#d)" fill-rule="nonzero" d="M386.8 124.1h22.9v32.7h-22.9z" transform="translate(0 -26)"/><path fill="#0068FF" fill-rule="nonzero" d="M384.2 94.5h28v5.8h-28zM384.2 106.9h28v5.8h-28zM384.2 119.3h28v5.8h-28z"/><path d="M544.7 134.4v-8.8h-22.8v8.8H511v17.5h8.9v-5c0-1.1.9-2 2-2s2 .9 2 2v5h7.4v-5c0-1.1.9-2 2-2s2 .9 2 2v5h7.4v-5c0-1.1.9-2 2-2s2 .9 2 2v5h8.9v-17.5h-10.9z" fill="#007CFF" fill-rule="nonzero"/><path d="M536.8 115.7h-7.2c-4.3 0-7.8 3.5-7.8 7.8v2.1h22.8v-2.1c.1-4.3-3.4-7.8-7.8-7.8zM363.6 106.9h14.3v23.9h-14.3z" fill="#0068FF" fill-rule="nonzero"/><path fill="url(#e)" fill-rule="nonzero" d="M358.8 144.8h9.6v11.9h-9.6z" transform="translate(0 -26)"/><g fill="#007CFF" fill-rule="nonzero"><path d="M484.6 187.1H480v-5.8c0-1 .8-1.8 1.8-1.8h1c1 0 1.8.8 1.8 1.8v5.8zM491 187.1h-4.7v-5.8c0-1 .8-1.8 1.8-1.8h1c1 0 1.8.8 1.8 1.8v5.8h.1zM478.3 187.1h-4.7v-5.8c0-1 .8-1.8 1.8-1.8h1c1 0 1.8.8 1.8 1.8v5.8h.1z"/></g><path d="M268.6 122.4c0-10-8.1-18.1-18.1-18.1-10 0-18.1 8.1-18.1 18.1 0 4.1 1.4 7.9 3.7 11l.2.3c.1.1.2.3.3.4l13.8 16.9 13.8-16.9c.1-.1.2-.3.3-.4l.2-.3c2.5-3.1 3.9-6.9 3.9-11zm-18.1 6.2c-3.7 0-6.6-3-6.6-6.6 0-3.7 3-6.6 6.6-6.6 3.7 0 6.6 3 6.6 6.6 0 3.6-2.9 6.6-6.6 6.6z" fill="url(#f)" fill-rule="nonzero" transform="translate(0 -26)"/><path d="M483.3 19c0-10-8.1-18.1-18.1-18.1-10 0-18.1 8.1-18.1 18.1 0 4.1 1.4 7.9 3.7 11l.2.3c.1.1.2.3.3.4l13.8 16.9 13.8-16.9c.1-.1.2-.3.3-.4l.2-.3c2.4-3.1 3.9-6.9 3.9-11zm-18.1 6.2c-3.7 0-6.6-3-6.6-6.6 0-3.7 3-6.6 6.6-6.6 3.7 0 6.6 3 6.6 6.6 0 3.6-3 6.6-6.6 6.6z" fill="url(#g)" fill-rule="nonzero" transform="translate(0 -26)"/><path d="M592.8 146.2L515 68.5l70.1-70.1-8.5-8.5L446 120.5 363.5 38c-9.6-9.6-25.3-9.6-35 0L293 73.5l-85.2-85.2-8.5 8.5 5.5 5.5L155 52.2l22.2 22.2-55.7 55.6-65-65-8.5 8.5 107.7 107.7-72.401 71.5 3.5 3.5 72.401-71.5 33.7 33.7 53.4-53.4c2.5-2.5 6.7-2.5 9.2 0l104.1 104.1 8.5-8.5-7.7-7.7 47.5-47.5 59.2 59.2-.2.2 3.5 3.5.2-.2 6.5 6.5 8.5-8.5-6.5-6.5 49.5-49.5 55.9 55.9 3.5-3.5-55.9-55.9 60.7-60.4zM332 41.5c7.7-7.7 20.2-7.7 27.9 0l82.5 82.5-49.4 49.5L296.5 77 332 41.5zm-47.8 135.2l-20.1-20.1c-7.2-7.2-19-7.2-26.2 0L193 201.5l-68-68 59.2-59.2L162 52.2l46.3-46.3L319.5 117l-14.6 14.6c-11.1 11.1-18.3 25.8-20.2 41.5l-.5 3.6zm72.8 72.8l-68.3-68.3.9-7.6c1.8-14.5 8.4-28.2 18.8-38.5l14.6-14.6 81.5 81.5-47.5 47.5zm118.7 6.7L401.5 182l49.5-49.5 74.2 74.2-49.5 49.5zM454.5 129l57-57 74.2 74.2-57 57-74.2-74.2z" fill="#8FD2FF" fill-rule="nonzero"/><path d="M428.5 204.4c0-10-8.1-18.1-18.1-18.1-10 0-18.1 8.1-18.1 18.1 0 4.1 1.4 7.9 3.7 11l.2.3c.1.1.2.3.3.4l13.8 16.9 13.8-16.9c.1-.1.2-.3.3-.4l.2-.3c2.5-3.1 3.9-6.9 3.9-11zm-18.1 6.2c-3.7 0-6.6-3-6.6-6.6 0-3.7 3-6.6 6.6-6.6 3.7 0 6.6 3 6.6 6.6 0 3.7-2.9 6.6-6.6 6.6z" fill="url(#h)" fill-rule="nonzero" transform="translate(0 -26)"/><path d="M414.6 87.3c0-10-8.1-18.1-18.1-18.1-10 0-18.1 8.1-18.1 18.1 0 4.1 1.4 7.9 3.7 11l.2.3c.1.1.2.3.3.4l13.8 16.9L410.2 99c.1-.1.2-.3.3-.4l.2-.3c2.5-3.1 3.9-6.9 3.9-11zm-18.1 6.2c-3.7 0-6.6-3-6.6-6.6 0-3.7 3-6.6 6.6-6.6 3.7 0 6.6 3 6.6 6.6.1 3.7-2.9 6.6-6.6 6.6z" fill="url(#i)" fill-rule="nonzero" transform="translate(0 -26)"/><path d="M362 40l44.3-44.3" stroke="#8FD2FF" stroke-width="5"/><path d="M491.7 169c0-10-8.1-18.1-18.1-18.1-10 0-18.1 8.1-18.1 18.1 0 4.1 1.4 7.9 3.7 11l.2.3c.1.1.2.3.3.4l13.8 16.9 13.8-16.9c.1-.1.2-.3.3-.4l.2-.3c2.5-3 3.9-6.8 3.9-11zm-18.1 6.2c-3.7 0-6.6-3-6.6-6.6 0-3.7 3-6.6 6.6-6.6 3.7 0 6.6 3 6.6 6.6 0 3.7-2.9 6.6-6.6 6.6z" fill="url(#j)" fill-rule="nonzero" transform="translate(0 -26)"/><g transform="translate(555 23)" fill-rule="nonzero"><path d="M102.5 79.9s35.8 10.3 27.9-30c-3.5-17.7 2.5-28.1-12.4-38.4C103.2 1.1 91.4 22 91.4 22s-2.3 56.1 11.1 57.9zM58.2 34.3S27.9 79.6 78.4 79.9h12s-8-44.9-16.5-45.6c-8.5-.7-15.7 0-15.7 0z" fill="#1C2673"/><path fill="#0F1D5D" d="M63 47l9.4 32.6 10.2.3L86 68.8 65.9 44.3z"/><path fill="#FB929F" d="M104.4 90.1H76.6L81 65.9h19z"/><path d="M131.1 90.4l-38.8-8L49.4 91c-8.4 1.7-15.8 6.4-20.8 13.3-14.6 19.9-31.2 73-27.3 86.2 4.5 14.9 23.1 16.6 45.8-.6l-8.4 48.5h105.5l-9.3-47.8c13.6 8 26 4.6 30.1 3.1 7.5-2.7 9.9-13.4 7.5-21.8-.3-1.1-13.5-41-21.1-63.4-3-9.2-10.8-16.1-20.3-18.1zM30.9 170.2s7.4-22.4 12.1-32.8l2.7 30.4s-10.8 2.1-14.8 2.4zm115.6-8.7c-1.5.9-5-1.1-9.1-4.3l1-6.9c4.8 3.6 11.2 9.3 8.1 11.2z" fill="url(#k)"/><path d="M60.7 89.1s3.6 30.5 29.8 30.5c26.3 0 32-30.5 32-30.5H60.7z" fill="url(#l)"/><path d="M92.3 81.2l-31.7 7.9c0 12.1 9.8 15.1 21.9 15.1h18.1c12.1 0 21.9-3.1 21.9-15.1l-30.2-7.9z" fill="#FD919E"/><path fill="url(#m)" d="M80.3 69.6l-.7 3.8 24.8 16.7-3.7-20.5z"/><ellipse fill="#FB929F" cx="90.5" cy="38.8" rx="25.7" ry="33.6"/><g fill="#FB929F"><path d="M68.3 47.5h-3.8c-1.2 0-2.2-.8-2.3-2L60.8 37c-.2-1.5.9-2.8 2.3-2.8h5.2v13.3zM112.7 47.5h3.8c1.2 0 2.2-.8 2.3-2l1.4-8.5c.2-1.5-.9-2.8-2.3-2.8h-5.2v13.3z"/></g><circle fill="#0B40C0" cx="82.6" cy="44.8" r="2.1"/><circle fill="#0B40C0" cx="99.5" cy="44.8" r="2.1"/><path d="M83.8 53.3l3.4 4.1c1.8 2.2 4.6 2.2 6.4 0l3.4-4.1H83.8z" fill="url(#n)"/><path d="M87.7 55.6c1.4 2.4 4.2 2.4 5.6 0l.1-.1c.5-.8.6-1.9.4-3l-2.9-11.6-3.4 11.5c-.5 1.1-.3 2.3.2 3.2z" fill="url(#o)"/><g fill="#1C2673"><path d="M74 36.1c1.7-.4 3.5-.8 5.3-1 .9-.1 1.8-.3 2.7-.3.9 0 1.8.2 2.7.5v.1c-.9.2-1.8.3-2.7.4-.9.1-1.8 0-2.7.1-1.7.1-3.5.2-5.3.2zM107 36.2l-5.4-.3c-.9 0-1.8 0-2.7-.1-.9-.1-1.8-.2-2.7-.4v-.1c.9-.4 1.8-.5 2.7-.5.9-.1 1.8.1 2.7.3 1.9.3 3.6.6 5.4 1.1z"/></g><path d="M116.5 9.2c-14.4-15.5-30.7-6.7-38.3-.9-2.6 2-5.4 3.7-8.2 5.3-3.1 1.8-7.4 5.6-10 13.1-2.8 7.3-2.8 19.2 4.5 20.8 0 0 7.1-2.8 21.6-15.9 8.4 1 18.4 2.1 25 2.5l1.6 9.7c2.2-3.8 3.4-6.9 4-9.4.6 0 1-.1 1.2-.1 2.9-1.1 4.1-19.1-1.4-25.1zM83.6 61.1c1.2.5 2.3 1.1 3.4 1.6 1.1.4 2.3.7 3.5.7 1.2 0 2.4-.2 3.5-.7 1.1-.5 2.2-1.1 3.4-1.6-1 .8-1.9 1.7-3.1 2.3-.6.3-1.2.5-1.9.7-.6.2-1.3.2-2 .2s-1.3-.1-2-.2c-.6-.2-1.3-.4-1.9-.7-1-.7-2-1.5-2.9-2.3z" fill="#1C2673"/><path d="M87.2 65.7c.6 0 1.2.2 1.7.3.5.1 1.1.1 1.6.1s1.1 0 1.6-.1 1.1-.2 1.7-.3c-.5.4-.9.8-1.5 1-.6.2-1.2.4-1.8.4-.6 0-1.2-.1-1.8-.4-.6-.2-1.1-.6-1.5-1z" fill="#DE738B"/><path fill="#FD919E" d="M51.5 166.6l5.5 15.1 16.4-9.1-5.4-11.1zM144.6 161.5L134 174.7l-12.8-13.4 9-8.4z"/><path d="M130.2 152.9l-5.3-13s-11.1-6.4-12.5-6.2c-1.4.2-9.7 3.8-9.7 3.8l-1.5 3.8 10.9 9.8 8.9 10.2 9.2-8.4z" fill="#FD919E"/><path d="M118.9 136.6l-14.3-7.1s-2.2 2 5.8 7.5c8 5.4 8.5-.4 8.5-.4z" fill="#FD919E"/><path d="M120.4 137.3s-7.9-3.7-11.9-1.9c-4 1.8-4.6 7.7-4.6 7.7s1.5 4.9 2.5 5.1c1 .1 2.6 0 2.6 0s.6.6 2.6.4c2-.1 7.3-1.8 7.3-1.8s4.3 4.3 4.7 4.5V141l-3.2-3.7z" fill="url(#p)"/><path d="M101.4 172.6l-19.5-1.5c-1.1-.1-1.9-1.1-1.8-2.2l2.8-35.5c.1-1.1 1.1-1.9 2.2-1.8l19.5 1.5c1.1.1 1.9 1.1 1.8 2.2l-2.8 35.5c-.1 1-1.1 1.9-2.2 1.8z" fill="#1C2673"/><path d="M68 161.5l9.6-10.2s12.7-1.9 13.9-1.2c1.2.6 8.2 2.1 8.2 2.1l-2.1 9.6-12.2 4.6-12 6.2-5.4-11.1z" fill="#FD919E"/><path fill="url(#q)" d="M120.5 148.4l-1.6 9.7-9.9-9.9 9.9-1.4z"/><path fill="url(#r)" d="M77.6 151.3l4.2-4.5-.3 3.9z"/><path d="M85.4 150.3s12.7-1.4 13.3-1.2c.7.2 1.7 1-3.7 2.3-5.4 1.3-9.6-1.1-9.6-1.1z" fill="#FD919E"/><path d="M30.9 170.2s-8.9-2.2-10.8-1.5c-1.9.7-7.3 6.9-7.3 6.9l18.1-4v-1.4z" fill="url(#s)" opacity=".7"/><path d="M147.3 159.3s12.2-1.9 13-1.2c.8.8 6.9 5.6 7.1 8.1.3 2.5-1.3 5.5-1.3 5.5l-19.6-10.2.8-2.2z" fill="url(#t)" opacity=".7"/><circle fill="#FBFBFD" cx="88.3" cy="139.3" r="1.1"/><path fill="url(#u)" d="M51.5 166.6l5.5 15.1-9.8 8.3-31.7 11 1.4-26.3z"/><path d="M144.6 161.5l20.2 8.7 5.3 11.5c-3 7.2-10.3 11.5-18 10.7l-17.1-1.8-1-15.9 10.6-13.2z" fill="url(#v)"/><path d="M63 192.5l29.4 5.5 31.3-5.5-14.7 10.2c-10.3 7.1-24.1 6.8-34-.9l-12-9.3z" fill="url(#w)"/></g><path d="M736.5 34.4c-10.1 0-18.2 8.2-18.2 18.2 0 6.1 3 11.6 7.7 14.9l-.8 10.5 7.6-7.5c1.2.2 2.5.4 3.7.4 10.1 0 18.2-8.2 18.2-18.2.1-10.1-8.1-18.3-18.2-18.3zM773 99.5c-10.1 0-18.2 8.2-18.2 18.2 0 2.6.5 5 1.5 7.2l-6.3 5.7h10.2c3.3 3.3 7.8 5.3 12.8 5.3 10.1 0 18.2-8.2 18.2-18.2s-8.1-18.2-18.2-18.2z" fill="#FFF" fill-rule="nonzero"/><path d="M731.7 51.6c1.2 2.5 3.4 4.5 5.9 5.9l2-2c.3-.3.6-.4.9-.2 1 .4 2 .5 3.2.5.5 0 .9.4.9.9v3c0 .5-.4.9-.9.9-8.4 0-15.1-6.8-15.1-15.1 0-.5.4-.9.9-.9h3.1c.5 0 .9.4.9.9 0 1.1.2 2.1.5 3.2.1.3 0 .6-.2.9l-2.1 2zM773 118.5c-1.3 0-8-5.4-8-5.4v-.6c0-.7.6-1.3 1.3-1.3h13.4c.7 0 1.3.6 1.3 1.3v.7c0-.1-6.6 5.3-8 5.3zm0 1.8c1.4 0 8-5.2 8-5.2v8c0 .7-.6 1.3-1.3 1.3h-13.4c-.7 0-1.3-.6-1.3-1.3v-8s6.7 5.2 8 5.2z" fill="#82C9B4" fill-rule="nonzero"/><path fill="url(#x)" d="M8.516 43.85l70.58 69.745-8.498 8.493L.016 52.35z" transform="translate(0 -26)"/><path d="M4.562 200l75.9-75.9" stroke="url(#y)" stroke-width="10" transform="translate(0 -26)"/></g></svg>
