<svg viewBox="0 0 1440 488" xmlns="http://www.w3.org/2000/svg">
  <style>
    .cloud1 {
      animation: cloud1Translate 16s linear infinite;
    }
    .cloud2 {
      animation: cloud1Translate 16s linear infinite;
    }
    .cloud3 {
      animation: cloud1Translate 16s linear infinite;
      opacity: 0;
      animation-delay: 0;
    }
    .cloud4 {
      animation: cloud1Translate 16s linear infinite;
      opacity: 0;
      animation-delay: 0;
    }
    .cloud5 {
      animation: cloud1Translate 16s linear infinite;
      opacity: 0;
      animation-delay: 0;
    }

    .bus-animation {
      animation: transportTranslate 3.5s ease-in-out;
      transform: translate(52%, 56%);
    }

    .route-animation {
      animation: routeTranslate 5s ease-in-out;
      transform: translate(-2%, 3%);
    }

    @keyframes cloud1Translate {
      0% {
        opacity: 0;
      }
      20% {
        opacity: 1;
      }
      80% {
        opacity: 1;
      }
      100% {
        transform: translateX(20%);
        opacity: 0;
      }
    }

    @keyframes transportTranslate {
      0% {
        transform: translate(120%, 56%);
        visibility: visible;
      }
      20% {
        transform: translate(120%, 56%);
        visibility: visible;
      }
      100% {
        transform: translate(52%, 56%);
      }
    }

    @keyframes routeTranslate {
      0% {
        transform: translate(100%, 3%);
        visibility: visible;
      }
      20% {
        transform: translate(100%, 3%);
      }
      100% {
        transform: translate(-2%, 3%);
      }
    }
  </style>
  <defs>
    <linearGradient x1="50%" y1="99.33%" x2="50%" y2=".62%" id="a">
      <stop stop-color="#1A8BFC" offset="0%"/>
      <stop stop-color="#389BFF" offset="100%"/>
    </linearGradient>
    <linearGradient x1="58.819%" y1="96.399%" x2="44.964%" y2="13.145%" id="b">
      <stop stop-color="#0083FF" offset="0%"/>
      <stop stop-color="#0070F1" offset="100%"/>
    </linearGradient>
    <linearGradient x1="37.84%" y1="44.562%" x2="60.228%" y2="146.868%" id="c">
      <stop stop-color="#4EADFF" stop-opacity="0" offset="0%"/>
      <stop stop-color="#73D6BA" offset="100%"/>
    </linearGradient>
    <linearGradient x1="6.941%" y1="123.912%" x2="87.253%" y2="48.172%" id="d">
      <stop stop-color="#52ACFF" offset="0%"/>
      <stop stop-color="#1482FB" offset="100%"/>
    </linearGradient>
    <linearGradient x1="49.998%" y1=".305%" x2="49.998%" y2="99.346%" id="e">
      <stop stop-color="#1453D0" offset="0%"/>
      <stop stop-color="#0D8AFF" offset="100%"/>
    </linearGradient>
    <linearGradient x1="49.999%" y1="1.135%" x2="49.999%" y2="100.895%" id="f">
      <stop stop-color="#1453D0" offset="0%"/>
      <stop stop-color="#0D8AFF" offset="100%"/>
    </linearGradient>
    <linearGradient x1="50.012%" y1="-2.526%" x2="50.012%" y2="99.305%" id="g">
      <stop stop-color="#F1E0E2" offset="0%"/>
      <stop stop-color="#0081FF" stop-opacity="0" offset="100%"/>
    </linearGradient>
    <linearGradient x1="49.989%" y1="-19.087%" x2="49.989%" y2="162.233%" id="h">
      <stop stop-color="#F1E0E2" offset="0%"/>
      <stop stop-color="#62BCFF" stop-opacity="0" offset="100%"/>
    </linearGradient>
    <linearGradient x1="49.956%" y1="-17.69%" x2="49.956%" y2="126.697%" id="i">
      <stop stop-color="#F1E0E2" offset="0%"/>
      <stop stop-color="#62BCFF" stop-opacity="0" offset="100%"/>
    </linearGradient>
    <linearGradient x1="49.987%" y1="-19.167%" x2="49.987%" y2="163.452%" id="j">
      <stop stop-color="#F1E0E2" offset="0%"/>
      <stop stop-color="#62BCFF" stop-opacity="0" offset="100%"/>
    </linearGradient>
    <linearGradient x1="19.307%" y1="88.55%" x2="66.746%" y2="29.14%" id="k">
      <stop stop-color="#0083FF" offset="0%"/>
      <stop stop-color="#0070F1" offset="100%"/>
    </linearGradient>
    <linearGradient x1="49.973%" y1="99.606%" x2="49.973%" y2=".444%" id="l">
      <stop stop-color="#0083FF" offset="0%"/>
      <stop stop-color="#0D4DCD" offset="100%"/>
    </linearGradient>
    <linearGradient x1="50.077%" y1="98.42%" x2="50.077%" y2="-4.35%" id="m">
      <stop stop-color="#0083FF" offset="0%"/>
      <stop stop-color="#0D4DCD" offset="100%"/>
    </linearGradient>
    <linearGradient x1="49.986%" y1="98.409%" x2="49.986%" y2="-4.431%" id="n">
      <stop stop-color="#0083FF" offset="0%"/>
      <stop stop-color="#0D4DCD" offset="100%"/>
    </linearGradient>
    <linearGradient x1="50.044%" y1="100.715%" x2="50.044%" y2="3.171%" id="o">
      <stop stop-color="#62BCFF" offset="0%"/>
      <stop stop-color="#4EADFF" offset="100%"/>
    </linearGradient>
    <linearGradient x1="79.217%" y1="36.01%" x2="-22.47%" y2="74.232%" id="p">
      <stop stop-color="#1031AC" offset="0%"/>
      <stop stop-color="#1660D6" offset="100%"/>
    </linearGradient>
    <linearGradient x1="100.605%" y1="187.186%" x2="36.106%" y2="-25.32%" id="q">
      <stop stop-color="#1A8BFC" offset="0%"/>
      <stop stop-color="#36AFFF" offset="100%"/>
    </linearGradient>
    <linearGradient x1="-7466.831%" y1="6063.66%" x2="-59.823%" y2="143.54%" id="r">
      <stop stop-color="#071A6B" offset="0%"/>
      <stop stop-color="#0D34A6" offset="100%"/>
    </linearGradient>
    <linearGradient x1="-48.593%" y1="75.988%" x2="112.698%" y2="40.087%" id="s">
      <stop stop-color="#071A6B" offset="0%"/>
      <stop stop-color="#0D34A6" offset="100%"/>
    </linearGradient>
    <linearGradient x1="74.413%" y1="39.799%" x2="-11.663%" y2="75.781%" id="t">
      <stop stop-color="#1031AC" offset="0%"/>
      <stop stop-color="#123EB8" offset="100%"/>
    </linearGradient>
    <linearGradient x1="83.527%" y1="83.834%" x2="39.305%" y2="13.921%" id="u">
      <stop stop-color="#06207D" offset="0%"/>
      <stop stop-color="#0C2EB2" stop-opacity="0" offset="100%"/>
    </linearGradient>
    <linearGradient x1="145.954%" y1="11.123%" x2="9.209%" y2="83.504%" id="v">
      <stop stop-color="#06207D" offset="0%"/>
      <stop stop-color="#0B2DB1" stop-opacity="0" offset="100%"/>
    </linearGradient>
    <linearGradient x1="66.829%" y1="89.7%" x2="43.128%" y2="10.484%" id="w">
      <stop stop-color="#06207D" offset="0%"/>
      <stop stop-color="#0C2EB2" stop-opacity="0" offset="100%"/>
    </linearGradient>
    <linearGradient x1="95.146%" y1="99.492%" x2="-4.434%" y2="1.408%" id="x">
      <stop stop-color="#0A42C2" offset="0%"/>
      <stop stop-color="#62BCFF" offset="100%"/>
    </linearGradient>
    <linearGradient x1="52.989%" y1="37.302%" x2="42.779%" y2="111.581%" id="y">
      <stop stop-color="#F1E0E2" offset="0%"/>
      <stop stop-color="#0081FF" stop-opacity="0" offset="100%"/>
    </linearGradient>
    <linearGradient x1="94.92%" y1="36.005%" x2="-23.458%" y2="90.911%" id="z">
      <stop stop-color="#06207D" offset="0%"/>
      <stop stop-color="#0C2EB2" offset="100%"/>
    </linearGradient>
    <linearGradient x1="50.029%" y1="-19.17%" x2="50.029%" y2="162.886%" id="A">
      <stop stop-color="#0071F9" offset="0%"/>
      <stop stop-color="#0265E7" offset="100%"/>
    </linearGradient>
    <linearGradient x1=".009%" y1="49.995%" x2="99.981%" y2="49.995%" id="B">
      <stop stop-color="#0D4DCD" offset="0%"/>
      <stop stop-color="#0A4ED3" offset="100%"/>
    </linearGradient>
    <linearGradient x1="49.976%" y1="96.253%" x2="49.976%" y2="15.007%" id="C">
      <stop stop-color="#1A8BFC" offset="0%"/>
      <stop stop-color="#389BFF" offset="100%"/>
    </linearGradient>
    <linearGradient x1="50.086%" y1="96.522%" x2="50.086%" y2="15.287%" id="D">
      <stop stop-color="#0083FF" offset="0%"/>
      <stop stop-color="#0070F1" offset="100%"/>
    </linearGradient>
    <linearGradient x1="49.97%" y1="96.522%" x2="49.97%" y2="15.287%" id="E">
      <stop stop-color="#0083FF" offset="0%"/>
      <stop stop-color="#0070F1" offset="100%"/>
    </linearGradient>
    <linearGradient x1="50.353%" y1="96.307%" x2="50.353%" y2="15.08%" id="F">
      <stop stop-color="#0083FF" offset="0%"/>
      <stop stop-color="#0070F1" offset="100%"/>
    </linearGradient>
    <linearGradient x1="-.012%" y1="49.949%" y2="49.949%" id="G">
      <stop stop-color="#1A8BFC" offset="0%"/>
      <stop stop-color="#389BFF" offset="100%"/>
    </linearGradient>
    <linearGradient x1="39.002%" y1="37.901%" x2="80.95%" y2="84.283%" id="H">
      <stop stop-color="#158CFF" offset="0%"/>
      <stop stop-color="#0070F1" offset="100%"/>
    </linearGradient>
    <linearGradient x1="137.283%" y1="77.768%" x2="3.408%" y2="41.907%" id="I">
      <stop stop-color="#071A6B" offset="0%"/>
      <stop stop-color="#0D34A6" offset="100%"/>
    </linearGradient>
    <linearGradient x1="7.787%" y1="100.696%" x2="97.326%" y2="-.889%" id="J">
      <stop stop-color="#1453D0" offset="0%"/>
      <stop stop-color="#0D8AFF" offset="100%"/>
    </linearGradient>
    <linearGradient x1="8.007%" y1="100.726%" x2="99.08%" y2="-.039%" id="K">
      <stop stop-color="#1A8BFC" offset="0%"/>
      <stop stop-color="#389BFF" offset="100%"/>
    </linearGradient>
    <linearGradient x1="-58.877%" y1="92.072%" x2="164.226%" y2="14.999%" id="L">
      <stop stop-color="#1453D0" offset="0%"/>
      <stop stop-color="#0D8AFF" offset="100%"/>
    </linearGradient>
    <linearGradient x1="41.999%" y1="20.546%" x2="66.243%" y2="123.066%" id="M">
      <stop stop-color="#F1E0E2" offset="0%"/>
      <stop stop-color="#0081FF" stop-opacity="0" offset="100%"/>
    </linearGradient>
    <linearGradient x1="50.1%" y1="-19.389%" x2="50.1%" y2="162.13%" id="N">
      <stop stop-color="#F1E0E2" offset="0%"/>
      <stop stop-color="#62BCFF" stop-opacity="0" offset="100%"/>
    </linearGradient>
    <linearGradient x1="50.065%" y1="-17.894%" x2="50.065%" y2="126.635%" id="O">
      <stop stop-color="#F1E0E2" offset="0%"/>
      <stop stop-color="#62BCFF" stop-opacity="0" offset="100%"/>
    </linearGradient>
    <linearGradient x1="50.184%" y1="97.956%" x2="50.184%" y2="1.207%" id="P">
      <stop stop-color="#0754D8" offset="0%"/>
      <stop stop-color="#F895A2" offset="100%"/>
    </linearGradient>
    <linearGradient x1="49.854%" y1="100.504%" x2="49.854%" y2="-1.951%" id="Q">
      <stop stop-color="#0083FF" offset="0%"/>
      <stop stop-color="#0070F1" offset="100%"/>
    </linearGradient>
    <linearGradient x1="50.12%" y1="99.627%" x2="50.12%" y2="-1.66%" id="R">
      <stop stop-color="#0083FF" offset="0%"/>
      <stop stop-color="#0070F1" offset="100%"/>
    </linearGradient>
    <linearGradient x1="50.013%" y1="2.11%" x2="50.013%" y2="96.533%" id="S">
      <stop stop-color="#F1E0E2" offset="0%"/>
      <stop stop-color="#E8DDE4" offset="100%"/>
    </linearGradient>
    <linearGradient x1="50.14%" y1="1.964%" x2="50.14%" y2="96.749%" id="T">
      <stop stop-color="#EEDFE3" offset="0%"/>
      <stop stop-color="#73D6BA" offset="100%"/>
    </linearGradient>
    <linearGradient x1="50.046%" y1=".427%" x2="50.046%" y2="99.3%" id="U">
      <stop stop-color="#1453D0" offset="0%"/>
      <stop stop-color="#0D8AFF" offset="100%"/>
    </linearGradient>
    <linearGradient x1="50.044%" y1=".427%" x2="50.044%" y2="99.3%" id="V">
      <stop stop-color="#1453D0" offset="0%"/>
      <stop stop-color="#0D8AFF" offset="100%"/>
    </linearGradient>
    <linearGradient x1="-.052%" y1="50.106%" x2="99.626%" y2="50.106%" id="W">
      <stop stop-color="#8ECFFF" offset="0%"/>
      <stop stop-color="#7AC5FF" offset="100%"/>
    </linearGradient>
    <linearGradient x1=".022%" y1="49.964%" x2="100.046%" y2="49.964%" id="X">
      <stop stop-color="#8ECFFF" offset="0%"/>
      <stop stop-color="#7AC5FF" offset="100%"/>
    </linearGradient>
    <linearGradient x1="-.228%" y1="50.106%" x2="99.449%" y2="50.106%" id="Y">
      <stop stop-color="#8ECFFF" offset="0%"/>
      <stop stop-color="#7AC5FF" offset="100%"/>
    </linearGradient>
    <linearGradient x1=".254%" y1="50.106%" x2="99.932%" y2="50.106%" id="Z">
      <stop stop-color="#8ECFFF" offset="0%"/>
      <stop stop-color="#7AC5FF" offset="100%"/>
    </linearGradient>
    <linearGradient x1=".078%" y1="50.106%" x2="99.755%" y2="50.106%" id="aa">
      <stop stop-color="#8ECFFF" offset="0%"/>
      <stop stop-color="#7AC5FF" offset="100%"/>
    </linearGradient>
    <linearGradient x1="49.945%" y1="99.153%" x2="49.945%" y2="14.849%" id="ab">
      <stop stop-color="#8ECFFF" offset="0%"/>
      <stop stop-color="#7AC5FF" offset="100%"/>
    </linearGradient>
    <linearGradient x1="49.112%" y1="97.834%" x2="49.112%" y2="3.364%" id="ac">
      <stop stop-color="#8ECFFF" offset="0%"/>
      <stop stop-color="#7AC5FF" offset="100%"/>
    </linearGradient>
    <linearGradient x1="50.039%" y1="102.797%" x2="50.039%" y2="-2.956%" id="ad">
      <stop stop-color="#F1E0E2" offset="0%"/>
      <stop stop-color="#E8DDE4" offset="100%"/>
    </linearGradient>
    <linearGradient x1="2.629%" y1="6.624%" x2="96.784%" y2="92.827%" id="ae">
      <stop stop-color="#1453D0" offset="0%"/>
      <stop stop-color="#0D8AFF" offset="100%"/>
    </linearGradient>
    <linearGradient x1="51.309%" y1="16.06%" x2="48.204%" y2="206.631%" id="af">
      <stop stop-color="#9BB8E9" offset="0%"/>
      <stop stop-color="#0D8AFF" offset="100%"/>
    </linearGradient>
    <linearGradient x1="25.195%" y1="42.775%" x2="126.776%" y2="65.984%" id="ag">
      <stop stop-color="#1031AC" offset="0%"/>
      <stop stop-color="#1660D6" offset="100%"/>
    </linearGradient>
    <linearGradient x1="24.508%" y1="37.631%" x2="110.312%" y2="79.646%" id="ah">
      <stop stop-color="#1031AC" offset="0%"/>
      <stop stop-color="#123EB8" offset="100%"/>
    </linearGradient>
    <linearGradient x1="-46.225%" y1="10.871%" x2="90.817%" y2="83.363%" id="ai">
      <stop stop-color="#06207D" offset="0%"/>
      <stop stop-color="#0B2DB1" stop-opacity="0" offset="100%"/>
    </linearGradient>
    <linearGradient x1=".021%" y1="49.962%" x2="100.042%" y2="49.962%" id="aj">
      <stop stop-color="#1031AC" offset="0%"/>
      <stop stop-color="#123EB8" offset="100%"/>
    </linearGradient>
    <linearGradient x1="33.186%" y1="89.716%" x2="56.898%" y2="10.508%" id="ak">
      <stop stop-color="#06207D" offset="0%"/>
      <stop stop-color="#0C2EB2" stop-opacity="0" offset="100%"/>
    </linearGradient>
    <linearGradient x1="50.056%" y1="101.474%" x2="50.056%" y2="4.74%" id="al">
      <stop stop-color="#0265E7" offset="0%"/>
      <stop stop-color="#054CB7" offset="100%"/>
    </linearGradient>
    <linearGradient x1="50.1%" y1="101.426%" x2="50.1%" y2="4.67%" id="am">
      <stop stop-color="#0265E7" offset="0%"/>
      <stop stop-color="#054CB7" offset="100%"/>
    </linearGradient>
    <linearGradient x1="50.002%" y1=".251%" x2="50.002%" y2="99.942%" id="an">
      <stop stop-color="#1A8BFC" offset="0%"/>
      <stop stop-color="#389BFF" offset="100%"/>
    </linearGradient>
    <linearGradient x1=".011%" y1="48.277%" x2="100.543%" y2="48.277%" id="ao">
      <stop stop-color="#27A7FF" stop-opacity="0" offset="0%"/>
      <stop stop-color="#041B76" offset="26.44%"/>
      <stop stop-color="#021679" offset="66.18%"/>
      <stop stop-color="#0F91FF" stop-opacity="0" offset="100%"/>
    </linearGradient>
    <linearGradient x1="49.997%" y1="112.365%" x2="49.997%" y2="3.262%" id="ap">
      <stop stop-color="#AECEEB" offset="0%"/>
      <stop stop-color="#FFF" offset="100%"/>
    </linearGradient>
    <linearGradient x1="-.009%" y1="50.114%" x2="100.056%" y2="50.114%" id="aq">
      <stop stop-color="#CCE6FF" offset="0%"/>
      <stop stop-color="#FFF" offset="100%"/>
    </linearGradient>
    <linearGradient x1="53.286%" y1="120.502%" x2="48.479%" y2="16.005%" id="ar">
      <stop stop-color="#FDFDFD" stop-opacity="0" offset="0%"/>
      <stop stop-color="#FDFDFD" offset="100%"/>
    </linearGradient>
    <linearGradient x1="50.067%" y1="101.562%" x2="50.067%" y2="-81.3%" id="as">
      <stop stop-color="#06207D" offset="0%"/>
      <stop stop-color="#1484F9" offset="100%"/>
    </linearGradient>
    <linearGradient x1="49.912%" y1="101.562%" x2="49.912%" y2="-81.3%" id="at">
      <stop stop-color="#06207D" offset="0%"/>
      <stop stop-color="#1484F9" offset="100%"/>
    </linearGradient>
    <linearGradient x1="50.054%" y1="101.562%" x2="50.054%" y2="-81.3%" id="au">
      <stop stop-color="#06207D" offset="0%"/>
      <stop stop-color="#1484F9" offset="100%"/>
    </linearGradient>
    <linearGradient x1="49.997%" y1="82.443%" x2="49.997%" y2="-74.87%" id="av">
      <stop stop-color="#041B75" offset="0%"/>
      <stop stop-color="#0C2EB2" stop-opacity=".4" offset="100%"/>
    </linearGradient>
    <linearGradient x1="96.35%" y1="-.58%" x2="2.252%" y2="67.182%" id="aw">
      <stop stop-color="#AECEEB" offset="0%"/>
      <stop stop-color="#FFF" offset="100%"/>
    </linearGradient>
    <linearGradient x1="56.774%" y1="95.426%" x2="44.997%" y2="18.966%" id="ax">
      <stop stop-color="#A0BED9" offset="0%"/>
      <stop stop-color="#CDE7FF" offset="100%"/>
    </linearGradient>
    <linearGradient x1="14.837%" y1="101.481%" x2="104.564%" y2="-41.898%" id="ay">
      <stop stop-color="#041B75" offset="0%"/>
      <stop stop-color="#0C2EB2" stop-opacity=".4" offset="100%"/>
    </linearGradient>
    <linearGradient x1="49.822%" y1="100.299%" x2="49.822%" y2="1.628%" id="az">
      <stop stop-color="#888A87" offset="0%"/>
      <stop stop-color="#FDFDFD" offset="100%"/>
    </linearGradient>
    <linearGradient x1="50.11%" y1="100.299%" x2="50.11%" y2="1.628%" id="aA">
      <stop stop-color="#888A87" offset="0%"/>
      <stop stop-color="#FDFDFD" offset="100%"/>
    </linearGradient>
    <linearGradient x1="50.136%" y1="100.299%" x2="50.136%" y2="1.628%" id="aB">
      <stop stop-color="#888A87" offset="0%"/>
      <stop stop-color="#FDFDFD" offset="100%"/>
    </linearGradient>
    <linearGradient x1="89.629%" y1="98.641%" x2="29.628%" y2="33.177%" id="aC">
      <stop stop-color="#FDFDFD" stop-opacity="0" offset="0%"/>
      <stop stop-color="#FDFDFD" offset="100%"/>
    </linearGradient>
    <linearGradient x1="133.559%" y1="109.911%" x2="-42.994%" y2="-26.342%" id="aD">
      <stop stop-color="#A4BBEF" offset="0%"/>
      <stop stop-color="#FCFDFF" offset="100%"/>
    </linearGradient>
    <linearGradient x1="49.998%" y1="99.777%" x2="49.998%" y2="52.006%" id="aE">
      <stop stop-color="#0078FF" offset="0%"/>
      <stop stop-color="#054CB7" offset="100%"/>
    </linearGradient>
    <linearGradient x1="100.208%" y1="50.421%" x2=".312%" y2="50.421%" id="aF">
      <stop stop-color="#21A1FF" stop-opacity="0" offset="0%"/>
      <stop stop-color="#041B76" offset="29.15%"/>
      <stop stop-color="#041B76" offset="66.3%"/>
      <stop stop-color="#108EFF" stop-opacity="0" offset="100%"/>
    </linearGradient>
    <linearGradient x1="50.01%" y1="101.639%" x2="50.01%" y2="-81.891%" id="aG">
      <stop stop-color="#06207D" offset="0%"/>
      <stop stop-color="#1484F9" offset="100%"/>
    </linearGradient>
    <linearGradient x1="50.02%" y1="100.105%" x2="50.02%" y2="1.374%" id="aH">
      <stop stop-color="#888A87" offset="0%"/>
      <stop stop-color="#FDFDFD" offset="100%"/>
    </linearGradient>
    <linearGradient x1="49.832%" y1="101.639%" x2="49.832%" y2="-81.891%" id="aI">
      <stop stop-color="#06207D" offset="0%"/>
      <stop stop-color="#1484F9" offset="100%"/>
    </linearGradient>
    <linearGradient x1="49.661%" y1="100.105%" x2="49.661%" y2="1.374%" id="aJ">
      <stop stop-color="#888A87" offset="0%"/>
      <stop stop-color="#FDFDFD" offset="100%"/>
    </linearGradient>
    <linearGradient x1="-.064%" y1="50.042%" x2="100.065%" y2="50.042%" id="aK">
      <stop stop-color="#C67D9A" offset="0%"/>
      <stop stop-color="#F895A2" offset="100%"/>
    </linearGradient>
    <linearGradient x1="-.068%" y1="49.923%" x2="99.828%" y2="49.923%" id="aL">
      <stop stop-color="#C67D9A" offset="0%"/>
      <stop stop-color="#F895A2" offset="100%"/>
    </linearGradient>
    <linearGradient x1=".024%" y1="50.398%" x2="100.13%" y2="50.398%" id="aM">
      <stop stop-color="#C67D9A" offset="0%"/>
      <stop stop-color="#F895A2" offset="100%"/>
    </linearGradient>
    <linearGradient x1="106.137%" y1="175.81%" x2="35.937%" y2="9.664%" id="aN">
      <stop stop-color="#C67D9A" offset="0%"/>
      <stop stop-color="#F895A2" offset="100%"/>
    </linearGradient>
    <linearGradient x1="106.141%" y1="175.81%" x2="35.941%" y2="9.664%" id="aO">
      <stop stop-color="#C67D9A" offset="0%"/>
      <stop stop-color="#F895A2" offset="100%"/>
    </linearGradient>
    <linearGradient x1="5.009%" y1="98.45%" x2="120.523%" y2="-32.6%" id="aP">
      <stop stop-color="#041B75" offset="0%"/>
      <stop stop-color="#0C2EB2" stop-opacity=".4" offset="100%"/>
    </linearGradient>
    <linearGradient x1="64.041%" y1="123.471%" x2="36.884%" y2="-17.548%" id="aQ">
      <stop stop-color="#041B75" offset="0%"/>
      <stop stop-color="#0C2EB2" stop-opacity=".4" offset="100%"/>
    </linearGradient>
    <linearGradient x1="-.253%" y1="49.739%" x2="99.704%" y2="49.739%" id="aR">
      <stop stop-color="#C67D9A" offset="0%"/>
      <stop stop-color="#F895A2" offset="100%"/>
    </linearGradient>
    <linearGradient x1="61.671%" y1="190.675%" x2="34.091%" y2="-140.473%" id="aS">
      <stop stop-color="#041B75" offset="0%"/>
      <stop stop-color="#0C2EB2" stop-opacity=".4" offset="100%"/>
    </linearGradient>
    <linearGradient x1="108.703%" y1="-14.57%" x2="-.048%" y2="97.702%" id="aT">
      <stop stop-color="#FDFDFD" stop-opacity="0" offset="0%"/>
      <stop stop-color="#FDFDFD" offset="100%"/>
    </linearGradient>
    <linearGradient x1="49.909%" y1="100.044%" x2="49.909%" y2=".165%" id="aU">
      <stop stop-color="#C67D9A" offset="0%"/>
      <stop stop-color="#F895A2" offset="100%"/>
    </linearGradient>
    <linearGradient x1="89.601%" y1="91.707%" x2="29.737%" y2="35.792%" id="aV">
      <stop stop-color="#FDFDFD" stop-opacity="0" offset="0%"/>
      <stop stop-color="#FDFDFD" offset="100%"/>
    </linearGradient>
  </defs>
  <g fill="none" fill-rule="evenodd">
    <path fill="url(#a)" fill-rule="nonzero" d="M0 37h1441v451H0z"/>
    <path fill="#62BCFF" fill-rule="nonzero" d="M770 1h671v196.7H770z"/>
    <path fill="url(#b)" fill-rule="nonzero" d="M1370 37.5l-43.4 61.8h-34.1l-12.6 30h-48.4l-39.8 68.4h104.8l-3.3 24.6 147.8-21.9V36.5z"/>
    <g fill-rule="nonzero">
      <path fill="#4EADFF" d="M876 151l112.6-83.9L1112 187.7l-37.1 43.6L928 253.2l-18.4-50.8z"/>
      <path d="M205.7 121.6s3.9-11 12.6-13.2c8.7-2.2 15.4 5 23.4 3.1 7.9-1.9 6.4-8.7 11.3-11.6 4.9-2.9 9.3-1.4 10.8 0 1.4 1.4 22.3 21.8 22.3 21.8l-80.4-.1z" fill="url(#c)" transform="translate(826 66)"/>
      <path fill="url(#d)" d="M158.3 106.9l44.7-2.6 26 17.4-153 .3-75.3-.3L162.6.3l-28.4 42 48.5 1-22.5 50z" transform="translate(826 66)"/>
      <path fill="#3098FF" d="M917.8 135.5h-15.5l7.8-30z"/>
      <path fill="#1C8AFF" d="M961.1 100.4h-15.5l7.8-29.9z"/>
      <path fill="#1C8AFF" d="M967.9 96.8h-13.6l6.8-26.3z"/>
      <path fill="#4EADFF" d="M1034.1 90.4l-7.7 40h15.5z"/>
      <path fill="#4EADFF" d="M1048.7 126.3h-8.8l4.4-16.9zM1061.3 138.9h-8.7l4.4-16.9z"/>
    </g>
    <path fill="url(#e)" fill-rule="nonzero" d="M647 407.5l110.1-169.9h56.6l29-40H1441v209.9H707.1z"/>
    <path fill="#054CB7" fill-rule="nonzero" d="M803.3 281.5l-6.7-6.5 5.8 2.7-2.6-10-3.2-4.5 2.2.7-2.9-11.3-1.2-.6.9-.5-.9-3.3-1.5 5.8 1.5 1.2-2 .7-.9 3.6h2.9l-3.3 1.7-2.6 9.8 2.8-1.5-3.8 5.5-1.3 5 5.8-1.4-6.7 4.8-1.1 4.4 15.4 5.8 8.2.5z"/>
    <path fill="#054CB7" fill-rule="nonzero" d="M815.2 275.5l-6.8-6.5 5.8 2.7-2.6-10-3.2-4.5 2.2.6-2.9-11.2-1.2-.6.9-.5-.9-3.3-1.5 5.8 1.5 1.2-2 .7-.9 3.6h2.9l-3.3 1.7-2.6 9.8 2.8-1.5-3.8 5.5-1.3 4.9 5.8-1.4-6.7 4.9-1.1 4.4 15.4 5.7 8.2.6z"/>
    <path fill="url(#f)" fill-rule="nonzero" d="M984.9 407.9L934 320.3h-16.3l-29.2-35.7H653.6l17.5 123.3z"/>
    <path fill="#0265E7" fill-rule="nonzero" d="M810.9 305.6l-2.8-10.9-2.8 10.9h-.6l-5-19.4-5 19.4h-85.1l-1.9 3.4 200.1-.1-2.8-3.3z"/>
    <path d="M653.6 277s17.2-25.7 42.2-16.7c25 9 9.7 54.7 30 64.7 21 10.3 31 3.7 51 0s22 7.3 38 25.3 27.2 41 41.6 36c14.4-5 19.2-22 36.8-10 17.6 12 40.6 31.2 40.6 31.2H666.9L653.6 277z" fill="url(#g)" fill-rule="nonzero"/>
    <path d="M792.5 66.8s8.6-14.8 19-14.8S828 66.8 828 66.8s3.1-6.1 9.3-6.1c6.2 0 10.4 6.1 10.4 6.1l3.6 6.3s2.4-4 5.5-3.1c3.1.9 4.8 4.9 4.8 4.9h-77.8c0-.1-1.8-8.3 8.7-8.1z" fill="url(#h)" fill-rule="nonzero" class="cloud3"/>
    <path d="M826.1 55.4s12.9-22.2 28.5-22.2 24.9 22.2 24.9 22.2 4.7-9.1 14-9.1 15.7 9.1 15.7 9.1l5.3 9.5s3.6-6 8.3-4.7c4.7 1.4 7.2 7.3 7.2 7.3H813s-2.6-12.3 13.1-12.1z" fill="url(#i)" fill-rule="nonzero" class="cloud4"/>
    <path d="M927 99.8s-1.9-9.8-15.5-9.2c-8.5.3-13.6 9.2-13.6 9.2s-2.5-5.2-7.6-5.2-8.5 5.2-8.5 5.2l-2.9 5.4s-2-3.5-4.5-2.7c-2.5.8-3.9 4.2-3.9 4.2h63.6c0 .1 1.4-7-7.1-6.9z" fill="url(#j)" fill-rule="nonzero" class="cloud5"/>
    <path fill="url(#k)" fill-rule="nonzero" d="M770 .8l-212 .4 27 146.1 48.3 50.2H936l-19-19.1-12.1-25.1-24.1-4.5z"/>
    <path fill="#4EADFF" fill-rule="nonzero" d="M917 178.4l-12.1-25.1-24.1-4.5L772.5.8l-12.2.1 111 147.9 12.3 4.5 12.2 25.1 19.7 19.2h21.2z"/>
    <path d="M700.4.7s37.8 67.1 44.9 71.9c7.1 4.8 30.9 8.4 42.3 19.3 11.4 10.8 65 105.6 65 105.6h-89.9L654.6.7h45.8z" fill="#62BCFF" fill-rule="nonzero" opacity=".1"/>
    <path fill="#054CB7" fill-rule="nonzero" d="M714.1 101.5l-13.3-12.6 11.3 5.2-5-19.6-6.3-8.7 4.4 1.3-5.7-22-2.2-1.1 1.6-1.1-1.6-6.4-3 11.3 3 2.3-3.9 1.4-1.9 7.1h5.8l-6.6 3.3-4.9 19.1 5.4-3-7.5 10.9-2.5 9.5 11.3-2.7-13 9.5-2.2 8.6 25 21.5 25.7-2.6zM629.8 90.5l-13.2-12.7 11.3 5.3-5-19.6-6.3-8.7 4.3 1.2-5.6-21.9-2.3-1.2 1.7-1-1.7-6.4-2.9 11.3 2.9 2.3-3.9 1.4-1.8 7.1h5.7l-6.5 3.3-5 19L607 67l-7.5 10.8-2.5 9.6 11.3-2.7-13 9.5-2.2 8.6 13.6 36.6h41.7z"/>
    <path fill="url(#l)" fill-rule="nonzero" d="M708 197.6h-61l30.5-128.1z"/>
    <path fill="url(#m)" fill-rule="nonzero" d="M793.4 133.2h-27.7L779.6 54z"/>
    <path fill="#2992FF" fill-rule="nonzero" d="M620.1 149.2h285.7v3.4H620.1z"/>
    <path fill="#0265E7" fill-rule="nonzero" d="M1441 79h-100.2l2.4-3.4h97.8z"/>
    <path fill="url(#n)" fill-rule="nonzero" d="M759.6.8h-8.1L725 151.7h61.1z"/>
    <path d="M592.1 127.6v69.9h23.3v-35.9c0-11.4 9.2-20.6 20.6-20.6 11.4 0 20.6 9.2 20.6 20.6v35.9h12.5v-35.9c0-11.4 9.2-20.6 20.6-20.6 11.4 0 20.6 9.2 20.6 20.6v35.9h12.5v-35.9c0-11.4 9.2-20.6 20.6-20.6 11.4 0 20.6 9.2 20.6 20.6v35.9h12.5v-35.9c0-11.4 9.2-20.6 20.6-20.6 11.4 0 20.6 9.2 20.6 20.6v35.9h12.1v-69.9H592.1z" fill="url(#o)" fill-rule="nonzero"/>
    <path fill="#0265E7" fill-rule="nonzero" d="M1390.4 77.3h-15.5l7.8-30z"/>
    <path fill="#006DF6" fill-rule="nonzero" d="M1359.1 70.8h-11.7l5.8-22.6z"/>
    <path fill="#0071F9" fill-rule="nonzero" d="M1332.8 101.2h-11.7l5.8-22.6z"/>
    <path fill="#0265E7" fill-rule="nonzero" d="M1399.5 77.3h-9.1l4.6-17.6z"/>
    <path fill="url(#p)" fill-rule="nonzero" d="M589.3 1l111 406.5H449.9L426 418H129l-8.4 15.5H0V1z"/>
    <g fill-rule="nonzero">
      <path fill="url(#q)" d="M1205.5 191.6H1321V226L.6 196h482.2v-10.5l722.7.4" transform="translate(120 222)"/>
      <path d="M214 264.8c-4.4-24.8-21.5-42.1-47.4-42.1-30.1 0-44.6 22.4-46 40-1 13.7 0 170.9 0 170.9h19.5V283.8c0-16 12.2-29.2 27.8-30.7h.2c.4 0 .9-.1 1.3-.1h1.5c17 0 30.9 13.8 30.9 30.9l10 134.2h17.6c.1-.1-11-128.5-15.4-153.3z" fill="#105BD0"/>
      <path d="M168.1 253c.4 0 .9-.1 1.3-.1-.4.1-.8.1-1.3.1z" fill="#105BD0"/>
      <path d="M48.1 31c.4 0 .9-.1 1.3-.1-.4.1-.8.1-1.3.1z" fill="url(#r)" transform="translate(120 222)"/>
      <path d="M165 253.5c1-.2 2-.3 3-.4-15.6 1.5-27.8 14.7-27.8 30.7V418h59.7l-10-134.2c0-15-10.7-27.5-24.9-30.3z" fill="#105BD0"/>
      <path d="M45 31.5c1-.2 2-.3 3-.4-15.6 1.5-27.8 14.7-27.8 30.7V196h59.7l-10-134.2c0-15-10.7-27.5-24.9-30.3z" fill="url(#s)" transform="translate(120 222)"/>
      <path d="M169.5 252.9h1.5-1.5zM168 253h.2-.2zM171 252.9h-1.5c-.4 0-.9.1-1.3.1h-.2c-1 .1-2 .2-3 .4 14.2 2.8 24.9 15.3 24.9 30.3l10 134.2h12l-10-134.2c0-17-13.9-30.8-30.9-30.8z" fill="#118AFF"/>
    </g>
    <path d="M325.1 1.1S471.3 283.5 489.3 289c18 5.4 91 24.1 100 22 9-2.1-43.9-18.4-53-19.9-9.1-1.5-56.9-18.1-56.9-18.1L339.2.9l-14.1.2zM502.2 1l52 174.8 36.1 8.4 81.1 223.3h28.9L590.3 1z" fill="#0D4DCD" fill-rule="nonzero"/>
    <path d="M383.7 97.5l138.8-28.4M400.8 128.3l127-41.3M452 112l22.9 10.6 65.2 1.8" stroke="#0D4DCD" stroke-width="2"/>
    <path fill="url(#t)" fill-rule="nonzero" d="M602.8 418H405.3V284.6L521 344l81.8 50.5z"/>
    <path fill="url(#u)" fill-rule="nonzero" d="M292.7 47.4l23.7 45.2 81.9 104.1-8.6 58.7-9.3 41.2-13.8-.2-3.7-11.8-40.5-122"/>
    <path fill="url(#v)" fill-rule="nonzero" d="M571 376.9V418h-28.1l12.7-41.1z"/>
    <path d="M364.8 290.5l4.3 13.5s76 5.6 86.6 13.9c10.6 8.3 65.9 43.4 65.9 43.4s28.1 13.8 34 15.7c5.8 1.8 12.2-1.8 15.4 0 3.2 1.8 14.9 9.2 19.6 12 4.8 2.8 12.2 5.5 12.2 5.5s-43-34.2-58.9-44.3c-15.9-10.2-71.7-44.3-71.7-44.3s-10.6-2.8-17-3.7c-6.4-.9-74.8-5.5-74.8-5.5l-34.2-63.5 18.6 57.3z" fill="#0D4DCD" fill-rule="nonzero"/>
    <path fill="url(#w)" fill-rule="nonzero" d="M602.8 394.5L589.2 311l-109.8-38-59.7-110.4L549 191.9 630.9 296l-8.6 58.7 16.8 52.8h-36.3z"/>
    <path d="M221.8 1s27.3 76.8 34.4 81.6c7.1 4.8 30.9 8.4 42.3 19.3C309.9 112.7 405.3 418 405.3 418h-89.9L176 1h45.8z" fill="url(#x)" fill-rule="nonzero" opacity=".1"/>
    <path d="M310.3 488c-5-3.8-10.1-7.5-14.8-10.7-17.6-12-22.4 5-36.8 10-14.4 5-25.6-18-41.6-36s-18-29-38-25.3c-20 3.7-21 11.8-39 10.6-22.5-1.6-25.6-40.4-50.6-49.4s-42.2 16.7-42.2 16.7L64.9 488h245.4z" fill="url(#y)" fill-rule="nonzero"/>
    <path fill="#62BCFF" fill-rule="nonzero" d="M1295.7 116.3h23.8v6.4h-23.8z"/>
    <path d="M1360.2 139.9l12.5-29.4 9.9-4.8s5.8-7.9 6.1-9.4c.2-1.6 7.8-17.3 7.8-17.3h15.5l-23.5 60.9h-28.3z" fill="url(#A)" fill-rule="nonzero" opacity=".5"/>
    <path fill="#62BCFF" fill-rule="nonzero" d="M1353.7 116.3h23.8v6.4h-23.8z"/>
    <path fill="#0265E7" fill-rule="nonzero" d="M1269.5 140l-2.8-10.9-2.8 10.9h-.6l-5-19.3-5 19.3H1225l-2 3.4h156.7V140z"/>
    <path fill="#054CB7" fill-rule="nonzero" d="M1314 107.1h7.4l-3.9-21.6z"/>
    <g fill-rule="nonzero">
      <path fill="url(#B)" d="M119.5 12.8H83.3L82 .2h-1.9v8.6H32.4V.2h-1.8l-2.4 28.3h96z" transform="translate(1263 83)"/>
      <path fill="#054CB7" d="M1353.6 113.2h-38.4l9.7-12.8h19zM1281.8 107.5h9.4l-5-17.2zM1263.4 114.1h9.5l-5-17.1z"/>
      <path d="M28.2 28.5v-4h-9.4V45h40.3v11.5h24.8V45h40.3V28.5h-96zm10.1 10.8h-4.1v-4.1l2-1.6 2 1.6v4.1h.1zm7.8 0H42v-4.1l2-1.6 2 1.6v4.1h.1zm7.9 0h-4.1v-4.1l2-1.6 2 1.6v4.1h.1zm42.8 0h-4.1v-4.1l2-1.6 2 1.6v4.1h.1zm7.8 0h-4.1v-4.1l2-1.6 2 1.6v4.1h.1zm7.9 0h-4.1v-4.1l2-1.6 2 1.6v4.1h.1z" fill="url(#C)" transform="translate(1263 83)"/>
      <path fill="url(#D)" d="M9.3 42.6H59v13.9H9.3z" transform="translate(1263 83)"/>
      <path fill="url(#E)" d="M83.9 42.6h40.3v13.9H83.9z" transform="translate(1263 83)"/>
      <path fill="url(#F)" d="M.4 31.1h9.4v25.4H.4z" transform="translate(1263 83)"/>
    </g>
    <path fill="url(#G)" fill-rule="nonzero" d="M1419.5 110.5l-1.6 11.2-29.3 3.5-13.5 18.6h-28.5l-17.5 10.8-9.5 17.5-7.7 5.6-12.9 19.8 142 .1v-95.7z"/>
    <path fill="url(#H)" fill-rule="nonzero" d="M1351.1 143.8l-20.5 53.9h22.7l5.7-43.1 16.1-10.8z"/>
    <g fill-rule="nonzero">
      <path d="M1376.2 197.6s.2-32.7 0-35.9c-.3-4.1-3.7-9.2-10.6-9.2-6 0-9.9 4-10.9 9.7-1 5.7-3.6 35.4-3.6 35.4h25.1z" fill="#62BCFF"/>
      <path d="M13.6 7.4c-3.9 0-7.1 3.2-7.1 7.1l-2.3 31h16.6v-31c-.1-3.9-3.3-7.1-7.2-7.1z" fill="url(#I)" transform="translate(1351 152)"/>
      <path d="M1364.3 159.4c.5 0 .9 0 1.4.1-3.3.6-5.7 3.5-5.7 7l-2.3 31h-2.8l2.3-31c-.1-3.9 3.1-7.1 7.1-7.1z" fill="#118AFF"/>
    </g>
    <path d="M1422.9 109.6s-3.8 10.1-5.5 11.3c-1.8 1.2-7.8 2.1-10.7 4.9-2.9 2.8-27 71.9-27 71.9h22.7l33.1-88.1h-12.6z" fill="url(#J)" fill-rule="nonzero" opacity=".1"/>
    <path d="M1083.6 202s-10 27.3-14.3 30.1c-4.3 2.8-18.4 5-25.3 11.5-6.9 6.5-63.8 170-63.8 170h53.7l77-211.2-27.3-.4z" fill="url(#K)" fill-rule="nonzero" opacity=".2"/>
    <path fill="url(#L)" fill-rule="nonzero" opacity=".1" d="M1422.8 141.7l8 56H1420z"/>
    <path d="M1441 166s-5.5-5-10.4-2.4c-5.4 2.9-4.5 12.6-7.9 14.9-2.7 1.8-7.1.8-11.7 0s-5.1 1.7-8.7 5.8c-3.7 4.1-6.3 9.4-9.6 8.3-3.3-1.2-4.4-5.1-8.5-2.3s-9.3 7.2-9.3 7.2l66.1.2V166z" fill="url(#M)" fill-rule="nonzero"/>
    <path d="M1062.1 78.5s9.2-15.9 20.5-15.9 17.9 15.9 17.9 15.9 3.3-6.6 10-6.6 11.3 6.6 11.3 6.6l3.8 6.8s2.6-4.3 5.9-3.3c3.3 1 5.1 5.3 5.1 5.3h-84c.1-.1-1.8-9 9.5-8.8z" fill="url(#N)" fill-rule="nonzero" class="cloud1"/>
    <path d="M1108.9 66.2s13.9-23.9 30.7-23.9c16.8 0 26.9 23.9 26.9 23.9s5-9.9 15.1-9.9 16.9 9.9 16.9 9.9l5.8 10.2s3.9-6.5 8.9-5 7.7 7.9 7.7 7.9h-126.2c.1 0-2.7-13.3 14.2-13.1z" fill="url(#O)" fill-rule="nonzero" class="cloud2"/>
    <path d="M1132.3 112.5c.1 2.7.3 5.4.4 8.2.1 1.4.2 2.7.1 4.1-.1 1.4-.2 2.7-.5 4.1h-.1c-.3-1.4-.4-2.7-.4-4.1-.1-1.4 0-2.7.1-4.1.1-2.8.2-5.5.4-8.2zM838.8 126.5c.1 2.6.3 5.2.4 7.9.1 1.3.2 2.6.1 3.9-.1 1.3-.2 2.6-.5 3.9h-.1c-.3-1.3-.4-2.6-.5-3.9-.1-1.3 0-2.6.1-3.9.1-2.6.2-5.2.5-7.9zM1208.2 112.5c.1 2.7.3 5.4.4 8.2.1 1.4.2 2.7.1 4.1-.1 1.4-.2 2.7-.5 4.1h-.1c-.3-1.4-.4-2.7-.4-4.1-.1-1.4 0-2.7.1-4.1.1-2.8.2-5.5.4-8.2zM1170.3 99c.1 2.7.3 5.4.4 8.2.1 1.4.2 2.7.1 4.1-.1 1.4-.2 2.7-.5 4.1h-.1c-.3-1.4-.4-2.7-.4-4.1-.1-1.4 0-2.7.1-4.1 0-2.8.1-5.5.4-8.2z" fill="#0148D2" fill-rule="nonzero"/>
    <g fill-rule="nonzero">
      <path d="M927.7 140.4v-8.5l-3.7-15.6-2.8 11.6-6.7-28.2-6.7 28.2-2.8-11.6-3.7 15.6v8.5l3.7 1.5v21.3l-.7-1.2c-1.2-2-2.8-3.8-4.6-5.2-3.7-2.8-6.2-7-7-11.6l-.8-5.1-.8 5.1c-.7 4.6-3.2 8.8-7 11.6-1.9 1.4-3.4 3.2-4.6 5.2l-.7 1.2v-21.3l3.7-1.5v-8.5l-3.7-15.6-2.8 11.6-6.7-28.2-6.7 28.2-2.8-11.6-3.7 15.6v8.5l3.7 1.5v21.3h-3.1v4.3h3v30h26v-14.7l6.2-6 6.2 6v14.7h26v-30h3v-4.3H924v-21.3l3.7-1.5zm-55.5 16.9h-5.6v-6.9c0-1.5 1.2-2.8 2.8-2.8 1.5 0 2.8 1.2 2.8 2.8v6.9zm45.1 0h-5.6v-6.9c0-1.5 1.2-2.8 2.8-2.8 1.5 0 2.8 1.2 2.8 2.8v6.9z" fill="#054CB7"/>
      <path d="M914.6 88.7c.1 3.2.3 6.4.4 9.6.1 1.6.2 3.2.1 4.8-.1 1.6-.2 3.2-.5 4.8h-.1c-.3-1.6-.4-3.2-.5-4.8-.1-1.6 0-3.2.1-4.8.1-3.2.3-6.4.5-9.6zM869.4 88.7c.1 3.2.3 6.4.3 9.6.1 1.6.2 3.2.1 4.8-.1 1.6-.2 3.2-.5 4.8h-.1c-.3-1.6-.4-3.2-.5-4.8-.1-1.6 0-3.2.1-4.8.3-3.2.4-6.4.6-9.6z" fill="#0148D2"/>
    </g>
    <g fill-rule="nonzero">
      <path fill="#054CB7" d="M1301.2 167.7h-29.7l-9-4.8-8.8 4.8H1224v-14.9h77.2zM1239.8 143h10.8l-5.4-16.9zM1274.7 143h10.8l-5.4-16.9z"/>
      <path d="M61.5 41.7V17H50.7v24.7L38.6 24 26.5 41.7V17H15.7v24.7H0v29.8h18.1v-6.8c0-2.8 2.3-5.1 5.1-5.1s5.1 2.3 5.1 5.1v6.8h5v-6.8c0-2.8 2.3-5.1 5.1-5.1s5.1 2.3 5.1 5.1v6.8h5.1v-6.8c0-2.8 2.3-5.1 5.1-5.1s5.1 2.3 5.1 5.1v6.8H77V41.7H61.5zm-17.8 9.9H33.4v-6.9c0-2.8 2.3-5.2 5.2-5.2 2.8 0 5.2 2.3 5.2 5.2v6.9h-.1z" fill="url(#P)" transform="translate(1224 126)"/>
    </g>
    <g transform="translate(1178 51)" fill-rule="nonzero">
      <path d="M2 39.4v63h17.6v-63H2zM8.3 48H6.4v-3.4c0-.5.4-.9.9-.9s.9.4.9.9V48h.1zm3.4 0H9.8v-3.4c0-.5.4-.9.9-.9s.9.4.9.9V48h.1zm3.4 0h-1.9v-3.4c0-.5.4-.9.9-.9s.9.4.9.9V48h.1z" fill="url(#Q)"/>
      <path fill="url(#R)" d="M20.9 70.9l-1.3 2.2H2L.6 70.9V48h20.3z"/>
      <path fill="#1358D5" d="M6.4 19.3v9.5H15.1v-9.5zM11.5 28.8h.8M9.2 28.8h.9"/>
      <path d="M14.6 11.7v5.8C13.5 13.8 11.2 5.4 10.8.3 10.4 5.4 8.1 13.8 7 17.5v-5.8h-.6v7.7H15.2v-7.7h-.6zM19 31.8v6.3l-3.9-9.3H6.4l-3.9 9.3v-6.3H2v7.6h17.6v-7.6z" fill="#054CB7"/>
      <circle fill="#62BCFF" cx="10.8" cy="59.4" r="6.4"/>
    </g>
    <g fill-rule="nonzero">
      <path d="M1185.6 147v-4.9c0-2.5-1.7-4.8-4.1-5.5l-.6-.2h.4v-3.6c0-1.8-1.2-3.4-3-3.9l-.2-.1h.2v-2.6c0-1.3-.9-2.5-2.2-2.9l-3.1-.9v-6.1c0-1.6-1.3-2.9-2.9-2.9-1.6 0-2.9 1.3-2.9 2.9v6.1l-3.1.9c-1.3.4-2.2 1.5-2.2 2.9v2.6h.2l-.2.1c-1.8.5-3 2.1-3 3.9v3.6h.4l-.6.2a5.7 5.7 0 0 0-4.1 5.5v4.9h-4v50.5h38.8V147h-3.8zm-23.3 25.3h-7.3V158h7.3v14.3zm5.5-27c0-1.3 1.1-2.4 2.4-2.4 1.3 0 2.4 1.1 2.4 2.4v5.3h-4.8v-5.3zm6.2 27h-7.3V158h7.3v14.3zm11.5 0h-7.3V158h7.3v14.3z" fill="#1456D3"/>
      <path d="M1220.4 147l-5.4-5.9v-7.5h-3.9v-6.7h-5.9v6.7h-3.9v7.5l-5.4 5.9h-6.3v50.5h37.1V147h-6.3zm-20.2 25.3h-7.3V158h7.3v14.3zm5.7-27c0-1.3 1.1-2.4 2.4-2.4 1.3 0 2.4 1.1 2.4 2.4v5.3h-4.8v-5.3zm6 27h-7.3V158h7.3v14.3zm11.6 0h-7.3V158h7.3v14.3zM1147.6 147v-5.1h-6.1l-2.3-3.9v-4.5h-2.7l-1.2-2v-4.7h-5.9v5l-1.1 1.7h-2.8v4.6l-2.3 3.7h-6.2v5.1h-3.3v50.5h37.1V147h-3.2zm-17.6 1.2h4.8v2.5h-4.8v-2.5zm-5.7 24.1h-7.3V158h7.3v14.3zm11.7 0h-7.3V158h7.3v14.3zm11.6 0h-7.3V158h7.3v14.3z" fill="#054CB7"/>
    </g>
    <g fill-rule="nonzero">
      <path fill="url(#S)" d="M106.5 39.5v-7.9l3.2-2.7h-10v-9.8h1.3l3.2-3H6.3l3.1 3h1.3v9.8H.7L4 31.6v7.9h4l1.7 3.2H6.3l4.4 2.8v42.1h8.5v-42h5.6v42h8.5v-42H39v42h8.5v-42h15.4v42h8.5v-42h5.7v42h8.5v-42h5.7v42h8.4V45.5l4.5-2.8h-3.4l1.7-3.2z" transform="translate(1015 110)"/>
      <path d="M67.2 11.7c.8-2.9 2.3-9 1.5-9.3-1.1-.5-1.9 1.6-1.9 1.6s-1.6 2.4-2 2.8c-.5.5-1.4 1-1.4 1H61s-1.7-8-2.4-7.7c-.6.3-1.9 6.6-1.9 6.6l-.9 3.2-.9-3.2S53.6.4 53 .1c-.6-.3-2.4 7.7-2.4 7.7h-2.4s-.9-.5-1.4-1c-.5-.5-2-2.8-2-2.8s-.8-2-1.9-1.6c-.8.4.7 6.4 1.5 9.3h-8.2v17.2h39.2V11.7h-8.2z" fill="url(#T)" transform="translate(1015 110)"/>
    </g>
    <path fill="url(#U)" fill-rule="nonzero" d="M1145.4 172.1l-14.9 4.7v20.7h29.8v-20.7z"/>
    <path fill="url(#V)" fill-rule="nonzero" d="M1185.6 172.1l-14.9 4.7v20.7h29.8v-20.7z"/>
    <g fill-rule="nonzero">
      <path fill="url(#W)" d="M35.2 11.6h14.9v41.8H35.2z" transform="translate(922 144)"/>
      <path fill="url(#X)" d="M14.9 27.3h83.2v26.2H14.9z" transform="translate(922 144)"/>
      <path fill="url(#Y)" d="M.1 11.6H15v41.8H.1z" transform="translate(922 144)"/>
      <path fill="url(#Z)" d="M98.1 11.6H113v41.8H98.1z" transform="translate(922 144)"/>
      <path fill="#1454D1" d="M957.2 155.6l7.4-11.5 7.4 11.5zM1020.1 163.7h-83.2l-3.5 7.6h90.3zM922.1 155.6l7.4-11.5 7.4 11.5z"/>
      <path fill="url(#aa)" d="M63 11.6h14.9v41.8H63z" transform="translate(922 144)"/>
      <path fill="#1454D1" d="M985 155.6l7.4-11.5 7.5 11.5zM1020.1 155.6l7.5-11.5 7.4 11.5zM938.6 178.2h3.6v5.2h-3.6zM946.5 178.2h3.6v5.2h-3.6zM954.3 178.2h3.6v5.2h-3.6zM962.2 178.2h3.6v5.2h-3.6zM970 178.2h3.6v5.2H970zM977.9 178.2h3.6v5.2h-3.6zM1004.3 178.2h3.6v5.2h-3.6zM1012.1 178.2h3.6v5.2h-3.6z"/>
    </g>
    <g fill-rule="nonzero">
      <path fill="url(#ab)" d="M66.9 48.5l-2.7-5h-3.6v-7.3H45V25H22.4v11.2H6.9v7.3H3.3l-2.7 5h1.3v11.1h2.8V48.5h2.2v11.1h53.7V48.5h2.1v11.1h2.8V48.5z" transform="translate(805 138)"/>
      <path fill="url(#ac)" d="M31.7 4.3h4.1v8.6h-4.1z" transform="translate(805 138)"/>
      <path d="M839.1 146.6h-.8c-6 0-10.9 4.9-10.9 10.9v5.6H850v-5.6c0-6-4.9-10.9-10.9-10.9zM840.7 174.2h-4.1v-5.5c0-1.1.9-2 2-2s2 .9 2 2v5.5h.1zM838.8 138.2h-.1c-1.1 0-2 .9-2 2v2.1h4.1v-2.1c-.1-1.1-.9-2-2-2z" fill="#054CB7"/>
      <path fill="url(#ad)" d="M33.7 40.2l-17.6 8.2v11.2h2.8V48.4h2.6v11.2h2.8V48.4h2.5v11.2h2.8V48.4h8.2v11.2h2.8V48.4h2.5v11.2H46V48.4h2.5v11.2h2.8V48.4z" transform="translate(805 138)"/>
    </g>
    <path fill="#0265E7" fill-rule="nonzero" d="M1342.4 140.5h-15.5l7.8-30z"/>
    <path fill="#0265E7" fill-rule="nonzero" d="M1347.2 141.7h-9.6l4.8-18.6z"/>
    <path fill="#0265E7" fill-rule="nonzero" d="M1358 141.3h-13.8l6.9-26.7z"/>
    <path fill="url(#ae)" fill-rule="nonzero" opacity=".7" d="M1232.6 205l-4 85 39.4-31.6-35.4 103-6.6-19.7-3.3 66.2 218.3-.4V197.7z"/>
    <path d="M1315.3 379s-30.2-52-66.8-52c-36.6 0-58.4 52-58.4 52s-10.9-21.4-32.7-21.4c-21.8 0-36.8 21.4-36.8 21.4l-12.5 22.2s-8.5-14.2-19.4-10.9c-10.9 3.3-16.8 17.2-16.8 17.2H1346c-.1 0 6.2-28.9-30.7-28.5z" fill="url(#af)" fill-rule="nonzero"/>
    <path d="M1376.2 161.7c-.3-4.1-3.7-9.2-10.6-9.2-6 0-9.9 4-10.9 9.7-.5 2.9-1.4 11.9-2.2 20.1h.1c1.2-.2 2.3-.2 3.5-.2l1.2-15.5c0-3.9 3.2-7.1 7.1-7.1h.4c3.9 0 7.1 3.2 7.1 7.1v31h4.5c-.2 0 0-32.8-.2-35.9z" fill="#62BCFF" fill-rule="nonzero"/>
    <g fill-rule="nonzero">
      <path fill="url(#ag)" d="M94.6 20.9L51 165.9h134.9l12.9 5.7H219L217.5.9z" transform="translate(1222 242)"/>
      <path d="M1441.3 258.4s-44.9 82.8-54.6 85.8c-9.7 3-49 13-53.9 11.8-4.9-1.2 23.6-9.9 28.5-10.7 4.9-.8 30.6-9.7 30.6-9.7l45-82.6 4.4 5.4zM1356.2 271.4l-4.5 11.7-19.4 4.6-43.7 120.2H1273l43.6-145z" fill="#0D4DCD"/>
      <path fill="url(#ah)" d="M103.5 171.6H219l-.7-66.6-70.7 26.7-44.1 27.2z" transform="translate(1222 242)"/>
      <path fill="url(#ai)" d="M120.7 149.5v22.1h15.1l-6.8-22.1z" transform="translate(1222 242)"/>
      <path d="M1440.3 347s-31.9 3.7-35.3 4.2c-3.4.5-9.2 2-9.2 2s-30 18.4-38.6 23.9c-8.6 5.5-31.7 23.9-31.7 23.9s4-1.5 6.6-3c2.6-1.5 8.9-5.5 10.6-6.5 1.7-1 5.1 1 8.3 0 3.1-1 18.3-8.5 18.3-8.5s29.7-18.9 35.5-23.4c5.7-4.5 36.2-6.5 36.2-6.5l-.7-6.1z" fill="#0D4DCD"/>
      <path fill="url(#aj)" d="M19 118.8L.7 165.9h102.8l7.3-51.9z" transform="translate(1222 242)"/>
      <path fill="url(#ak)" d="M103.5 158.9l7.3-44.9L170 93.5 202.1 34l-69.6 15.8-44.1 56.1 4.6 31.6-9 28.4h19.5z" transform="translate(1222 242)"/>
      <path d="M1332.8 356h-80.5s-16 4.7-10 5.3c6 .7 25.7 0 25.7 0s-23 5-19 5.3c4 .3 81.7 0 81.7 0l2.1-10.6z" fill="#0D4DCD"/>
    </g>
    <path fill="url(#al)" fill-rule="nonzero" d="M864 305h-29.7v-21.4l14.9-12.5 14.8 12.5z"/>
    <path fill="url(#am)" fill-rule="nonzero" d="M834.3 284.3h-23v-16.6l11.5-9.7 11.5 9.7z"/>
    <path fill="url(#an)" fill-rule="nonzero" d="M842.7 197.4l389.9 7.4 208.4-7.3z"/>
    <g fill-rule="nonzero" class="bus-animation">
      <path d="M569 149H2c-.9 0-1.7.2-1.7-.7 0-.9.8-1.7 1.7-1.7h567c.9 0 1.7.8 1.7 1.7.1.9-.7.7-1.7.7z" fill="url(#ao)" transform="translate(0 0)"/>
      <g>
        <path d="M284.6 9.4c-.3-.3-10.3-7.7-39-8.1-29.1-.4-148-.4-148-.4S81.9 2 65.2 9.4h219.4z" fill="url(#ap)"/>
        <path fill="#041B76" d="M94.7 87.8h387.2v46.4H94.7z"/>
        <path d="M18.3 103.4s-1.8 3 .1 7.6c0 0-2.4 8.7-1.8 13.2.6 4.5.7 13.1 19.4 13.1h66.7c1.2 0 2.1-.9 2.1-2.1v-11.5c0-9.4 7.6-17 17-17h10.3c9.4 0 17 7.6 17 17v11.5c0 1.2.9 2.1 2.1 2.1h202.1c1.2 0 2.1-.9 2.1-2.1v-11.5c0-9.4 7.6-17 17-17h10.3c9.4 0 17 7.6 17 17v11.5c0 1.2.9 2.1 2.1 2.1h10.7c1.2 0 2.1-.9 2.1-2.1v-11.5c0-9.4 7.6-17 17-17h10.3c9.4 0 17 7.6 17 17v11.5c0 1.2.9 2.1 2.1 2.1h6.5l50-8.3c11.5-1.9 19.9-11.8 20-23.5.2-22.4.5-55.1.5-55.1l-.7-26.6s4.3-7.4 2.3-10.6c-1.5-2.4-5.4-3.1-22.9-3.1l-232.1-.9h-219c-7.3 3.3-14.8 7.7-21.3 13.9 0 .2-21.3 43.5-26 80.3z" fill="url(#aq)"/>
        <path d="M162.9 137.4l192.4-1.9v-11.7c0-9.4 7.6-17 17-17h10.3c9.4 0 17 7.6 17 17V135l15-.1v-11.1c0-9.4 7.6-17 17-17h10.3c9.4 0 17 7.6 17 17v10.7l22.7-.2c50.6-33.7 55.7-54.4 56.1-59.5v-1.3h-64.2c-177.8-.1-310.6 63.9-310.6 63.9z" fill="url(#ar)"/>
        <circle fill="url(#as)" cx="126.9" cy="128.1" r="19"/>
        <circle fill="url(#at)" cx="377.5" cy="128.1" r="19"/>
        <circle fill="url(#au)" cx="437.2" cy="128.1" r="19"/>
        <path d="M56.1 34.9L31.3 86.3c-.7 3.8.8 3.4.8 3.4l111.2-30c10.7-2.9 21.7-4.3 32.8-4.3h319.7c11.4 0 21.7-6.8 26.1-17.4l7.3-17.4H79.1c-9.8-.1-18.8 5.5-23 14.3z" fill="url(#av)"/>
        <path d="M63.1 20.5l-1.3 3.1-37 5-3.6.6c-2.1.4-4.1 1.6-5.4 3.3L5.3 46.6c-.8.9-5 .5-4.9-.7l9.3-15.2c2.9-4.7 7.8-7.6 13.3-8l40.1-2.2z" fill="url(#aw)"/>
        <path d="M32.4 77.4S26.3 95.9 23.3 98c-3 2.1-4.4 1.5-4.4 1.5s1.7-12.9 3.1-15.1c1.4-2.3 10.4-7 10.4-7z" fill="url(#ax)"/>
        <path d="M58.1 24.1L27.8 86.8c-.9 1.9-2.6 3.2-4.6 3.6l-2.9.6S28 55 42.8 26.1l15.3-2z" fill="url(#ay)"/>
        <circle fill="url(#az)" cx="377.5" cy="128.1" r="9.4"/>
        <circle fill="url(#aA)" cx="437.2" cy="128.1" r="9.4"/>
        <circle fill="url(#aB)" cx="126.9" cy="128.1" r="9.4"/>
        <path d="M212.6 56.2s86.3-34 202.9-34c116.6 0-8.5 32.7-8.5 32.7l-194.4 1.3z" fill="url(#aC)" opacity=".2"/>
        <path d="M538.1 73.4l-.3 32.2c-3 0-5.4-2.5-5.3-5.5.5-11.5 1.6-37.3 2.7-39.9 1.4-3.4 2.9-6.2 2.9-6.2v19.4z" fill="url(#aD)" opacity=".7"/>
        <path d="M18.8 110.8l14.9-3.7c.6-.2 1.2.4.9 1-.5 1.4-1.7 3.7-4.1 5.2-3.1 2-9.7.7-12 .2-.4-.1-.7-.5-.6-1l.3-1.2c.1-.2.3-.4.6-.5z" fill="#FFF"/>
      </g>
    </g>
    <path fill="url(#aE)" fill-rule="nonzero" d="M650.3 14.2l11.3 5.2L656.9 1h-20.3l-1.4 5.3 5.5-2.9-7.5 10.8-2.5 9.6L642 21l-13 9.6-1.6 5.9h40.5l-4.4-9.6z"/>
    <g fill-rule="nonzero" class="route-animation">
      <path d="M370.9 103.7H1.6c-.4 0-.7-.3-.7-.7 0-.9.8-1.7 1.7-1.7h369.3c.4 0 .7.3.7.7 0 1-.8 1.7-1.7 1.7z" fill="url(#aF)" transform="translate(927 326)"/>
      <path fill="#041B76" d="M1255.5 382.2H988.8l-1.2 30.3h266.7z"/>
      <g transform="translate(1009 400)">
        <circle fill="url(#aG)" cx="13.7" cy="14" r="13.3"/>
        <circle fill="url(#aH)" cx="13.7" cy="14" r="6.6"/>
      </g>
      <g transform="translate(1194 400)">
        <circle fill="url(#aI)" cx="13.4" cy="14" r="13.3"/>
        <circle fill="url(#aJ)" cx="13.4" cy="14" r="6.6"/>
      </g>
      <path d="M1249.5 326.4h-202.8c-6.7 0-13.1 2.9-17.5 8L996 372.8l-11.8 2.9c-4.1 1-7.2 4.2-8.1 8.3l-2.9 14.6c-1.2 0-2.1.9-2.1 2.1v11.5c0 2.8 2.2 5 5 5H1004.7c-.8-2.9-1-6.2 0-9.5 2.3-8.2 9.9-14.1 18.5-13.8 9.9.3 17.9 8.5 17.9 18.5 0 .7 0 1.5-.1 2.2-.2 1.4.9 2.6 2.4 2.6h143.5c1.4 0 2.5-1.2 2.4-2.7-.3-2.2-.2-4.5.5-6.9 2.3-8.2 9.9-14.1 18.4-13.8 9.9.3 17.9 8.5 17.9 18.5 0 .7 0 1.5-.1 2.2-.2 1.4.9 2.6 2.4 2.6h11.9l12-3.3c3.9-1.1 6.6-4.6 6.6-8.7v-69.8c-.3-4.8-4.4-8.9-9.4-8.9z" fill="#F895A2"/>
      <path d="M5 58.1l35.9-14.4s-10.2.4-9.4-4.5c0 0-27.5 10.7-26.5 18.9z" fill="url(#aK)" transform="translate(971 326)"/>
      <path d="M2.1 72.7s8.6-6.5 10.3-10.8c1.7-4.3-7.4-6-7.4-6L2.1 72.7z" fill="url(#aL)" transform="translate(971 326)"/>
      <path d="M979.4 391.8l3.1-5.7c.7-1.3 2-2.2 3.4-2.4l11.2-1.5c.9-.1 1.6.9 1 1.7-1.3 1.9-3.6 4.7-5.8 5.8-3.5 1.6-12.9 2.1-12.9 2.1z" fill="#FCFCFC"/>
      <path d="M27.3 77.5s-12.4 4.8-17.7 6c-4 .9-9.6.4-9.6.4v4.2c0 2.5 1.9 4.6 4.4 4.8 9.4.7 27.6 1.4 28.3.6.9-.9 1.6-.4 1.6-4.2v-10c0-2.2 1.1-3.3-1.2-3.2-1.6.2-3.7.5-5.8 1.4z" fill="url(#aM)" transform="translate(971 326)"/>
      <path d="M54.3 65.4s18.3-.8 18.3 18.3H76s2.2-21.9-21.9-21.9l.2 3.6z" fill="url(#aN)" transform="translate(971 326)"/>
      <path d="M239.9 65.4s18.3-.8 18.3 18.3h3.4s2.2-21.9-21.9-21.9l.2 3.6z" fill="url(#aO)" transform="translate(971 326)"/>
      <path d="M68.1 12.7L37.4 41.1c-.5.4-1.3.8-2.2 1-1.1.3-2.3-.1-3.1-1-.6-.7-.6-1.7 0-2.4C35.5 34.5 47.4 20 58.2 8.5l9.9 4.2z" fill="url(#aP)" transform="translate(971 326)"/>
      <path d="M40.1 44.1S69.9 14.5 77 13.6c6.1-.8 23.8-.2 28.4 0 .6 0 .9.6.7 1.1l-3.2 18.2c-2 5.9-2.3 10.3-7.6 11.8-.8.2-1.6.3-2.4.3l-52.8-.9z" fill="url(#aQ)" transform="translate(971 326)"/>
      <path d="M55.9 29v16.3l-15.8-1.1c0-.1 7.1-7.5 15.8-15.2z" fill="url(#aR)" transform="translate(971 326)"/>
      <path d="M279.4 12.7l-167.5 1c-1.4 0-2.6 1.2-2.6 2.6v29.8c0 1.4 1.2 2.6 2.6 2.6h167.7c1.4 0 2.6-1.2 2.6-2.6l-.2-30.8c0-1.5-1.2-2.6-2.6-2.6z" fill="url(#aS)" transform="translate(971 326)"/>
      <path d="M70 65.8s59.9-12.3 112.6-13.2h105V58s-119.1 2.3-141 2.9c-8.7.4-76.6 4.9-76.6 4.9z" fill="url(#aT)" opacity=".2" transform="translate(971 326)"/>
      <path d="M287.9 61.8l-.2 19.2c-1.8 0-3.2-1.5-3.2-3.3.3-6.9 1-23.5 1.6-25.1.8-2 1.7-3.7 1.7-3.7v12.9h.1z" fill="url(#aU)" transform="translate(971 326)"/>
      <path d="M114 48.7s74.3-27.4 143.9-27.4c69.6 0-2.2 27.4-2.2 27.4H114z" fill="url(#aV)" opacity=".2" transform="translate(971 326)"/>
    </g>
    <path d="M310.3 488c-5-3.8-10.1-7.5-14.8-10.7-17.6-12-22.4 5-36.8 10-14.4 5-25.6-18-41.6-36s-18-29-38-25.3c-20 3.7-21 11.8-39 10.6-22.5-1.6-25.6-40.4-50.6-49.4s-42.2 16.7-42.2 16.7L64.9 488h245.4z" fill="url(#y)" fill-rule="nonzero"/>
    <path fill="url(#z)" fill-rule="nonzero" d="M0 488h120.8L103 440.9l-53.1-50.7 45.4 20.9L75 332.8l-25.1-35.1 17.4 5-22.8-87.9-8.9-4.6 6.7-4.2-6.7-25.8-11.8 45.5 11.8 9-15.6 5.8-7.3 28.4h22.9L9.2 282.2 0 317.9v34.9l11.4-6.1L0 363.2v58.4l16.7-4L0 429.8z"/>
  </g>
</svg>
