<svg width="62" height="42" xmlns="http://www.w3.org/2000/svg"><defs><linearGradient x1="50.081%" y1="97.066%" x2="50.081%" y2=".997%" id="a"><stop stop-color="#1AA7FF" offset="0%"/><stop stop-color="#023AC2" offset="100%"/></linearGradient><linearGradient x1="49.844%" y1="96.577%" x2="49.844%" y2="-.402%" id="b"><stop stop-color="#6FD6B9" offset="0%"/><stop stop-color="#29AAFF" offset="100%"/></linearGradient></defs><g fill-rule="nonzero" fill="none"><path d="M9.1.7h50.2c1.1 0 2 .9 2 2v30.2H9.1V.7z" fill="#1AA7FF"/><path d="M54.2 6.4H9.1v26.5h47.7V9c0-1.5-1.1-2.6-2.6-2.6z" fill="url(#a)"/><path d="M30.5 18.1H9.2v14.8h22.3V19.1c0-.5-.5-1-1-1z" fill="#FB929F"/><path d="M25.7 21.4H14.9v-3.8c0-1.5 1.2-2.7 2.7-2.7h5.5c1.5 0 2.7 1.2 2.7 2.7v3.8h-.1zm-9.8-1h8.8v-2.8c0-.9-.7-1.7-1.7-1.7h-5.5c-.9 0-1.7.7-1.7 1.7v2.8h.1z" fill="#FB929F"/><path fill="#023AC2" d="M61.4 39l-3-2v1.5H12.2V37l-3.1 2 3.1 2.1v-1.6h46.2v1.6zM2.5 3.7H4l-2-3-2 3h1.5v26.2H0l2 3 2-3H2.5z"/><path d="M50.5 22.6H38.3v-6.1c0-3.4 2.7-6.1 6.1-6.1 3.4 0 6.1 2.7 6.1 6.1v6.1zm-11.3-1h10.2v-5.1c0-2.8-2.3-5.1-5.1-5.1s-5.1 2.3-5.1 5.1v5.1z" fill="#29AAFF"/><path fill="url(#b)" d="M36.8 16.5h15.1v16.4H36.8z"/></g></svg>
