<svg viewBox="0 0 59 50" width="59" height="50" xmlns="http://www.w3.org/2000/svg"><defs><linearGradient x1="-51.948%" y1="12.62%" x2="105.552%" y2="126.257%" id="a"><stop stop-color="#0B40C0" offset="0%"/><stop stop-color="#29AAFF" offset="100%"/></linearGradient><linearGradient x1="49.917%" y1="114.43%" x2="49.917%" y2="-24.632%" id="b"><stop stop-color="#6FD6B9" offset="0%"/><stop stop-color="#29AAFF" offset="100%"/></linearGradient></defs><g fill-rule="nonzero" fill="none"><path d="M17.1 17.6v20.7H54c2.6 0 4.7-2.1 4.7-4.7v-16H17.1z" fill="#29AAFF"/><path d="M53.8 29V8.3h.3c2.6 0 4.7 2.1 4.7 4.7v21c-.1-2.8-2.3-5-5-5z" fill="#0B40C0"/><g transform="translate(28 24)" fill="#FFF"><circle cx="10.5" cy="4" r="3.5"/><g transform="translate(0 2)"><circle cx="1.6" cy="1.8" r="1.2"/><circle cx="19.3" cy="1.8" r="1.2"/></g></g><path fill="url(#a)" d="M24.8 28.3l10 9.9h-10z"/><g transform="translate(0 33)"><path d="M19.6 7.9c0 2.1-4.2 3.8-9.5 3.8S.6 10 .6 7.9V4.1h18.9v3.8h.1z" fill="#0B40C0"/><ellipse fill="#29AAFF" cx="10.1" cy="4.1" rx="9.5" ry="3.8"/></g><g transform="translate(7 38)"><path d="M19.6 7.9c0 2.1-4.2 3.8-9.5 3.8S.6 10 .6 7.9V4.1h18.9v3.8h.1z" fill="#0B40C0"/><ellipse fill="#29AAFF" cx="10.1" cy="4.1" rx="9.5" ry="3.8"/></g><g transform="translate(7 32)"><path d="M19.6 8.1c0 2.1-4.2 3.8-9.5 3.8S.6 10.2.6 8.1V4.3h18.9v3.8h.1z" fill="#0B40C0"/><ellipse fill="#29AAFF" cx="10.1" cy="4.3" rx="9.5" ry="3.8"/></g><g transform="translate(7 26)"><path d="M19.6 8.3c0 2.1-4.2 3.8-9.5 3.8S.6 10.4.6 8.3V4.5h18.9v3.8h.1z" fill="#0B40C0"/><ellipse fill="#29AAFF" cx="10.1" cy="4.5" rx="9.5" ry="3.8"/></g><path fill="url(#b)" d="M21.5 9.6V.8h-8.8v8.8H7.5l9.6 8 9.7-8z"/></g></svg>
