<svg width="49" height="52" xmlns="http://www.w3.org/2000/svg"><defs><linearGradient x1="49.912%" y1="100.031%" x2="49.912%" y2=".059%" id="a"><stop stop-color="#6FD6B9" offset="0%"/><stop stop-color="#29AAFF" offset="100%"/></linearGradient><linearGradient x1="41.657%" y1="58.299%" x2="82.702%" y2="16.24%" id="b"><stop stop-color="#FFF" stop-opacity=".3" offset="0%"/><stop stop-color="#FFF" stop-opacity="0" offset="100%"/></linearGradient></defs><g fill="none" fill-rule="evenodd"><circle fill="#023AC2" fill-rule="nonzero" cx="24.7" cy="28" r="23.9"/><g transform="translate(5 8)" fill-rule="nonzero"><circle fill="#FFF" cx="19.7" cy="20" r="18.6"/><path d="M19.7 39.1C9.2 39.1.6 30.5.6 20 .6 9.5 9.2.9 19.7.9 30.2.9 38.8 9.5 38.8 20c0 10.5-8.6 19.1-19.1 19.1zm0-37.2C9.7 1.9 1.6 10 1.6 20c0 10 8.1 18.1 18.1 18.1 10 0 18.1-8.1 18.1-18.1 0-10-8.2-18.1-18.1-18.1z" fill="url(#a)"/></g><circle fill="#FB929F" fill-rule="nonzero" cx="24.7" cy="28" r="3.8"/><path d="M31.1 28.5h-6.5c-.3 0-.5-.2-.5-.5v-9.6c0-.3.2-.5.5-.5s.5.2.5.5v9.1h6c.3 0 .5.2.5.5s-.2.5-.5.5z" fill="#023AC2" fill-rule="nonzero"/><path d="M37.9 28c0 7.3-5.9 13.2-13.2 13.2-7.3 0-13.2-5.9-13.2-13.2 0-7.3 5.9-13.2 13.2-13.2" stroke="#1AA7FF" stroke-width="4"/><path d="M24.7 14.8c7.3 0 13.2 5.9 13.2 13.2" stroke="#FB929F" stroke-width="4"/><path fill="#023AC2" fill-rule="nonzero" d="M23 1.2h3.4V7H23z"/><path d="M27.4 2.3h-5.5c-.6 0-1-.4-1-1V1c0-.6.4-1 1-1h5.5c.6 0 1 .4 1 1v.3c0 .5-.4 1-1 1zM40.4 12.7c-.1 0-.3 0-.4-.1-.2-.2-.2-.5 0-.7l3.1-3.1c.2-.2.5-.2.7 0 .2.2.2.5 0 .7l-3.1 3.1c0 .1-.1.1-.3.1z" fill="#023AC2" fill-rule="nonzero"/><path d="M44.5 12.5c-.3 0-.5-.2-.5-.5s.2-.5.5-.5c1.8 0 3.3-1.5 3.3-3.3 0-1.8-1.5-3.3-3.3-3.3-1.8 0-3.3 1.5-3.3 3.3 0 .3-.2.5-.5.5s-.5-.2-.5-.5c0-2.4 1.9-4.3 4.3-4.3s4.3 1.9 4.3 4.3-1.9 4.3-4.3 4.3z" fill="#023AC2" fill-rule="nonzero"/><path d="M41 11.7c-9.1-9.1-23.9-9.1-33 0l33 33c9.1-9.1 9.1-23.9 0-33z" fill="url(#b)" fill-rule="nonzero"/></g></svg>
