<svg viewBox="0 0 51 64" width="51" height="64" xmlns="http://www.w3.org/2000/svg"><defs><linearGradient x1=".152%" y1="50%" x2="100.153%" y2="50%" id="a"><stop stop-color="#FB929F" offset="0%"/><stop stop-color="#0B40C0" offset="100%"/></linearGradient></defs><g fill-rule="nonzero" fill="none"><g><path fill="#0B40C0" d="M.7 22.7h27.9v7.5H.7z"/><path d="M21.2 30.2l-6.6-7.5L8 30.2H.7v17.6h10.5v-2.7c0-1.9 1.5-3.4 3.4-3.4s3.4 1.5 3.4 3.4v2.7h10.5V30.2h-7.3z" fill="#29AAFF"/><path fill="url(#a)" d="M14.6 59.5h29v1h-29z"/><circle fill="#FB929F" cx="14.6" cy="60" r="3.1"/><circle fill="#0B40C0" cx="43.6" cy="60" r="3.1"/><path d="M13.9.1c-2.7.3-5 2.5-5.5 5.2-.3 1.8.2 3.4 1.1 4.7 1.3 1.8 2.6 3.6 3.6 5.6l1.6 3 1.6-3.1c1-1.9 2.1-3.7 3.4-5.3.8-1.1 1.3-2.4 1.3-3.9 0-3.7-3.3-6.7-7.1-6.2zm.7 8.5c-1.1 0-2-.9-2-2s.9-2 2-2 2 .9 2 2c.1 1.1-.8 2-2 2zM42.9.1c-2.7.3-5 2.5-5.5 5.2-.3 1.8.2 3.4 1.1 4.7 1.3 1.8 2.6 3.6 3.6 5.6l1.6 3 1.6-3.1c1-1.9 2.1-3.7 3.4-5.3.8-1.1 1.3-2.4 1.3-3.9 0-3.7-3.3-6.7-7.1-6.2zm.7 8.5c-1.1 0-2-.9-2-2s.9-2 2-2 2 .9 2 2c.1 1.1-.8 2-2 2z" fill="#FB929F"/></g><path d="M43.6 28.1l-7.2 5.2v14.5h5.9v-3.6c0-.8.6-1.4 1.4-1.4.8 0 1.4.6 1.4 1.4v3.6H51V33.3l-7.4-5.2z" fill="#0B40C0"/></g></svg>
